<svg xmlns="http://www.w3.org/2000/svg" xmlns:xlink="http://www.w3.org/1999/xlink" width="500" zoomAndPan="magnify" viewBox="0 0 375 374.999991" height="500" preserveAspectRatio="xMidYMid meet" version="1.0"><defs><clipPath id="02db266174"><path d="M 339 116.25 L 374.664062 116.25 L 374.664062 147 L 339 147 Z M 339 116.25 " clip-rule="nonzero"/></clipPath><clipPath id="1bc63ede21"><path d="M 339 116.25 L 374.664062 116.25 L 374.664062 145.78125 L 339 145.78125 Z M 339 116.25 " clip-rule="nonzero"/></clipPath><clipPath id="49a00cace5"><path d="M 20 220 L 63.769531 220 L 63.769531 329.234375 L 20 329.234375 Z M 20 220 " clip-rule="nonzero"/></clipPath><clipPath id="520a51e5b7"><path d="M 312.371094 220 L 356 220 L 356 329.234375 L 312.371094 329.234375 Z M 312.371094 220 " clip-rule="nonzero"/></clipPath><clipPath id="8080bd4491"><path d="M 20 37.5 L 356 37.5 L 356 287 L 20 287 Z M 20 37.5 " clip-rule="nonzero"/></clipPath></defs><path fill="#dc4437" d="M 46.316406 128.726562 L 34.429688 128.726562 L 31.1875 142.546875 L 41.816406 146.507812 L 46.316406 128.726562 " fill-opacity="1" fill-rule="nonzero"/><path fill="#dc4437" d="M 32.265625 144.597656 C 29.203125 148.398438 8.839844 146.507812 5.175781 145.367188 C 0.4375 143.882812 0.910156 124.09375 3.789062 122.5625 C 11.738281 118.34375 36.265625 113.304688 36.699219 119.230469 C 37.304688 127.425781 37.128906 138.558594 32.265625 144.597656 " fill-opacity="1" fill-rule="nonzero"/><path fill="#d3362d" d="M 7.203125 125.972656 C 13.402344 122.679688 29.699219 118.882812 36.765625 120.199219 C 36.75 119.871094 36.726562 119.546875 36.699219 119.230469 C 36.265625 113.304688 11.738281 118.34375 3.789062 122.5625 C 0.910156 124.09375 0.4375 143.882812 5.175781 145.367188 C 5.4375 145.445312 5.800781 145.535156 6.222656 145.621094 C 4.167969 139.601562 4.945312 127.167969 7.203125 125.972656 " fill-opacity="1" fill-rule="nonzero"/><path fill="#dc4437" d="M 329.953125 128.726562 L 341.84375 128.726562 L 345.089844 142.546875 L 334.457031 146.507812 L 329.953125 128.726562 " fill-opacity="1" fill-rule="nonzero"/><g clip-path="url(#02db266174)"><path fill="#dc4437" d="M 344.003906 144.597656 C 347.070312 148.398438 367.425781 146.507812 371.097656 145.367188 C 375.84375 143.882812 375.371094 124.09375 372.480469 122.5625 C 364.546875 118.34375 340.011719 113.300781 339.570312 119.230469 C 338.960938 127.425781 339.140625 138.558594 344.003906 144.597656 " fill-opacity="1" fill-rule="nonzero"/></g><g clip-path="url(#1bc63ede21)"><path fill="#d3362d" d="M 372.480469 122.5625 C 364.546875 118.34375 340.011719 113.300781 339.570312 119.230469 C 339.550781 119.546875 339.523438 119.871094 339.507812 120.199219 C 346.578125 118.882812 362.875 122.679688 369.070312 125.972656 C 371.335938 127.167969 372.113281 139.601562 370.058594 145.621094 C 370.476562 145.535156 370.839844 145.445312 371.097656 145.367188 C 375.84375 143.882812 375.371094 124.09375 372.480469 122.5625 " fill-opacity="1" fill-rule="nonzero"/></g><path fill="#4d1f0f" d="M 86.324219 297.601562 C 86.324219 302.5625 82.875 306.621094 78.664062 306.621094 L 57.910156 306.621094 C 53.691406 306.621094 50.25 302.5625 50.25 297.601562 L 50.25 224.699219 C 50.25 219.742188 53.691406 215.683594 57.910156 215.683594 L 78.664062 215.683594 C 82.875 215.683594 86.324219 219.742188 86.324219 224.699219 L 86.324219 297.601562 " fill-opacity="1" fill-rule="nonzero"/><g clip-path="url(#49a00cace5)"><path fill="#663f30" d="M 63.617188 318.414062 C 63.617188 324.367188 59.488281 329.234375 54.425781 329.234375 L 29.558594 329.234375 C 24.507812 329.234375 20.371094 324.367188 20.371094 318.414062 L 20.371094 231.007812 C 20.371094 225.0625 24.507812 220.199219 29.558594 220.199219 L 54.425781 220.199219 C 59.488281 220.199219 63.617188 225.0625 63.617188 231.007812 L 63.617188 318.414062 " fill-opacity="1" fill-rule="nonzero"/></g><path fill="#4d1f0f" d="M 289.949219 297.601562 C 289.949219 302.5625 293.398438 306.621094 297.617188 306.621094 L 318.363281 306.621094 C 322.574219 306.621094 326.027344 302.5625 326.027344 297.601562 L 326.027344 224.699219 C 326.027344 219.742188 322.574219 215.683594 318.363281 215.683594 L 297.617188 215.683594 C 293.398438 215.683594 289.949219 219.742188 289.949219 224.699219 L 289.949219 297.601562 " fill-opacity="1" fill-rule="nonzero"/><g clip-path="url(#520a51e5b7)"><path fill="#663f30" d="M 312.652344 318.414062 C 312.652344 324.367188 316.785156 329.234375 321.84375 329.234375 L 346.714844 329.234375 C 351.777344 329.234375 355.910156 324.367188 355.910156 318.414062 L 355.910156 231.007812 C 355.910156 225.0625 351.777344 220.199219 346.714844 220.199219 L 321.84375 220.199219 C 316.785156 220.199219 312.652344 225.0625 312.652344 231.007812 L 312.652344 318.414062 " fill-opacity="1" fill-rule="nonzero"/></g><path fill="#582a1a" d="M 346.714844 220.199219 L 321.84375 220.199219 C 316.785156 220.199219 312.652344 225.0625 312.652344 231.007812 L 312.652344 302.542969 C 326.386719 302.835938 334.734375 303.171875 337.136719 303.503906 C 338.371094 303.695312 339.625 303.796875 340.871094 303.796875 L 340.882812 303.796875 C 346.347656 303.796875 351.566406 301.867188 355.910156 298.351562 L 355.910156 231.007812 C 355.910156 225.0625 351.777344 220.199219 346.714844 220.199219 " fill-opacity="1" fill-rule="nonzero"/><path fill="#582a1a" d="M 63.617188 231.007812 C 63.617188 225.0625 59.488281 220.199219 54.425781 220.199219 L 29.558594 220.199219 C 24.507812 220.199219 20.371094 225.0625 20.371094 231.007812 L 20.371094 298.339844 C 24.710938 301.867188 29.929688 303.796875 35.394531 303.796875 C 36.640625 303.796875 37.898438 303.699219 39.09375 303.511719 C 41.507812 303.175781 49.871094 302.84375 63.617188 302.542969 L 63.617188 231.007812 " fill-opacity="1" fill-rule="nonzero"/><g clip-path="url(#8080bd4491)"><path fill="#dc4437" d="M 354.640625 184.941406 C 354.378906 180.429688 338.726562 159.398438 337.613281 154.160156 C 327.960938 108.882812 304.902344 63.421875 294.90625 52.082031 C 284.90625 40.742188 202.1875 37.5 188.132812 37.5 C 174.085938 37.5 91.375 40.742188 81.367188 52.082031 C 71.367188 63.421875 48.3125 108.882812 38.660156 154.160156 C 37.542969 159.398438 21.902344 180.429688 21.636719 184.941406 C 21.367188 189.457031 14.335938 290.152344 36.496094 286.664062 C 45.363281 285.28125 114.609375 284.585938 188.132812 284.585938 C 261.65625 284.585938 330.914062 285.28125 339.777344 286.664062 C 361.941406 290.152344 354.914062 189.457031 354.640625 184.941406 " fill-opacity="1" fill-rule="nonzero"/></g><path fill="#e35b4f" d="M 317.265625 130.847656 L 188.132812 122.28125 L 59.011719 130.847656 C 40.507812 155.933594 50.621094 166.710938 56.882812 168.28125 C 65.507812 170.4375 72.921875 175.136719 88.5625 172.207031 C 122.882812 165.796875 253.394531 165.796875 287.714844 172.207031 C 303.351562 175.136719 310.769531 170.4375 319.390625 168.28125 C 325.648438 166.710938 334.28125 151.238281 317.265625 130.847656 " fill-opacity="1" fill-rule="nonzero"/><path fill="#e6e6e6" d="M 43.257812 168.117188 C 39.746094 170.355469 36.613281 194.882812 38.753906 196.914062 C 42.71875 200.671875 105.488281 213.550781 105.609375 205.921875 C 105.789062 194.625 98.261719 177.089844 96.773438 175.847656 C 91.734375 171.652344 48.628906 164.675781 43.257812 168.117188 " fill-opacity="1" fill-rule="nonzero"/><path fill="#b2b2b2" d="M 48.378906 173.21875 C 53.128906 170.175781 87.523438 175.3125 98.789062 179.445312 C 97.886719 177.472656 97.152344 176.164062 96.773438 175.847656 C 91.734375 171.652344 48.628906 164.675781 43.257812 168.117188 C 39.746094 170.355469 36.613281 194.882812 38.753906 196.914062 C 39.28125 197.410156 40.871094 198.082031 43.1875 198.824219 C 42.914062 191.617188 45.519531 175.050781 48.378906 173.21875 " fill-opacity="1" fill-rule="nonzero"/><path fill="#4d4d4d" d="M 69.367188 248.222656 C 69.367188 252.582031 65.824219 256.121094 61.457031 256.121094 C 57.09375 256.121094 53.554688 252.582031 53.554688 248.222656 C 53.554688 243.859375 57.09375 240.320312 61.457031 240.320312 C 65.824219 240.320312 69.367188 243.859375 69.367188 248.222656 " fill-opacity="1" fill-rule="nonzero"/><path fill="#e6e6e6" d="M 61.457031 253.3125 C 58.652344 253.3125 56.367188 251.023438 56.367188 248.222656 C 56.367188 245.417969 58.652344 243.128906 61.457031 243.128906 C 64.269531 243.128906 66.5625 245.417969 66.5625 248.222656 C 66.5625 251.023438 64.269531 253.3125 61.457031 253.3125 " fill-opacity="1" fill-rule="nonzero"/><path fill="#29b6f6" d="M 293.917969 59.554688 C 284.972656 55.40625 211.023438 51.273438 188.132812 51.273438 L 188.132812 51.277344 C 165.253906 51.277344 91.308594 55.40625 82.363281 59.554688 C 82.363281 59.554688 52.453125 124 56.769531 130.847656 C 61.101562 137.679688 82.714844 127.964844 188.132812 127.964844 C 293.558594 127.964844 315.179688 137.679688 319.503906 130.847656 C 323.824219 124 293.917969 59.554688 293.917969 59.554688 " fill-opacity="1" fill-rule="nonzero"/><path fill="#e6e6e6" d="M 333.019531 168.117188 C 336.527344 170.355469 339.664062 194.882812 337.523438 196.914062 C 333.554688 200.671875 270.78125 213.550781 270.664062 205.921875 C 270.480469 194.625 278.003906 177.089844 279.492188 175.847656 C 284.542969 171.652344 327.652344 164.675781 333.019531 168.117188 " fill-opacity="1" fill-rule="nonzero"/><path fill="#b2b2b2" d="M 333.019531 168.117188 C 327.652344 164.675781 284.542969 171.652344 279.492188 175.847656 C 279.125 176.164062 278.386719 177.472656 277.484375 179.445312 C 288.753906 175.3125 323.144531 170.175781 327.902344 173.21875 C 330.761719 175.050781 333.367188 191.617188 333.089844 198.824219 C 335.402344 198.082031 336.988281 197.410156 337.523438 196.914062 C 339.664062 194.882812 336.527344 170.355469 333.019531 168.117188 " fill-opacity="1" fill-rule="nonzero"/><path fill="#b2b2b2" d="M 188.132812 173.601562 C 174.089844 173.601562 107.046875 174.6875 107.046875 174.6875 C 109.484375 178.199219 117.320312 206.261719 124.078125 208.289062 C 130.832031 210.328125 161.375 213.5625 188.132812 213.5625 C 214.898438 213.5625 245.441406 210.328125 252.203125 208.289062 C 258.953125 206.261719 266.796875 178.199219 269.222656 174.6875 C 269.222656 174.6875 202.183594 173.601562 188.132812 173.601562 " fill-opacity="1" fill-rule="nonzero"/><path fill="#808080" d="M 252.203125 201.164062 C 245.441406 202.941406 214.898438 205.769531 188.132812 205.769531 C 161.375 205.769531 130.832031 202.941406 124.078125 201.164062 C 118.386719 199.660156 111.921875 182.011719 108.570312 174.652344 C 107.589844 174.667969 107.046875 174.6875 107.046875 174.6875 C 109.484375 178.199219 117.320312 206.261719 124.078125 208.289062 C 130.832031 210.328125 161.375 213.5625 188.132812 213.5625 C 214.898438 213.5625 245.441406 210.328125 252.203125 208.289062 C 258.953125 206.261719 266.796875 178.199219 269.222656 174.6875 C 269.222656 174.6875 268.679688 174.667969 267.703125 174.652344 C 264.351562 182.011719 257.890625 199.660156 252.203125 201.164062 " fill-opacity="1" fill-rule="nonzero"/><path fill="#4d4d4d" d="M 188.132812 245.96875 C 167.324219 245.96875 97.5 246.238281 91.910156 244.617188 C 91.910156 244.617188 101.90625 271.625 109.75 271.355469 C 117.589844 271.082031 181.917969 271.355469 188.132812 271.355469 C 194.355469 271.355469 258.683594 271.082031 266.519531 271.355469 C 274.367188 271.625 284.363281 244.617188 284.363281 244.617188 C 278.777344 246.238281 208.957031 245.96875 188.132812 245.96875 " fill-opacity="1" fill-rule="nonzero"/><path fill="#333333" d="M 282.0625 250.292969 C 282.667969 248.878906 283.171875 247.648438 283.558594 246.6875 L 283.566406 246.675781 C 283.8125 246.050781 284.011719 245.542969 284.144531 245.199219 L 284.1875 245.101562 C 284.230469 244.980469 284.269531 244.871094 284.300781 244.792969 L 284.324219 244.726562 L 284.363281 244.617188 C 278.777344 246.238281 208.957031 245.96875 188.132812 245.96875 C 167.324219 245.96875 97.5 246.238281 91.910156 244.617188 C 91.910156 244.617188 91.933594 244.664062 91.957031 244.734375 L 91.980469 244.785156 C 92.003906 244.859375 92.042969 244.96875 92.097656 245.109375 L 92.128906 245.199219 C 92.261719 245.535156 92.453125 246.027344 92.699219 246.628906 L 92.742188 246.742188 C 92.863281 247.042969 92.996094 247.375 93.144531 247.730469 L 93.148438 247.746094 C 93.453125 248.488281 93.804688 249.335938 94.210938 250.269531 L 94.269531 250.398438 C 97.695312 258.320312 104.253906 271.539062 109.75 271.355469 C 110.578125 271.328125 112.070312 271.300781 114.023438 271.289062 C 108.824219 270.324219 102.855469 258.582031 99.921875 252.113281 C 120.046875 252.964844 170.894531 252.789062 188.132812 252.789062 C 205.382812 252.789062 256.230469 252.964844 276.351562 252.113281 C 273.421875 258.582031 267.445312 270.324219 262.253906 271.289062 C 264.210938 271.300781 265.695312 271.328125 266.519531 271.355469 C 272.027344 271.539062 278.59375 258.296875 282.011719 250.378906 L 282.0625 250.292969 " fill-opacity="1" fill-rule="nonzero"/><path fill="#e35b4f" d="M 188.390625 219.089844 C 166.714844 219.089844 55.609375 213.246094 31.1875 204.914062 C 23.027344 202.136719 24.09375 226.210938 31.1875 227.070312 C 46.9375 228.960938 112.925781 236.007812 188.390625 236.007812 L 188.390625 219.089844 " fill-opacity="1" fill-rule="nonzero"/><path fill="#e35b4f" d="M 188.390625 219.089844 C 210.070312 219.089844 321.164062 213.246094 345.59375 204.914062 C 353.75 202.136719 352.6875 226.210938 345.59375 227.070312 C 329.847656 228.960938 263.859375 236.007812 188.390625 236.007812 L 188.390625 219.089844 " fill-opacity="1" fill-rule="nonzero"/><path fill="#4d4d4d" d="M 322.726562 248.222656 C 322.726562 252.582031 319.1875 256.121094 314.816406 256.121094 C 310.449219 256.121094 306.914062 252.582031 306.914062 248.222656 C 306.914062 243.859375 310.449219 240.320312 314.816406 240.320312 C 319.1875 240.320312 322.726562 243.859375 322.726562 248.222656 " fill-opacity="1" fill-rule="nonzero"/><path fill="#e6e6e6" d="M 314.816406 253.3125 C 312.011719 253.3125 309.726562 251.023438 309.726562 248.222656 C 309.726562 245.417969 312.011719 243.128906 314.816406 243.128906 C 317.628906 243.128906 319.917969 245.417969 319.917969 248.222656 C 319.917969 251.023438 317.628906 253.3125 314.816406 253.3125 " fill-opacity="1" fill-rule="nonzero"/><path fill="#54c5f8" d="M 64.839844 133.277344 C 63.722656 133.277344 62.738281 133.238281 61.875 133.15625 L 112.394531 55.230469 C 117.382812 54.792969 122.683594 54.378906 128.144531 54.039062 L 77.191406 132.558594 C 71.875 132.992188 67.863281 133.277344 64.839844 133.277344 " fill-opacity="1" fill-rule="nonzero"/><path fill="#e3695f" d="M 205.921875 51.691406 C 205.410156 51.675781 204.90625 51.652344 204.40625 51.636719 C 204.90625 51.652344 205.410156 51.671875 205.925781 51.6875 L 205.921875 51.691406 " fill-opacity="1" fill-rule="nonzero"/><path fill="#54c5f8" d="M 106.335938 130.335938 L 156.949219 52.316406 C 169.84375 51.65625 181.265625 51.28125 188.132812 51.28125 C 192.191406 51.28125 197.816406 51.417969 204.40625 51.636719 C 204.90625 51.652344 205.410156 51.675781 205.921875 51.691406 L 156.289062 128.265625 C 135.734375 128.703125 119.355469 129.488281 106.335938 130.335938 " fill-opacity="1" fill-rule="nonzero"/><path fill="#e3695f" d="M 248.460938 54.011719 C 246.933594 53.902344 245.398438 53.796875 243.855469 53.695312 C 245.398438 53.796875 246.933594 53.902344 248.460938 54.011719 " fill-opacity="1" fill-rule="nonzero"/><path fill="#54c5f8" d="M 225.347656 128.386719 C 216.59375 128.175781 207.039062 128.019531 196.597656 127.984375 C 196.300781 127.984375 195.996094 127.984375 195.699219 127.980469 L 243.855469 53.695312 C 245.398438 53.796875 246.933594 53.902344 248.460938 54.011719 C 256.992188 54.621094 265.199219 55.296875 272.253906 56.042969 L 225.347656 128.386719 " fill-opacity="1" fill-rule="nonzero"/><path fill="#e3695f" d="M 301.210938 75.828125 C 300.890625 75.097656 300.578125 74.382812 300.273438 73.683594 C 300.578125 74.378906 300.894531 75.09375 301.214844 75.824219 L 301.210938 75.828125 " fill-opacity="1" fill-rule="nonzero"/><path fill="#54c5f8" d="M 266.011719 130.082031 C 262.621094 129.894531 259.011719 129.675781 255.183594 129.488281 L 296.632812 65.542969 C 297.632812 67.773438 298.886719 70.546875 300.273438 73.683594 C 300.578125 74.382812 300.890625 75.097656 301.210938 75.828125 L 266.011719 130.082031 " fill-opacity="1" fill-rule="nonzero"/><path fill="#d3362d" d="M 82.363281 64.671875 C 91.308594 60.519531 165.253906 56.382812 188.132812 56.382812 C 211.023438 56.382812 284.972656 60.519531 293.917969 64.671875 C 293.917969 64.671875 316.554688 113.445312 319.585938 130.632812 C 323.304688 122.890625 293.917969 59.554688 293.917969 59.554688 C 284.972656 55.40625 211.023438 51.273438 188.132812 51.273438 L 188.132812 51.277344 C 165.253906 51.277344 91.308594 55.40625 82.363281 59.554688 C 82.363281 59.554688 52.96875 122.886719 56.6875 130.628906 C 59.722656 113.441406 82.363281 64.671875 82.363281 64.671875 " fill-opacity="1" fill-rule="nonzero"/></svg>