<?xml version="1.0" standalone="no"?>
<!DOCTYPE svg PUBLIC "-//W3C//DTD SVG 20010904//EN"
 "http://www.w3.org/TR/2001/REC-SVG-20010904/DTD/svg10.dtd">
<svg version="1.0" xmlns="http://www.w3.org/2000/svg"
 width="1024.000000pt" height="1024.000000pt" viewBox="0 0 1024.000000 1024.000000"
 preserveAspectRatio="xMidYMid meet">

<g transform="translate(0.000000,1024.000000) scale(0.100000,-0.100000)"
fill="#000000" stroke="none">
<path d="M6996 10093 c-4 -82 -14 -210 -22 -286 -15 -132 -14 -139 3 -152 27
-20 472 -25 531 -7 41 13 42 15 27 32 -9 10 -46 29 -82 41 -78 28 -109 61
-119 127 -6 41 7 248 22 355 l6 37 -180 0 -179 0 -7 -147z"/>
<path d="M2129 10212 c-28 -11 -99 -76 -99 -89 0 -7 -3 -13 -8 -13 -4 0 -13
-15 -21 -32 -8 -18 -19 -36 -25 -41 -15 -11 17 -33 75 -52 l49 -17 57 33 c76
42 93 58 93 83 0 23 -42 90 -73 119 -22 18 -24 19 -48 9z"/>
<path d="M9974 9798 c-11 -33 -35 -181 -54 -343 -5 -38 -20 -146 -35 -240 -29
-193 -29 -195 49 -195 51 0 162 33 187 56 29 27 23 42 -31 75 -28 17 -55 40
-61 52 -21 37 -8 173 42 437 10 58 19 117 19 132 0 32 -24 48 -74 48 -27 0
-36 -5 -42 -22z"/>
<path d="M118 9584 c-40 -21 -48 -30 -54 -62 -7 -36 5 -211 29 -417 l12 -100
35 -5 c20 -4 41 -10 48 -14 7 -4 37 -2 68 4 l56 12 -7 35 c-3 19 -15 48 -25
65 -23 39 -36 120 -49 318 -10 139 -13 157 -32 173 -26 21 -23 21 -81 -9z"/>
<path d="M5875 9125 c-71 -25 -247 -88 -391 -142 l-261 -97 -6 -131 c-3 -71
-11 -236 -16 -365 -6 -129 -14 -387 -17 -572 -7 -384 0 -363 -95 -271 -52 51
-58 54 -78 41 -41 -25 -12 -77 84 -146 28 -20 52 -39 55 -43 8 -11 141 -93
215 -133 39 -21 87 -50 107 -63 l38 -25 70 26 c114 42 189 34 275 -29 23 -16
20 -34 31 176 l7 137 -109 61 c-111 62 -138 69 -192 50 -25 -9 -37 -7 -72 11
-41 21 -42 23 -35 58 4 20 77 213 162 427 222 558 393 1018 393 1056 0 27 -17
24 -165 -26z"/>
<path d="M1902 8820 c-12 -5 -35 -23 -52 -40 -26 -27 -28 -33 -18 -60 5 -17
18 -35 28 -40 15 -8 23 -2 44 34 14 24 40 56 57 70 17 15 29 29 27 31 -10 11
-65 14 -86 5z"/>
<path d="M8770 8780 c-6 -11 -8 -20 -5 -20 3 0 1 -9 -5 -20 -7 -14 -7 -20 0
-20 5 0 13 -1 18 -1 10 -2 21 71 11 77 -4 2 -13 -5 -19 -16z"/>
<path d="M10209 8745 c-25 -53 -20 -95 11 -95 18 0 20 7 20 70 0 39 -2 70 -5
70 -3 0 -14 -20 -26 -45z"/>
<path d="M2037 8725 c-23 -18 -56 -52 -74 -77 l-31 -44 27 -57 c15 -31 25 -59
22 -62 -2 -3 -10 8 -18 25 -12 29 -15 31 -50 24 -21 -3 -43 -13 -50 -22 -11
-13 -15 -13 -38 2 -29 19 -33 56 -10 96 36 63 1 120 -39 64 -12 -16 -29 -37
-39 -47 -14 -14 -17 -26 -12 -45 4 -15 8 -49 9 -77 1 -60 20 -90 80 -130 45
-30 57 -45 34 -45 -16 0 69 -77 105 -95 17 -8 37 -15 46 -15 23 0 2 -13 -64
-41 -43 -17 -78 -24 -122 -23 -66 1 -84 -14 -40 -33 16 -7 34 -6 65 4 52 18
70 12 83 -27 7 -19 18 -30 29 -30 28 0 34 19 15 40 -16 18 -15 19 27 30 78 20
192 68 196 82 2 9 1 9 -7 -2 -9 -12 -11 -12 -16 2 -4 10 -4 22 0 28 7 11 -50
48 -105 67 -43 15 -53 16 -45 3 3 -6 -1 -7 -10 -4 -30 12 1 25 63 27 50 2 68
7 104 34 l43 31 0 104 c0 94 -3 108 -30 162 -25 49 -36 61 -68 71 -35 12 -39
11 -80 -20z m-237 -280 c0 -8 -2 -15 -4 -15 -2 0 -6 7 -10 15 -3 8 -1 15 4 15
6 0 10 -7 10 -15z m330 -176 c0 -14 -16 -11 -29 5 -10 12 -8 13 8 9 12 -3 21
-9 21 -14z"/>
<path d="M3077 8667 c3 -57 1 -102 -4 -110 -23 -29 -17 -233 8 -263 26 -32 31
-14 24 84 -3 53 -9 108 -11 122 -3 16 1 12 9 -10 8 -19 19 -74 26 -121 7 -47
16 -91 21 -98 10 -18 56 -7 64 15 8 20 -12 57 -27 51 -8 -3 -12 9 -12 33 -1
24 -11 53 -29 80 -21 32 -32 71 -51 178 l-24 137 6 -98z"/>
<path d="M9560 8481 c0 -5 -14 -14 -31 -20 -27 -9 -31 -15 -26 -37 4 -21 -2
-29 -33 -49 -20 -13 -45 -23 -56 -22 -15 2 -20 -7 -25 -43 -4 -25 -3 -50 2
-56 10 -12 0 -56 -15 -66 -6 -4 -21 -8 -33 -8 -15 0 -20 -5 -16 -18 2 -10 -5
-26 -18 -37 -12 -11 -19 -14 -15 -7 12 21 -9 13 -22 -9 -11 -18 -11 -24 5 -41
21 -24 109 -68 137 -68 16 0 18 -5 12 -42 -3 -24 -7 -52 -9 -62 -2 -15 8 -22
48 -32 68 -18 112 -17 162 4 79 32 49 52 -80 52 -85 0 -98 9 -81 57 7 18 24
30 62 43 62 20 119 71 155 139 39 71 42 110 18 182 -34 96 -47 115 -91 133
-47 19 -50 19 -50 7z"/>
<path d="M1290 8409 c-13 -6 -96 -30 -183 -54 -87 -24 -160 -45 -161 -47 -2
-1 1 -41 5 -88 5 -47 11 -157 14 -245 l5 -160 48 2 c26 1 89 4 140 8 61 3 101
1 114 -6 21 -11 20 -12 -13 -30 -19 -10 -44 -18 -56 -19 -12 0 -24 -4 -28 -10
-3 -5 -11 -7 -18 -5 -17 6 -60 -32 -51 -46 17 -27 364 50 364 82 0 4 -19 14
-41 23 -38 15 -40 18 -24 30 19 14 18 36 -5 176 -4 30 -9 85 -9 123 -1 62 -10
82 -26 56 -4 -5 -18 -14 -31 -19 -18 -7 -24 -17 -25 -42 0 -18 -4 -42 -9 -53
l-9 -20 -2 20 c-3 32 -6 49 -9 60 -1 6 -2 14 -1 18 1 4 -8 3 -19 -3 -19 -10
-21 -20 -20 -123 2 -161 1 -177 -8 -177 -22 0 -57 207 -50 295 3 37 6 40 53
58 28 10 61 20 75 22 14 1 27 3 30 4 3 0 5 42 5 91 1 97 -1 100 -55 79z"/>
<path d="M50 8306 c0 -8 4 -17 9 -20 5 -4 7 3 4 14 -6 23 -13 26 -13 6z"/>
<path d="M135 8273 c2 -21 7 -74 10 -118 4 -69 3 -78 -9 -62 -15 19 -46 14
-46 -8 0 -8 7 -96 15 -195 12 -140 13 -185 4 -196 -9 -11 -9 -21 -1 -39 13
-28 31 -30 141 -19 67 7 79 20 28 29 -31 6 -32 9 -33 48 0 23 -6 90 -13 149
-7 59 -16 173 -19 254 -6 133 -9 148 -27 158 -11 6 -24 17 -28 24 -16 24 -27
11 -22 -25z"/>
<path d="M2206 8300 c12 -5 25 -13 29 -19 3 -6 12 -11 18 -11 7 1 1 10 -12 20
-13 11 -31 20 -40 19 -11 0 -10 -3 5 -9z"/>
<path d="M4170 8277 c0 -22 21 -67 32 -67 16 0 8 47 -12 65 -18 16 -20 16 -20
2z"/>
<path d="M3188 8254 c-52 -26 -67 -42 -48 -54 7 -4 9 -16 5 -29 -4 -12 -2 -21
4 -21 18 0 12 -19 -10 -31 -17 -9 -25 -7 -42 8 -12 11 -34 27 -49 36 -27 17
-28 17 -28 -2 0 -11 10 -26 22 -32 l22 -12 -23 -8 c-14 -6 -21 -15 -19 -26 3
-14 12 -17 43 -15 l40 2 -45 -18 c-45 -18 -64 -47 -39 -63 10 -6 10 -11 1 -21
-14 -17 -5 -216 10 -235 7 -9 7 -17 -1 -27 -8 -9 -10 -76 -6 -227 7 -286 7
-286 30 -304 17 -12 18 -14 3 -15 -19 0 -35 -57 -20 -72 11 -11 4 -58 -9 -58
-5 0 -9 11 -9 25 0 13 -7 28 -15 32 -8 5 -42 35 -75 67 -33 33 -63 56 -67 53
-15 -15 125 -187 153 -187 19 0 33 -32 23 -55 -5 -13 -8 -15 -8 -5 -1 8 -44
58 -96 110 -95 94 -96 95 -81 53 8 -23 34 -68 58 -100 l42 -58 -42 33 c-23 19
-42 38 -42 43 0 5 -7 9 -15 9 -12 0 -14 -7 -9 -27 4 -16 10 -30 13 -33 4 -3
24 -30 46 -60 l39 -55 -57 48 c-60 51 -61 47 -15 -40 29 -55 28 -65 -4 -36
-21 19 -23 10 -7 -38 17 -50 105 -152 178 -206 9 -6 13 -14 10 -18 -7 -6 -68
46 -149 128 -26 26 -50 47 -53 47 -3 0 -4 -35 -3 -77 2 -43 0 -80 -4 -83 -4
-3 -14 -34 -22 -70 l-15 -65 -6 65 c-4 36 -10 194 -14 352 -8 278 -9 287 -30
307 -12 12 -24 21 -26 21 -3 0 -7 -18 -11 -39 l-6 -40 -75 -12 c-41 -6 -83
-18 -92 -25 -17 -12 -17 -15 5 -56 12 -24 22 -45 22 -48 0 -3 -36 -17 -80 -30
l-80 -24 0 -67 c0 -90 20 -332 29 -341 3 -4 23 -2 43 4 32 9 40 8 68 -12 30
-21 31 -24 15 -36 -15 -12 -17 -25 -11 -125 9 -142 -9 -285 -36 -292 -13 -4
-19 2 -23 21 -3 15 -10 43 -15 63 -6 20 -10 54 -10 75 0 104 -7 191 -18 209
-9 16 -11 -32 -6 -220 3 -132 8 -246 10 -254 3 -11 18 -12 61 -8 49 5 62 2
101 -20 28 -17 46 -22 51 -15 10 17 102 29 151 19 29 -6 62 -24 93 -49 26 -22
50 -38 54 -35 3 3 7 28 8 55 3 40 0 54 -17 69 -38 34 -100 113 -84 107 9 -3
17 -1 17 5 1 6 2 14 3 19 0 4 13 23 28 42 28 36 68 122 68 145 0 7 -7 18 -15
25 -23 19 -18 32 8 19 31 -17 144 -105 193 -152 23 -21 46 -38 50 -36 12 5 19
-93 19 -249 0 -70 4 -130 9 -134 6 -4 5 -12 -2 -21 -7 -7 -10 -16 -7 -18 2 -3
5 -69 6 -147 1 -79 6 -145 10 -148 5 -3 23 2 41 10 18 8 49 17 68 21 66 12 65
11 66 70 2 67 27 108 93 154 55 37 107 41 142 11 15 -12 19 -19 10 -20 -7 0
-38 -25 -67 -56 -46 -49 -52 -61 -47 -86 4 -19 1 -33 -9 -41 -9 -7 -18 -24
-22 -38 -7 -30 10 -48 62 -69 34 -13 39 -25 46 -100 2 -25 7 -53 11 -62 10
-25 -17 -23 -41 3 -13 15 -26 19 -46 15 -33 -6 -106 14 -145 41 -53 38 -153
36 -153 -2 0 -12 6 -15 20 -11 11 3 30 9 42 12 19 6 18 2 -12 -36 -18 -23 -39
-44 -47 -47 -33 -13 5 -19 106 -17 89 2 112 0 123 -13 10 -13 9 -18 -7 -29
-10 -8 -24 -14 -31 -14 -6 0 -58 -18 -115 -40 -190 -73 -196 -80 -173 -162 8
-29 17 -115 20 -193 2 -77 6 -145 9 -152 2 -7 23 -17 47 -23 79 -22 287 18
313 59 3 6 -2 40 -12 76 -12 45 -14 68 -7 75 6 6 39 19 73 30 l62 18 8 -21
c14 -36 1 -167 -16 -167 -26 0 41 -80 184 -222 76 -75 152 -142 168 -148 17
-6 55 -13 85 -15 113 -8 145 -12 163 -20 12 -5 17 -3 17 9 0 9 11 38 25 64 14
26 25 57 25 69 0 29 16 38 23 12 5 -19 7 -19 61 8 l55 28 -5 143 c-3 78 -3
142 1 142 3 0 17 -8 32 -17 25 -17 25 -16 19 4 -6 18 -1 21 32 26 21 4 48 17
61 31 23 24 23 30 25 241 l1 217 -50 45 c-64 57 -101 77 -109 60 -3 -6 -4 -3
-3 8 1 12 -3 19 -10 17 -7 -1 -13 3 -13 8 0 6 -6 5 -14 -2 -10 -9 -11 -17 -4
-25 7 -9 7 -13 -2 -13 -9 0 -11 -11 -7 -35 3 -19 2 -35 -3 -35 -4 0 -11 24
-14 53 -4 28 -12 81 -17 117 -6 36 -9 81 -7 99 3 35 4 35 123 79 155 56 158
57 176 36 13 -15 12 -16 -9 -10 -13 4 -28 4 -35 -1 -7 -6 -41 -20 -77 -33 -76
-26 -170 -71 -170 -80 0 -8 64 -68 120 -112 47 -37 110 -78 98 -64 -4 5 2 17
13 29 10 11 19 27 19 34 0 17 15 16 30 -2 7 -8 23 -15 36 -15 13 0 24 -4 24
-10 0 -5 -4 -10 -9 -10 -10 0 -8 -47 3 -57 4 -4 16 -2 26 5 11 7 24 12 30 12
5 0 45 17 89 37 l79 37 -87 84 c-47 47 -79 81 -71 77 39 -22 109 -73 148 -108
49 -46 51 -39 17 46 -13 34 -29 83 -34 108 -6 26 -29 98 -51 160 -22 63 -40
123 -40 135 0 17 74 222 84 232 4 3 224 -147 279 -190 l38 -31 102 47 c56 25
107 46 112 46 6 0 18 -18 27 -41 15 -35 19 -39 37 -30 37 20 39 11 11 -56 -16
-38 -64 -156 -106 -263 -76 -192 -77 -195 -65 -240 7 -25 28 -108 47 -185 18
-77 36 -151 40 -165 l6 -25 13 25 c20 35 18 24 -4 -35 -32 -83 -40 -74 -136
148 -31 71 -68 148 -82 170 -15 23 -39 71 -55 106 -16 35 -32 61 -35 58 -3 -3
-18 -65 -33 -137 -15 -72 -30 -133 -33 -136 -2 -3 -21 35 -40 83 -34 84 -37
88 -65 86 -35 -3 -174 -61 -257 -107 l-60 -33 -1 -71 c-1 -39 1 -82 3 -96 l5
-25 53 30 c43 24 68 31 127 34 l73 4 60 -46 c33 -26 77 -60 98 -77 29 -23 48
-30 90 -32 28 -1 90 -12 137 -24 65 -17 91 -20 112 -12 23 8 26 7 21 -7 -5
-13 -3 -14 7 -4 9 8 19 9 31 3 11 -7 20 -7 24 0 12 19 22 10 17 -15 -5 -27
-17 -30 -56 -15 -22 8 -28 6 -42 -15 -20 -31 -11 -46 25 -39 26 6 28 4 24 -19
-3 -13 0 -28 6 -32 18 -11 140 33 254 91 27 14 56 24 65 22 17 -4 -64 -52
-210 -124 l-78 -39 0 -54 c0 -46 -2 -52 -15 -41 -8 7 -15 22 -15 34 -1 74 -63
28 -73 -54 -8 -63 -28 -130 -39 -130 -5 0 -20 11 -34 25 -14 14 -29 25 -33 25
-10 0 -21 85 -21 168 l0 62 -59 46 c-42 33 -61 54 -63 73 -4 35 -33 33 -122
-11 l-69 -33 -4 -195 c-2 -107 -6 -217 -7 -245 -2 -27 -4 -65 -5 -83 -2 -51
-24 -49 -83 8 -29 28 -66 61 -82 72 -26 20 -28 20 -18 2 12 -22 56 -64 125
-119 l48 -38 92 11 c98 12 127 29 127 76 0 17 18 28 103 63 56 24 123 48 149
55 l47 12 103 -71 c57 -38 135 -85 173 -104 93 -45 93 -45 72 -21 -18 20 -18
20 1 26 11 4 33 4 49 2 112 -21 126 -35 117 -123 -3 -34 -9 -75 -13 -90 -7
-26 -8 -25 -20 25 -7 28 -17 52 -22 52 -4 0 -69 -32 -143 -72 -138 -73 -146
-80 -146 -140 0 -16 -4 -28 -8 -28 -5 0 -9 19 -9 43 0 52 -7 67 -33 67 -14 0
-18 5 -13 16 5 14 2 16 -20 10 -26 -6 -48 8 -25 17 7 2 10 7 6 11 -7 8 -49
-11 -59 -27 -4 -5 -3 -23 1 -38 10 -33 2 -96 -12 -105 -5 -3 -5 -11 0 -17 4
-7 4 -97 -1 -202 -4 -104 -6 -273 -3 -375 3 -102 6 -193 6 -202 0 -21 30 -24
61 -7 14 7 18 16 14 27 -8 20 -7 169 1 230 6 39 8 42 23 28 10 -9 49 -16 106
-20 99 -6 147 -14 156 -28 3 -5 23 -1 44 7 21 9 48 14 60 11 28 -7 200 -119
238 -154 l27 -26 0 27 c0 17 -5 27 -15 27 -8 0 -15 5 -15 10 0 6 -7 10 -15 10
-8 0 -15 3 -15 8 0 4 -24 20 -53 35 -76 40 -93 55 -80 68 8 8 6 16 -9 31 -11
11 -17 22 -15 25 5 4 273 -130 285 -142 3 -2 -5 -16 -17 -31 -29 -36 -27 -44
19 -95 22 -24 40 -47 40 -51 0 -14 26 -9 81 16 30 13 73 26 97 29 l42 5 0 -33
c0 -41 -15 -53 -30 -25 -6 11 -15 20 -20 20 -17 0 -50 -68 -50 -103 0 -20 -5
-39 -11 -43 -7 -4 0 -13 16 -24 40 -26 68 -13 78 36 4 22 10 51 14 67 3 15 12
27 20 27 21 0 83 -35 123 -68 35 -30 35 -30 18 -59 -22 -38 -12 -51 51 -73 61
-22 146 -81 130 -91 -6 -3 7 -5 30 -4 23 1 50 10 61 20 10 9 26 15 34 12 19
-8 11 -41 -25 -95 -16 -24 -29 -47 -29 -51 0 -4 -7 -22 -15 -38 -9 -17 -16
-48 -18 -69 -2 -36 0 -39 23 -38 30 1 61 -33 57 -63 -3 -19 -1 -21 14 -13 26
14 45 12 89 -9 21 -10 68 -26 104 -36 36 -10 66 -21 66 -24 0 -8 -82 -47 -92
-44 -4 2 -32 -3 -61 -11 -34 -9 -68 -11 -93 -7 -43 8 -141 56 -258 125 -41 24
-72 38 -69 30 3 -8 9 -14 14 -14 5 0 9 -4 9 -9 0 -5 -21 -9 -47 -9 -27 0 -50
-1 -53 -2 -3 -1 -18 -3 -35 -5 -140 -18 -201 -29 -207 -39 -11 -20 -76 -18
-125 4 -55 24 -66 20 -23 -10 36 -26 33 -35 -17 -44 -31 -5 -52 1 -115 32 -65
31 -77 40 -72 57 3 11 8 47 11 81 5 60 5 62 -32 102 l-37 41 5 88 c6 88 -1 70
-18 -53 -6 -41 -13 -54 -31 -63 -22 -10 -26 -17 -28 -63 -2 -21 -9 -22 -62 -7
-27 8 -49 24 -64 46 -12 18 -26 33 -31 33 -20 0 -128 -76 -124 -87 3 -8 -12
-17 -40 -24 -45 -11 -45 -12 -45 -55 0 -43 -1 -43 -29 -38 -16 4 -32 1 -35 -5
-4 -6 -2 -11 3 -11 20 0 11 -18 -11 -23 -21 -6 -21 -7 -3 -27 10 -11 13 -20 7
-20 -22 0 -24 -41 -4 -63 24 -27 35 -77 16 -77 -10 0 -11 -6 -3 -27 7 -20 6
-30 -5 -41 -17 -17 -36 -8 -36 17 0 10 -11 31 -25 46 -20 25 -25 26 -30 12 -4
-9 -4 -20 -1 -26 4 -5 2 -12 -3 -16 -5 -3 -9 -18 -8 -32 2 -29 17 -35 127 -51
30 -5 45 -12 45 -22 0 -11 -16 -16 -66 -18 l-65 -3 4 -31 c4 -28 3 -30 -19
-23 -13 4 -60 32 -104 62 -94 64 -53 25 53 -49 69 -50 79 -64 64 -99 -6 -13
-29 1 -122 73 -204 159 -360 303 -360 331 0 26 11 21 60 -25 116 -110 130
-110 26 0 -58 61 -83 99 -71 110 3 3 16 -5 30 -18 32 -30 32 -17 0 22 -28 33
-34 78 -10 78 8 0 18 14 23 33 5 21 15 33 29 35 17 3 23 14 32 66 6 34 11 101
11 149 0 75 3 89 21 106 l21 19 -21 7 c-19 6 -21 15 -23 158 l-3 152 -35 0
c-53 0 -62 27 -56 160 3 61 7 191 8 290 2 160 0 180 -14 183 -12 2 -20 21 -28
60 -6 31 -25 93 -42 137 -16 44 -34 100 -39 125 -5 25 -12 52 -16 60 -3 8 -5
21 -4 28 1 6 0 12 -3 12 -15 0 -176 -75 -201 -94 -16 -12 -38 -25 -47 -29 -16
-6 -17 -42 -16 -529 1 -454 0 -528 -14 -563 -15 -38 -16 -27 -12 195 3 244 -1
310 -19 310 -7 0 -8 -89 -3 -287 7 -323 11 -363 35 -363 13 0 13 -2 2 -9 -11
-7 -13 -83 -14 -427 0 -231 4 -439 9 -464 l10 -45 154 -6 c85 -3 165 -9 178
-13 13 -5 22 -3 22 3 0 6 18 10 43 8 36 -2 62 -16 156 -82 211 -150 266 -197
266 -230 1 -29 2 -30 75 -41 80 -14 113 -23 174 -49 30 -13 45 -14 69 -5 17 5
33 7 36 3 7 -9 6 -9 103 -24 40 -6 117 -12 170 -13 54 0 98 -3 98 -6 0 -2 -24
-29 -52 -59 -34 -35 -42 -47 -23 -33 17 11 47 38 68 60 l39 40 89 0 89 0 0
-30 c0 -38 -13 -50 -219 -198 -96 -69 -239 -174 -319 -233 -80 -60 -181 -131
-226 -159 -45 -28 -86 -58 -93 -66 -8 -10 -49 -17 -130 -24 -65 -5 -174 -17
-243 -26 l-125 -17 -9 -68 c-6 -47 -13 -67 -23 -67 -8 0 -42 15 -76 34 -34 19
-134 66 -222 104 -88 39 -245 108 -350 154 -280 125 -519 215 -615 233 -71 13
-127 36 -153 63 -14 15 -51 81 -82 147 -196 418 -219 446 -475 585 -63 34
-131 76 -150 94 -65 60 -125 98 -105 66 3 -5 1 -10 -6 -10 -7 0 3 -16 22 -36
l34 -35 -30 6 c-18 5 -56 34 -95 72 -35 36 -74 72 -86 79 -11 8 -36 35 -55 62
l-34 47 32 -20 c17 -11 56 -44 87 -72 31 -29 61 -53 66 -53 6 0 10 -6 10 -14
0 -7 7 -19 15 -26 12 -10 15 -10 15 2 0 17 -102 123 -177 184 -28 23 -82 57
-120 75 -238 113 -409 202 -417 217 -15 26 -10 254 8 369 29 186 37 165 -127
327 -78 78 -178 173 -221 211 -43 39 -99 89 -125 113 -25 23 -59 46 -76 51
-19 6 -23 10 -11 10 18 1 18 2 -3 25 -13 13 -38 27 -56 30 -32 6 -59 26 -36
26 6 0 11 4 11 10 0 5 -7 7 -15 4 -10 -4 -15 0 -15 14 0 13 -9 22 -26 26 -14
4 -24 12 -22 18 5 14 -19 39 -61 64 -17 10 -31 22 -31 26 0 5 -12 13 -26 18
-16 6 -23 14 -18 22 4 7 4 10 -1 6 -4 -4 -14 -3 -21 3 -7 5 -15 6 -17 1 -8
-12 16 -57 30 -57 16 0 103 -94 103 -111 0 -16 -16 -19 -24 -5 -3 5 -15 7 -26
4 -10 -3 -32 4 -49 16 -39 28 -44 27 -26 -9 11 -20 23 -30 39 -30 16 0 26 -7
29 -22 7 -24 -3 -41 -10 -20 -3 6 -11 12 -19 12 -17 0 -19 -31 -2 -48 17 -17
2 -28 -17 -12 -8 7 -15 23 -15 36 0 14 -6 24 -14 24 -7 0 -19 7 -26 15 -7 8
-16 12 -22 9 -5 -3 -15 0 -23 6 -19 16 -57 3 -53 -18 2 -10 13 -21 26 -27 23
-10 29 -29 12 -40 -6 -3 -17 1 -26 9 -8 9 -21 16 -28 16 -8 0 -19 7 -26 15 -7
8 -20 15 -29 15 -10 0 -12 -3 -5 -8 6 -4 19 -22 28 -40 11 -22 23 -32 32 -28
7 3 13 0 11 -6 -1 -6 9 -14 22 -17 16 -4 25 -14 26 -29 2 -27 7 -33 33 -35 14
-1 19 -7 17 -24 -1 -12 4 -24 12 -27 8 -3 12 -10 9 -15 -3 -5 -30 14 -58 42
-29 29 -54 51 -55 49 -2 -1 -10 -2 -20 -2 -15 0 -15 2 1 19 12 14 14 21 6 26
-7 4 -17 2 -22 -3 -14 -14 -71 45 -63 66 7 19 -57 82 -84 82 -12 0 -21 4 -21
10 0 5 -9 14 -21 20 -17 10 -20 9 -18 -7 2 -10 0 -24 -5 -32 -5 -8 -4 -16 4
-21 7 -4 9 -13 6 -19 -4 -6 0 -11 8 -11 21 0 21 26 0 34 -17 7 -10 26 10 26
18 0 97 -70 91 -80 -9 -15 14 -60 28 -54 8 3 14 -1 15 -8 0 -7 2 -22 4 -33 2
-16 -2 -19 -21 -17 -17 3 -21 0 -16 -10 3 -7 -12 7 -34 31 -22 24 -38 47 -35
52 3 5 -1 6 -9 3 -9 -3 -24 6 -36 22 -12 15 -24 24 -28 20 -4 -4 -3 -10 3 -14
6 -4 14 -20 18 -35 5 -20 11 -27 21 -23 18 6 20 -10 4 -20 -7 -4 -20 4 -30 17
-15 20 -17 21 -16 5 3 -30 -20 -30 -27 0 -4 15 -17 41 -30 58 -12 17 -22 38
-21 46 1 8 0 9 -2 2 -3 -7 -13 -10 -28 -6 -22 5 -44 -11 -30 -24 3 -3 10 -1
14 7 6 9 13 1 24 -26 17 -44 14 -55 -9 -27 -13 16 -15 17 -10 2 3 -12 0 -18
-9 -18 -8 0 -15 5 -15 10 0 6 -7 10 -15 10 -20 0 -19 -26 1 -34 8 -3 23 -2 33
3 13 7 28 3 57 -17 63 -42 94 -69 94 -81 0 -6 6 -11 14 -11 22 0 41 -29 28
-42 -9 -9 -19 -5 -39 14 -80 75 -122 108 -137 108 -9 0 -16 4 -16 9 0 5 -9 7
-19 4 -17 -4 -61 26 -61 43 0 9 -27 33 -32 29 -3 -3 -15 6 -28 20 -13 14 -26
25 -30 25 -3 0 -4 -20 -3 -45 1 -25 -2 -45 -7 -45 -6 0 -10 14 -10 30 0 23 -5
30 -19 30 -11 0 -22 6 -24 13 -3 6 -6 2 -6 -10 -1 -13 3 -23 8 -23 5 0 7 -9 4
-20 -3 -11 0 -20 6 -20 6 0 11 -7 11 -16 0 -21 -24 -12 -29 11 -3 20 -24 45
-38 45 -13 1 -63 79 -63 99 0 23 -23 33 -40 18 -9 -8 -11 -9 -7 -1 4 7 0 17
-8 24 -12 10 -15 9 -15 -8 0 -11 8 -34 17 -51 20 -34 11 -51 -17 -33 -17 10
-21 8 -31 -10 l-12 -23 -10 22 c-5 13 -18 25 -28 28 -11 4 -19 13 -19 21 0 8
-4 14 -10 14 -26 0 -5 -51 23 -56 4 -1 10 -2 13 -3 4 0 -5 -12 -20 -26 l-26
-24 2 -498 3 -497 205 -48 c113 -26 293 -67 401 -92 198 -45 372 -104 491
-168 75 -40 232 -202 331 -342 39 -56 107 -148 150 -205 43 -57 81 -110 84
-117 10 -27 -40 -84 -96 -111 -44 -21 -76 -27 -171 -33 -161 -11 -181 -22
-265 -149 -75 -115 -113 -151 -158 -151 -18 -1 -98 -1 -179 0 -166 1 -229 -8
-371 -52 -101 -31 -147 -60 -172 -108 -8 -15 -23 -77 -34 -136 -11 -60 -26
-127 -33 -149 -17 -50 -63 -82 -134 -90 l-54 -7 0 -344 0 -344 3602 2 c3412 3
3603 4 3606 20 2 10 -12 39 -30 64 -31 43 -33 51 -31 118 1 39 9 94 17 121 23
73 21 135 -7 176 -19 29 -21 42 -16 89 7 62 82 219 128 269 37 39 120 63 348
101 103 17 220 38 258 47 l70 15 165 170 c91 94 166 174 168 178 2 5 -53 46
-122 91 -118 78 -156 110 -86 76 16 -9 28 -11 25 -6 -7 10 24 7 43 -4 7 -5 19
-1 29 9 12 12 14 19 6 21 -14 5 -300 183 -334 208 l-24 17 26 -6 c18 -4 29 0
39 14 8 11 22 20 32 20 9 0 23 9 31 20 12 17 18 18 48 10 50 -15 87 -12 97 6
8 15 13 14 53 -3 24 -11 118 -61 208 -112 l164 -92 26 23 c14 12 79 74 144
138 65 63 115 107 111 97 -5 -13 -1 -17 17 -17 13 0 36 -6 50 -14 25 -13 30
-11 80 29 45 36 55 40 67 29 7 -8 26 -14 42 -14 16 0 32 -5 36 -11 3 -6 17 -9
30 -6 14 2 27 0 30 -5 3 -4 10 -6 15 -3 18 12 8 -14 -18 -47 -15 -18 -76 -88
-136 -156 -60 -68 -107 -125 -105 -128 3 -2 58 50 122 116 65 66 123 117 128
113 6 -3 8 -1 4 5 -3 6 -2 13 4 17 5 3 10 0 10 -8 0 -10 9 -14 25 -13 14 0 25
4 25 8 0 4 14 5 30 2 16 -4 30 -2 30 3 0 5 8 10 18 10 9 1 28 4 42 5 16 2 24
-2 22 -9 -1 -7 2 -13 8 -13 5 0 10 4 10 9 0 5 8 11 18 13 12 3 5 10 -25 26
-23 12 -44 25 -46 29 -3 5 40 9 95 10 57 0 105 6 111 12 14 14 50 15 42 1 -3
-5 3 -10 15 -10 11 0 23 7 26 15 9 24 65 18 107 -11 32 -21 55 -27 135 -33 75
-6 101 -5 113 5 10 9 29 12 55 8 34 -5 61 -8 147 -13 16 -1 16 -3 2 -31 -18
-35 -14 -37 22 -12 15 9 24 11 20 5 -6 -9 -3 -11 7 -7 14 6 16 188 16 1801 l0
1794 -87 -60 c-49 -34 -142 -101 -208 -151 -66 -49 -178 -128 -250 -176 -71
-48 -140 -96 -152 -107 -13 -11 -23 -16 -23 -10 0 6 -15 13 -32 17 -43 8 -118
45 -118 57 0 6 4 7 10 4 5 -3 7 0 4 8 -3 8 6 38 20 66 34 66 33 80 -3 42 l-30
-32 -38 17 c-21 9 -59 18 -84 19 -25 1 -51 5 -57 9 -6 4 -28 9 -49 12 -27 3
-45 13 -61 34 -45 58 -97 28 -128 -72 -16 -51 -21 -58 -44 -58 -35 0 -50 -12
-51 -41 -1 -28 20 -88 39 -107 6 -7 12 -17 12 -22 0 -17 61 -41 153 -61 137
-29 156 -44 126 -102 -17 -32 -29 -37 -74 -31 -43 6 -52 9 -130 45 -27 13 -53
24 -57 24 -12 0 -50 55 -57 83 -4 17 -20 33 -41 44 -19 10 -38 24 -42 32 -5 8
-53 39 -108 68 -55 29 -100 58 -100 63 0 12 65 193 150 417 34 91 60 172 57
180 -7 17 -284 166 -325 174 -25 5 -32 3 -32 -9 0 -9 -34 -103 -76 -209 -88
-225 -151 -398 -239 -663 -68 -201 -129 -358 -122 -312 2 15 0 27 -4 27 -5 0
-9 5 -9 11 0 5 5 7 10 4 6 -4 10 5 10 19 0 18 5 26 18 26 11 0 13 3 6 8 -14 9
-15 62 -2 62 6 0 5 7 -2 15 -7 8 -8 15 -3 15 17 0 39 106 45 218 1 23 7 42 13
42 5 0 3 5 -5 10 -11 7 -12 12 -3 21 7 7 9 24 6 40 -4 19 -1 29 6 29 8 0 10 8
6 19 -3 11 -2 28 4 38 22 42 51 114 51 127 0 8 5 18 11 21 6 4 8 13 5 21 -3 8
0 14 6 14 6 0 8 3 5 7 -4 3 0 17 9 31 12 19 13 26 4 32 -9 5 -9 9 -1 14 6 4
11 17 11 28 0 28 28 125 46 161 8 16 14 35 14 42 0 8 5 26 12 42 24 58 35 112
24 116 -8 3 -7 11 2 26 7 12 10 26 7 32 -4 5 3 49 14 97 11 48 27 133 36 189
13 91 13 109 0 165 -8 35 -15 74 -14 88 0 21 5 16 26 -25 15 -27 42 -84 61
-125 28 -62 33 -68 29 -38 -6 42 -25 84 -81 181 l-39 69 12 81 c6 44 7 85 3
89 -5 5 -24 11 -43 14 -30 5 -52 -3 -140 -52 -191 -105 -224 -130 -237 -171
-6 -21 -16 -55 -23 -76 -6 -21 -17 -41 -25 -44 -13 -5 -12 -9 1 -29 16 -24 12
-50 -6 -39 -12 8 -11 -2 1 -26 8 -15 7 -19 -4 -19 -20 0 -31 -38 -16 -55 18
-22 -11 -29 -57 -15 -40 12 -192 110 -193 123 0 4 11 12 24 17 28 10 32 23 47
180 6 65 16 118 22 122 7 4 57 37 112 75 112 76 115 82 103 183 -18 155 -29
175 -38 72 l-5 -57 -150 -62 c-82 -34 -154 -64 -159 -66 -5 -2 -15 -55 -22
-118 -7 -62 -25 -191 -40 -286 -21 -135 -31 -173 -43 -176 -10 -2 5 -16 42
-40 57 -38 57 -38 52 -80 -21 -192 -31 -270 -57 -462 -34 -254 -39 -287 -82
-650 -18 -148 -31 -275 -29 -280 2 -6 33 -33 69 -60 77 -59 87 -72 74 -111
-21 -68 -36 -102 -53 -118 -9 -10 -17 -22 -17 -27 0 -5 -8 -17 -18 -27 -18
-18 -22 -18 -65 -4 -26 8 -47 19 -47 24 0 5 -4 6 -10 3 -14 -8 -13 3 9 162 11
76 22 156 25 178 3 22 16 119 30 215 14 96 28 195 31 220 3 25 12 99 21 165
35 279 85 768 78 774 -2 2 -48 -16 -102 -42 -129 -61 -241 -106 -272 -109 -22
-3 -25 1 -28 35 -6 70 -44 40 -76 -59 -18 -55 -45 -87 -68 -82 -7 2 -13 -1
-13 -7 0 -13 26 -9 90 11 59 19 75 30 75 55 0 29 17 31 67 9 l47 -20 -70 -34
c-38 -18 -92 -47 -121 -64 -28 -17 -74 -39 -102 -49 -58 -20 -52 -2 -76 -241
-9 -84 -18 -159 -22 -168 -5 -15 -3 -15 23 0 16 9 41 26 55 37 l27 21 63 -29
c35 -17 87 -38 114 -48 96 -34 105 -38 105 -49 0 -31 -109 -152 -198 -222
-105 -81 -130 -95 -267 -144 -49 -18 -135 -53 -190 -78 l-100 -45 -50 28 c-54
29 -52 25 8 -19 l39 -28 -6 -67 c-4 -36 -15 -185 -26 -331 -29 -396 -30 -405
-42 -545 -6 -71 -11 -135 -11 -142 0 -7 -4 -10 -9 -7 -8 5 -9 12 -11 102 -1
28 -6 52 -11 52 -4 0 -5 11 -2 24 4 16 0 30 -11 42 -10 9 -16 28 -15 41 2 12
0 23 -5 23 -8 0 -26 35 -38 78 -3 12 -11 22 -16 22 -5 0 -9 5 -9 10 0 17 -60
141 -83 172 -12 17 -30 28 -44 28 -14 0 -23 6 -23 15 0 8 -12 22 -26 31 -22
15 -27 15 -36 3 -7 -11 -11 -11 -15 -1 -2 6 -12 12 -20 12 -17 0 -18 -27 12
455 8 127 17 256 21 288 l6 58 31 -36 c47 -55 58 -58 123 -34 68 26 143 22
255 -11 39 -12 73 -20 75 -17 2 2 -29 14 -71 26 -41 12 -96 33 -122 47 -58 29
-69 29 -124 4 -51 -23 -98 -25 -124 -6 -26 19 -13 42 32 57 21 6 97 41 168 76
119 60 133 64 161 54 58 -21 60 -17 62 162 2 89 7 221 13 292 9 124 11 131 38
157 22 21 31 42 41 95 20 114 40 294 40 355 0 57 0 58 -29 58 -24 0 -32 -8
-59 -62 -32 -63 -57 -147 -73 -243 -4 -27 -17 -97 -28 -155 -11 -58 -30 -179
-41 -270 -24 -186 -28 -206 -41 -193 -6 6 -10 63 -10 129 1 146 -9 285 -18
279 -4 -2 -14 -43 -21 -92 -11 -78 -31 -125 -47 -110 -3 3 2 14 11 23 9 9 15
18 13 20 -9 9 -35 -8 -46 -29 -35 -65 -36 -66 -55 -52 -15 11 -17 21 -11 54 5
31 3 42 -8 46 -17 7 -117 -35 -133 -56 -6 -8 -14 -61 -16 -118 l-5 -103 40 6
c21 4 52 13 68 21 33 17 53 19 44 5 -23 -37 -264 -147 -339 -156 -48 -5 -55
-3 -123 41 -40 26 -73 53 -73 61 0 8 25 71 54 141 57 132 126 314 126 329 0 5
-23 33 -50 62 -28 30 -50 57 -50 62 0 9 68 65 113 93 24 15 27 24 27 68 0 49
-1 51 -25 47 -14 -3 -25 -1 -25 4 0 21 82 216 105 250 25 37 80 178 117 298
12 42 20 99 21 160 2 107 -6 128 -66 174 -33 25 -37 26 -103 17 -108 -16 -201
-68 -310 -176 -120 -117 -162 -203 -195 -390 -10 -56 -14 -65 -20 -45 -4 14
-7 19 -8 13 -1 -15 -41 -18 -41 -4 0 5 -25 13 -55 16 -48 6 -56 11 -61 32 -12
46 4 186 27 246 13 35 19 61 13 65 -154 110 -560 374 -781 509 -139 86 -162
105 -143 128 13 15 11 177 -2 190 -4 4 -18 5 -32 1 -21 -5 -25 -13 -31 -59 -8
-68 -11 -254 -5 -260 3 -3 27 -1 54 5 39 8 47 13 43 28 -5 18 -3 18 32 2 56
-25 447 -274 584 -372 42 -30 73 -56 67 -58 -5 -2 -10 -10 -10 -18 0 -9 -5
-12 -12 -8 -7 4 0 -7 16 -24 17 -18 26 -32 20 -32 -5 0 -2 -5 6 -10 13 -8 12
-10 -3 -10 -12 0 -16 -4 -11 -12 6 -10 4 -10 -8 0 -13 10 -17 10 -22 -3 -3 -9
-1 -25 4 -36 10 -18 4 -24 -22 -20 -4 0 -5 -6 -2 -14 4 -8 10 -13 14 -10 9 5
20 -18 20 -41 0 -8 -8 -14 -17 -14 -14 0 -11 -6 12 -25 17 -14 24 -24 16 -25
-8 0 -11 -3 -8 -7 4 -3 1 -13 -6 -21 -9 -13 -9 -14 1 -8 11 6 17 -10 13 -36 0
-4 -2 -32 -3 -62 -1 -30 -5 -53 -9 -50 -4 2 -4 -9 1 -25 5 -17 3 -45 -3 -69
-11 -42 -3 -68 13 -42 10 16 23 8 26 -15 1 -8 -5 -15 -13 -15 -14 0 -14 -3 2
-20 10 -11 15 -26 11 -36 -4 -11 1 -22 14 -31 11 -8 18 -18 15 -23 -3 -5 -1
-11 5 -15 17 -10 4 -20 -30 -23 -18 -1 -41 -7 -51 -13 -11 -5 -19 -6 -19 -1 0
5 -6 9 -14 9 -8 0 -12 -6 -8 -15 4 -11 1 -13 -8 -7 -9 5 -11 4 -6 -3 4 -7 3
-12 -3 -12 -15 0 -23 18 -11 25 14 8 13 35 -1 35 -6 0 -8 -7 -5 -16 5 -12 2
-15 -10 -10 -12 5 -14 1 -9 -17 4 -12 -5 -3 -19 21 -26 43 -51 116 -49 139 0
7 -2 11 -6 8 -4 -2 -13 13 -20 33 -18 50 -48 121 -66 155 -8 16 -15 33 -15 39
0 5 -14 39 -30 75 l-30 65 -31 -26 c-17 -14 -42 -26 -55 -26 -51 0 -62 -14
-58 -79 3 -73 9 -84 40 -78 34 6 39 -8 9 -27 -15 -10 -27 -30 -31 -52 -9 -49
-24 -25 -24 39 0 40 -3 48 -17 45 -12 -2 -20 -18 -25 -48 -15 -84 -31 -151
-38 -155 -4 -3 -15 4 -25 15 -13 14 -20 55 -31 171 -8 84 -20 159 -26 166 -7
9 -22 12 -42 8 -101 -19 -129 -29 -152 -54 -23 -25 -24 -32 -24 -163 0 -83 4
-139 10 -143 7 -4 8 36 4 123 -4 72 -3 139 1 149 14 31 23 -30 24 -170 l1
-127 58 -45 c31 -24 65 -50 76 -58 17 -12 2 -19 -145 -71 -90 -32 -172 -62
-181 -67 -15 -8 -17 -20 -12 -87 2 -42 6 -222 8 -400 3 -262 2 -322 -9 -318
-8 3 -15 -6 -18 -22 -7 -35 0 -40 18 -16 13 18 14 16 15 -23 0 -36 -3 -41 -17
-36 -10 4 -23 14 -30 22 -6 9 -15 12 -20 8 -4 -5 0 -14 10 -21 9 -7 17 -19 17
-26 0 -8 9 -11 25 -8 23 5 25 2 25 -31 1 -56 10 -143 15 -152 3 -4 13 -5 22
-2 12 5 14 3 7 -8 -9 -15 -6 -148 4 -164 4 -5 5 -20 3 -33 -1 -13 4 -25 13
-28 9 -3 13 -10 10 -16 -3 -5 -12 -4 -22 4 -14 11 -15 10 -7 -7 12 -28 16
-315 5 -334 -6 -11 -9 -12 -10 -3 0 7 -4 11 -8 8 -5 -3 -9 14 -11 37 -1 23 -6
44 -12 45 -13 5 -11 30 3 34 6 2 8 10 4 16 -11 18 -23 14 -30 -10 -6 -23 -6
-23 -31 7 -14 17 -23 38 -21 49 3 10 -4 28 -15 39 -17 19 -21 20 -29 7 -8 -12
-10 -11 -10 5 0 23 -29 107 -30 88 0 -7 -6 -13 -14 -13 -9 0 -12 7 -9 21 4 15
0 22 -15 26 -14 3 -21 13 -20 27 0 11 -3 29 -7 39 -4 10 -3 17 3 17 14 0 26
-20 27 -44 0 -11 6 -21 14 -24 20 -7 7 69 -15 85 -14 10 -15 15 -4 28 10 12
10 18 0 30 -19 23 4 18 25 -5 17 -19 17 -20 0 -20 -16 0 -16 -1 -1 -22 28 -40
37 -69 26 -84 -13 -15 16 -68 32 -58 6 4 6 10 -1 17 -14 14 -15 77 -1 77 5 0
14 -9 20 -19 5 -11 18 -22 29 -26 10 -3 21 -15 24 -25 4 -14 10 -18 23 -13 15
6 14 9 -9 29 -15 13 -27 30 -27 39 0 8 -7 15 -15 15 -8 0 -15 5 -15 11 0 6 7
8 17 5 15 -6 15 -4 -2 14 -22 24 -29 26 -21 5 7 -20 -8 -19 -25 2 -11 13 -11
17 -1 21 8 2 1 17 -23 43 -19 21 -35 44 -35 50 0 6 -7 9 -15 5 -9 -3 -19 3
-25 14 -6 11 -16 20 -23 20 -14 0 -40 37 -33 48 2 4 -4 19 -15 32 -13 18 -19
20 -19 10 0 -9 5 -21 10 -26 12 -12 3 -44 -12 -44 -5 0 -6 -10 -3 -21 5 -16 3
-20 -6 -17 -15 5 -16 35 -10 193 1 44 -1 95 -5 114 -5 26 -3 37 9 46 9 6 18
26 19 43 1 17 9 34 17 37 12 5 13 49 8 308 -4 166 -10 356 -14 421 -5 105 -4
119 9 113 9 -3 24 0 34 7 11 7 30 15 44 18 14 3 63 19 110 36 l85 30 3 124 c1
67 -1 193 -5 278 -9 184 -3 178 -142 129 -64 -22 -91 -36 -91 -48 -1 -14 -2
-14 -11 2 -12 20 -39 23 -40 5 -2 -32 3 -329 7 -380 3 -50 1 -58 -14 -58 -10
0 -94 -29 -187 -64 -94 -35 -193 -71 -222 -80 l-52 -17 -43 48 c-101 112 -109
118 -164 114 -16 -2 -23 5 -28 30 -3 18 -4 34 -1 37 3 3 5 -1 5 -9 0 -35 227
22 420 104 19 8 39 15 45 15 18 1 16 21 -4 31 -27 15 -29 34 -36 306 -6 267
-10 374 -26 710 -10 220 -12 230 -34 251 -24 22 -32 68 -38 209 -2 57 -3 60
-27 57 -21 -4 -22 -2 -11 12 11 13 11 17 -3 22 -10 4 -15 12 -12 20 3 7 -2 18
-10 24 -8 8 -14 30 -14 55 0 45 -8 76 -19 74 -3 -1 -27 -12 -53 -25z m72 -204
c-8 -5 -22 -10 -30 -10 -13 0 -13 1 0 10 8 5 22 10 30 10 13 0 13 -1 0 -10z
m2514 -1096 c17 -44 -9 -232 -42 -307 -23 -52 -81 -104 -124 -112 -18 -3 -58
-5 -88 -3 l-55 3 1 58 c3 115 110 274 234 345 64 37 66 37 74 16z m-2751 -30
c9 -4 17 -13 17 -21 0 -11 -7 -9 -30 7 -30 22 -40 37 -17 26 6 -3 20 -9 30
-12z m-28 -84 c3 -5 1 -10 -4 -10 -6 0 -11 5 -11 10 0 6 2 10 4 10 3 0 8 -4
11 -10z m-46 -73 c-2 -3 -15 10 -28 27 l-24 31 28 -27 c16 -15 27 -29 24 -31z
m815 -78 c4 -43 8 -226 7 -341 -1 -69 -19 -78 -20 -10 -1 26 -3 67 -6 92 -5
47 5 313 12 307 2 -2 5 -24 7 -48z m-836 -67 c37 -38 80 -78 95 -90 16 -12 27
-26 25 -31 -3 -10 -198 168 -198 182 0 15 12 5 78 -61z m1682 -58 c0 -9 -5
-14 -12 -12 -18 6 -21 28 -4 28 9 0 16 -7 16 -16z m-1195 -54 c-3 -5 -12 -10
-18 -10 -7 0 -6 4 3 10 19 12 23 12 15 0z m1250 -10 c-3 -5 -14 -10 -23 -10
-15 0 -15 2 -2 10 20 13 33 13 25 0z m-1664 -37 c13 -16 12 -17 -3 -4 -10 7
-18 15 -18 17 0 8 8 3 21 -13z m2046 -79 c-3 -3 -12 -4 -19 -1 -8 3 -5 6 6 6
11 1 17 -2 13 -5z m-1967 -74 c0 -5 -4 -10 -9 -10 -6 0 -13 5 -16 10 -3 6 1
10 9 10 9 0 16 -4 16 -10z m637 -62 c-3 -8 -6 -5 -6 6 -1 11 2 17 5 13 3 -3 4
-12 1 -19z m13 -38 c0 -5 -4 -10 -10 -10 -5 0 -10 5 -10 10 0 6 5 10 10 10 6
0 10 -4 10 -10z m1324 -54 c-3 -8 -1 -17 5 -21 17 -10 13 -42 -5 -49 -9 -3
-20 -4 -25 0 -5 3 -9 0 -9 -7 0 -7 8 -9 21 -6 14 4 29 -2 43 -15 11 -12 15
-17 7 -13 -8 4 -17 2 -23 -6 -8 -11 -8 -10 -4 4 5 14 2 17 -12 13 -11 -4 -27
2 -39 13 -11 11 -24 17 -29 13 -4 -4 -4 1 -1 10 4 11 2 15 -7 12 -7 -3 -19 3
-27 12 -12 16 -12 17 3 11 12 -4 15 -2 12 7 -4 9 3 14 21 14 15 0 32 5 38 11
16 16 37 14 31 -3z m-664 -102 c0 -8 -4 -12 -10 -9 -5 3 -10 10 -10 16 0 5 5
9 10 9 6 0 10 -7 10 -16z m-1020 -34 c-20 -13 -33 -13 -25 0 3 6 14 10 23 10
15 0 15 -2 2 -10z m1023 -16 c-6 -17 -23 -9 -23 11 0 8 6 12 14 9 8 -3 12 -12
9 -20z m7 -65 c0 -5 -4 -9 -10 -9 -5 0 -10 7 -10 16 0 8 5 12 10 9 6 -3 10
-10 10 -16z m274 -375 c22 -9 20 -21 -6 -27 -29 -8 -41 1 -25 18 15 17 12 16
31 9z m-180 -90 c22 -8 20 -34 -2 -34 -19 0 -42 18 -42 32 0 9 22 10 44 2z
m78 -71 c-6 -2 -9 -10 -5 -16 4 -7 0 -8 -11 -4 -10 4 -20 7 -22 7 -3 0 -2 5 1
10 3 6 16 10 28 9 12 0 16 -3 9 -6z m-792 -555 c-1 -8 -6 -6 -15 6 -20 26 -19
42 0 22 8 -8 15 -21 15 -28z m2 -36 c6 -21 -18 -59 -29 -48 -4 4 -1 11 6 15 8
5 11 17 6 30 -3 11 -2 21 3 21 5 0 12 -8 14 -18z m-16 -139 c-12 -12 -29 15
-21 34 7 17 8 16 18 -5 5 -12 7 -25 3 -29z m5475 7 c-7 -3 -9 -13 -6 -21 4
-10 -1 -15 -14 -15 -19 0 -19 2 -3 28 8 15 20 24 25 21 5 -3 4 -9 -2 -13z
m-3426 -24 c17 -12 14 -15 -39 -35 -98 -36 -130 -23 -53 23 48 29 65 32 92 12z
m-2007 -34 c2 -18 -1 -32 -7 -32 -15 0 -23 18 -11 25 7 4 6 13 -1 27 -9 16 -8
19 3 16 7 -3 14 -19 16 -36z m5592 3 c-14 -17 -45 -21 -35 -5 4 6 11 8 16 5 5
-4 9 -1 9 4 0 6 5 11 11 11 8 0 8 -5 -1 -15z m-5543 -40 c0 -11 -4 -12 -14 -4
-7 6 -13 13 -13 15 0 2 6 4 13 4 8 0 14 -7 14 -15z m4123 -67 c0 -13 -23 -5
-28 10 -2 7 2 10 12 6 9 -3 16 -11 16 -16z m-60 -98 c0 -5 -4 -10 -10 -10 -5
0 -10 5 -10 10 0 6 5 10 10 10 6 0 10 -4 10 -10z m-3922 -28 c6 -18 -15 -14
-22 4 -4 10 -1 14 6 12 6 -2 14 -10 16 -16z m3948 -46 c-6 -56 -14 -64 -88
-99 -45 -21 -59 -44 -24 -41 20 2 21 -12 2 -19 -10 -4 -12 -18 -9 -50 3 -25 0
-61 -7 -81 -11 -34 -13 -36 -29 -22 -24 22 -86 46 -116 46 -35 0 -26 -12 46
-60 62 -42 75 -62 37 -53 -21 4 -21 3 6 -22 36 -33 28 -44 -10 -12 -64 54
-265 130 -264 101 1 -10 59 -49 170 -115 l75 -44 -37 -3 c-37 -3 -67 11 -215
100 -18 11 -33 16 -33 11 0 -4 17 -17 38 -29 179 -101 172 -96 165 -123 -12
-55 -19 -56 -48 -12 -28 41 -82 84 -155 121 -32 16 -39 17 -44 5 -3 -9 0 -12
10 -8 16 6 20 -12 4 -22 -5 -3 -10 -10 -10 -14 0 -7 133 -98 184 -125 42 -23
96 -61 96 -68 0 -12 -28 -10 -35 2 -3 6 -11 10 -17 10 -7 0 0 -13 15 -28 30
-31 39 -64 11 -42 -8 8 -14 9 -13 4 3 -20 -1 -44 -10 -44 -4 0 -20 11 -34 24
-15 14 -37 28 -49 32 -13 3 -34 14 -48 24 -14 10 -36 21 -50 25 -14 4 -33 13
-44 21 -10 7 -24 10 -31 8 -6 -3 -18 2 -25 11 -7 8 -18 15 -25 15 -7 0 -19 10
-28 23 -8 12 -18 19 -22 15 -15 -14 5 -37 65 -74 144 -91 300 -195 300 -200 0
-16 -56 11 -138 66 -50 33 -94 60 -97 60 -4 0 -24 14 -45 30 -21 17 -42 30
-46 30 -5 0 -24 16 -43 35 l-33 33 28 43 c16 23 34 44 40 46 6 2 24 -10 40
-27 29 -32 204 -126 204 -111 0 5 -24 21 -52 36 -29 15 -67 38 -85 51 -17 13
-36 24 -41 24 -4 0 -18 10 -30 23 -15 16 -18 27 -12 37 5 8 7 22 4 31 -3 11
16 41 51 81 34 40 55 75 55 89 0 35 26 68 48 62 25 -6 74 56 91 115 12 41 14
43 42 37 26 -6 29 -4 29 19 0 13 6 28 13 33 10 7 120 16 241 19 l38 1 -6 -51z
m-3986 18 c0 -8 -4 -12 -10 -9 -5 3 -10 10 -10 16 0 5 5 9 10 9 6 0 10 -7 10
-16z m677 -416 c-3 -8 -6 -5 -6 6 -1 11 2 17 5 13 3 -3 4 -12 1 -19z m-4461
-236 c-11 -10 -15 4 -8 28 l7 25 3 -23 c2 -13 1 -26 -2 -30z m17 -42 c19 -23
23 -40 5 -22 -7 7 -20 12 -30 12 -11 0 -15 5 -12 15 8 20 16 19 37 -5z m821
14 c20 -8 11 -24 -14 -24 -13 0 -17 5 -14 15 7 17 7 17 28 9z m222 -6 c4 -6 3
-13 -3 -15 -20 -7 -2 -39 30 -53 31 -14 31 -15 7 -18 -17 -3 -31 4 -46 24 -31
37 -37 74 -13 74 10 0 21 -5 25 -12z m-1207 -57 c-15 -5 -22 6 -14 19 6 9 10
9 16 -1 5 -8 4 -15 -2 -18z m389 4 c15 -33 15 -35 -1 -35 -11 0 -37 39 -37 55
0 16 29 1 38 -20z m-225 1 c3 -8 0 -17 -7 -19 -10 -4 -12 1 -9 14 6 23 9 24
16 5z m1112 4 c3 -5 1 -10 -4 -10 -6 0 -11 5 -11 10 0 6 2 10 4 10 3 0 8 -4
11 -10z m-292 -14 c15 -12 24 -36 12 -36 -2 0 -18 9 -36 19 -20 12 -26 21 -17
24 19 8 21 8 41 -7z m-765 -43 c8 9 20 13 27 10 12 -4 11 -9 -3 -29 -20 -27
-28 -29 -48 -9 -10 10 -12 23 -7 42 l7 28 6 -29 c4 -26 7 -27 18 -13z m1086
24 c-3 -8 2 -20 11 -27 17 -14 20 -30 6 -30 -13 0 -43 49 -36 60 9 15 25 12
19 -3z m-1240 -12 c-6 -16 -24 -21 -24 -7 0 11 11 22 21 22 5 0 6 -7 3 -15z
m286 5 c0 -5 -2 -10 -4 -10 -3 0 -8 5 -11 10 -3 6 -1 10 4 10 6 0 11 -4 11
-10z m62 -18 c-8 -5 -10 -16 -6 -27 6 -16 4 -15 -14 3 -28 28 -28 32 6 32 18
0 23 -3 14 -8z m62 -41 c-6 -6 -34 20 -34 32 0 6 8 2 19 -9 10 -10 17 -21 15
-23z m56 19 c0 -5 -5 -10 -11 -10 -5 0 -7 5 -4 10 3 6 8 10 11 10 2 0 4 -4 4
-10z m-450 -16 c0 -8 -5 -12 -10 -9 -6 4 -8 11 -5 16 9 14 15 11 15 -7z m410
-45 c13 -24 13 -29 -3 -29 -19 0 -70 57 -63 69 9 13 52 -13 66 -40z m-330 23
c0 -5 -7 -9 -15 -9 -8 0 -12 4 -9 9 3 4 9 8 15 8 5 0 9 -4 9 -8z m1136 -19
c-7 -7 -26 7 -26 19 0 6 6 6 15 -2 9 -7 13 -15 11 -17z m-881 7 c3 -6 -1 -7
-9 -4 -18 7 -21 14 -7 14 6 0 13 -4 16 -10z m965 6 c0 -11 -19 -15 -25 -6 -3
5 1 10 9 10 9 0 16 -2 16 -4z m-855 -16 c3 -5 1 -10 -4 -10 -6 0 -11 5 -11 10
0 6 2 10 4 10 3 0 8 -4 11 -10z m-530 -20 c3 -5 1 -10 -4 -10 -6 0 -11 5 -11
10 0 6 2 10 4 10 3 0 8 -4 11 -10z m845 6 c0 -3 -4 -8 -10 -11 -5 -3 -10 -1
-10 4 0 6 5 11 10 11 6 0 10 -2 10 -4z m565 -16 c3 -6 -1 -7 -9 -4 -18 7 -21
14 -7 14 6 0 13 -4 16 -10z m-876 -126 l22 -36 -25 6 c-13 3 -26 2 -28 -4 -5
-14 -50 -17 -55 -3 -3 7 7 18 21 24 14 7 26 20 26 31 0 29 16 21 39 -18z
m-426 -26 c29 -44 35 -72 15 -66 -14 5 -57 76 -58 96 0 23 16 12 43 -30z m405
-71 c19 -18 22 -18 22 -4 0 11 8 17 24 17 14 0 28 5 31 10 3 6 10 10 15 10 8
0 70 -100 70 -113 0 -4 -10 -12 -22 -18 -21 -11 -22 -11 -10 4 16 19 6 45 -10
29 -7 -7 -19 -7 -34 -2 -31 12 -32 -4 -2 -24 12 -9 17 -16 10 -16 -7 0 -38 24
-68 52 -78 73 -101 122 -26 55z m922 -72 c0 -3 -6 -5 -13 -5 -20 0 -80 67 -72
80 4 7 21 -4 46 -30 21 -22 39 -42 39 -45z m5867 -3 c24 2 43 0 43 -5 0 -16
-31 -67 -41 -67 -15 0 -101 45 -129 68 l-25 20 55 -10 c30 -5 74 -8 97 -6z
m-6667 -82 c0 -5 -4 -10 -10 -10 -5 0 -10 5 -10 10 0 6 5 10 10 10 6 0 10 -4
10 -10z m234 -149 c17 -17 25 -31 19 -31 -18 0 -94 60 -88 70 8 13 33 -1 69
-39z m6043 -59 c-21 -4 -49 16 -41 29 3 5 17 1 32 -9 21 -14 23 -17 9 -20z
m191 -72 c-47 -78 -78 -100 -78 -55 0 32 33 85 62 101 34 18 41 -3 16 -46z
m-5933 -280 c3 -6 0 -10 -7 -10 -15 0 -38 19 -38 32 0 10 36 -8 45 -22z m101
-37 c-11 -12 -56 28 -56 50 0 20 2 20 31 -11 17 -18 29 -36 25 -39z m693 -52
c-7 -2 -23 9 -36 25 -35 44 -27 52 12 14 22 -21 31 -36 24 -39z m3639 -153 c2
-12 -11 -27 -42 -45 -25 -16 -46 -32 -46 -36 0 -5 5 -5 10 -2 12 8 13 -5 1
-24 -5 -8 -16 -11 -30 -6 -21 6 -21 8 -7 24 9 10 16 29 16 43 0 49 90 90 98
46z m-522 -233 c36 -27 98 -73 137 -102 132 -98 129 -93 125 -206 -1 -54 -5
-100 -8 -102 -3 -2 -29 19 -58 46 -29 27 -54 49 -57 49 -16 0 -227 169 -255
205 -15 18 -14 18 15 0 25 -16 21 -10 -17 32 -27 29 -48 55 -48 58 0 9 32 -12
69 -45 62 -55 52 -31 -11 29 -35 33 -61 62 -58 65 3 3 37 -19 74 -49 61 -49
86 -64 86 -51 0 2 -15 13 -32 23 -44 26 -128 103 -128 116 0 6 12 0 28 -14 54
-49 66 -53 26 -8 -69 77 -73 97 -10 47 30 -24 85 -65 122 -93z m-2885 -142
c27 -20 47 -39 44 -41 -6 -6 -68 34 -90 58 -28 31 -7 24 46 -17z m384 -124
c20 -18 33 -34 31 -37 -6 -5 -83 45 -92 60 -13 21 29 5 61 -23z m162 -55 c31
-23 43 -44 26 -44 -5 0 -26 16 -48 35 -46 40 -28 48 22 9z m433 -75 c0 -6 -4
-7 -10 -4 -5 3 -10 11 -10 16 0 6 5 7 10 4 6 -3 10 -11 10 -16z m80 -165 c0
-8 -4 -12 -10 -9 -5 3 -10 13 -10 21 0 8 5 12 10 9 6 -3 10 -13 10 -21z m30
-60 c0 -8 -4 -12 -10 -9 -5 3 -10 10 -10 16 0 5 5 9 10 9 6 0 10 -7 10 -16z
m3800 -228 c0 -2 -9 -6 -20 -9 -11 -3 -18 -1 -14 4 5 9 34 13 34 5z m-3680
-34 c0 -15 -2 -15 -10 -2 -13 20 -13 33 0 25 6 -3 10 -14 10 -23z m-496 -262
c62 -43 76 -48 76 -25 0 9 9 15 24 15 28 0 42 -16 38 -42 -2 -11 3 -18 13 -18
9 0 13 5 10 10 -10 16 6 12 54 -17 52 -30 61 -40 54 -60 -4 -9 4 -13 28 -13
39 0 28 -15 -18 -23 -23 -5 -38 -1 -57 14 -14 11 -58 35 -98 54 -40 19 -88 44
-105 55 -24 16 -33 18 -33 8 0 -7 51 -45 113 -83 94 -58 120 -70 161 -72 62
-2 80 -18 30 -26 -109 -18 -394 146 -394 226 0 50 29 49 104 -3z"/>
<path d="M7679 4153 c0 -11 -3 -13 -6 -5 -8 20 -51 14 -63 -9 -20 -36 3 -50
73 -44 68 5 80 12 75 46 -4 30 -37 37 -56 13 -13 -17 -14 -17 -9 -1 4 9 2 17
-3 17 -6 0 -10 -8 -11 -17z"/>
<path d="M2280 8250 c0 -5 4 -10 9 -10 5 0 11 -6 14 -14 6 -14 -61 -53 -104
-61 -29 -6 -93 -42 -113 -64 -19 -21 -19 -21 15 -21 33 -1 33 -1 14 -17 -20
-15 -19 -15 5 -9 38 9 136 20 130 13 -9 -9 -174 -74 -245 -95 -38 -12 -76 -26
-83 -30 -9 -6 -13 -47 -13 -148 0 -76 1 -141 2 -144 8 -19 4 -86 -5 -92 -8 -6
-7 -11 3 -17 10 -6 10 -10 1 -16 -14 -8 -3 -166 12 -176 6 -4 6 -15 -2 -29 -9
-17 -9 -21 0 -15 7 5 11 1 10 -11 -1 -11 -1 -21 0 -24 1 -3 3 -59 5 -125 1
-66 6 -184 10 -262 6 -109 5 -146 -5 -158 -7 -8 -8 -15 -4 -15 6 0 8 -74 6
-170 -3 -109 -1 -170 6 -170 5 0 13 -16 16 -35 6 -30 11 -35 44 -40 20 -4 47
-10 60 -16 13 -5 33 -9 45 -9 12 0 35 -7 51 -15 15 -8 41 -15 57 -15 22 0 29
-5 29 -19 0 -31 11 -51 28 -51 13 0 14 24 8 205 -7 203 -7 205 14 205 17 0 19
4 14 26 -6 25 -5 25 16 14 l23 -12 -7 73 c-3 41 -8 129 -12 196 l-6 122 63 18
63 19 -3 119 c-4 231 -31 821 -42 925 -8 78 -16 110 -30 126 -10 11 -19 28
-19 37 0 20 -20 22 -39 5 -11 -10 -14 -10 -18 0 -6 14 -23 16 -23 2z"/>
<path d="M3072 8213 c-10 -4 -8 -11 9 -29 25 -27 39 -31 39 -11 0 19 -32 45
-48 40z"/>
<path d="M40 8189 c0 -20 21 -49 35 -49 10 0 15 10 15 30 0 25 -4 30 -25 30
-14 0 -25 -5 -25 -11z"/>
<path d="M4176 8120 c2 -56 3 -60 13 -60 16 0 23 40 11 55 -7 8 -10 22 -6 30
3 8 0 15 -7 15 -8 0 -12 -15 -11 -40z"/>
<path d="M8565 8126 c-17 -34 -23 -101 -11 -113 9 -9 46 78 46 109 0 41 -17
43 -35 4z"/>
<path d="M8326 8134 c-9 -8 -16 -21 -16 -27 0 -7 -5 -41 -10 -77 -5 -36 -19
-141 -30 -235 -12 -93 -23 -179 -26 -191 -8 -30 19 -48 58 -40 53 10 61 19 47
49 -12 28 -10 57 26 367 20 170 20 170 -9 170 -14 0 -32 -7 -40 -16z"/>
<path d="M6330 8113 c-47 -6 -62 -20 -58 -57 3 -26 8 -32 38 -39 25 -6 45 -4
73 8 36 15 38 18 35 53 -3 40 -13 44 -88 35z"/>
<path d="M6431 7997 c-6 -8 -36 -22 -67 -33 -30 -10 -59 -23 -63 -29 -13 -16
-21 -118 -12 -134 8 -12 19 -12 67 -3 32 7 77 21 100 32 l41 20 6 72 c3 39 4
75 1 80 -8 13 -60 9 -73 -5z"/>
<path d="M4880 7973 c0 -33 -20 -204 -26 -229 -8 -32 14 -32 67 2 30 19 39 30
34 42 -4 9 -20 59 -36 110 -29 91 -39 109 -39 75z"/>
<path d="M8868 7983 c-15 -29 -30 -94 -24 -108 15 -41 58 18 54 74 -3 32 -21
52 -30 34z"/>
<path d="M4480 7885 c-5 -13 -12 -66 -16 -117 -4 -51 -10 -100 -14 -108 -5 -8
-11 -37 -15 -64 l-8 -49 39 7 c22 4 50 14 63 23 24 15 24 16 18 147 -3 73 -11
144 -16 159 -13 34 -38 35 -51 2z"/>
<path d="M9695 7793 c-126 -57 -235 -110 -242 -116 -7 -7 -23 -75 -37 -152
-39 -212 -49 -257 -64 -262 -9 -4 -6 -16 12 -47 23 -39 23 -43 8 -63 -10 -12
-26 -23 -37 -25 -19 -3 -54 -58 -55 -87 0 -19 107 -9 199 18 111 32 167 42
195 35 26 -6 29 -12 27 -49 -1 -26 14 -49 27 -41 6 3 14 21 17 39 10 47 21 56
76 63 56 7 63 14 78 69 14 52 47 105 65 105 23 0 30 -19 13 -38 -8 -9 -17 -35
-20 -57 -15 -99 -75 -416 -80 -422 -11 -10 -39 7 -44 27 -7 27 -31 25 -42 -2
-8 -22 -81 -450 -81 -476 0 -14 32 -11 130 14 65 16 204 32 315 37 l80 3 3 40
3 39 -83 -3 c-100 -4 -266 12 -280 26 -8 8 -7 34 1 89 24 148 92 487 103 506
9 17 17 18 60 13 35 -5 62 -2 92 9 41 16 59 45 28 45 -26 0 -102 54 -102 73 0
10 16 27 35 38 19 12 35 25 35 30 0 5 -44 31 -97 57 -89 43 -100 51 -120 92
l-22 45 19 110 c11 61 27 139 35 175 9 36 18 84 22 108 5 39 4 42 -18 41 -13
0 -127 -48 -254 -106z"/>
<path d="M6495 7801 c-127 -47 -190 -80 -193 -99 -2 -11 -10 -26 -18 -33 -12
-10 -12 -13 0 -23 11 -9 13 -30 6 -116 -9 -110 -24 -333 -43 -657 l-12 -191
28 -6 c17 -3 27 -11 25 -18 -2 -7 -55 -38 -118 -70 l-115 -56 -5 -102 c-5
-102 0 -140 20 -140 6 0 10 25 10 59 0 67 10 80 44 57 23 -15 24 -14 30 19 10
49 60 87 178 133 127 50 154 57 163 43 4 -7 -9 -18 -32 -27 -21 -9 -84 -38
-141 -65 -76 -37 -106 -57 -117 -79 -14 -26 -21 -90 -11 -90 14 0 338 136 373
157 l43 25 -1 61 c0 34 -4 71 -9 82 -7 19 -8 19 -18 -5 -6 -15 -19 -26 -30
-27 -20 -2 -20 3 -18 145 2 132 4 147 19 146 10 -1 17 5 17 16 0 10 7 23 16
31 12 9 14 26 11 68 -3 31 1 148 9 261 7 113 16 266 20 341 l7 135 -42 22
c-23 12 -43 22 -44 22 -1 -1 -24 -9 -52 -19z"/>
<path d="M4635 7737 c-8 -62 -8 -81 3 -89 21 -18 24 -4 15 83 l-8 84 -10 -78z"/>
<path d="M5790 7710 c0 -5 12 -10 26 -10 14 0 23 4 19 10 -3 6 -15 10 -26 10
-10 0 -19 -4 -19 -10z"/>
<path d="M7984 7690 l-61 -28 -7 -88 c-4 -49 -16 -160 -27 -248 -11 -87 -18
-164 -15 -172 3 -8 17 -14 31 -14 14 0 42 -7 62 -15 20 -8 38 -14 39 -12 2 2
20 131 39 288 20 156 38 292 41 302 8 25 -29 21 -102 -13z"/>
<path d="M2920 7636 c0 -8 5 -18 10 -21 6 -4 8 -11 5 -16 -5 -8 48 -69 60 -69
3 0 3 17 0 37 -6 47 -75 110 -75 69z"/>
<path d="M2860 7582 c0 -10 11 -33 24 -51 24 -32 99 -101 110 -101 3 0 6 18 6
40 0 22 -4 40 -9 40 -5 0 -33 20 -63 45 -61 50 -68 53 -68 27z"/>
<path d="M8583 7511 c-13 -40 -8 -101 8 -101 29 0 47 132 19 138 -10 1 -19
-11 -27 -37z"/>
<path d="M2842 7523 c27 -56 49 -85 90 -120 56 -50 54 -58 -3 -12 -56 44 -50
13 9 -50 48 -51 77 -66 65 -33 -4 9 -11 20 -17 25 -7 5 -5 12 7 21 28 21 15
43 -67 114 -68 57 -93 74 -84 55z"/>
<path d="M8206 7495 c-23 -34 -31 -81 -16 -90 19 -12 40 18 46 62 6 50 -8 62
-30 28z"/>
<path d="M6705 7403 c-11 -3 -24 -9 -29 -13 -4 -5 -18 -94 -30 -200 l-22 -191
32 -24 c45 -34 83 -48 99 -35 8 7 14 67 18 187 4 98 11 195 16 217 5 21 7 45
4 52 -5 14 -46 17 -88 7z"/>
<path d="M2877 7340 c3 -11 9 -20 14 -20 5 0 9 9 9 20 0 11 -6 20 -14 20 -9 0
-12 -7 -9 -20z"/>
<path d="M2907 7315 c-4 -8 5 -23 20 -35 37 -29 48 -25 23 10 -27 38 -37 43
-43 25z m27 -21 c3 -8 2 -12 -4 -9 -6 3 -10 10 -10 16 0 14 7 11 14 -7z"/>
<path d="M2847 7294 c-8 -8 3 -34 14 -34 11 0 12 27 0 34 -4 3 -11 3 -14 0z"/>
<path d="M631 7232 c-25 -20 -64 -56 -87 -79 l-43 -42 -57 29 c-66 35 -80 37
-89 11 -3 -11 -21 -27 -41 -36 -36 -17 -114 -106 -114 -131 0 -8 -11 -20 -25
-26 -19 -8 -25 -18 -23 -37 3 -22 -2 -27 -24 -29 -28 -3 -36 -16 -18 -27 20
-12 9 -34 -17 -37 -21 -2 -27 -8 -25 -21 2 -10 -1 -24 -6 -30 -5 -7 -12 -25
-14 -40 -8 -40 25 -58 113 -63 94 -4 115 -19 124 -84 5 -34 13 -54 26 -61 13
-6 19 -21 19 -44 0 -59 70 -76 114 -29 17 19 30 25 42 20 16 -6 16 -9 4 -17
-12 -9 -11 -9 5 -4 11 5 56 9 100 11 241 10 528 62 590 108 17 12 17 14 -10
27 -20 9 -31 24 -36 45 -9 49 -18 56 -54 50 -24 -5 -40 0 -68 18 -19 13 -39
21 -43 18 -4 -4 -5 3 -2 15 5 20 3 21 -23 16 -18 -3 -29 -1 -29 6 0 6 -26 24
-57 39 -33 15 -59 35 -61 44 -2 10 8 33 23 52 23 30 25 39 19 91 -5 43 -15 68
-40 101 -18 23 -38 62 -44 85 -12 43 -49 89 -72 89 -7 0 -33 -17 -57 -38z m56
-98 c19 -5 20 -9 11 -35 -6 -17 -17 -29 -28 -29 -9 0 -29 -10 -44 -21 -15 -12
-30 -19 -33 -15 -3 3 -11 2 -17 -3 -15 -12 -56 5 -56 22 0 18 25 39 75 66 42
22 56 24 92 15z m-274 -513 c3 -12 -6 -32 -23 -53 -28 -33 -28 -33 -49 -14
-28 25 -23 57 9 73 36 18 57 16 63 -6z"/>
<path d="M2981 7224 c13 -14 25 -20 27 -14 2 6 -4 18 -14 25 -31 24 -39 17
-13 -11z"/>
<path d="M2920 7215 c0 -16 88 -100 97 -92 4 4 -12 25 -35 46 -23 22 -42 36
-42 33 0 -4 -5 0 -10 8 -5 8 -10 10 -10 5z"/>
<path d="M9190 7154 c-8 -8 -15 -40 -17 -70 -2 -46 0 -54 15 -54 27 0 42 14
32 30 -5 8 -6 36 -3 62 6 50 -4 61 -27 32z"/>
<path d="M7428 7123 c-3 -4 -8 -20 -12 -35 -6 -25 -3 -28 34 -39 22 -7 51 -22
63 -34 22 -22 79 -55 94 -55 5 0 10 21 11 48 1 26 4 64 8 86 l6 38 -38 -7
c-53 -9 -115 -10 -140 -1 -12 4 -24 4 -26 -1z"/>
<path d="M4496 7023 c4 -10 9 -35 12 -55 2 -21 8 -38 12 -38 5 0 11 -8 15 -17
3 -10 21 -36 41 -58 34 -39 33 -36 -21 73 -31 61 -58 112 -62 112 -3 0 -2 -8
3 -17z"/>
<path d="M4965 6990 c-17 -7 -14 -9 13 -9 20 -1 31 3 27 9 -7 12 -13 12 -40 0z"/>
<path d="M8858 6963 c-28 -32 -40 -64 -41 -109 0 -49 5 -59 27 -51 40 16 70
125 44 160 -13 18 -14 18 -30 0z"/>
<path d="M7623 6935 c-29 -13 -53 -28 -53 -34 0 -15 76 -24 138 -16 l56 7 -40
34 c-21 18 -41 33 -44 34 -3 0 -29 -11 -57 -25z"/>
<path d="M6805 6918 c-16 -6 -47 -22 -67 -35 -21 -12 -42 -23 -47 -23 -15 0
-20 -25 -32 -163 -17 -197 -18 -181 16 -187 28 -5 29 -7 27 -50 -7 -103 -64
-526 -79 -574 -5 -16 -1 -18 24 -13 16 3 60 21 98 39 59 29 69 38 80 71 8 22
23 46 34 54 12 8 21 20 21 26 0 7 -4 6 -10 -3 -7 -11 -10 -3 -10 30 0 27 -9
62 -21 85 -20 37 -21 50 -15 152 3 61 9 119 12 128 4 9 22 26 42 38 29 19 35
29 38 64 4 39 1 45 -41 80 -49 41 -58 72 -29 105 11 11 18 40 20 79 2 33 6 65
10 70 7 12 -14 39 -30 38 -6 0 -24 -5 -41 -11z"/>
<path d="M3867 6904 c-11 -11 3 -24 24 -24 12 0 19 5 17 13 -5 14 -31 21 -41
11z"/>
<path d="M6619 6880 c29 -25 54 -26 49 -2 -2 12 -14 18 -38 20 l-35 2 24 -20z"/>
<path d="M3565 6840 c3 -5 11 -10 16 -10 6 0 7 5 4 10 -3 6 -11 10 -16 10 -6
0 -7 -4 -4 -10z"/>
<path d="M7111 6799 c-25 -15 -47 -20 -80 -17 -44 3 -45 2 -52 -32 -4 -19 -10
-64 -14 -100 -3 -36 -8 -80 -10 -98 -5 -33 -5 -33 30 -26 31 5 42 1 90 -36 30
-23 59 -39 65 -35 5 3 10 29 10 56 0 68 26 116 58 104 6 -2 12 0 12 6 0 7 10
9 25 5 18 -5 27 -1 35 13 5 11 10 22 10 26 0 9 -53 -6 -88 -26 -18 -11 -36
-19 -39 -19 -5 0 1 63 12 117 9 40 -1 83 -18 83 -6 0 -27 -9 -46 -21z"/>
<path d="M4626 6767 c3 -10 9 -15 12 -12 3 3 0 11 -7 18 -10 9 -11 8 -5 -6z"/>
<path d="M7344 6676 c-7 -18 12 -46 31 -46 9 0 11 8 6 27 -8 31 -28 41 -37 19z"/>
<path d="M4710 6641 c0 -6 4 -13 10 -16 6 -3 7 1 4 9 -7 18 -14 21 -14 7z"/>
<path d="M7390 6525 c-19 -19 -42 -35 -52 -35 -13 0 -106 38 -138 57 -3 2 -6
-27 -6 -64 -1 -84 -11 -183 -20 -192 -3 -3 -4 20 -1 52 3 42 1 60 -8 63 -13 5
-158 -50 -182 -68 -6 -5 -14 -40 -18 -79 -4 -39 -13 -93 -20 -120 -12 -45 -12
-49 4 -49 31 0 247 81 328 122 l43 22 57 -28 c31 -15 52 -22 46 -14 -10 12 -3
206 11 308 8 57 -6 65 -44 25z m-223 -277 c-3 -8 -6 -5 -6 6 -1 11 2 17 5 13
3 -3 4 -12 1 -19z"/>
<path d="M1253 6509 c-58 -17 -45 -28 14 -12 32 8 60 17 62 19 8 7 -43 2 -76
-7z"/>
<path d="M4796 6453 c-6 -14 -5 -15 5 -6 7 7 10 15 7 18 -3 3 -9 -2 -12 -12z"/>
<path d="M4961 6444 c0 -11 3 -14 6 -6 3 7 2 16 -1 19 -3 4 -6 -2 -5 -13z"/>
<path d="M6612 6434 c-26 -18 -22 -32 10 -30 16 1 24 8 26 24 4 26 -5 28 -36
6z"/>
<path d="M3550 6410 c0 -17 39 -50 60 -50 18 0 19 3 10 20 -16 31 -70 54 -70
30z"/>
<path d="M3330 6400 c19 -13 30 -13 30 0 0 6 -10 10 -22 10 -19 0 -20 -2 -8
-10z"/>
<path d="M6465 6398 c-60 -19 -180 -72 -193 -83 -11 -10 -5 -17 30 -38 25 -14
67 -46 95 -71 28 -25 53 -46 56 -46 2 0 5 18 5 40 0 22 -4 40 -10 40 -6 0 -3
11 6 25 9 13 16 33 16 44 0 11 5 23 10 26 6 4 8 11 5 16 -4 5 -3 9 2 9 4 0 13
11 20 25 13 28 7 30 -42 13z"/>
<path d="M3280 6363 c1 -11 50 -46 50 -35 0 10 -33 42 -43 42 -4 0 -7 -3 -7
-7z"/>
<path d="M9341 6281 c-24 -67 -27 -101 -8 -101 38 0 78 90 62 139 -11 37 -32
23 -54 -38z"/>
<path d="M8660 6312 c0 -12 4 -22 9 -22 10 0 9 26 -2 36 -4 4 -7 -2 -7 -14z"/>
<path d="M8371 6284 c0 -11 3 -14 6 -6 3 7 2 16 -1 19 -3 4 -6 -2 -5 -13z"/>
<path d="M4873 6265 c-3 -9 -3 -18 -1 -21 3 -3 8 4 11 16 6 23 -1 27 -10 5z"/>
<path d="M6217 6273 c-3 -5 -8 -53 -12 -109 l-7 -100 66 -44 c75 -48 106 -82
106 -116 0 -12 5 -35 11 -51 l11 -28 10 25 c8 22 36 188 41 244 1 13 -30 46
-96 103 -93 78 -120 94 -130 76z"/>
<path d="M3010 6266 c0 -2 7 -9 15 -16 9 -7 15 -8 15 -2 0 5 -7 12 -15 16 -8
3 -15 4 -15 2z"/>
<path d="M8382 6230 c0 -19 2 -27 5 -17 2 9 2 25 0 35 -3 9 -5 1 -5 -18z"/>
<path d="M4005 6230 c-19 -7 -19 -8 -2 -15 10 -4 21 -5 24 -1 4 3 17 -4 30
-16 13 -12 23 -17 23 -12 0 9 -44 55 -51 53 -2 0 -13 -4 -24 -9z"/>
<path d="M4887 6216 c-3 -8 0 -17 7 -19 10 -4 12 1 9 14 -6 23 -9 24 -16 5z"/>
<path d="M10014 6133 c-59 -126 -60 -132 -23 -140 25 -5 29 -10 29 -39 0 -41
26 -47 36 -9 5 22 12 25 51 25 44 0 45 -1 39 -27 -3 -16 -9 -44 -13 -63 -6
-34 -6 -35 14 -17 11 9 36 17 56 17 31 0 37 4 37 21 0 15 -6 20 -22 19 -63 -5
-70 19 -23 71 41 46 48 101 16 140 -25 30 -48 19 -73 -34 -22 -44 -44 -61 -35
-26 18 73 19 109 3 134 -9 14 -23 25 -31 25 -8 0 -34 -41 -61 -97z"/>
<path d="M3940 6206 c0 -2 7 -6 15 -10 8 -3 15 -1 15 4 0 6 -7 10 -15 10 -8 0
-15 -2 -15 -4z"/>
<path d="M1744 6094 c4 -9 1 -22 -5 -30 -17 -21 -7 -59 18 -62 20 -3 21 0 16
40 -6 57 -10 68 -24 68 -6 0 -8 -7 -5 -16z"/>
<path d="M6132 6050 c-5 -14 -12 -59 -16 -101 -5 -62 -4 -78 9 -89 8 -7 18
-11 21 -8 10 10 14 189 5 206 -9 15 -11 14 -19 -8z"/>
<path d="M1332 5998 c-19 -19 -14 -30 10 -26 13 2 24 11 26 21 4 20 -18 23
-36 5z"/>
<path d="M1245 5873 c-16 -58 -16 -70 -4 -91 20 -36 32 -36 52 -3 23 38 22 88
-3 129 -11 17 -21 32 -23 32 -2 0 -12 -30 -22 -67z"/>
<path d="M6110 5827 c-35 -18 -35 -34 2 -57 44 -27 48 -26 48 14 0 44 -18 59
-50 43z"/>
<path d="M1489 5799 c-1 -2 -3 -13 -4 -24 -2 -11 -4 -24 -5 -30 -10 -44 13
-40 28 4 8 23 7 32 -4 42 -8 6 -15 10 -15 8z"/>
<path d="M403 5729 c-6 -6 -44 -13 -84 -15 -41 -2 -128 -18 -194 -36 l-120
-33 -3 -116 -3 -116 53 5 c29 2 96 15 148 29 52 14 109 25 127 25 19 -1 33 4
37 13 3 8 12 15 20 15 8 0 27 12 41 27 21 23 33 28 75 28 27 0 50 3 50 7 0 4
-22 24 -50 45 -37 27 -50 44 -50 63 0 60 -20 86 -47 59z"/>
<path d="M1561 5682 c-7 -26 -16 -61 -20 -78 -4 -16 -4 -40 0 -52 7 -19 12
-21 28 -13 55 30 75 95 46 150 -24 48 -41 45 -54 -7z"/>
<path d="M3810 5694 c0 -8 5 -12 10 -9 6 4 8 11 5 16 -9 14 -15 11 -15 -7z"/>
<path d="M6571 5657 c-14 -54 -53 -416 -45 -428 3 -5 38 -9 79 -9 l74 0 5 33
c32 220 32 235 5 294 -11 25 -18 52 -14 61 5 13 8 13 14 4 6 -10 11 -10 21 3
12 14 7 20 -15 15 -5 -1 -14 5 -20 12 -6 7 -29 23 -52 35 l-41 22 -11 -42z
m33 8 c3 -8 1 -15 -4 -15 -6 0 -10 7 -10 15 0 8 2 15 4 15 2 0 6 -7 10 -15z"/>
<path d="M1840 5676 c0 -9 -6 -16 -12 -16 -10 0 -10 -2 -1 -8 7 -5 10 -21 7
-42 -5 -33 -5 -34 10 -15 17 23 21 81 6 90 -5 3 -10 -1 -10 -9z"/>
<path d="M6791 5668 c-10 -28 -51 -348 -51 -400 0 -41 2 -43 30 -28 21 11 26
37 39 195 17 188 17 248 4 252 -7 3 -17 -6 -22 -19z"/>
<path d="M3860 5660 c0 -5 5 -10 10 -10 6 0 10 5 10 10 0 6 -4 10 -10 10 -5 0
-10 -4 -10 -10z"/>
<path d="M3810 5650 c0 -5 5 -10 11 -10 5 0 7 5 4 10 -3 6 -8 10 -11 10 -2 0
-4 -4 -4 -10z"/>
<path d="M2322 5632 l-33 -17 6 -280 c4 -153 9 -283 11 -287 9 -14 36 -9 51
10 10 12 16 14 19 5 7 -17 35 -17 57 0 16 11 16 15 4 42 -9 19 -19 101 -26
230 -7 110 -15 226 -18 258 -6 64 -14 68 -71 39z"/>
<path d="M1456 5604 c-7 -18 0 -34 15 -34 12 0 12 37 0 44 -5 3 -12 -1 -15
-10z"/>
<path d="M3930 5614 c0 -5 7 -19 15 -30 8 -10 15 -14 15 -8 0 5 -7 19 -15 30
-8 10 -15 14 -15 8z"/>
<path d="M3796 5596 c3 -9 11 -16 16 -16 13 0 5 23 -10 28 -7 2 -10 -2 -6 -12z"/>
<path d="M1457 5540 c-3 -11 -1 -20 5 -22 5 -2 10 -18 10 -36 1 -19 6 -31 12
-29 6 2 10 15 8 28 -2 13 -3 34 -4 46 0 28 -24 38 -31 13z"/>
<path d="M3800 5548 c0 -9 5 -20 10 -23 13 -8 13 5 0 25 -8 13 -10 13 -10 -2z"/>
<path d="M3930 5550 c0 -5 5 -10 10 -10 6 0 10 5 10 10 0 6 -4 10 -10 10 -5 0
-10 -4 -10 -10z"/>
<path d="M1420 5501 c0 -6 5 -13 10 -16 6 -3 10 1 10 9 0 9 -4 16 -10 16 -5 0
-10 -4 -10 -9z"/>
<path d="M3855 5500 c3 -5 11 -10 16 -10 6 0 7 5 4 10 -3 6 -11 10 -16 10 -6
0 -7 -4 -4 -10z"/>
<path d="M3790 5491 c0 -5 5 -13 10 -16 6 -3 10 -2 10 4 0 5 -4 13 -10 16 -5
3 -10 2 -10 -4z"/>
<path d="M2018 5474 c-4 -3 -4 -12 -1 -20 3 -8 1 -14 -5 -14 -6 0 -9 -28 -8
-67 1 -54 4 -68 17 -71 12 -2 15 3 12 21 -3 14 0 28 6 31 6 4 11 24 11 44 -1
38 -21 87 -32 76z"/>
<path d="M3019 5478 c-7 -17 -5 -137 2 -156 17 -45 37 -7 41 78 3 71 2 75 -19
78 -13 2 -24 2 -24 0z"/>
<path d="M3870 5436 c0 -9 5 -16 10 -16 6 0 10 4 10 9 0 6 -4 13 -10 16 -5 3
-10 -1 -10 -9z"/>
<path d="M3812 5414 c10 -10 20 -15 24 -12 3 4 -5 12 -18 18 -22 12 -22 12 -6
-6z"/>
<path d="M3786 5383 c5 -17 54 -49 54 -35 0 11 -20 38 -20 28 0 -5 -9 -1 -19
8 -19 17 -19 17 -15 -1z"/>
<path d="M3860 5386 c0 -9 5 -16 10 -16 6 0 10 4 10 9 0 6 -4 13 -10 16 -5 3
-10 -1 -10 -9z"/>
<path d="M3900 5360 c0 -5 5 -10 11 -10 5 0 7 5 4 10 -3 6 -8 10 -11 10 -2 0
-4 -4 -4 -10z"/>
<path d="M3861 5334 c0 -11 3 -14 6 -6 3 7 2 16 -1 19 -3 4 -6 -2 -5 -13z"/>
<path d="M3790 5326 c0 -8 5 -18 10 -21 6 -3 10 1 10 9 0 8 -4 18 -10 21 -5 3
-10 -1 -10 -9z"/>
<path d="M3826 5301 c-4 -7 -5 -15 -2 -18 9 -9 19 4 14 18 -4 11 -6 11 -12 0z"/>
<path d="M3767 5294 c-3 -3 -2 -17 3 -30 5 -13 5 -26 1 -29 -13 -8 0 -48 22
-67 10 -9 17 -23 15 -29 -3 -8 -11 -4 -25 10 -21 23 -21 23 -32 3 -6 -12 -11
-27 -11 -36 0 -8 -7 -16 -15 -18 -13 -2 -12 -9 6 -37 15 -25 23 -31 29 -21 11
18 33 1 27 -21 -3 -11 -1 -19 4 -19 8 0 97 -80 169 -152 21 -21 40 -38 42 -38
2 0 4 17 4 38 1 20 -1 29 -3 20 -3 -10 -6 -18 -9 -18 -9 0 -104 99 -104 108 0
23 31 21 42 -3 6 -14 23 -32 37 -41 14 -9 20 -11 14 -3 -7 7 -13 21 -13 31 0
9 -10 23 -22 29 -13 7 -27 18 -31 25 -13 22 -36 17 -30 -6 8 -29 -18 -26 -45
5 -12 14 -22 27 -22 29 0 2 -13 18 -30 36 -30 32 -39 60 -20 60 6 0 10 -3 10
-8 0 -4 13 -22 29 -39 15 -17 31 -38 34 -47 7 -18 27 -22 27 -5 0 6 -13 27
-30 46 -16 18 -30 38 -30 44 0 18 35 4 38 -15 4 -20 43 -58 51 -50 2 2 -10 24
-28 49 -18 25 -34 51 -35 58 -1 7 -6 19 -11 27 -6 8 -16 26 -22 40 -11 20 -8
19 15 -7 28 -32 42 -41 42 -25 0 18 -84 115 -93 106z"/>
<path d="M3925 5290 c3 -5 8 -10 11 -10 2 0 4 5 4 10 0 6 -5 10 -11 10 -5 0
-7 -4 -4 -10z"/>
<path d="M3955 5260 c3 -5 8 -10 11 -10 2 0 4 5 4 10 0 6 -5 10 -11 10 -5 0
-7 -4 -4 -10z"/>
<path d="M3850 5251 c0 -6 5 -13 10 -16 6 -3 10 1 10 9 0 9 -4 16 -10 16 -5 0
-10 -4 -10 -9z"/>
<path d="M3910 5252 c0 -5 7 -15 15 -22 8 -7 15 -8 15 -2 0 5 -7 15 -15 22 -8
7 -15 8 -15 2z"/>
<path d="M6871 5214 c-26 -33 -19 -45 22 -37 46 8 59 21 46 44 -14 27 -44 24
-68 -7z"/>
<path d="M2850 5195 c0 -19 24 -29 48 -20 15 6 14 8 -8 20 -32 18 -40 18 -40
0z"/>
<path d="M3901 5174 c0 -11 3 -14 6 -6 3 7 2 16 -1 19 -3 4 -6 -2 -5 -13z"/>
<path d="M3860 5146 c0 -20 37 -62 46 -53 9 9 -14 54 -32 61 -8 3 -14 -1 -14
-8z"/>
<path d="M1861 5122 c-17 -32 -14 -137 5 -152 13 -11 19 -10 36 8 20 19 20 25
9 79 -14 70 -34 96 -50 65z"/>
<path d="M3932 5048 c6 -18 12 -39 14 -45 5 -18 34 -16 34 1 0 8 -6 16 -14 19
-8 3 -16 16 -18 28 -2 12 -8 24 -15 26 -9 3 -9 -4 -1 -29z"/>
<path d="M3965 5070 c-4 -6 -2 -17 4 -23 15 -15 25 -2 13 19 -7 12 -11 13 -17
4z"/>
<path d="M2720 5020 c-21 -25 -15 -112 8 -108 19 4 33 51 25 90 -7 37 -15 41
-33 18z"/>
<path d="M6104 4965 c4 -16 8 -30 9 -31 7 -3 187 -110 205 -121 46 -28 19 -3
-65 61 -49 36 -103 78 -122 93 l-34 28 7 -30z"/>
<path d="M2796 4901 c-4 -6 -8 -25 -8 -41 -1 -24 -4 -28 -15 -19 -20 18 -17
-10 8 -50 11 -18 18 -38 16 -45 -2 -6 -14 8 -26 32 -26 50 -39 53 -43 10 -2
-23 -8 -33 -19 -32 -11 1 -15 -5 -12 -17 3 -11 9 -22 14 -25 5 -3 9 -9 9 -15
0 -5 -9 -4 -20 3 -17 11 -22 10 -29 -1 -5 -7 -13 -11 -19 -7 -12 7 -36 -20
-28 -32 3 -5 6 -71 7 -146 1 -125 2 -136 19 -136 22 0 35 -16 21 -24 -5 -4
-12 -2 -16 4 -10 17 -45 12 -150 -21 -96 -30 -134 -43 -220 -79 -22 -9 -56
-23 -75 -30 -19 -7 -54 -22 -78 -32 l-43 -19 6 -87 c4 -48 13 -146 21 -219 8
-73 14 -147 14 -166 0 -52 19 -62 77 -43 55 19 74 20 70 5 -1 -6 4 -14 11 -16
7 -3 12 4 12 16 0 12 5 21 10 21 6 0 10 -6 10 -14 0 -7 7 -20 16 -27 14 -11
16 -10 14 16 -3 47 -1 52 13 26 10 -21 36 -28 30 -9 -2 5 -4 11 -5 16 -2 4 0
7 4 7 4 0 25 17 46 38 35 34 41 37 64 26 14 -6 35 -31 47 -55 12 -24 26 -46
32 -49 5 -4 14 -15 19 -25 8 -16 8 -18 -5 -14 -8 4 -15 10 -15 16 0 5 -13 23
-30 41 -43 46 -37 20 11 -46 22 -32 37 -57 33 -57 -7 0 -37 32 -60 64 -7 11
-16 17 -20 14 -6 -7 19 -51 50 -85 33 -38 5 -25 -31 13 -41 46 -51 40 -17 -9
13 -20 22 -37 18 -37 -4 0 0 -8 8 -17 38 -45 26 -43 -22 2 l-53 50 27 -49 28
-48 -31 23 c-30 22 -56 20 -33 -3 16 -16 15 -29 0 -25 -8 1 -12 -7 -10 -20 2
-12 -2 -24 -8 -28 -5 -3 -7 -17 -4 -31 4 -14 2 -24 -4 -24 -23 0 -6 -73 22
-97 15 -12 23 -23 17 -23 -5 0 -12 4 -15 9 -3 5 -20 14 -36 20 -27 9 -29 8
-21 -7 5 -10 7 -31 3 -47 -4 -26 -6 -27 -13 -10 -6 17 -8 17 -8 3 -1 -21 -17
-24 -24 -5 -2 6 -7 9 -11 5 -9 -7 14 -54 43 -87 15 -18 18 -28 11 -42 -6 -10
-10 -27 -10 -38 0 -11 -4 -22 -10 -26 -5 -3 -7 14 -3 46 4 38 2 53 -8 60 -18
11 -32 11 -25 0 3 -4 -1 -33 -8 -62 -8 -30 -16 -83 -18 -119 -2 -54 0 -65 14
-68 9 -2 38 -14 65 -27 44 -21 49 -22 61 -7 10 14 12 12 12 -11 0 -35 20 -77
37 -77 7 0 13 8 13 18 0 9 3 47 6 84 8 81 0 115 -26 123 -17 6 -30 45 -14 45
9 0 34 -28 34 -38 0 -10 33 -42 43 -42 3 0 8 8 10 18 3 9 5 -1 5 -23 0 -22 -2
-34 -5 -27 -7 17 -23 15 -23 -3 0 -8 6 -15 14 -15 11 0 10 -16 -5 -91 -11 -50
-17 -95 -14 -99 3 -5 14 -6 25 -3 10 3 26 -2 35 -11 9 -9 20 -16 24 -16 10 0
26 112 23 160 -1 19 2 42 8 50 9 13 14 10 36 -15 43 -49 120 -128 148 -152 31
-28 36 -49 6 -33 -17 9 -20 8 -20 -7 0 -10 -7 -27 -15 -37 -14 -19 -15 -18
-15 10 0 17 4 34 10 40 10 10 -35 84 -50 84 -10 0 -19 -49 -26 -145 -6 -76 -5
-84 13 -94 24 -12 33 -6 33 26 0 27 28 42 41 22 13 -21 11 -32 -6 -25 -18 7
-20 -5 -3 -22 7 -7 9 -12 4 -12 -4 0 0 -10 8 -22 9 -12 16 -30 16 -40 0 -16
10 -18 81 -18 58 0 121 -10 227 -36 189 -45 182 -43 182 -60 0 -10 15 -14 63
-15 69 -1 102 -5 162 -18 56 -14 327 -58 405 -67 79 -9 142 -6 153 6 4 6 4 8
0 5 -7 -6 -37 34 -31 41 3 2 22 -9 44 -26 65 -49 59 -34 -20 52 -42 45 -72 86
-68 90 9 9 83 12 103 4 12 -5 19 2 26 26 9 26 11 28 12 11 1 -13 6 -23 11 -23
13 0 13 604 0 715 -6 44 -13 252 -16 463 l-7 383 -34 24 c-29 19 -40 21 -66
14 -54 -15 -77 -10 -37 9 19 9 37 18 39 19 3 2 -8 17 -24 33 -27 28 -31 29
-87 23 -54 -5 -58 -5 -52 13 4 10 14 27 22 37 14 16 13 17 -10 17 -62 0 -314
-112 -301 -133 4 -7 8 -28 8 -49 0 -46 34 -78 81 -78 18 0 64 11 101 25 37 13
69 22 72 20 4 -5 -45 -27 -189 -86 -52 -21 -96 -44 -98 -52 -1 -7 9 -19 23
-27 27 -14 34 -40 11 -40 -7 0 -71 57 -142 128 -71 70 -175 170 -231 222 -62
57 -105 105 -108 121 -6 24 -3 27 30 33 47 9 85 26 85 39 0 9 -12 8 -92 -12
l-38 -9 -10 42 c-6 22 -16 52 -22 66 -7 14 -12 82 -13 160 l-1 135 -42 86
c-29 59 -50 90 -67 97 -23 11 -25 10 -16 -7 9 -16 4 -21 -41 -40 l-52 -22 -18
23 c-10 13 -24 36 -32 52 -8 17 -16 24 -20 17z m29 -121 c3 -5 1 -10 -4 -10
-6 0 -11 5 -11 10 0 6 2 10 4 10 3 0 8 -4 11 -10z m-41 -56 c10 -25 -1 -29
-14 -5 -6 12 -7 21 -1 21 5 0 12 -7 15 -16z m21 -57 l30 -16 -31 -1 c-23 0
-36 7 -48 25 -21 32 -20 42 2 23 9 -9 31 -23 47 -31z m-135 -17 c0 -5 -5 -10
-11 -10 -5 0 -7 5 -4 10 3 6 8 10 11 10 2 0 4 -4 4 -10z m78 -20 c7 -11 9 -20
4 -20 -10 0 -32 22 -32 32 0 15 15 8 28 -12z m44 -47 c5 -27 8 -52 8 -58 0 -5
-2 -129 -4 -275 -3 -146 -6 -267 -7 -270 -2 -6 -2 -3 5 -58 3 -25 1 -42 -5
-42 -6 0 -7 -5 -3 -11 3 -6 0 -16 -7 -21 -11 -7 -11 -11 -1 -15 16 -6 16 -34
-1 -27 -7 2 -18 14 -25 25 -8 12 -9 18 -3 15 5 -4 12 -2 15 3 4 5 1 13 -5 17
-8 4 -7 9 2 15 11 8 10 12 -5 24 -11 8 -26 15 -34 15 -12 0 -11 -5 4 -22 18
-23 18 -23 -1 -6 -10 10 -19 26 -20 37 -2 20 -1 20 32 0 l33 -21 0 26 c0 14
-10 35 -22 47 -18 17 -19 21 -5 16 9 -4 17 -2 17 5 0 6 -8 17 -17 25 -17 14
-17 14 0 9 25 -8 21 19 -5 32 -22 11 -21 11 5 6 36 -8 34 5 -5 40 -31 26 -31
27 -5 11 40 -23 48 -8 12 22 -23 19 -24 22 -7 13 37 -18 40 -1 7 28 -17 15
-26 24 -20 21 5 -3 18 -9 28 -12 30 -11 19 21 -14 38 -17 9 -28 19 -25 22 3 3
17 -2 30 -11 14 -8 27 -12 29 -8 2 4 3 95 3 204 -1 108 1 195 3 192 2 -2 8
-25 13 -51z m-122 22 c0 -8 -4 -15 -10 -15 -5 0 -7 7 -4 15 4 8 8 15 10 15 2
0 4 -7 4 -15z m75 -35 c16 -17 16 -20 2 -20 -9 0 -19 5 -22 10 -4 6 -11 8 -16
5 -5 -4 -9 1 -9 9 0 22 23 20 45 -4z m-75 -10 c0 -5 -4 -10 -10 -10 -5 0 -10
5 -10 10 0 6 5 10 10 10 6 0 10 -4 10 -10z m4 -61 c-10 -16 -24 -9 -24 12 0
18 2 19 15 9 8 -7 12 -16 9 -21z m53 6 c0 -11 -4 -12 -14 -4 -7 6 -13 13 -13
15 0 2 6 4 13 4 8 0 14 -7 14 -15z m-62 -45 c3 -5 1 -10 -4 -10 -6 0 -11 5
-11 10 0 6 2 10 4 10 3 0 8 -4 11 -10z m35 -36 c0 -2 -12 -4 -26 -4 -14 0 -23
4 -20 9 6 8 46 4 46 -5z m57 -10 c-3 -3 -12 -4 -19 -1 -8 3 -5 6 6 6 11 1 17
-2 13 -5z m3 -54 c0 -5 -4 -10 -9 -10 -6 0 -13 5 -16 10 -3 6 1 10 9 10 9 0
16 -4 16 -10z m-90 -30 c8 -5 11 -12 8 -16 -10 -9 -38 3 -38 16 0 12 10 13 30
0z m75 -30 c3 -5 1 -10 -4 -10 -6 0 -11 5 -11 10 0 6 2 10 4 10 3 0 8 -4 11
-10z m-73 -39 c-10 -6 -10 -10 3 -21 12 -10 13 -15 4 -21 -10 -6 -10 -11 0
-23 8 -9 9 -16 4 -16 -5 0 -9 -13 -8 -30 1 -16 -2 -30 -7 -30 -5 0 -4 -9 2
-20 8 -14 8 -20 0 -20 -7 0 -8 -6 0 -19 14 -28 12 -36 -5 -21 -20 17 -19 1 2
-22 14 -16 15 -21 4 -27 -8 -5 -10 -14 -7 -20 12 -19 -7 -12 -39 14 -22 19
-27 27 -17 33 7 5 10 16 6 25 -5 13 -2 16 11 11 15 -6 16 -4 6 14 -7 12 -8 22
-2 22 5 0 9 10 9 23 1 32 10 181 11 187 1 2 9 -4 19 -13 13 -14 14 -19 4 -26z
m48 -251 c0 -5 -2 -10 -4 -10 -3 0 -8 5 -11 10 -3 6 -1 10 4 10 6 0 11 -4 11
-10z m1277 4 c-3 -3 -12 -4 -19 -1 -8 3 -5 6 6 6 11 1 17 -2 13 -5z m-1350
-71 c18 -20 33 -41 33 -47 0 -6 -7 0 -16 12 -19 27 -38 29 -29 2 9 -28 -2 -25
-30 8 -29 32 -33 53 -7 29 29 -26 38 -20 12 8 -16 17 -19 25 -9 25 7 0 28 -17
46 -37z m89 22 c16 -8 22 -15 13 -15 -8 0 -24 7 -35 15 -25 19 -14 19 22 0z
m-85 -116 c77 -73 109 -97 109 -80 0 5 -25 31 -55 57 -31 26 -53 49 -51 52 3
2 28 -16 57 -42 28 -25 55 -46 59 -46 14 0 21 -33 8 -41 -9 -6 -9 -11 1 -23
27 -32 -3 -15 -38 22 -52 54 -109 102 -121 102 -18 0 -11 -16 18 -40 115 -99
142 -124 142 -132 0 -5 -49 35 -110 89 -60 53 -110 101 -110 105 0 4 8 8 17 8
13 0 14 3 5 12 -11 11 -16 28 -8 28 2 0 37 -32 77 -71z m64 21 c10 -11 16 -20
13 -20 -3 0 -13 9 -23 20 -10 11 -16 20 -13 20 3 0 13 -9 23 -20z m140 -18
c-3 -3 -11 0 -18 7 -9 10 -8 11 6 5 10 -3 15 -9 12 -12z m-235 -76 c0 -5 -16
5 -35 24 -19 19 -35 38 -35 44 0 5 16 -5 35 -24 19 -19 35 -38 35 -44z m-32
-1 c43 -48 40 -53 -8 -14 -37 30 -50 49 -32 49 4 0 22 -16 40 -35z m268 8 c-7
-7 -26 7 -26 19 0 6 6 6 15 -2 9 -7 13 -15 11 -17z m-285 -40 l34 -36 -31 21
c-36 24 -61 52 -47 52 5 0 25 -16 44 -37z m110 -10 l34 -36 -42 29 c-24 16
-43 32 -43 37 0 16 18 5 51 -30z m164 27 c3 -5 -1 -10 -9 -10 -9 0 -16 5 -16
10 0 6 4 10 9 10 6 0 13 -4 16 -10z m-194 -47 c13 -16 12 -17 -3 -4 -10 7 -18
15 -18 17 0 8 8 3 21 -13z m194 7 c3 -5 -1 -10 -9 -10 -9 0 -16 5 -16 10 0 6
4 10 9 10 6 0 13 -4 16 -10z m-150 -40 c10 -11 16 -20 13 -20 -3 0 -13 9 -23
20 -10 11 -16 20 -13 20 3 0 13 -9 23 -20z m145 -10 c0 -15 -5 -12 -26 11 -19
22 -19 22 4 10 12 -6 22 -16 22 -21z m-229 3 c13 -16 12 -17 -3 -4 -17 13 -22
21 -14 21 2 0 10 -8 17 -17z m149 -13 c12 -16 17 -30 13 -30 -5 0 -19 14 -31
30 -13 17 -18 30 -13 30 5 0 19 -13 31 -30z m-5 -47 l28 -38 -31 29 c-18 17
-32 33 -32 38 0 15 7 9 35 -29z m85 7 c18 -25 19 -30 6 -30 -9 0 -16 8 -16 18
0 10 -5 23 -12 30 -7 7 -9 12 -6 12 4 0 16 -13 28 -30z m-110 -25 c20 -24 6
-28 -15 -5 -10 11 -13 20 -8 20 6 0 16 -7 23 -15z m900 -340 c0 -10 -29 -4
-42 9 -7 7 -79 81 -160 164 -83 84 -148 159 -148 169 1 11 63 -46 175 -159 96
-98 175 -180 175 -183z m-910 292 c0 -6 -9 -2 -20 8 -11 10 -20 23 -20 28 0 6
9 2 20 -8 11 -10 20 -23 20 -28z m130 -6 c-1 -13 -3 -13 -15 3 -19 26 -19 42
0 26 8 -7 15 -20 15 -29z m-145 -21 c3 -5 2 -10 -4 -10 -5 0 -13 5 -16 10 -3
6 -2 10 4 10 5 0 13 -4 16 -10z m131 -7 c16 -21 18 -37 4 -28 -13 8 -33 45
-24 45 4 0 13 -8 20 -17z m4 -58 c20 -24 6 -28 -15 -5 -10 11 -13 20 -8 20 6
0 16 -7 23 -15z m-136 -41 c3 -8 2 -12 -4 -9 -6 3 -10 10 -10 16 0 14 7 11 14
-7z m1 -64 c3 -5 1 -10 -4 -10 -6 0 -11 5 -11 10 0 6 2 10 4 10 3 0 8 -4 11
-10z m140 -31 c11 -17 -1 -21 -15 -4 -8 9 -8 15 -2 15 6 0 14 -5 17 -11z
m-211 -35 c9 -24 2 -26 -12 -4 -7 11 -8 20 -3 20 5 0 12 -7 15 -16z m66 -39
c0 -8 -4 -15 -10 -15 -5 0 -10 7 -10 15 0 8 5 15 10 15 6 0 10 -7 10 -15z
m151 -35 c31 -25 12 -26 -21 0 -14 11 -20 20 -14 20 7 0 22 -9 35 -20z m5 -95
c8 -45 4 -45 -21 4 -10 21 -12 30 -4 25 9 -5 10 -2 5 12 -5 12 -4 16 3 9 5 -5
13 -28 17 -50z m-247 -25 l-1 -25 -7 26 c-5 14 -14 36 -20 50 l-12 24 20 -25
c11 -14 20 -36 20 -50z m219 -26 c-4 -3 -12 5 -18 18 -12 22 -12 22 6 6 10
-10 15 -20 12 -24z m692 -41 c41 -25 95 -54 120 -64 31 -12 46 -23 48 -38 3
-19 -1 -22 -25 -19 -20 2 -27 -1 -25 -11 4 -19 -96 -6 -121 17 -35 32 -100
162 -80 162 5 0 42 -21 83 -47z m-822 3 c3 -14 -1 -13 -22 5 -32 28 -32 31 -3
20 12 -5 24 -16 25 -25z m-141 -18 c-3 -7 -5 -2 -5 12 0 14 2 19 5 13 2 -7 2
-19 0 -25z m299 5 c-10 -10 -19 5 -10 18 6 11 8 11 12 0 2 -7 1 -15 -2 -18z
m-9 -36 c7 -4 13 -13 13 -18 0 -20 -59 36 -59 56 -1 17 1 17 16 -5 9 -14 23
-29 30 -33z m-260 21 c-3 -8 -6 -5 -6 6 -1 11 2 17 5 13 3 -3 4 -12 1 -19z
m97 -6 c8 -16 22 -34 30 -41 17 -14 23 -56 7 -47 -12 8 -71 97 -71 108 0 18
20 6 34 -20z m54 -4 c16 -16 15 -29 -2 -22 -16 6 -30 34 -18 34 5 0 13 -5 20
-12z m122 -130 c0 -29 -14 -21 -51 30 -56 74 -57 80 -1 32 28 -25 51 -53 52
-62z m0 -93 c0 -14 -2 -25 -4 -25 -2 0 -6 11 -8 25 -3 14 -1 25 3 25 5 0 9
-11 9 -25z"/>
<path d="M2630 4010 c0 -5 5 -10 11 -10 5 0 7 5 4 10 -3 6 -8 10 -11 10 -2 0
-4 -4 -4 -10z"/>
<path d="M2590 3860 c0 -5 5 -10 10 -10 6 0 10 5 10 10 0 6 -4 10 -10 10 -5 0
-10 -4 -10 -10z"/>
<path d="M5382 4844 c-11 -12 -9 -14 8 -14 11 0 20 4 20 9 0 17 -15 19 -28 5z"/>
<path d="M2083 4791 c-52 -18 -123 -65 -123 -81 0 -5 19 4 43 21 24 16 72 41
108 54 74 28 50 33 -28 6z"/>
<path d="M2630 4731 c0 -12 6 -21 15 -21 8 0 15 4 15 9 0 5 -7 14 -15 21 -13
10 -15 9 -15 -9z"/>
<path d="M3987 4705 c10 -13 22 -25 27 -25 5 0 -1 11 -14 25 -30 32 -36 32
-13 0z"/>
<path d="M3900 4682 c0 -5 7 -16 16 -23 14 -12 16 -11 13 5 -4 20 -29 35 -29
18z"/>
<path d="M1556 4617 c4 -49 3 -57 -12 -57 -16 0 -16 -1 -1 -18 22 -24 23 -66
2 -58 -10 4 -15 -1 -15 -15 0 -14 5 -19 14 -16 16 6 26 -10 18 -30 -2 -7 -10
-13 -18 -13 -18 0 -18 -14 0 -29 8 -7 16 -43 20 -94 7 -89 25 -177 37 -177 4
0 11 4 14 10 4 6 19 4 42 -5 48 -20 54 -19 44 8 -12 32 -71 117 -81 117 -15 0
-32 95 -36 195 -5 137 -13 218 -24 229 -6 6 -7 -13 -4 -47z"/>
<path d="M3946 4635 c-9 -26 -7 -32 5 -12 6 10 9 21 6 23 -2 3 -7 -2 -11 -11z"/>
<path d="M3990 4621 c0 -10 9 -21 20 -24 18 -5 18 -4 3 19 -19 29 -23 30 -23
5z"/>
<path d="M3951 4554 c0 -11 3 -14 6 -6 3 7 2 16 -1 19 -3 4 -6 -2 -5 -13z"/>
<path d="M3960 4495 c0 -8 5 -15 10 -15 6 0 10 7 10 15 0 8 -4 15 -10 15 -5 0
-10 -7 -10 -15z"/>
<path d="M3647 4464 c-3 -4 -30 -12 -59 -19 -29 -7 -101 -31 -159 -54 -58 -22
-118 -45 -133 -51 -26 -10 -26 -10 71 -101 54 -50 115 -102 135 -117 21 -15
38 -32 38 -38 0 -7 7 -14 15 -18 32 -12 12 14 -52 70 -99 85 -183 166 -183
174 0 9 8 13 120 52 47 16 95 39 107 50 l22 21 37 -39 c37 -39 56 -36 34 5
-12 24 1 28 43 12 l24 -9 -16 34 c-15 32 -30 41 -44 28z"/>
<path d="M143 4408 c4 -12 1 -28 -5 -35 -7 -9 -7 -13 1 -13 6 0 11 5 11 10 0
26 30 6 51 -34 27 -51 18 -73 -15 -36 -24 28 -114 76 -124 66 -3 -4 2 -22 12
-41 10 -18 15 -38 12 -44 -4 -6 -1 -11 7 -11 10 0 13 7 10 21 -5 17 -2 20 13
17 14 -3 19 -12 18 -35 -2 -28 2 -33 30 -39 17 -3 40 -15 51 -25 20 -18 22
-18 55 0 74 39 65 85 -31 166 -69 59 -106 71 -96 33z"/>
<path d="M4853 4355 c38 -36 70 -65 73 -65 2 0 4 6 4 14 0 16 -115 116 -133
116 -7 0 19 -29 56 -65z"/>
<path d="M90 4398 c0 -18 18 -34 28 -24 3 4 -2 14 -11 23 -16 16 -17 16 -17 1z"/>
<path d="M3530 4370 c0 -5 5 -10 11 -10 5 0 7 5 4 10 -3 6 -8 10 -11 10 -2 0
-4 -4 -4 -10z"/>
<path d="M5438 4298 c-43 -17 -78 -34 -78 -38 0 -4 24 -23 53 -43 28 -20 75
-54 104 -77 l52 -42 68 33 c59 29 65 34 41 37 -14 2 -49 -7 -77 -19 l-51 -21
-32 25 c-18 14 -53 44 -78 67 -33 30 -39 39 -22 35 13 -4 22 -2 22 5 0 6 22
21 50 34 27 13 47 26 43 30 -8 8 -6 9 -95 -26z"/>
<path d="M3450 4310 c0 -5 4 -10 9 -10 6 0 13 5 16 10 3 6 -1 10 -9 10 -9 0
-16 -4 -16 -10z"/>
<path d="M4680 4224 c-57 -29 -106 -57 -108 -64 -3 -8 1 -11 9 -7 87 37 206
91 214 98 6 6 6 12 0 17 -6 4 -57 -16 -115 -44z"/>
<path d="M4360 4266 c0 -2 19 -19 43 -37 l42 -33 -34 37 c-31 33 -51 46 -51
33z"/>
<path d="M5485 4204 c22 -19 49 -39 60 -45 11 -5 -2 10 -30 35 -27 25 -54 46
-60 45 -5 0 8 -16 30 -35z"/>
<path d="M3530 4202 c0 -5 7 -13 16 -16 10 -4 14 -1 12 6 -5 15 -28 23 -28 10z"/>
<path d="M1738 4089 c-10 -5 -18 -16 -18 -24 0 -14 29 -35 48 -35 19 0 21 29
4 49 -13 16 -21 18 -34 10z"/>
<path d="M5276 4077 c3 -10 9 -15 12 -12 3 3 0 11 -7 18 -10 9 -11 8 -5 -6z"/>
<path d="M5305 4058 c5 -7 17 -23 28 -35 l19 -22 -23 6 c-13 3 -30 11 -38 17
-11 8 -13 8 -10 -1 2 -7 38 -39 79 -72 l75 -60 3 31 c2 21 -4 38 -20 55 -30
32 -122 99 -113 81z"/>
<path d="M1040 4026 c25 -29 100 -101 142 -138 40 -35 111 -100 184 -170 40
-37 77 -68 83 -68 15 0 1 13 -186 183 -84 76 -155 142 -158 147 -3 5 -24 23
-48 41 -40 31 -41 32 -17 5z"/>
<path d="M4342 4029 c2 -7 10 -15 17 -17 8 -3 12 1 9 9 -2 7 -10 15 -17 17 -8
3 -12 -1 -9 -9z"/>
<path d="M4975 4000 c-9 -17 -20 -30 -25 -30 -5 0 -12 -15 -15 -33 -5 -26 0
-43 27 -85 18 -28 38 -52 45 -52 13 0 29 155 19 194 -9 37 -33 40 -51 6z"/>
<path d="M5200 4011 c0 -5 35 -41 78 -81 54 -50 70 -70 52 -65 -14 4 -41 20
-60 35 -48 37 -90 63 -90 57 0 -18 145 -136 219 -180 l31 -18 0 49 c0 56 6 49
-147 156 -46 31 -83 52 -83 47z"/>
<path d="M50 3999 c0 -5 5 -7 10 -4 6 3 10 8 10 11 0 2 -4 4 -10 4 -5 0 -10
-5 -10 -11z"/>
<path d="M931 3954 c0 -11 3 -14 6 -6 3 7 2 16 -1 19 -3 4 -6 -2 -5 -13z"/>
<path d="M86 3946 c3 -8 13 -17 22 -21 13 -5 13 -2 -3 15 -21 24 -26 25 -19 6z"/>
<path d="M83 3902 c-10 -6 -10 -12 2 -28 14 -18 14 -18 15 9 0 30 0 30 -17 19z"/>
<path d="M5179 3883 c22 -41 179 -162 230 -178 20 -6 23 -4 18 10 -4 9 -7 18
-7 21 0 5 -237 164 -245 164 -3 0 -1 -8 4 -17z"/>
<path d="M10 3851 c0 -6 5 -13 11 -17 6 -3 8 -16 5 -29 -4 -15 1 -28 14 -40
11 -10 20 -13 20 -7 0 7 -4 12 -8 12 -4 0 -6 16 -4 36 3 24 0 39 -9 45 -18 11
-29 11 -29 0z"/>
<path d="M560 3850 c0 -5 5 -10 10 -10 6 0 10 -7 10 -17 0 -9 3 -14 6 -10 8 8
-5 47 -17 47 -5 0 -9 -4 -9 -10z"/>
<path d="M980 3840 c0 -14 26 -23 41 -15 8 6 7 10 -2 16 -19 12 -39 11 -39 -1z"/>
<path d="M880 3822 c0 -16 58 -64 72 -60 9 3 2 15 -21 36 -33 31 -51 40 -51
24z"/>
<path d="M257 3790 c3 -11 9 -20 14 -20 11 0 11 3 3 24 -9 23 -23 20 -17 -4z"/>
<path d="M1040 3800 c0 -5 5 -10 11 -10 5 0 7 5 4 10 -3 6 -8 10 -11 10 -2 0
-4 -4 -4 -10z"/>
<path d="M1092 3785 c-7 -8 -11 -15 -10 -16 2 0 15 -2 30 -3 22 -1 25 1 17 16
-12 22 -20 22 -37 3z"/>
<path d="M725 3780 c3 -5 8 -10 11 -10 2 0 4 5 4 10 0 6 -5 10 -11 10 -5 0 -7
-4 -4 -10z"/>
<path d="M4266 3782 c-3 -5 15 -25 39 -46 53 -44 59 -34 11 18 -37 38 -42 41
-50 28z"/>
<path d="M5200 3775 c0 -7 24 -30 53 -51 28 -21 54 -41 57 -45 12 -16 104 -68
111 -63 24 14 -1 38 -106 102 -68 42 -115 65 -115 57z"/>
<path d="M542 3771 c4 -13 18 -16 19 -4 0 4 -5 9 -11 12 -7 2 -11 -2 -8 -8z"/>
<path d="M70 3746 c0 -8 5 -18 10 -21 6 -3 10 1 10 9 0 8 -4 18 -10 21 -5 3
-10 -1 -10 -9z"/>
<path d="M295 3740 c-3 -11 -11 -20 -16 -20 -5 0 -9 -8 -9 -17 0 -15 4 -14 19
6 18 23 19 23 29 5 10 -18 11 -18 17 -2 4 10 1 24 -8 33 -20 20 -24 19 -32 -5z"/>
<path d="M598 3738 c23 -23 39 -20 29 7 -4 8 -17 15 -29 15 l-22 0 22 -22z"/>
<path d="M5140 3725 c-10 -12 -9 -15 7 -15 28 0 35 -11 19 -29 -11 -12 -15
-64 -18 -223 l-3 -208 42 0 c44 0 63 14 44 33 -14 14 -14 144 -1 247 7 49 7
77 0 84 -6 6 -10 20 -10 32 0 13 -11 35 -25 50 -14 15 -25 31 -25 35 0 14 -16
10 -30 -6z"/>
<path d="M501 3714 c0 -11 3 -14 6 -6 3 7 2 16 -1 19 -3 4 -6 -2 -5 -13z"/>
<path d="M420 3711 c0 -5 5 -13 10 -16 6 -3 10 -2 10 4 0 5 -4 13 -10 16 -5 3
-10 2 -10 -4z"/>
<path d="M456 3682 c-3 -5 1 -15 9 -22 16 -14 20 -3 6 19 -5 8 -11 9 -15 3z"/>
<path d="M730 3660 c23 -32 40 -39 40 -17 0 17 -32 47 -49 47 -8 0 -5 -11 9
-30z"/>
<path d="M620 3656 c0 -14 5 -28 10 -31 6 -3 10 5 10 19 0 14 -4 28 -10 31 -6
3 -10 -5 -10 -19z"/>
<path d="M4230 3633 c0 -13 15 -33 40 -53 23 -18 43 -31 45 -29 1 2 -17 27
-41 54 -36 42 -44 46 -44 28z"/>
<path d="M4437 3623 c-3 -5 -1 -18 6 -27 14 -19 47 -12 47 10 0 17 -16 18 -26
2 -5 -8 -9 -6 -14 7 -4 11 -9 14 -13 8z"/>
<path d="M5300 3622 c0 -13 96 -92 111 -92 25 0 3 32 -44 64 -53 37 -67 42
-67 28z"/>
<path d="M770 3596 c0 -7 6 -19 14 -25 11 -9 12 -6 8 14 -5 26 -22 35 -22 11z"/>
<path d="M4240 3565 c0 -3 8 -18 17 -32 19 -29 22 -29 -29 -8 -10 4 -12 -11
-8 -62 3 -38 2 -126 -2 -196 -6 -116 -5 -130 11 -146 18 -18 19 -17 25 33 3
28 6 81 6 119 0 37 4 67 10 67 5 0 25 -16 45 -37 19 -20 37 -34 39 -32 11 13
-26 105 -63 154 -23 31 -41 61 -38 68 2 6 21 -12 41 -41 43 -59 66 -70 36 -17
-11 20 -20 44 -20 54 0 10 -7 24 -15 31 -8 7 -15 18 -15 25 0 7 -7 16 -16 19
-19 7 -24 8 -24 1z m36 -143 c29 -35 60 -111 35 -87 -17 17 -80 125 -73 124 4
0 21 -17 38 -37z"/>
<path d="M2510 3550 c0 -5 5 -10 11 -10 5 0 7 5 4 10 -3 6 -8 10 -11 10 -2 0
-4 -4 -4 -10z"/>
<path d="M4429 3493 c-5 -59 2 -307 10 -320 17 -32 23 -5 13 59 -6 35 -9 109
-6 166 2 63 0 102 -6 102 -6 0 -10 -3 -11 -7z"/>
<path d="M4367 3484 c-3 -4 -2 -15 3 -24 5 -10 9 -64 8 -119 -1 -86 1 -105 16
-119 17 -16 18 -16 13 3 -3 11 -8 72 -12 135 -6 109 -13 139 -28 124z"/>
<path d="M4281 3193 c0 -38 0 -72 -1 -78 -5 -23 1 -758 6 -766 9 -15 27 -10
21 5 -9 23 -10 679 -1 700 5 13 3 21 -4 24 -17 5 -15 29 4 36 12 4 13 10 6 19
-6 6 -9 28 -7 47 3 43 -4 80 -17 80 -5 0 -8 -30 -7 -67z"/>
<path d="M4377 3153 c-11 -77 -2 -172 17 -190 17 -17 18 -15 12 57 -6 71 -7
90 -6 134 2 39 -18 38 -23 -1z"/>
<path d="M4450 3018 c0 -72 4 -109 13 -116 9 -8 11 12 7 98 -3 60 -8 112 -12
116 -5 4 -8 -40 -8 -98z"/>
<path d="M4221 2754 c-1 -277 1 -323 15 -340 14 -17 15 8 9 286 -8 424 -23
458 -24 54z"/>
<path d="M4320 3043 c0 -13 5 -23 10 -23 13 0 13 11 0 30 -8 12 -10 11 -10 -7z"/>
<path d="M5372 2981 c-71 -24 -76 -30 -63 -77 6 -22 11 -56 11 -76 0 -29 6
-41 25 -54 35 -23 46 -7 14 20 -14 12 -23 28 -21 35 4 11 6 11 13 0 6 -10 9
-6 9 14 0 27 13 36 25 17 3 -5 15 -10 26 -10 17 0 19 -7 19 -79 0 -89 -6 -83
98 -97 28 -3 52 -10 52 -15 0 -4 10 -9 23 -11 33 -5 33 -39 0 -61 -27 -18 -27
-18 -3 -11 47 13 213 109 228 133 15 22 14 25 -19 52 -45 39 -139 90 -151 83
-5 -3 -15 0 -23 6 -16 13 -35 5 -35 -14 0 -13 -85 -56 -109 -56 -18 0 -13 22
11 47 20 21 20 24 5 41 -10 10 -17 32 -17 49 0 27 -22 57 -55 76 -6 3 -34 -3
-63 -12z m131 -258 c-7 -2 -19 -2 -25 0 -7 3 -2 5 12 5 14 0 19 -2 13 -5z"/>
<path d="M4329 2940 c-9 -57 6 -629 17 -640 9 -9 11 60 7 277 -5 275 -14 420
-24 363z"/>
<path d="M4385 2910 c3 -5 8 -10 11 -10 2 0 4 5 4 10 0 6 -5 10 -11 10 -5 0
-7 -4 -4 -10z"/>
<path d="M6508 2879 c-6 -39 13 -48 47 -21 l25 20 -25 16 c-34 23 -42 20 -47
-15z"/>
<path d="M6002 2848 c-16 -63 -24 -132 -16 -151 17 -46 74 7 74 70 0 40 -18
99 -34 112 -11 9 -16 3 -24 -31z"/>
<path d="M4383 2788 c3 -119 22 -121 22 -1 0 60 -4 88 -12 90 -10 4 -12 -18
-10 -89z"/>
<path d="M4440 2784 c0 -64 3 -85 12 -82 7 3 13 16 12 29 0 13 -1 50 -2 82 -3
92 -22 67 -22 -29z"/>
<path d="M2669 2818 c0 -23 -4 -65 -9 -93 -9 -55 4 -100 29 -100 16 0 34 57
43 135 5 42 3 47 -28 73 l-34 29 -1 -44z"/>
<path d="M5068 2749 c-24 -14 -23 -41 3 -57 25 -16 26 -16 34 31 8 40 -2 47
-37 26z"/>
<path d="M4446 2682 c-9 -15 -6 -252 3 -252 16 0 19 28 15 140 -4 113 -7 130
-18 112z"/>
<path d="M4387 2673 c-9 -16 -4 -409 4 -425 19 -35 32 -20 25 30 -3 26 -6 127
-7 225 0 155 -6 198 -22 170z"/>
<path d="M5071 2620 c0 -8 4 -22 9 -30 12 -18 12 -2 0 25 -6 13 -9 15 -9 5z"/>
<path d="M5457 2624 c-3 -3 -3 -12 -1 -19 3 -7 1 -16 -5 -20 -6 -3 -11 -15
-11 -26 0 -15 5 -18 25 -15 34 6 42 12 48 36 7 26 -38 62 -56 44z"/>
<path d="M6823 2590 c28 -22 42 -24 29 -4 -4 6 -18 15 -32 19 -25 7 -25 7 3
-15z"/>
<path d="M5072 2488 c-1 -40 -7 -75 -13 -78 -6 -4 -7 -18 -3 -33 4 -17 2 -27
-5 -27 -16 0 -14 -29 4 -46 21 -22 32 -11 44 47 15 70 14 131 -4 156 -11 15
-12 22 -3 25 6 2 8 10 4 16 -15 25 -21 10 -24 -60z"/>
<path d="M4443 2300 c4 -68 9 -125 11 -128 16 -15 20 21 16 124 -4 89 -8 119
-19 122 -12 4 -13 -15 -8 -118z"/>
<path d="M65 2288 c3 -24 9 -58 12 -77 4 -24 2 -32 -7 -29 -13 4 -40 71 -40
99 0 9 -6 21 -13 27 -11 9 -13 -5 -10 -80 1 -51 7 -96 13 -102 5 -5 10 -6 10
-2 0 5 8 -2 18 -14 l19 -23 0 31 c0 56 22 58 26 3 2 -27 7 -34 27 -33 53 2
161 13 175 18 36 14 -14 34 -87 34 l-68 0 0 36 c0 45 -48 154 -67 154 -12 0
-13 -9 -8 -42z"/>
<path d="M5023 2273 c9 -9 20 -13 24 -9 4 4 1 11 -7 16 -25 16 -35 11 -17 -7z"/>
<path d="M9438 1727 c-26 -34 -68 -89 -94 -122 l-46 -60 53 56 c67 70 159 176
159 183 0 22 -32 -4 -72 -57z"/>
<path d="M8170 1510 c0 -5 5 -10 10 -10 6 0 10 5 10 10 0 6 -4 10 -10 10 -5 0
-10 -4 -10 -10z"/>
<path d="M9235 1480 c-16 -16 -24 -30 -19 -30 6 0 20 14 32 30 13 17 21 30 19
30 -2 0 -16 -13 -32 -30z"/>
<path d="M8774 1418 c-33 -35 -95 -103 -139 -153 -44 -49 -84 -95 -90 -101 -5
-6 -42 -47 -82 -90 -39 -43 -80 -89 -90 -101 -55 -63 -106 -114 -128 -129 -14
-9 -23 -19 -21 -21 10 -11 69 42 160 145 52 59 128 143 167 187 170 190 289
325 286 325 -2 0 -30 -28 -63 -62z"/>
<path d="M5475 1210 c-3 -5 -3 -21 1 -35 4 -18 2 -25 -8 -25 -8 0 -23 -9 -33
-20 -10 -11 -24 -20 -31 -20 -6 0 -17 -14 -23 -30 -8 -25 -7 -32 4 -36 19 -7
117 50 214 123 3 2 0 8 -6 14 -8 8 -18 6 -37 -6 -25 -17 -26 -16 -26 2 0 33
-40 58 -55 33z"/>
<path d="M5430 1159 c0 -5 5 -7 10 -4 6 3 10 8 10 11 0 2 -4 4 -10 4 -5 0 -10
-5 -10 -11z"/>
<path d="M5350 1125 c-6 -8 -9 -19 -5 -24 8 -13 45 9 45 26 0 18 -25 16 -40
-2z"/>
<path d="M8356 15 c-11 -8 -15 -15 -10 -15 6 0 19 7 30 15 10 8 15 14 9 14 -5
0 -19 -6 -29 -14z"/>
</g>
</svg>
