<svg xmlns="http://www.w3.org/2000/svg" xmlns:xlink="http://www.w3.org/1999/xlink" width="500" zoomAndPan="magnify" viewBox="0 0 375 374.999991" height="500" preserveAspectRatio="xMidYMid meet" version="1.0"><defs><clipPath id="56647867e5"><path d="M 0 82.03125 L 375 82.03125 L 375 292.78125 L 0 292.78125 Z M 0 82.03125 " clip-rule="nonzero"/></clipPath></defs><path fill="#eb134f" d="M 309.050781 191.074219 C 309.433594 192.1875 309.835938 193.347656 310.257812 194.554688 L 311.410156 197.863281 C 312.394531 200.691406 313.433594 203.671875 314.496094 206.691406 L 317.945312 216.410156 C 320.640625 223.90625 322.8125 229.765625 324.410156 233.8125 L 325.375 236.273438 L 325.949219 233.695312 C 326.664062 230.46875 327.253906 226.09375 326.960938 224.65625 C 326.832031 224.007812 326.542969 222.996094 326.242188 221.921875 L 326.128906 221.519531 C 325.785156 220.316406 325.402344 218.960938 325.089844 217.632812 C 324.773438 216.277344 324.570312 215.074219 324.476562 214.050781 C 324.363281 212.910156 324.386719 211.988281 324.542969 211.238281 C 324.589844 211.015625 324.65625 210.777344 324.75 210.511719 C 325.011719 209.761719 325.453125 208.75 326.058594 207.515625 C 327.082031 205.457031 328.558594 202.738281 330.457031 199.429688 C 330.851562 198.738281 331.246094 198.066406 331.621094 197.421875 L 331.96875 196.832031 C 323.179688 189.902344 314.113281 190.144531 309.050781 191.074219 " fill-opacity="1" fill-rule="nonzero"/><path fill="#c8193e" d="M 334.820312 192.054688 C 334.914062 191.910156 335.015625 191.792969 335.117188 191.691406 L 341.800781 185.464844 L 341.058594 184.882812 C 339.082031 183.335938 336.761719 182.066406 334.160156 181.105469 C 331.695312 180.207031 328.953125 179.574219 326.015625 179.230469 C 324.082031 179 322.054688 178.886719 319.984375 178.886719 C 314.441406 178.886719 309.5 179.679688 306.328125 180.347656 L 305.4375 180.535156 L 307.203125 185.699219 C 307.75 187.285156 308.371094 189.097656 309.050781 191.074219 C 314.113281 190.144531 323.179688 189.902344 331.96875 196.832031 L 332.097656 196.609375 C 333.339844 194.507812 334.371094 192.800781 334.820312 192.054688 " fill-opacity="1" fill-rule="nonzero"/><path fill="#eb134f" d="M 172.371094 161.558594 L 175.996094 168.421875 L 241.023438 132.328125 L 250.046875 125.890625 L 249.261719 125.222656 C 248.691406 124.734375 248.367188 124.015625 248.367188 123.242188 C 248.367188 122.90625 248.433594 122.566406 248.574219 122.242188 L 248.625 122.050781 C 248.632812 121.984375 248.65625 121.890625 248.714844 121.824219 L 251.015625 118.867188 C 251.054688 118.820312 251.105469 118.777344 251.164062 118.753906 L 251.425781 118.632812 L 251.476562 118.53125 L 253.851562 116.773438 L 252.703125 116.179688 C 248.027344 113.757812 241.183594 112.570312 238.207031 112.28125 C 235.671875 112.085938 176.050781 107.445312 172.558594 107.445312 L 171.984375 107.445312 C 169.304688 107.445312 167.730469 107.9375 163.988281 118.472656 C 160.792969 127.476562 157.148438 132.460938 155.257812 134.632812 L 154.855469 135.097656 L 172.292969 161.421875 C 172.3125 161.453125 172.332031 161.476562 172.371094 161.558594 " fill-opacity="1" fill-rule="nonzero"/><path fill="#eb134f" d="M 88.640625 118.011719 C 87.046875 113.207031 85.238281 104.382812 84.539062 100.804688 L 84.410156 100.164062 L 36.304688 99.476562 L 40.523438 101.097656 C 50.496094 104.941406 80.851562 116.625 87.644531 119.152344 L 89.578125 119.894531 L 88.660156 118.0625 L 88.640625 118.011719 " fill-opacity="1" fill-rule="nonzero"/><path fill="#eb134f" d="M 275.5 164.019531 C 275.972656 164.019531 276.433594 164.226562 276.738281 164.574219 C 277.144531 165.03125 277.253906 165.675781 277.023438 166.242188 L 264.507812 196.8125 C 264.253906 197.421875 263.664062 197.816406 263.007812 197.816406 C 262.9375 197.816406 262.867188 197.8125 262.761719 197.792969 L 258.117188 197.066406 L 252.410156 196.179688 C 251.949219 196.109375 251.539062 195.835938 251.292969 195.421875 C 251.105469 195.121094 251.027344 194.769531 251.0625 194.425781 C 251.074219 194.308594 251.097656 194.195312 251.136719 194.082031 L 251.976562 191.550781 L 251.972656 191.550781 L 259.457031 168.964844 C 259.625 168.441406 260.042969 168.050781 260.574219 167.910156 L 275.105469 164.070312 C 275.234375 164.039062 275.367188 164.019531 275.5 164.019531 Z M 329.980469 151.488281 C 331.632812 150.992188 333.921875 144.71875 335.261719 138.769531 C 335.355469 138.371094 335.441406 137.976562 335.519531 137.585938 L 335.589844 137.25 L 335.394531 136.964844 C 334.59375 135.789062 331.921875 131.902344 328.40625 127.074219 C 328.199219 126.789062 327.992188 126.503906 327.777344 126.214844 C 327.59375 125.960938 327.40625 125.703125 327.210938 125.445312 C 326.269531 124.160156 325.277344 122.835938 324.257812 121.480469 C 324.230469 121.445312 324.195312 121.402344 324.167969 121.363281 C 323.082031 119.929688 321.960938 118.476562 320.828125 117.039062 C 320.082031 116.09375 319.328125 115.148438 318.574219 114.222656 L 318.433594 114.089844 C 312.722656 109.804688 302.046875 103.402344 283.574219 97.226562 L 277.246094 95.109375 L 282.886719 98.671875 C 284.738281 99.84375 286.511719 101.015625 288.203125 102.1875 C 289.046875 102.773438 289.871094 103.355469 290.671875 103.9375 C 291.078125 104.230469 291.472656 104.519531 291.863281 104.804688 C 301.621094 112.03125 307.949219 118.734375 309.332031 122.183594 C 310.632812 125.429688 310.804688 132.449219 307.128906 137.878906 C 305.03125 140.96875 300.890625 144.652344 293.042969 144.652344 C 290.304688 144.652344 287.253906 144.195312 283.984375 143.296875 C 283.800781 143.242188 283.636719 143.167969 283.492188 143.070312 C 274.230469 136.6875 266.101562 133.933594 263.148438 133.070312 C 262.949219 133.015625 262.773438 132.96875 262.625 132.921875 L 262.480469 132.886719 L 255.046875 133.625 L 213.65625 158.203125 L 213.34375 158.390625 L 213.34375 166.75 C 213.34375 167.105469 213.21875 167.464844 212.992188 167.757812 C 212.546875 168.34375 210.664062 170.90625 209.066406 174.136719 C 206.886719 178.554688 205.230469 184.222656 208.492188 187.863281 C 211.804688 191.5625 215.097656 194.476562 217.742188 196.820312 C 220.898438 199.613281 222.804688 201.300781 223.359375 202.953125 C 224.214844 205.519531 225.050781 211.777344 225.050781 213.953125 C 225.050781 215.933594 223.78125 220.921875 223.386719 222.429688 C 223.324219 222.660156 223.214844 222.867188 223.0625 223.050781 C 222.929688 223.207031 222.769531 223.339844 222.597656 223.433594 C 222.507812 223.484375 222.417969 223.523438 222.328125 223.554688 C 222.230469 223.585938 222.136719 223.609375 222.039062 223.621094 C 221.898438 223.636719 205.960938 225.640625 200.128906 227.589844 C 196.328125 228.847656 194.527344 231.128906 192.425781 233.796875 C 191.503906 234.988281 190.578125 236.148438 189.449219 237.28125 C 184.996094 241.730469 173.949219 242.152344 171.792969 242.191406 L 171.613281 242.191406 C 170.457031 242.191406 168.878906 242 167.054688 241.777344 C 164.730469 241.488281 161.835938 241.125 159.121094 241.125 C 158.507812 241.125 157.929688 241.144531 157.386719 241.1875 C 155.753906 241.300781 154.433594 241.585938 153.453125 242.039062 C 150.695312 243.3125 145.699219 246.210938 141.34375 248.925781 C 138.734375 250.558594 136.355469 252.125 134.832031 253.238281 L 133.847656 253.957031 L 134.890625 254.582031 C 136.777344 255.714844 139.765625 257.074219 142.191406 257.554688 C 145.449219 258.207031 223.699219 264.296875 250.214844 264.296875 C 250.550781 264.296875 250.878906 264.296875 251.195312 264.296875 C 253.410156 264.28125 255.140625 264.222656 256.359375 264.117188 L 257.191406 264.050781 L 257.089844 263.21875 C 254.8125 244.582031 255.527344 222.765625 262.269531 216.042969 C 262.96875 215.339844 263.949219 214.339844 265.132812 213.109375 C 266.292969 211.914062 267.722656 210.425781 269.476562 208.589844 C 269.515625 208.550781 269.546875 208.519531 269.585938 208.480469 L 269.828125 208.226562 C 271.164062 206.824219 272.679688 205.234375 274.425781 203.394531 L 277.199219 200.476562 C 279.144531 198.433594 281.171875 196.296875 283.234375 194.125 L 284.898438 192.367188 C 287.480469 189.640625 290.082031 186.90625 292.574219 184.285156 L 296.425781 180.230469 C 296.898438 179.738281 297.390625 179.222656 297.894531 178.691406 C 298.148438 178.425781 298.410156 178.152344 298.667969 177.882812 C 302.050781 174.332031 305.902344 170.320312 307.898438 168.328125 C 314.933594 161.300781 325.375 152.863281 329.980469 151.488281 " fill-opacity="1" fill-rule="nonzero"/><path fill="#c8193e" d="M 238.242188 217.449219 C 234.734375 222.414062 230.277344 223.566406 223.683594 223.566406 C 223.292969 224.03125 222.746094 224.34375 222.121094 224.425781 C 221.960938 224.441406 206.105469 226.441406 200.378906 228.355469 C 196.804688 229.539062 195.15625 231.640625 193.066406 234.292969 C 192.144531 235.476562 191.191406 236.683594 190.019531 237.851562 C 185.335938 242.53125 174.015625 242.957031 171.792969 243 L 171.613281 243 C 170.410156 243 168.8125 242.804688 166.953125 242.578125 C 164.5 242.273438 161.722656 241.933594 159.121094 241.933594 C 156.796875 241.933594 154.996094 242.214844 153.792969 242.773438 C 149.382812 244.804688 139.289062 250.984375 135.308594 253.890625 C 137.066406 254.945312 139.992188 256.296875 142.347656 256.761719 C 145.609375 257.417969 223.769531 263.492188 250.214844 263.492188 C 253.300781 263.492188 255.164062 263.414062 256.289062 263.316406 C 253.96875 244.355469 254.746094 222.40625 261.699219 215.46875 C 262.394531 214.773438 263.371094 213.773438 264.550781 212.550781 C 266.6875 210.347656 269.640625 207.261719 273.835938 202.839844 C 276.582031 199.953125 279.578125 196.804688 282.648438 193.570312 L 284.3125 191.808594 C 286.894531 189.085938 289.496094 186.347656 291.992188 183.726562 C 293.265625 182.386719 294.5625 181.023438 295.84375 179.675781 C 288.492188 186.441406 268.671875 204.046875 258.699219 206.605469 C 246.316406 209.785156 243.085938 210.59375 238.242188 217.449219 " fill-opacity="1" fill-rule="nonzero"/><path fill="#f4f4f4" d="M 258.6875 168.710938 C 258.945312 167.929688 259.574219 167.339844 260.367188 167.128906 L 271.265625 164.25 L 237.1875 145.171875 L 214.269531 158.78125 L 251.042969 191.796875 L 258.6875 168.710938 " fill-opacity="1" fill-rule="nonzero"/><path fill="#f4f4f4" d="M 265.253906 197.121094 C 264.871094 198.03125 263.992188 198.621094 263.007812 198.621094 C 262.886719 198.621094 262.757812 198.613281 262.636719 198.589844 L 257.753906 197.828125 L 269 207.921875 C 270.398438 206.457031 271.992188 204.785156 273.835938 202.839844 C 276.582031 199.953125 279.578125 196.804688 282.648438 193.570312 L 284.3125 191.808594 C 286.894531 189.085938 289.496094 186.347656 291.992188 183.726562 C 293.265625 182.386719 294.5625 181.023438 295.84375 179.675781 C 296.191406 179.3125 296.535156 178.953125 296.878906 178.59375 L 277.324219 167.644531 L 265.253906 197.121094 " fill-opacity="1" fill-rule="nonzero"/><path fill="#f6be0a" d="M 292.195312 222.09375 L 305.695312 226.632812 C 306.203125 226.804688 306.753906 226.804688 307.253906 226.628906 L 308.886719 226.070312 C 309.339844 226.128906 309.75 226.054688 310.148438 225.878906 L 316.121094 223.238281 C 317.949219 228.25 319.476562 232.308594 320.6875 235.363281 C 320.242188 235.195312 319.765625 235.101562 319.261719 235.101562 C 317.300781 235.101562 315.660156 236.503906 315.296875 238.359375 C 314.675781 237.753906 313.738281 237.496094 312.886719 237.761719 L 299.007812 242.085938 L 293.066406 239.828125 C 292.789062 239.722656 292.5 239.667969 292.210938 239.667969 C 291.902344 239.667969 291.605469 239.722656 291.3125 239.835938 L 287.96875 241.15625 C 287.582031 238.449219 288.125 234.480469 289.558594 229.582031 C 289.90625 228.386719 290.289062 227.203125 290.691406 226.054688 C 291.246094 224.449219 291.78125 223.09375 292.195312 222.09375 " fill-opacity="1" fill-rule="nonzero"/><path fill="#f6be0a" d="M 297.457031 185.003906 L 301.238281 181.03125 L 302.523438 184.5 C 303.457031 187.238281 304.773438 191.078125 306.300781 195.480469 L 307.367188 198.550781 C 308.359375 201.414062 309.417969 204.445312 310.507812 207.527344 L 312.761719 213.910156 C 313.132812 214.945312 313.496094 215.96875 313.859375 216.992188 L 314.464844 218.671875 L 310.539062 220.40625 L 297.457031 185.003906 " fill-opacity="1" fill-rule="nonzero"/><path fill="#f4f4f4" d="M 300.683594 219.84375 L 298.679688 219.164062 C 300.078125 217.613281 301.65625 216.234375 303.402344 215.058594 L 304.082031 216.890625 C 302.863281 217.769531 301.722656 218.75 300.683594 219.84375 " fill-opacity="1" fill-rule="nonzero"/><path fill="#f4f4f4" d="M 328.4375 212.601562 C 338.023438 216.703125 344.402344 226.273438 344.402344 236.71875 C 344.402344 251.179688 332.628906 262.941406 318.15625 262.941406 C 306.882812 262.941406 296.863281 255.675781 293.292969 245.089844 L 295.90625 246.082031 C 299.742188 255.003906 308.433594 260.75 318.15625 260.75 C 331.507812 260.75 342.367188 249.898438 342.367188 236.558594 C 342.367188 227.289062 336.988281 218.785156 328.621094 214.757812 C 328.476562 213.871094 328.410156 213.144531 328.4375 212.601562 " fill-opacity="1" fill-rule="nonzero"/><path fill="#ffffff" d="M 306.351562 102.507812 C 306.527344 102.636719 306.703125 102.78125 306.890625 102.9375 C 296.828125 97.445312 283.902344 92.609375 268.3125 88.527344 C 271.140625 87.824219 274.816406 87.230469 278.34375 86.914062 C 281.832031 88.46875 297.265625 95.519531 306.351562 102.507812 " fill-opacity="1" fill-rule="nonzero"/><path fill="#ffffff" d="M 259.824219 123.875 L 262.71875 128.828125 C 262.605469 128.828125 262.492188 128.828125 262.359375 128.839844 L 254.285156 129.644531 C 253.933594 129.683594 253.601562 129.796875 253.292969 129.976562 L 243.222656 135.953125 L 243.117188 135.785156 C 243.191406 135.734375 243.269531 135.6875 243.335938 135.640625 L 259.824219 123.875 " fill-opacity="1" fill-rule="nonzero"/><path fill="#c8193e" d="M 168.804688 109.777344 C 167.761719 111.152344 166.519531 113.761719 164.75 118.742188 C 161.570312 127.707031 157.96875 132.75 155.867188 135.164062 L 172.964844 160.972656 C 173.011719 161.046875 173.050781 161.113281 173.082031 161.183594 L 176.324219 167.316406 L 230.402344 137.296875 C 219.703125 126.472656 187.933594 115.597656 168.804688 109.777344 " fill-opacity="1" fill-rule="nonzero"/><path fill="#f4f4f4" d="M 172.964844 160.972656 C 173.011719 161.046875 173.050781 161.113281 173.082031 161.183594 L 176.324219 167.316406 L 210.164062 148.535156 C 199.617188 130.667969 180.054688 131.125 165.285156 128.886719 C 163.738281 128.65625 162.222656 128.3125 160.746094 127.894531 C 158.863281 131.402344 157.101562 133.742188 155.867188 135.164062 L 172.964844 160.972656 " fill-opacity="1" fill-rule="nonzero"/><path fill="#ffffff" d="M 243.117188 135.785156 L 243.222656 135.953125 L 210.492188 155.390625 C 209.753906 155.828125 209.304688 156.625 209.304688 157.472656 L 209.304688 165.953125 C 208.640625 166.871094 207.511719 168.523438 206.359375 170.628906 L 189.746094 179.296875 C 188.914062 179.175781 188.074219 179.117188 187.234375 179.117188 C 180.257812 179.117188 173.988281 182.96875 170.816406 189.171875 L 169.722656 189.738281 L 167.574219 177.707031 L 243.117188 135.785156 " fill-opacity="1" fill-rule="nonzero"/><path fill="#2c2a2a" d="M 121.636719 200.460938 C 120.867188 199.441406 120.621094 197.804688 120.933594 195.738281 L 120.964844 195.546875 L 117.902344 192.265625 C 106.945312 180.871094 95.03125 174.753906 86.96875 171.625 L 85.273438 170.972656 L 86.527344 172.28125 C 86.6875 172.453125 86.835938 172.632812 86.992188 172.847656 C 87.601562 173.707031 88.703125 175.179688 90.09375 176.992188 L 90.148438 177.070312 L 90.238281 177.109375 C 91.589844 177.773438 92.472656 178.339844 93.082031 178.953125 C 94.070312 179.9375 97.277344 183.394531 100.371094 187.242188 C 102.867188 190.355469 104.539062 192.789062 105.328125 194.476562 C 105.488281 194.816406 105.578125 195.472656 105.578125 196.273438 L 105.578125 196.417969 L 105.671875 196.527344 C 108.308594 199.726562 110.417969 202.207031 111.941406 203.902344 L 112.132812 204.109375 L 112.390625 204.007812 C 115.632812 202.746094 118.667969 201.765625 121.410156 201.09375 L 122 200.949219 L 121.636719 200.460938 " fill-opacity="1" fill-rule="nonzero"/><path fill="#ffffff" d="M 118.800781 153.871094 L 95.355469 168.753906 L 92.796875 168.136719 L 111.304688 150.386719 C 112.96875 151.105469 115.714844 152.332031 118.800781 153.871094 " fill-opacity="1" fill-rule="nonzero"/><path fill="#1c1b1a" d="M 117.96875 237.511719 C 117.402344 237.738281 116.820312 237.972656 116.214844 238.203125 C 115.214844 238.585938 113.3125 238.914062 110.472656 239.199219 C 110.457031 248.597656 107.554688 263.445312 92.539062 277.015625 C 105.953125 268.363281 115.558594 254.203125 117.96875 237.511719 " fill-opacity="1" fill-rule="nonzero"/><path fill="#1c1b1a" d="M 63.074219 178.921875 L 64.691406 172.570312 C 63.625 172.539062 62.601562 172.519531 61.730469 172.519531 C 40.933594 172.519531 22.722656 183.742188 12.8125 200.433594 C 31.367188 177.828125 53.878906 177.792969 63.074219 178.921875 " fill-opacity="1" fill-rule="nonzero"/><path fill="#f6be0a" d="M 116.507812 218.179688 C 116.5625 219.171875 116.222656 220.132812 115.5625 220.867188 C 114.851562 221.648438 113.839844 222.101562 112.789062 222.101562 C 111.871094 222.101562 110.984375 221.761719 110.304688 221.148438 L 99.015625 211.015625 C 98.273438 210.351562 97.835938 209.441406 97.785156 208.449219 C 97.769531 208.222656 97.777344 207.988281 97.820312 207.746094 C 97.917969 207.003906 98.230469 206.316406 98.730469 205.761719 C 98.910156 205.566406 99.113281 205.382812 99.328125 205.230469 C 99.976562 204.769531 100.726562 204.527344 101.503906 204.527344 C 102.421875 204.527344 103.3125 204.863281 103.988281 205.480469 L 115.277344 215.613281 C 116.019531 216.273438 116.460938 217.1875 116.507812 218.179688 " fill-opacity="1" fill-rule="nonzero"/><path fill="#ffffff" d="M 94.136719 201.550781 L 96.097656 201.601562 C 95.753906 201.878906 95.425781 202.195312 95.132812 202.527344 C 94.726562 202.972656 94.363281 203.476562 94.050781 204.027344 C 93.242188 205.449219 92.859375 207.066406 92.949219 208.707031 C 92.949219 208.796875 92.957031 208.894531 92.96875 208.980469 C 92.246094 208.292969 91.542969 207.609375 90.855469 206.9375 C 89.28125 205.417969 87.8125 203.953125 86.492188 202.625 C 84.058594 200.1875 82.195312 198.25 81.242188 197.164062 C 78.058594 193.53125 72.710938 192.988281 69.804688 192.988281 C 69.417969 192.988281 69.070312 193 68.753906 193.003906 C 68.351562 192.335938 67.753906 191.183594 67.042969 189.375 C 72.824219 190.125 78.285156 192.070312 83.277344 195.167969 C 86.238281 197.566406 89.179688 200.136719 90.792969 201.617188 C 91.148438 201.9375 91.585938 202.148438 92.0625 202.222656 C 92.828125 202.335938 93.59375 202.089844 94.136719 201.550781 " fill-opacity="1" fill-rule="nonzero"/><path fill="#c8193e" d="M 87.351562 121.628906 C 88.328125 123.957031 91.761719 131.792969 96.171875 138.292969 C 84.140625 131.441406 58.351562 116.539062 48.183594 109.714844 C 47.613281 108.382812 46.570312 106.957031 45.066406 105.445312 C 62.886719 112.296875 82.929688 119.996094 87.351562 121.628906 " fill-opacity="1" fill-rule="nonzero"/><path fill="#f6be0a" d="M 79.488281 238.570312 C 80.457031 238.027344 80.867188 237.800781 82.296875 237.867188 C 79.277344 246.152344 71.476562 251.65625 62.574219 251.65625 C 50.996094 251.65625 41.578125 242.25 41.578125 230.679688 C 41.578125 219.113281 50.996094 209.707031 62.574219 209.707031 C 68.15625 209.707031 73.511719 211.949219 77.441406 215.894531 C 71.28125 217.871094 66.121094 219.484375 64.101562 220.117188 L 51.457031 223.519531 C 50.503906 223.777344 49.808594 224.570312 49.679688 225.546875 L 48.203125 236.980469 C 48.121094 237.613281 48.296875 238.269531 48.695312 238.777344 C 49.089844 239.285156 49.6875 239.617188 50.328125 239.6875 C 52.148438 239.898438 61.617188 240.957031 68.667969 240.957031 C 71.53125 240.957031 73.574219 240.789062 74.90625 240.433594 C 77.257812 239.816406 78.542969 239.09375 79.488281 238.570312 " fill-opacity="1" fill-rule="nonzero"/><path fill="#c8193e" d="M 284.367188 155.628906 C 265.429688 164.835938 291.605469 170.554688 304.359375 170.785156 C 305.558594 169.550781 306.574219 168.507812 307.328125 167.757812 C 314.425781 160.667969 325.015625 152.128906 329.746094 150.71875 C 329.746094 150.71875 304.136719 146.015625 284.367188 155.628906 " fill-opacity="1" fill-rule="nonzero"/><path fill="#ffffff" d="M 120.351562 222.414062 C 120.027344 223.015625 119.632812 223.582031 119.164062 224.101562 C 117.855469 225.5625 116.078125 226.515625 114.171875 226.828125 C 116.003906 227.925781 118.46875 229.371094 121.539062 231.144531 C 122.691406 231.816406 123.886719 232.507812 125.097656 233.203125 C 132.097656 237.238281 139.53125 241.472656 142.792969 243.328125 C 143.191406 243.09375 143.570312 242.871094 143.960938 242.640625 C 137.113281 237.5 128.230469 229.65625 120.351562 222.414062 " fill-opacity="1" fill-rule="nonzero"/><path fill="#ffffff" d="M 68.671875 176.601562 L 67.488281 181.25 C 67.632812 181.242188 67.792969 181.242188 67.949219 181.242188 C 74.957031 181.242188 79.390625 182.128906 81.132812 183.863281 C 82.765625 185.496094 87.765625 191.011719 91.671875 195.363281 C 93.085938 196.933594 94.105469 198.074219 94.242188 198.21875 C 95.097656 199.179688 95.050781 200.648438 94.136719 201.550781 L 96.097656 201.601562 C 96.21875 201.503906 96.34375 201.414062 96.460938 201.324219 C 97.03125 200.910156 97.660156 200.578125 98.3125 200.316406 C 93.875 194.507812 85.890625 184.28125 81.570312 180.046875 C 78.28125 176.824219 72.949219 176.339844 68.671875 176.601562 " fill-opacity="1" fill-rule="nonzero"/><path fill="#656263" d="M 183.246094 221.226562 C 175.015625 217.824219 171.214844 210.480469 169.476562 204.914062 L 168.722656 202.5 L 161.984375 223.1875 C 161.828125 223.648438 161.484375 224.015625 161.03125 224.191406 C 160.601562 224.363281 160.082031 224.332031 159.664062 224.105469 L 149.199219 218.355469 L 149.019531 218.34375 C 148.472656 218.3125 147.898438 218.292969 147.296875 218.292969 C 145.355469 218.292969 143.566406 218.480469 142.265625 218.816406 L 140.902344 219.175781 L 159.652344 237.910156 L 159.972656 237.914062 C 162.53125 237.976562 165.253906 238.304688 167.242188 238.546875 L 167.4375 238.570312 C 169.300781 238.800781 170.691406 238.964844 171.605469 238.964844 L 171.734375 238.964844 C 177.542969 238.859375 184.570312 237.597656 187.164062 235 C 188.183594 233.984375 189.050781 232.875 189.933594 231.746094 C 191.144531 230.210938 192.398438 228.625 194.074219 227.261719 L 195.0625 226.460938 L 193.917969 225.910156 C 192.03125 225 188.644531 223.453125 183.246094 221.226562 " fill-opacity="1" fill-rule="nonzero"/><path fill="#252424" d="M 298.167969 198.589844 L 298.105469 198.414062 L 297.550781 198.921875 Z M 298.167969 198.589844 " fill-opacity="1" fill-rule="nonzero"/><path fill="#656263" d="M 343.792969 188.792969 L 343.277344 188.5 L 337.5625 193.828125 L 337.421875 194 C 336.847656 194.945312 336.207031 196.003906 335.550781 197.113281 L 335.109375 197.863281 L 335.886719 198.246094 C 350.164062 205.289062 359.382812 220.074219 359.382812 235.914062 C 359.382812 259.058594 340.539062 277.886719 317.375 277.886719 C 294.207031 277.886719 275.355469 259.058594 275.355469 235.914062 C 275.355469 228.265625 277.4375 220.9375 281.195312 214.589844 C 273.175781 223.808594 265.296875 235.933594 265.703125 247.707031 C 265.515625 247.472656 265.34375 247.25 265.164062 247.023438 C 270.539062 270.875 291.902344 288.753906 317.375 288.753906 C 346.886719 288.753906 370.902344 264.765625 370.902344 235.277344 C 370.902344 216.125 360.511719 198.3125 343.792969 188.792969 " fill-opacity="1" fill-rule="nonzero"/><path fill="#f4f4f4" d="M 281.195312 214.589844 C 289.027344 205.582031 297 199.347656 297.523438 198.941406 C 297.539062 198.925781 297.550781 198.921875 297.550781 198.921875 C 290.625 202.632812 285.035156 208.097656 281.195312 214.589844 " fill-opacity="1" fill-rule="nonzero"/><path fill="#2c2a2a" d="M 281.195312 214.589844 C 285.035156 208.097656 290.625 202.632812 297.550781 198.921875 L 298.105469 198.414062 L 294.042969 187.417969 L 286.511719 195.355469 C 278.394531 203.914062 272.144531 210.496094 268 214.796875 L 267.890625 214.90625 L 267.835938 215.046875 C 265.1875 221.476562 263.847656 228.28125 263.847656 235.277344 C 263.847656 239.3125 264.3125 243.242188 265.164062 247.023438 C 265.34375 247.25 265.515625 247.472656 265.703125 247.707031 C 265.296875 235.933594 273.175781 223.808594 281.195312 214.589844 " fill-opacity="1" fill-rule="nonzero"/><path fill="#1c1b1a" d="M 338.65625 191.988281 C 350.6875 201.683594 357.609375 205.011719 365.371094 225.785156 C 365.113281 218.203125 360.96875 199.527344 338.65625 191.988281 " fill-opacity="1" fill-rule="nonzero"/><path fill="#656263" d="M 137.277344 218.34375 C 138.96875 215.625 143.570312 215.058594 147.132812 215.058594 L 148.09375 215.058594 L 148.230469 207.085938 L 147.621094 206.921875 C 144.777344 206.144531 137.628906 204.277344 132.769531 203.65625 C 128.503906 203.113281 122.769531 204.109375 115.832031 206.59375 L 114.589844 207.035156 L 115.550781 207.941406 C 117.125 209.417969 119.5625 211.835938 123.390625 215.644531 C 126.050781 218.292969 130.496094 222.726562 134.871094 226.941406 C 135.753906 227.796875 136.644531 228.644531 137.519531 229.480469 C 144.488281 236.101562 148.6875 239.621094 150 239.933594 L 150.292969 240.003906 L 150.558594 239.867188 C 151.148438 239.570312 151.667969 239.3125 152.097656 239.117188 C 152.65625 238.855469 153.253906 238.644531 153.929688 238.46875 L 155.296875 238.117188 L 137.503906 220.335938 C 136.96875 219.800781 136.871094 218.980469 137.277344 218.34375 " fill-opacity="1" fill-rule="nonzero"/><path fill="#656263" d="M 215.605469 199.242188 C 213.058594 196.992188 209.566406 193.90625 206.082031 190.015625 C 205.53125 189.402344 205.066406 188.742188 204.695312 188.050781 L 204.691406 188.046875 C 203.222656 185.320312 203.054688 181.890625 204.195312 177.84375 L 204.703125 176.046875 L 194.433594 181.398438 L 195.753906 182.125 C 198.671875 183.734375 201.066406 186.136719 202.683594 189.070312 L 202.6875 189.078125 C 204.109375 191.664062 204.863281 194.597656 204.863281 197.550781 C 204.863281 201.625 203.429688 205.601562 200.832031 208.75 L 200.824219 208.761719 C 197.453125 212.828125 192.5 215.160156 187.234375 215.160156 C 184.835938 215.160156 182.503906 214.683594 180.292969 213.734375 L 175.667969 211.75 L 179.441406 215.078125 C 180.960938 216.421875 182.65625 217.484375 184.488281 218.238281 C 192.589844 221.589844 196.640625 223.609375 198.335938 224.515625 L 198.75 224.660156 L 199.097656 224.523438 C 200.277344 224.136719 201.824219 223.734375 203.691406 223.335938 L 205.195312 223.011719 L 204.074219 221.957031 C 202.328125 220.316406 201.367188 218.097656 201.367188 215.703125 C 201.367188 213.683594 202.046875 211.796875 203.328125 210.238281 L 203.339844 210.230469 C 204.980469 208.234375 207.398438 207.09375 209.972656 207.09375 C 214.726562 207.09375 218.589844 210.953125 218.589844 215.703125 C 218.589844 217.070312 218.25 218.445312 217.609375 219.667969 L 216.882812 221.054688 L 218.796875 220.792969 C 219.238281 220.734375 219.636719 220.675781 219.984375 220.632812 L 220.535156 220.5625 L 220.667969 220.023438 C 220.9375 218.921875 221.820312 215.222656 221.820312 213.953125 C 221.820312 212.066406 221.03125 206.203125 220.285156 203.96875 C 220.039062 203.25 218.578125 201.875 215.605469 199.242188 " fill-opacity="1" fill-rule="nonzero"/><path fill="#2c2a2a" d="M 288.769531 141.042969 C 290.304688 141.292969 291.742188 141.421875 293.042969 141.421875 C 296.492188 141.421875 299.375 140.605469 301.621094 138.988281 L 302.277344 138.515625 L 287.753906 118.386719 L 279.5 118.902344 L 288.316406 140.96875 L 288.769531 141.042969 " fill-opacity="1" fill-rule="nonzero"/><path fill="#2c2a2a" d="M 269.3125 131.804688 C 272.335938 133.003906 277.03125 135.121094 282.234375 138.386719 L 284.332031 139.703125 L 275.824219 118.410156 L 275.132812 118.589844 C 274.25 118.824219 273.191406 118.886719 272.804688 118.898438 C 272.371094 118.898438 271.960938 118.746094 271.648438 118.476562 L 270.347656 117.34375 L 270.171875 124.832031 C 270.160156 125.265625 269.96875 125.683594 269.65625 125.980469 C 269.355469 126.257812 268.964844 126.40625 268.558594 126.40625 L 268.484375 126.410156 L 265.898438 126.277344 L 269.054688 131.703125 L 269.3125 131.804688 " fill-opacity="1" fill-rule="nonzero"/><path fill="#252424" d="M 262.25 170.804688 L 254.804688 193.285156 L 261.996094 194.410156 L 272.800781 168.019531 L 262.25 170.804688 " fill-opacity="1" fill-rule="nonzero"/><path fill="#656263" d="M 209.972656 208.707031 C 206.117188 208.707031 202.984375 211.847656 202.984375 215.703125 C 202.984375 218.773438 205.042969 221.527344 207.996094 222.398438 L 208.179688 222.453125 L 208.363281 222.417969 C 209.949219 222.136719 211.738281 221.835938 213.6875 221.535156 L 213.871094 221.507812 L 214.027344 221.394531 C 215.875 220.089844 216.976562 217.960938 216.976562 215.703125 C 216.976562 211.847656 213.835938 208.707031 209.972656 208.707031 " fill-opacity="1" fill-rule="nonzero"/><path fill="#656263" d="M 151.160156 161.910156 C 145.964844 157.265625 140.402344 152.070312 137.351562 149.195312 C 125.636719 144.714844 114.085938 138.957031 112.050781 137.929688 C 107.839844 135.933594 97.804688 130.800781 95.476562 126.265625 L 95.355469 126.03125 L 95.113281 125.910156 C 94.386719 125.550781 93.679688 125.101562 93.019531 124.566406 L 90.246094 122.34375 L 91.785156 125.546875 C 94.472656 131.140625 98.59375 138.667969 102.96875 142.785156 L 103.070312 142.882812 L 103.199219 142.9375 C 106.613281 144.414062 110.921875 145.890625 111.3125 146.011719 L 111.589844 145.253906 L 111.402344 146.046875 C 111.457031 146.066406 117.117188 148.386719 123.171875 151.570312 L 123.585938 151.785156 L 123.640625 151.75 L 123.722656 151.863281 L 123.878906 151.945312 C 129.378906 154.886719 133.371094 157.582031 135.746094 159.960938 C 140.164062 164.378906 148.253906 173.726562 150.554688 180.757812 L 150.84375 181.648438 L 159.632812 177.253906 L 160.851562 174.820312 C 160.851562 174.820312 158.832031 168.769531 151.160156 161.910156 " fill-opacity="1" fill-rule="nonzero"/><path fill="#1c1b1a" d="M 173.164062 169.992188 L 169.574219 163.171875 L 163.179688 153.515625 L 162.523438 153.890625 C 162.433594 153.945312 162.328125 153.988281 162.238281 154.035156 C 161.277344 154.46875 160.015625 154.6875 158.476562 154.6875 C 153.296875 154.6875 145.285156 152.234375 137.351562 149.195312 C 140.402344 152.070312 145.964844 157.265625 151.160156 161.910156 C 158.832031 168.769531 160.851562 174.820312 160.851562 174.820312 L 159.632812 177.253906 L 164.164062 174.984375 L 173.164062 169.992188 " fill-opacity="1" fill-rule="nonzero"/><path fill="#2c2a2a" d="M 167.132812 194.816406 C 166.71875 194.585938 166.417969 194.167969 166.339844 193.695312 L 164.835938 185.300781 L 163.675781 178.84375 L 151.847656 184.757812 L 151.3125 215.828125 L 152.867188 216.683594 L 159.515625 220.34375 L 167.722656 195.140625 L 167.132812 194.816406 " fill-opacity="1" fill-rule="nonzero"/><path fill="#2c2a2a" d="M 113.46875 135.027344 C 126.582031 141.660156 149.351562 151.523438 158.339844 151.523438 C 159.203125 151.523438 159.894531 151.441406 160.457031 151.261719 L 161.476562 150.9375 L 151.875 136.445312 L 151.472656 136.421875 C 147.71875 136.214844 128.605469 135.089844 120.980469 133.644531 C 116.726562 132.832031 111.273438 131.058594 106.492188 129.460938 L 99.582031 127.152344 L 105.816406 130.914062 C 108.246094 132.378906 110.898438 133.804688 113.46875 135.027344 " fill-opacity="1" fill-rule="nonzero"/><path fill="#656263" d="M 113.28125 238.039062 C 111.621094 238.296875 109.375 238.519531 106.507812 238.714844 L 105.902344 238.757812 L 105.773438 239.355469 C 101.410156 259.992188 82.886719 274.972656 61.730469 274.972656 C 36.902344 274.972656 16.699219 254.792969 16.699219 229.984375 C 16.699219 205.175781 36.902344 184.992188 61.730469 184.992188 L 62.523438 184.992188 C 58.902344 182.925781 51.140625 182.03125 37.425781 184.773438 C 11.726562 193.160156 4.789062 226.535156 4.105469 230.167969 C 4.570312 261.527344 30.230469 286.898438 61.730469 286.898438 C 66.914062 286.898438 71.96875 286.1875 76.789062 284.871094 C 103.894531 270.871094 111.722656 244.566406 113.28125 238.039062 " fill-opacity="1" fill-rule="nonzero"/><path fill="#2c2a2a" d="M 118.769531 237.628906 L 118.96875 236.246094 L 117.417969 236.863281 C 116.933594 237.058594 116.4375 237.257812 115.929688 237.453125 C 115.375 237.664062 114.476562 237.859375 113.28125 238.039062 C 111.722656 244.566406 103.894531 270.871094 76.789062 284.871094 C 98.441406 278.945312 115.449219 260.597656 118.769531 237.628906 " fill-opacity="1" fill-rule="nonzero"/><path fill="#2c2a2a" d="M 37.425781 184.773438 C 51.140625 182.03125 58.902344 182.925781 62.523438 184.992188 L 62.9375 184.992188 L 62.753906 184.039062 C 62.714844 183.808594 62.722656 183.574219 62.777344 183.355469 L 65.722656 171.789062 L 64.71875 171.761719 C 63.640625 171.730469 62.605469 171.710938 61.730469 171.710938 C 29.945312 171.710938 4.082031 197.550781 4.082031 229.308594 C 4.082031 229.59375 4.101562 229.878906 4.105469 230.167969 C 4.789062 226.535156 11.726562 193.160156 37.425781 184.773438 " fill-opacity="1" fill-rule="nonzero"/><path fill="#656263" d="M 63.132812 230.695312 C 63.195312 230.695312 63.253906 230.75 63.253906 230.8125 C 63.253906 230.941406 63.015625 230.941406 63.015625 230.8125 C 63.015625 230.75 63.070312 230.695312 63.132812 230.695312 Z M 106.425781 235.484375 C 110.890625 235.183594 113.769531 234.820312 114.765625 234.4375 L 114.996094 234.351562 C 115.289062 234.234375 115.574219 234.121094 115.859375 234.007812 L 117.375 233.390625 L 115.960938 232.5625 C 112.964844 230.8125 111.007812 229.652344 109.800781 228.910156 C 108.949219 228.386719 107.851562 227.601562 106.625 226.636719 C 105.617188 225.851562 104.453125 224.894531 103.0625 223.707031 C 101.171875 222.097656 98.980469 220.140625 96.550781 217.902344 C 95.605469 217.03125 94.664062 216.15625 93.722656 215.269531 L 93.371094 214.9375 L 90.03125 216.046875 C 89.386719 216.261719 88.738281 216.476562 88.085938 216.6875 L 84.121094 217.984375 C 83.058594 218.332031 82 218.667969 80.96875 219 C 72.117188 221.851562 65.132812 224.019531 65.113281 224.023438 L 61.519531 224.996094 L 53.554688 227.136719 L 52.414062 235.867188 L 53.242188 235.949219 C 54.796875 236.109375 58.882812 236.503906 63.152344 236.734375 L 63.179688 236.738281 C 63.214844 236.738281 63.242188 236.742188 63.269531 236.746094 L 63.269531 236.742188 L 63.378906 236.75 L 63.835938 236.777344 C 65.769531 236.875 67.476562 236.929688 68.914062 236.929688 C 71.265625 236.929688 72.890625 236.800781 73.878906 236.535156 C 75.722656 236.046875 76.667969 235.523438 77.507812 235.054688 C 78.738281 234.359375 79.84375 233.828125 81.96875 233.828125 C 82.507812 233.828125 83.101562 233.863281 83.734375 233.929688 L 84.125 233.980469 C 85.289062 234.121094 86.359375 234.300781 87.308594 234.53125 C 89 234.925781 90.316406 235.402344 91.21875 235.730469 L 91.328125 235.769531 C 91.492188 235.832031 91.945312 236 92.132812 236.050781 L 92.246094 236.085938 L 98.773438 235.886719 C 100.148438 235.832031 101.640625 235.769531 103.132812 235.6875 C 104.246094 235.628906 105.351562 235.566406 106.425781 235.484375 " fill-opacity="1" fill-rule="nonzero"/><path fill="#656263" d="M 62.574219 194.742188 C 62.945312 194.742188 63.328125 194.746094 63.734375 194.765625 L 65.089844 194.816406 L 64.488281 193.601562 C 63.816406 192.238281 63.152344 190.613281 62.523438 188.769531 L 62.308594 188.21875 L 61.730469 188.21875 C 38.679688 188.21875 19.929688 206.953125 19.929688 229.984375 C 19.929688 253.011719 38.679688 271.746094 61.730469 271.746094 C 81.066406 271.746094 97.761719 258.691406 102.328125 239.996094 L 102.585938 238.941406 L 101.5 239 C 100.675781 239.039062 99.867188 239.070312 99.097656 239.101562 L 98.210938 239.132812 L 98.066406 239.726562 C 94.164062 255.929688 79.238281 267.6875 62.574219 267.6875 C 42.445312 267.6875 26.066406 251.328125 26.066406 231.21875 C 26.066406 211.105469 42.445312 194.742188 62.574219 194.742188 " fill-opacity="1" fill-rule="nonzero"/><path fill="#878888" d="M 134.03125 230.621094 L 131.410156 228.089844 C 128.886719 225.636719 125.949219 222.746094 121.882812 218.703125 L 120.675781 217.511719 L 120.507812 219.195312 C 120.410156 220.191406 120.113281 221.148438 119.640625 222.03125 L 119.34375 222.585938 L 119.804688 223.011719 C 129.660156 232.066406 137.621094 238.890625 143.476562 243.289062 L 143.90625 243.613281 L 144.703125 243.144531 C 145.074219 242.921875 145.445312 242.703125 145.804688 242.492188 L 146.871094 241.875 L 145.882812 241.144531 C 143.328125 239.265625 139.5625 235.917969 134.03125 230.621094 " fill-opacity="1" fill-rule="nonzero"/><path fill="#878888" d="M 70.589844 177.347656 C 75.28125 177.347656 78.785156 178.449219 81.003906 180.625 C 85.296875 184.828125 93.289062 195.074219 97.671875 200.804688 L 98.042969 201.292969 L 98.613281 201.066406 C 99.855469 200.570312 101.191406 200.394531 102.476562 200.550781 L 104.492188 200.800781 L 103.195312 199.234375 C 97.671875 192.554688 91.472656 184.695312 87.835938 179.988281 L 87.394531 179.417969 C 85.558594 177.03125 84.492188 175.609375 84.023438 174.945312 C 82.804688 173.214844 78.46875 172.957031 75.992188 172.957031 C 73.859375 172.957031 71.429688 173.136719 69.148438 173.464844 L 68.613281 173.539062 L 67.617188 177.46875 L 68.71875 177.402344 C 69.351562 177.367188 69.984375 177.347656 70.589844 177.347656 " fill-opacity="1" fill-rule="nonzero"/><path fill="#f6be0a" d="M 215.472656 251.859375 C 215.152344 255.304688 212.101562 257.832031 208.65625 257.515625 L 193.464844 256.113281 C 190.019531 255.792969 187.488281 252.746094 187.804688 249.304688 C 188.125 245.863281 191.175781 243.328125 194.621094 243.648438 L 209.8125 245.050781 C 213.257812 245.367188 215.789062 248.417969 215.472656 251.859375 " fill-opacity="1" fill-rule="nonzero"/><path fill="#1c1b1a" d="M 261.492188 193.515625 L 271.441406 169.210938 L 262.878906 171.472656 L 255.867188 192.632812 Z M 277.34375 164.039062 C 277.957031 164.734375 278.117188 165.695312 277.769531 166.550781 L 265.253906 197.121094 C 264.871094 198.03125 263.992188 198.621094 263.007812 198.621094 C 262.886719 198.621094 262.757812 198.613281 262.636719 198.589844 L 252.292969 196.976562 C 251.589844 196.867188 250.976562 196.460938 250.605469 195.84375 C 250.230469 195.238281 250.144531 194.503906 250.371094 193.828125 L 258.6875 168.710938 C 258.945312 167.929688 259.574219 167.339844 260.367188 167.128906 L 274.902344 163.289062 C 275.773438 163.0625 276.746094 163.351562 277.34375 164.039062 " fill-opacity="1" fill-rule="nonzero"/><g clip-path="url(#56647867e5)"><path fill="#1c1b1a" d="M 317.375 287.949219 C 288.300781 287.949219 264.65625 264.324219 264.65625 235.277344 C 264.65625 228.402344 265.972656 221.699219 268.582031 215.355469 C 272.957031 210.8125 279.828125 203.574219 287.097656 195.910156 L 293.738281 188.914062 L 297.167969 198.207031 C 283.195312 205.707031 274.546875 220.085938 274.546875 235.914062 C 274.546875 259.507812 293.757812 278.691406 317.375 278.691406 C 340.980469 278.691406 360.191406 259.507812 360.191406 235.914062 C 360.191406 219.679688 350.820312 204.714844 336.246094 197.523438 C 336.902344 196.417969 337.539062 195.363281 338.113281 194.417969 L 343.394531 189.496094 C 359.875 198.878906 370.09375 216.371094 370.09375 235.277344 C 370.09375 264.324219 346.4375 287.949219 317.375 287.949219 Z M 261.699219 215.46875 C 254.746094 222.40625 253.96875 244.355469 256.289062 263.316406 C 255.164062 263.414062 253.300781 263.492188 250.214844 263.492188 C 223.769531 263.492188 145.609375 257.417969 142.347656 256.761719 C 139.992188 256.296875 137.066406 254.945312 135.308594 253.890625 C 139.289062 250.984375 149.382812 244.804688 153.792969 242.773438 C 154.996094 242.214844 156.796875 241.933594 159.121094 241.933594 C 161.722656 241.933594 164.5 242.273438 166.953125 242.578125 C 168.8125 242.804688 170.410156 243 171.613281 243 L 171.792969 243 C 174.015625 242.957031 185.335938 242.53125 190.019531 237.851562 C 191.191406 236.683594 192.144531 235.476562 193.066406 234.292969 C 195.15625 231.640625 196.804688 229.539062 200.378906 228.355469 C 206.105469 226.441406 221.960938 224.441406 222.121094 224.425781 C 223.105469 224.296875 223.902344 223.601562 224.164062 222.640625 C 224.332031 221.996094 225.859375 216.226562 225.859375 213.953125 C 225.859375 211.675781 225.019531 205.382812 224.125 202.695312 C 223.5 200.851562 221.539062 199.105469 218.277344 196.214844 C 215.644531 193.882812 212.363281 190.980469 209.09375 187.324219 C 203.675781 181.285156 213.542969 168.363281 213.640625 168.234375 C 213.972656 167.816406 214.148438 167.285156 214.148438 166.75 L 214.148438 158.851562 L 255.304688 134.414062 L 262.410156 133.703125 C 264.40625 134.25 273.113281 136.898438 283.035156 143.730469 C 283.253906 143.882812 283.503906 144 283.761719 144.070312 C 287.105469 144.992188 290.222656 145.457031 293.042969 145.457031 C 301.246094 145.457031 305.589844 141.582031 307.796875 138.335938 C 311.640625 132.660156 311.445312 125.296875 310.082031 121.882812 C 308.132812 117.023438 297.6875 107.070312 283.320312 97.992188 C 301.457031 104.058594 312.078125 110.328125 317.949219 114.734375 C 325.394531 123.875 332.863281 134.6875 334.726562 137.421875 C 333.167969 144.996094 330.703125 150.429688 329.746094 150.71875 C 325.015625 152.128906 314.425781 160.667969 307.328125 167.757812 C 304.5 170.574219 297.992188 177.410156 291.992188 183.726562 C 289.496094 186.347656 286.894531 189.085938 284.3125 191.808594 L 282.648438 193.570312 C 279.578125 196.804688 276.582031 199.953125 273.835938 202.839844 C 269.640625 207.261719 266.6875 210.347656 264.550781 212.550781 C 263.371094 213.773438 262.394531 214.773438 261.699219 215.46875 Z M 125.097656 233.203125 C 123.886719 232.507812 122.691406 231.816406 121.539062 231.144531 C 118.46875 229.371094 116.003906 227.925781 114.171875 226.828125 C 116.078125 226.515625 117.855469 225.5625 119.164062 224.101562 C 120.390625 222.738281 121.132812 221.058594 121.3125 219.277344 C 125.148438 223.085938 128.191406 226.085938 130.851562 228.667969 C 131.761719 229.546875 132.632812 230.394531 133.476562 231.203125 C 139.03125 236.527344 142.785156 239.867188 145.402344 241.796875 C 144.554688 242.289062 143.679688 242.804688 142.792969 243.328125 C 139.53125 241.472656 132.097656 237.238281 125.097656 233.203125 Z M 61.730469 286.09375 C 30.386719 286.09375 4.890625 260.621094 4.890625 229.308594 C 4.890625 197.992188 30.386719 172.519531 61.730469 172.519531 C 62.601562 172.519531 63.625 172.539062 64.691406 172.570312 L 61.996094 183.152344 C 61.90625 183.492188 61.898438 183.847656 61.964844 184.1875 C 61.890625 184.1875 61.808594 184.1875 61.730469 184.1875 C 36.453125 184.1875 15.890625 204.734375 15.890625 229.984375 C 15.890625 255.238281 36.453125 275.78125 61.730469 275.78125 C 83.363281 275.78125 102.113281 260.574219 106.566406 239.523438 C 111.652344 239.175781 114.808594 238.738281 116.214844 238.203125 C 116.820312 237.972656 117.402344 237.738281 117.96875 237.511719 C 113.953125 265.300781 90.015625 286.09375 61.730469 286.09375 Z M 67.132812 197.902344 C 67.382812 197.953125 67.632812 197.960938 67.890625 197.929688 C 67.890625 197.929688 68.457031 197.863281 69.320312 197.839844 C 72.363281 198.453125 75.320312 199.492188 78.113281 200.921875 C 78.421875 201.269531 78.808594 201.671875 79.261719 202.148438 C 75.546875 199.992188 71.4375 198.558594 67.125 197.960938 C 65.628906 197.757812 64.113281 197.652344 62.574219 197.652344 C 44.253906 197.652344 29.34375 212.550781 29.34375 230.855469 C 29.34375 249.164062 44.253906 264.058594 62.574219 264.058594 C 77.363281 264.058594 90.40625 254.222656 94.5 240.0625 C 94.804688 240.054688 95.136719 240.046875 95.484375 240.03125 C 91.496094 254.945312 78.113281 265.269531 62.574219 265.269531 C 43.785156 265.269531 28.492188 249.996094 28.492188 231.21875 C 28.492188 212.441406 43.785156 197.164062 62.574219 197.164062 C 63.683594 197.164062 64.820312 197.226562 65.960938 197.339844 C 66.292969 197.636719 66.703125 197.832031 67.132812 197.902344 Z M 94.242188 198.21875 C 94.105469 198.074219 93.085938 196.933594 91.671875 195.363281 C 87.765625 191.011719 82.765625 185.496094 81.132812 183.863281 C 79.390625 182.128906 74.957031 181.242188 67.949219 181.242188 C 67.792969 181.242188 67.632812 181.242188 67.488281 181.25 L 69.261719 174.261719 C 71.507812 173.941406 73.882812 173.761719 75.992188 173.761719 C 79.882812 173.761719 82.636719 174.375 83.363281 175.410156 C 83.886719 176.160156 85.097656 177.757812 86.753906 179.910156 L 87.199219 180.484375 C 91.382812 185.898438 97.519531 193.636719 102.574219 199.75 C 100.425781 199.484375 98.207031 200.058594 96.460938 201.324219 C 96.34375 201.414062 96.21875 201.503906 96.097656 201.601562 C 95.753906 201.878906 95.425781 202.195312 95.132812 202.527344 C 94.726562 202.972656 94.363281 203.476562 94.050781 204.027344 C 93.242188 205.449219 92.859375 207.066406 92.949219 208.707031 C 92.949219 208.796875 92.957031 208.894531 92.96875 208.980469 C 92.246094 208.292969 91.542969 207.609375 90.855469 206.9375 C 89.28125 205.417969 87.8125 203.953125 86.492188 202.625 C 84.058594 200.1875 82.195312 198.25 81.242188 197.164062 C 78.058594 193.53125 72.710938 192.988281 69.804688 192.988281 C 69.417969 192.988281 69.070312 193 68.753906 193.003906 C 68.351562 192.335938 67.753906 191.183594 67.042969 189.375 C 72.824219 190.125 78.285156 192.070312 83.277344 195.167969 C 86.238281 197.566406 89.179688 200.136719 90.792969 201.617188 C 91.148438 201.9375 91.585938 202.148438 92.0625 202.222656 C 92.828125 202.335938 93.59375 202.089844 94.136719 201.550781 C 95.050781 200.648438 95.097656 199.179688 94.242188 198.21875 Z M 117.613281 192.542969 L 120.535156 195.679688 C 120.207031 197.878906 120.480469 199.597656 121.3125 200.703125 C 118.539062 201.382812 115.496094 202.367188 112.242188 203.632812 C 110.71875 201.9375 108.617188 199.46875 105.984375 196.273438 C 105.984375 195.75 105.945312 194.835938 105.691406 194.304688 C 104.894531 192.59375 103.207031 190.125 100.6875 186.984375 C 97.601562 183.152344 94.371094 179.671875 93.371094 178.667969 C 92.730469 178.03125 91.820312 177.433594 90.414062 176.75 C 88.960938 174.851562 87.894531 173.421875 87.320312 172.617188 C 87.167969 172.398438 87.003906 172.195312 86.820312 172.003906 C 95.753906 175.464844 107.132812 181.644531 117.613281 192.542969 Z M 111.304688 150.386719 C 112.96875 151.105469 115.714844 152.332031 118.800781 153.871094 L 95.355469 168.753906 L 92.796875 168.136719 Z M 103.523438 142.199219 C 99.175781 138.109375 95.058594 130.488281 92.511719 125.199219 C 93.378906 125.890625 94.167969 126.34375 94.757812 126.636719 C 97.207031 131.402344 107.394531 136.613281 111.703125 138.65625 C 115.109375 140.375 145.34375 155.496094 158.476562 155.496094 C 160.148438 155.496094 161.519531 155.242188 162.570312 154.769531 C 162.691406 154.710938 162.8125 154.65625 162.925781 154.589844 L 168.863281 163.546875 L 172.082031 169.671875 L 163.773438 174.277344 L 151.320312 180.507812 C 148.984375 173.367188 140.902344 163.972656 136.316406 159.390625 C 133.878906 156.949219 129.816406 154.203125 124.261719 151.234375 L 123.832031 150.675781 L 123.546875 150.855469 C 117.546875 147.703125 111.945312 145.394531 111.703125 145.296875 C 111.652344 145.28125 111.605469 145.253906 111.546875 145.238281 C 111.371094 145.183594 107.050781 143.722656 103.523438 142.199219 Z M 48.183594 109.714844 C 47.613281 108.382812 46.570312 106.957031 45.066406 105.445312 C 62.886719 112.296875 82.929688 119.996094 87.351562 121.628906 C 88.328125 123.957031 91.761719 131.792969 96.171875 138.292969 C 84.140625 131.441406 58.351562 116.539062 48.183594 109.714844 Z M 40.8125 100.347656 L 83.742188 100.960938 C 84.542969 105.027344 86.304688 113.554688 87.886719 118.296875 C 87.902344 118.332031 87.910156 118.363281 87.925781 118.394531 C 81.660156 116.0625 55.777344 106.109375 40.8125 100.347656 Z M 120.828125 134.4375 C 128.355469 135.863281 146.804688 136.96875 151.425781 137.226562 L 160.214844 150.492188 C 159.726562 150.644531 159.105469 150.71875 158.339844 150.71875 C 149.480469 150.71875 126.886719 140.90625 113.835938 134.304688 C 111.214844 133.066406 108.558594 131.628906 106.234375 130.226562 C 111.015625 131.824219 116.53125 133.613281 120.828125 134.4375 Z M 164.75 118.742188 C 168.476562 108.253906 169.871094 108.253906 171.984375 108.253906 L 172.558594 108.253906 C 175.34375 108.253906 216.6875 111.417969 238.144531 113.085938 C 241.710938 113.433594 248.140625 114.722656 252.332031 116.894531 L 250.867188 117.976562 C 250.851562 117.992188 250.835938 118 250.832031 118.019531 C 250.652344 118.097656 250.5 118.21875 250.375 118.371094 L 248.078125 121.324219 C 247.9375 121.503906 247.855469 121.710938 247.824219 121.929688 C 247.648438 122.359375 247.558594 122.800781 247.558594 123.242188 C 247.558594 124.269531 248.011719 125.214844 248.738281 125.835938 L 240.628906 131.621094 L 176.324219 167.316406 L 173.082031 161.183594 C 173.050781 161.113281 173.011719 161.046875 172.964844 160.972656 L 155.867188 135.164062 C 157.96875 132.75 161.570312 127.707031 164.75 118.742188 Z M 152.128906 215.355469 L 152.644531 185.261719 L 163.070312 180.046875 L 165.539062 193.835938 C 165.664062 194.546875 166.113281 195.175781 166.746094 195.523438 L 159.050781 219.164062 Z M 142.46875 219.601562 C 143.703125 219.277344 145.410156 219.097656 147.296875 219.097656 C 147.882812 219.097656 148.4375 219.113281 148.96875 219.148438 L 159.277344 224.8125 C 159.902344 225.160156 160.671875 225.207031 161.335938 224.941406 C 162.015625 224.675781 162.523438 224.125 162.75 223.441406 L 168.707031 205.160156 C 170.453125 210.738281 174.34375 218.421875 182.9375 221.972656 C 188.027344 224.070312 191.417969 225.605469 193.566406 226.632812 C 191.796875 228.070312 190.511719 229.710938 189.253906 231.308594 C 188.390625 232.410156 187.5625 233.460938 186.59375 234.429688 C 184.164062 236.859375 177.179688 238.058594 171.722656 238.15625 L 171.605469 238.15625 C 170.703125 238.15625 169.230469 237.980469 167.539062 237.769531 C 165.46875 237.519531 162.675781 237.175781 159.996094 237.109375 Z M 124.921875 193.277344 L 121.125 189.214844 C 114.558594 182.378906 107.097656 176.667969 98.933594 172.222656 L 123.742188 156.472656 C 127.957031 158.828125 131.03125 160.957031 132.890625 162.8125 C 139.734375 169.65625 147.121094 179.734375 147.121094 184.097656 C 147.121094 184.710938 147.363281 185.300781 147.785156 185.753906 L 147.492188 202.703125 C 143.722656 201.703125 137.664062 200.210938 133.277344 199.65625 C 132.34375 199.53125 131.34375 199.476562 130.308594 199.476562 C 129.214844 199.476562 128.0625 199.542969 126.875 199.675781 C 126.457031 198.847656 125.90625 198.1875 125.253906 197.710938 C 125.234375 197.234375 125.308594 196.332031 125.503906 195.5 C 125.695312 194.699219 125.476562 193.867188 124.921875 193.277344 Z M 116.101562 207.351562 C 122.933594 204.90625 128.53125 203.929688 132.667969 204.457031 C 137.253906 205.042969 144.117188 206.804688 147.410156 207.699219 L 147.296875 214.25 C 147.242188 214.25 147.183594 214.25 147.132812 214.25 C 143.367188 214.25 138.480469 214.886719 136.589844 217.914062 C 135.984375 218.875 136.132812 220.105469 136.929688 220.90625 L 153.726562 237.691406 C 153.007812 237.875 152.359375 238.101562 151.753906 238.382812 C 151.320312 238.585938 150.796875 238.84375 150.191406 239.148438 C 149.648438 239.019531 147.378906 237.738281 138.078125 228.894531 C 137.203125 228.0625 136.316406 227.21875 135.4375 226.359375 C 131.171875 222.253906 126.828125 217.929688 123.960938 215.074219 C 120.285156 211.417969 117.707031 208.863281 116.101562 207.351562 Z M 110.304688 221.148438 L 99.015625 211.015625 C 98.273438 210.351562 97.835938 209.441406 97.785156 208.449219 C 97.769531 208.222656 97.777344 207.988281 97.820312 207.746094 C 97.917969 207.003906 98.230469 206.316406 98.730469 205.761719 C 98.910156 205.566406 99.113281 205.382812 99.328125 205.230469 C 99.976562 204.769531 100.726562 204.527344 101.503906 204.527344 C 102.421875 204.527344 103.3125 204.863281 103.988281 205.480469 L 115.277344 215.613281 C 116.019531 216.273438 116.460938 217.1875 116.507812 218.179688 C 116.5625 219.171875 116.222656 220.132812 115.5625 220.867188 C 114.851562 221.648438 113.839844 222.101562 112.789062 222.101562 C 111.871094 222.101562 110.984375 221.761719 110.304688 221.148438 Z M 87.148438 238.648438 C 88.152344 238.917969 88.976562 239.207031 89.621094 239.449219 C 88.230469 243.804688 85.785156 247.78125 82.507812 251.019531 L 80.625 249.132812 C 83.621094 246.210938 85.859375 242.609375 87.148438 238.648438 Z M 72.695312 206.9375 L 73.460938 204.671875 C 77.992188 206.550781 81.941406 209.570312 84.96875 213.460938 C 84.140625 213.734375 83.3125 214 82.5 214.265625 C 79.851562 211.070312 76.492188 208.550781 72.695312 206.9375 Z M 53.167969 204.097656 C 58.191406 202.335938 63.675781 202.027344 68.84375 203.1875 L 68.078125 205.464844 C 63.457031 204.457031 58.621094 204.734375 54.179688 206.269531 Z M 41.378906 212.007812 C 43.492188 209.632812 45.964844 207.652344 48.757812 206.09375 L 49.761719 208.273438 C 47.515625 209.5625 45.480469 211.167969 43.710938 213.0625 Z M 34.207031 229.839844 C 34.382812 224.925781 35.832031 220.164062 38.421875 215.984375 L 40.667969 217.003906 C 38.253906 220.855469 36.914062 225.238281 36.75 229.796875 Z M 37.050781 234.628906 C 37.648438 238.535156 39.15625 242.273438 41.433594 245.507812 L 39.539062 247.40625 C 36.816406 243.628906 35.0625 239.261719 34.441406 234.679688 Z M 57.609375 256.011719 L 57.398438 258.746094 C 51.902344 257.722656 46.738281 255.027344 42.703125 251.082031 L 44.589844 249.195312 C 48.210938 252.710938 52.683594 255.054688 57.609375 256.011719 Z M 78.777344 254.132812 C 74.003906 257.464844 68.425781 259.21875 62.574219 259.21875 C 62.457031 259.21875 62.34375 259.21875 62.222656 259.21875 L 62.429688 256.496094 C 62.480469 256.496094 62.527344 256.496094 62.574219 256.496094 C 67.679688 256.496094 72.589844 255.011719 76.835938 252.195312 Z M 62.574219 251.65625 C 50.996094 251.65625 41.578125 242.25 41.578125 230.679688 C 41.578125 219.113281 50.996094 209.707031 62.574219 209.707031 C 68.15625 209.707031 73.511719 211.949219 77.441406 215.894531 C 71.28125 217.871094 66.121094 219.484375 64.101562 220.117188 L 51.457031 223.519531 C 50.503906 223.777344 49.808594 224.570312 49.679688 225.546875 L 48.203125 236.980469 C 48.121094 237.613281 48.296875 238.269531 48.695312 238.777344 C 49.089844 239.285156 49.6875 239.617188 50.328125 239.6875 C 52.148438 239.898438 61.617188 240.957031 68.667969 240.957031 C 71.53125 240.957031 73.574219 240.789062 74.90625 240.433594 C 77.257812 239.816406 78.542969 239.09375 79.488281 238.570312 C 80.457031 238.027344 80.867188 237.800781 82.296875 237.867188 C 79.277344 246.152344 71.476562 251.65625 62.574219 251.65625 Z M 101.539062 239.800781 C 97.050781 258.191406 80.835938 270.9375 61.730469 270.9375 C 39.125 270.9375 20.738281 252.566406 20.738281 229.984375 C 20.738281 207.398438 39.125 189.027344 61.730469 189.027344 C 61.746094 189.027344 61.753906 189.027344 61.761719 189.027344 C 62.410156 190.925781 63.078125 192.570312 63.765625 193.957031 C 63.351562 193.941406 62.957031 193.933594 62.574219 193.933594 C 42 193.933594 25.261719 210.660156 25.261719 231.21875 C 25.261719 251.769531 42 268.496094 62.574219 268.496094 C 79.703125 268.496094 94.855469 256.511719 98.851562 239.914062 C 99.707031 239.882812 100.613281 239.851562 101.539062 239.800781 Z M 98.738281 235.085938 L 97.109375 235.148438 C 96.15625 235.179688 95.292969 235.203125 94.558594 235.230469 C 93.53125 235.25 92.753906 235.269531 92.351562 235.277344 C 92.179688 235.230469 91.769531 235.074219 91.625 235.019531 L 91.488281 234.972656 C 90.601562 234.644531 89.25 234.15625 87.492188 233.746094 C 86.472656 233.503906 85.367188 233.316406 84.21875 233.175781 L 83.832031 233.128906 C 80.328125 232.757812 78.800781 233.398438 77.113281 234.351562 C 76.289062 234.808594 75.425781 235.292969 73.671875 235.753906 C 72.195312 236.148438 68.890625 236.226562 63.878906 235.96875 L 63.425781 235.949219 C 63.351562 235.9375 63.273438 235.9375 63.195312 235.929688 C 59.242188 235.710938 55.390625 235.359375 53.324219 235.148438 L 54.28125 227.773438 L 61.617188 225.804688 L 65.324219 224.804688 C 65.378906 224.789062 72.503906 222.578125 81.214844 219.769531 C 82.25 219.4375 83.308594 219.097656 84.375 218.75 C 85.683594 218.328125 87.003906 217.886719 88.339844 217.453125 C 89.378906 217.117188 90.421875 216.765625 91.457031 216.429688 L 93.167969 215.855469 C 94.113281 216.746094 95.058594 217.625 96 218.492188 C 98.410156 220.710938 100.605469 222.671875 102.535156 224.320312 C 103.867188 225.457031 105.070312 226.449219 106.128906 227.273438 C 107.410156 228.28125 108.511719 229.0625 109.378906 229.597656 C 110.683594 230.402344 112.757812 231.628906 115.554688 233.257812 C 115.195312 233.40625 114.84375 233.542969 114.472656 233.6875 C 113.949219 233.890625 112.183594 234.285156 106.371094 234.679688 C 105.296875 234.757812 104.199219 234.824219 103.09375 234.882812 C 101.597656 234.960938 100.113281 235.027344 98.738281 235.085938 Z M 216.167969 215.703125 C 216.167969 217.703125 215.199219 219.574219 213.558594 220.738281 C 211.648438 221.035156 209.847656 221.332031 208.222656 221.625 C 205.597656 220.851562 203.789062 218.4375 203.789062 215.703125 C 203.789062 212.289062 206.566406 209.515625 209.972656 209.515625 C 213.390625 209.515625 216.167969 212.289062 216.167969 215.703125 Z M 209.972656 206.285156 C 207.050781 206.285156 204.441406 207.617188 202.714844 209.714844 C 201.367188 211.34375 200.558594 213.429688 200.558594 215.703125 C 200.558594 218.328125 201.640625 220.777344 203.523438 222.542969 C 201.570312 222.964844 200 223.375 198.847656 223.753906 C 198.804688 223.773438 198.757812 223.789062 198.71875 223.804688 C 196.890625 222.828125 192.835938 220.820312 184.796875 217.496094 C 183.03125 216.765625 181.425781 215.757812 179.972656 214.476562 C 182.25 215.453125 184.722656 215.96875 187.234375 215.96875 C 192.949219 215.96875 198.070312 213.355469 201.457031 209.265625 C 204.085938 206.074219 205.671875 201.992188 205.671875 197.550781 C 205.671875 194.394531 204.863281 191.359375 203.394531 188.691406 C 201.738281 185.679688 199.242188 183.128906 196.140625 181.417969 L 203.417969 177.628906 C 202.214844 181.894531 202.410156 185.511719 203.984375 188.433594 C 204.386719 189.183594 204.886719 189.890625 205.476562 190.554688 C 208.949219 194.425781 212.34375 197.4375 215.070312 199.847656 C 216.757812 201.339844 219.300781 203.59375 219.523438 204.226562 C 220.222656 206.328125 221.015625 212.125 221.015625 213.953125 C 221.015625 214.855469 220.464844 217.460938 219.886719 219.832031 C 219.441406 219.890625 218.917969 219.960938 218.328125 220.042969 C 219.027344 218.703125 219.398438 217.210938 219.398438 215.703125 C 219.398438 210.507812 215.175781 206.285156 209.972656 206.285156 Z M 259.824219 123.875 L 262.71875 128.828125 C 262.605469 128.828125 262.492188 128.828125 262.359375 128.839844 L 254.285156 129.644531 C 253.933594 129.683594 253.601562 129.796875 253.292969 129.976562 L 243.222656 135.953125 L 210.492188 155.390625 C 209.753906 155.828125 209.304688 156.625 209.304688 157.472656 L 209.304688 165.953125 C 208.640625 166.871094 207.511719 168.523438 206.359375 170.628906 L 189.746094 179.296875 C 188.914062 179.175781 188.074219 179.117188 187.234375 179.117188 C 180.257812 179.117188 173.988281 182.96875 170.816406 189.171875 L 169.722656 189.738281 L 167.574219 177.707031 L 243.117188 135.785156 C 243.191406 135.734375 243.269531 135.6875 243.335938 135.640625 Z M 264.03125 118.550781 C 264.738281 118.710938 265.519531 118.769531 266.277344 118.726562 L 266.195312 122.253906 L 264.445312 122.171875 L 262.886719 119.503906 C 263.292969 119.171875 263.675781 118.855469 264.03125 118.550781 Z M 266.109375 111.753906 C 266.984375 112.609375 267.132812 113.84375 267.148438 114.515625 C 267.101562 114.578125 267.0625 114.636719 267.019531 114.691406 C 267.0625 113.433594 266.410156 112.078125 265.472656 111.25 C 265.6875 111.382812 265.90625 111.554688 266.109375 111.753906 Z M 268.441406 127.214844 L 268.558594 127.214844 C 269.167969 127.214844 269.757812 126.980469 270.203125 126.570312 C 270.679688 126.125 270.964844 125.503906 270.980469 124.851562 L 271.113281 119.082031 C 271.558594 119.46875 272.148438 119.703125 272.804688 119.703125 C 273.289062 119.6875 274.394531 119.621094 275.339844 119.375 L 282.664062 137.703125 C 277.480469 134.453125 272.820312 132.332031 269.613281 131.058594 L 267.34375 127.160156 Z M 287.359375 119.21875 L 301.148438 138.335938 C 299.042969 139.851562 296.320312 140.617188 293.042969 140.617188 C 291.804688 140.617188 290.417969 140.496094 288.898438 140.246094 L 280.660156 119.636719 Z M 278.34375 86.914062 C 281.832031 88.46875 297.265625 95.519531 306.351562 102.507812 C 306.527344 102.636719 306.703125 102.78125 306.890625 102.9375 C 296.828125 97.445312 283.902344 92.609375 268.3125 88.527344 C 271.140625 87.824219 274.816406 87.230469 278.34375 86.914062 Z M 306.300781 195.480469 L 307.367188 198.550781 C 308.359375 201.414062 309.417969 204.445312 310.507812 207.527344 L 312.761719 213.910156 C 313.132812 214.945312 313.496094 215.96875 313.859375 216.992188 L 314.464844 218.671875 L 310.539062 220.40625 L 297.457031 185.003906 L 301.238281 181.03125 L 302.523438 184.5 C 303.457031 187.238281 304.773438 191.078125 306.300781 195.480469 Z M 341.988281 216.808594 C 338.820312 213.023438 334.792969 210.046875 330.269531 208.128906 C 331.167969 206.40625 332.371094 204.222656 333.808594 201.71875 C 339.261719 204.351562 344.03125 208.261719 347.6875 213.105469 Z M 349.226562 237.769531 C 349.242188 237.398438 349.246094 237.050781 349.246094 236.71875 C 349.246094 231.082031 347.714844 225.578125 344.804688 220.753906 L 350.363281 217.136719 C 353.625 222.84375 355.34375 229.324219 355.34375 235.914062 C 355.34375 236.589844 355.320312 237.304688 355.273438 238.085938 Z M 343.753906 254.320312 C 346.1875 250.800781 347.875 246.773438 348.683594 242.59375 L 354.691406 242.902344 C 353.667969 248.363281 351.421875 253.589844 348.144531 258.109375 Z M 340.703125 258.085938 L 345.058594 261.847656 C 340.347656 266.875 334.421875 270.496094 327.839844 272.386719 L 325.96875 266.785156 C 331.609375 265.324219 336.671875 262.332031 340.703125 258.085938 Z M 332.195312 249.867188 C 329.238281 252.988281 325.367188 255.019531 321.144531 255.675781 L 321.265625 246.371094 C 322.265625 246.070312 323.164062 245.644531 323.933594 245.078125 Z M 329.785156 235.011719 C 330.640625 231.4375 331.085938 227.335938 331.035156 225.132812 L 332.167969 223.222656 C 335.019531 226.214844 336.835938 230.015625 337.359375 234.089844 Z M 337.449219 238.148438 C 337.207031 241.140625 336.269531 244.03125 334.710938 246.589844 L 326.949219 241.246094 C 327.167969 241.070312 327.378906 240.867188 327.566406 240.632812 C 327.710938 240.457031 327.847656 240.257812 327.992188 240.019531 Z M 318.15625 262.941406 C 306.882812 262.941406 296.863281 255.675781 293.292969 245.089844 L 295.90625 246.082031 C 299.742188 255.003906 308.433594 260.75 318.15625 260.75 C 331.507812 260.75 342.367188 249.898438 342.367188 236.558594 C 342.367188 227.289062 336.988281 218.785156 328.621094 214.757812 C 328.476562 213.871094 328.410156 213.144531 328.4375 212.601562 C 338.023438 216.703125 344.402344 226.273438 344.402344 236.71875 C 344.402344 251.179688 332.628906 262.941406 318.15625 262.941406 Z M 306.113281 265.332031 C 309.851562 266.917969 313.933594 267.785156 318.15625 267.785156 C 319.125 267.785156 320.128906 267.738281 321.144531 267.640625 L 323.074219 273.417969 C 321.164062 273.707031 319.246094 273.851562 317.375 273.851562 C 312.476562 273.851562 307.800781 272.910156 303.496094 271.21875 Z M 291.160156 252.089844 C 293.617188 256.367188 297.050781 259.980469 301.117188 262.652344 L 298.40625 268.761719 C 292.613281 265.410156 287.789062 260.582031 284.449219 254.792969 Z M 279.753906 230.71875 L 284.0625 231.328125 C 282.882812 236.375 282.40625 241.777344 284.246094 245.460938 C 284.667969 246.28125 285.492188 246.800781 286.417969 246.800781 C 286.726562 246.800781 287.023438 246.742188 287.308594 246.628906 L 288.535156 246.144531 C 288.621094 246.414062 288.71875 246.679688 288.808594 246.945312 L 282 249.691406 C 280.324219 245.414062 279.394531 240.773438 279.394531 235.914062 C 279.394531 234.160156 279.519531 232.425781 279.753906 230.71875 Z M 296.609375 204.164062 C 297.34375 203.6875 298.097656 203.226562 298.871094 202.792969 L 301.484375 209.878906 Z M 292.121094 207.613281 L 297.3125 213.695312 C 296.027344 214.863281 294.832031 216.132812 293.742188 217.511719 L 291.628906 216.800781 C 290.492188 216.414062 289.164062 216.988281 288.65625 218.074219 C 288.3125 218.828125 286.929688 221.894531 285.621094 225.84375 L 280.957031 225.183594 C 282.953125 218.414062 286.816406 212.332031 292.121094 207.613281 Z M 300.683594 219.84375 L 298.679688 219.164062 C 300.078125 217.613281 301.65625 216.234375 303.402344 215.058594 L 304.082031 216.890625 C 302.863281 217.769531 301.722656 218.75 300.683594 219.84375 Z M 315.296875 238.359375 C 314.675781 237.753906 313.738281 237.496094 312.886719 237.761719 L 299.007812 242.085938 L 293.066406 239.828125 C 292.789062 239.722656 292.5 239.667969 292.210938 239.667969 C 291.902344 239.667969 291.605469 239.722656 291.3125 239.835938 L 287.96875 241.15625 C 287.582031 238.449219 288.125 234.480469 289.558594 229.582031 C 289.90625 228.386719 290.289062 227.203125 290.691406 226.054688 C 291.246094 224.449219 291.78125 223.09375 292.195312 222.09375 L 305.695312 226.632812 C 306.203125 226.804688 306.753906 226.804688 307.253906 226.628906 L 308.886719 226.070312 C 309.339844 226.128906 309.75 226.054688 310.148438 225.878906 L 316.121094 223.238281 C 317.949219 228.25 319.476562 232.308594 320.6875 235.363281 C 320.242188 235.195312 319.765625 235.101562 319.261719 235.101562 C 317.300781 235.101562 315.660156 236.503906 315.296875 238.359375 Z M 303.417969 249.089844 C 302.703125 248.242188 302.054688 247.339844 301.492188 246.386719 L 308.683594 244.144531 Z M 314.507812 245.074219 C 315.121094 245.59375 315.75 246.007812 316.390625 246.289062 L 317.015625 255.867188 C 313.140625 255.644531 309.402344 254.238281 306.316406 251.859375 Z M 319.984375 179.691406 C 322.015625 179.691406 324.011719 179.804688 325.917969 180.03125 C 328.816406 180.371094 331.496094 180.992188 333.882812 181.863281 C 336.398438 182.789062 338.644531 184.015625 340.558594 185.519531 L 334.566406 191.101562 C 334.40625 191.253906 334.265625 191.421875 334.148438 191.609375 C 333.679688 192.382812 332.644531 194.09375 331.402344 196.199219 C 330.886719 197.089844 330.320312 198.042969 329.753906 199.035156 C 327.839844 202.367188 326.355469 205.101562 325.335938 207.15625 C 324.6875 208.472656 324.253906 209.484375 323.988281 210.25 C 323.875 210.570312 323.804688 210.835938 323.753906 211.070312 C 323.585938 211.886719 323.550781 212.886719 323.671875 214.128906 C 323.769531 215.21875 323.988281 216.460938 324.304688 217.816406 C 324.640625 219.257812 325.0625 220.722656 325.425781 222.003906 C 325.738281 223.117188 326.039062 224.167969 326.167969 224.8125 C 326.417969 226.039062 325.894531 230.203125 325.160156 233.519531 C 323.574219 229.5 321.410156 223.675781 318.703125 216.140625 L 315.257812 206.425781 C 314.167969 203.324219 313.101562 200.265625 312.09375 197.371094 L 311.015625 194.289062 C 309.386719 189.585938 308 185.519531 307.03125 182.703125 L 306.496094 181.136719 C 309.410156 180.523438 314.402344 179.691406 319.984375 179.691406 Z M 346.566406 185.742188 C 346.574219 185.671875 346.582031 185.59375 346.582031 185.519531 C 346.589844 184.863281 346.332031 184.226562 345.871094 183.765625 C 339.953125 177.84375 331.238281 174.851562 319.984375 174.851562 C 314.113281 174.851562 308.976562 175.667969 305.730469 176.34375 C 308.039062 173.941406 309.691406 172.246094 310.753906 171.179688 C 317.898438 164.046875 327.800781 156.351562 331.132812 155.351562 C 336.050781 153.882812 338.75 142.269531 339.6875 137.347656 C 339.800781 136.722656 339.671875 136.082031 339.3125 135.546875 C 338.53125 134.378906 320.003906 106.898438 309.304688 98.667969 C 298.679688 90.503906 280.492188 82.5625 279.722656 82.234375 C 279.351562 82.070312 278.933594 82.007812 278.5625 82.039062 C 273.5625 82.433594 261.667969 83.816406 259.277344 88.113281 C 258.9375 88.71875 258.882812 89.449219 259.109375 90.101562 C 259.34375 90.753906 259.835938 91.277344 260.480469 91.535156 C 284.433594 101.265625 303.5625 118.640625 305.574219 123.671875 C 306.445312 125.835938 306.585938 130.597656 304.410156 134.582031 L 290.75 115.644531 C 290.675781 115.539062 290.589844 115.441406 290.496094 115.355469 L 290.160156 115.015625 C 289.703125 114.5625 289.082031 114.304688 288.4375 114.304688 C 288.390625 114.304688 288.347656 114.304688 288.292969 114.316406 L 277.671875 114.972656 C 276.929688 114.644531 275.785156 114.332031 274.804688 114.492188 C 274.5 112.101562 274.03125 108.425781 273.722656 105.476562 C 273.691406 105.144531 273.589844 104.824219 273.417969 104.535156 C 272.496094 102.910156 270.839844 102.015625 268.757812 102.015625 C 267.910156 102.015625 267 102.175781 266.246094 102.453125 C 265.9375 102.566406 265.65625 102.734375 265.421875 102.953125 L 262.386719 105.800781 L 259.472656 108.011719 L 260.101562 108.84375 C 259.460938 109.722656 259.285156 110.84375 259.277344 111.746094 L 256.558594 113.757812 C 250.507812 109.617188 240.558594 108.457031 238.5625 108.261719 C 232.191406 107.761719 176.152344 103.414062 172.558594 103.414062 L 172.140625 103.414062 C 166.824219 103.414062 164.34375 105.398438 160.179688 117.128906 C 156.933594 126.277344 153.226562 130.886719 151.828125 132.402344 C 147.292969 132.144531 128.933594 131.046875 121.730469 129.675781 C 117.210938 128.820312 110.984375 126.714844 105.976562 125.019531 C 101.246094 123.421875 98.652344 122.566406 97.140625 122.40625 C 96.4375 122.125 93.847656 120.847656 92.492188 116.765625 C 90.542969 110.949219 88.152344 98.25 88.128906 98.128906 C 87.917969 97 86.925781 96.167969 85.777344 96.152344 L 29.621094 95.34375 C 28.507812 95.34375 27.539062 96.105469 27.269531 97.175781 C 26.996094 98.273438 27.503906 99.402344 28.511719 99.921875 C 34.328125 102.894531 42.917969 108.59375 43.839844 111.925781 C 43.996094 112.472656 44.332031 112.957031 44.808594 113.28125 C 57.046875 121.628906 95.292969 143.394531 98.296875 145.0625 C 100.378906 146.222656 103.59375 147.507812 106.277344 148.507812 L 87.128906 166.863281 C 77.769531 163.433594 71.167969 162.855469 70.433594 162.796875 C 69.476562 162.726562 68.585938 163.21875 68.132812 164.039062 C 67.671875 164.871094 67.746094 165.898438 68.320312 166.664062 C 68.457031 166.847656 68.8125 167.316406 69.3125 167.960938 C 66.703125 167.773438 63.722656 167.675781 61.730469 167.675781 C 27.722656 167.675781 0.046875 195.320312 0.046875 229.308594 C 0.046875 263.289062 27.722656 290.933594 61.730469 290.933594 C 92.75 290.933594 118.808594 268.050781 122.863281 237.503906 C 128.53125 240.769531 134.425781 244.136719 138.082031 246.226562 C 129.757812 251.484375 129.355469 252.496094 129.355469 253.890625 C 129.355469 257.738281 138.949219 261.015625 141.394531 261.507812 C 144.707031 262.171875 223.597656 268.332031 250.214844 268.332031 C 258.613281 268.332031 259.808594 267.769531 260.683594 266.898438 C 261.214844 266.367188 261.476562 265.605469 261.367188 264.855469 C 260.367188 257.539062 259.808594 248.71875 260.050781 240.660156 C 262.78125 269.859375 287.445312 292.789062 317.375 292.789062 C 349.113281 292.789062 374.9375 266.992188 374.9375 235.277344 C 374.9375 215.007812 364.082031 196.085938 346.566406 185.742188 " fill-opacity="1" fill-rule="nonzero"/></g><path fill="#f4f4f4" d="M 27.160156 268.21875 C 17.148438 252.824219 10.554688 246.503906 9.464844 220.164062 C 6.953125 228.824219 4.734375 251.46875 27.160156 268.21875 " fill-opacity="1" fill-rule="nonzero"/><path fill="#f4f4f4" d="M 311.296875 284.332031 C 311.296875 284.332031 333.214844 292.507812 349.550781 271.386719 C 337.183594 278.011719 335.476562 284.269531 311.296875 284.332031 " fill-opacity="1" fill-rule="nonzero"/><path fill="#2c2a2a" d="M 187.410156 209.367188 C 194.1875 209.367188 199.703125 203.859375 199.703125 197.089844 C 199.703125 190.449219 194.5 185.066406 187.894531 184.835938 L 187.5625 184.8125 C 187.515625 184.808594 187.464844 184.808594 187.410156 184.808594 C 183.230469 184.808594 179.371094 186.914062 177.089844 190.445312 C 175.804688 192.445312 175.121094 194.738281 175.121094 197.089844 C 175.121094 203.859375 180.632812 209.367188 187.410156 209.367188 " fill-opacity="1" fill-rule="nonzero"/><path fill="#1c1b1a" d="M 188.890625 205.875 C 193.222656 205.875 196.742188 202.351562 196.742188 198.027344 C 196.742188 193.789062 193.417969 190.351562 189.199219 190.203125 L 188.992188 190.191406 C 188.957031 190.191406 188.925781 190.1875 188.890625 190.1875 C 186.21875 190.1875 183.753906 191.53125 182.300781 193.789062 C 181.476562 195.0625 181.042969 196.527344 181.042969 198.027344 C 181.042969 202.351562 184.5625 205.875 188.890625 205.875 " fill-opacity="1" fill-rule="nonzero"/><path fill="#ffffff" d="M 190.957031 203.304688 C 193.507812 203.304688 195.578125 201.234375 195.578125 198.691406 C 195.578125 196.195312 193.621094 194.175781 191.140625 194.085938 L 191.015625 194.078125 C 190.996094 194.078125 190.976562 194.078125 190.957031 194.078125 C 189.386719 194.078125 187.933594 194.867188 187.082031 196.195312 C 186.59375 196.945312 186.339844 197.808594 186.339844 198.691406 C 186.339844 201.234375 188.410156 203.304688 190.957031 203.304688 " fill-opacity="1" fill-rule="nonzero"/><path fill="#1c1b1a" d="M 198.894531 197.089844 C 198.894531 190.894531 194.03125 185.855469 187.832031 185.640625 L 187.621094 185.625 C 187.546875 185.625 187.484375 185.613281 187.410156 185.613281 C 183.507812 185.613281 179.902344 187.585938 177.769531 190.882812 C 176.566406 192.746094 175.929688 194.894531 175.929688 197.089844 C 175.929688 203.414062 181.082031 208.5625 187.410156 208.5625 C 193.742188 208.5625 198.894531 203.414062 198.894531 197.089844 Z M 194.21875 184.074219 C 198.960938 186.574219 202.125 191.5625 202.125 197.089844 C 202.125 205.195312 195.527344 211.789062 187.410156 211.789062 C 179.304688 211.789062 172.699219 205.195312 172.699219 197.089844 C 172.699219 195.144531 173.078125 193.246094 173.828125 191.449219 C 175.113281 188.375 177.4375 185.792969 180.371094 184.1875 L 180.492188 184.125 C 183.460938 182.53125 186.933594 182 190.367188 182.703125 L 190.699219 182.769531 C 190.90625 182.824219 191.117188 182.878906 191.335938 182.933594 L 192.066406 183.152344 C 192.191406 183.203125 192.3125 183.25 192.433594 183.292969 L 193.199219 183.589844 C 193.363281 183.664062 193.515625 183.734375 193.679688 183.808594 L 194.21875 184.074219 " fill-opacity="1" fill-rule="nonzero"/></svg>