<svg xmlns="http://www.w3.org/2000/svg" xmlns:xlink="http://www.w3.org/1999/xlink" width="500" zoomAndPan="magnify" viewBox="0 0 375 374.999991" height="500" preserveAspectRatio="xMidYMid meet" version="1.0"><defs><clipPath id="2388a17bd3"><path d="M 78 114.84375 L 105 114.84375 L 105 121 L 78 121 Z M 78 114.84375 " clip-rule="nonzero"/></clipPath><clipPath id="d1a69747ad"><path d="M 238 114.84375 L 264 114.84375 L 264 121 L 238 121 Z M 238 114.84375 " clip-rule="nonzero"/></clipPath><clipPath id="1afe1ab435"><path d="M 108 221 L 149 221 L 149 260.34375 L 108 260.34375 Z M 108 221 " clip-rule="nonzero"/></clipPath><clipPath id="d50e9c82f0"><path d="M 263 221 L 303 221 L 303 260.34375 L 263 260.34375 Z M 263 221 " clip-rule="nonzero"/></clipPath><clipPath id="13d135c40c"><path d="M 61 221 L 101 221 L 101 260.34375 L 61 260.34375 Z M 61 221 " clip-rule="nonzero"/></clipPath></defs><g clip-path="url(#2388a17bd3)"><path fill="#363536" d="M 104.09375 120.558594 L 78.320312 120.558594 L 78.320312 114.890625 L 104.09375 114.890625 L 104.09375 120.558594 " fill-opacity="1" fill-rule="nonzero"/></g><g clip-path="url(#d1a69747ad)"><path fill="#363536" d="M 263.871094 120.558594 L 238.101562 120.558594 L 238.101562 114.890625 L 263.871094 114.890625 L 263.871094 120.558594 " fill-opacity="1" fill-rule="nonzero"/></g><path fill="#f39717" d="M 363.691406 201.460938 L 363.691406 239.878906 C 363.691406 240.429688 363.609375 240.964844 363.441406 241.464844 C 362.777344 243.554688 360.820312 245.070312 358.507812 245.070312 L 28.953125 245.070312 L 8.140625 241.675781 L 6.847656 241.464844 L 6.050781 241.332031 L 2.070312 240.683594 C 0.871094 240.484375 -0.0078125 239.449219 -0.0078125 238.238281 L -0.0078125 201.460938 L 363.691406 201.460938 " fill-opacity="1" fill-rule="nonzero"/><path fill="#f9a82f" d="M 363.691406 201.460938 L -0.0078125 201.460938 L -0.0078125 124.273438 C -0.0078125 120.53125 3.019531 117.503906 6.757812 117.503906 L 332.179688 117.503906 C 342.921875 117.503906 352.175781 125.0625 354.332031 135.59375 L 363.691406 201.460938 " fill-opacity="1" fill-rule="nonzero"/><path fill="#434345" d="M 311.605469 169.410156 L 22.160156 169.410156 C 15.085938 169.410156 9.351562 163.667969 9.351562 156.585938 L 9.351562 123.613281 L 311.605469 123.613281 L 311.605469 169.410156 " fill-opacity="1" fill-rule="nonzero"/><path fill="#577ea4" d="M 308.699219 126.523438 L 308.699219 166.503906 L 22.164062 166.503906 C 16.699219 166.503906 12.253906 162.054688 12.253906 156.585938 L 12.253906 126.523438 L 308.699219 126.523438 " fill-opacity="1" fill-rule="nonzero"/><path fill="#84b6e5" d="M 308.699219 126.523438 L 308.699219 145.871094 L 289.378906 126.523438 Z M 308.699219 126.523438 " fill-opacity="1" fill-rule="nonzero"/><path fill="#84b6e5" d="M 271.199219 166.503906 L 240.316406 166.503906 L 200.390625 126.523438 L 231.269531 126.523438 L 271.199219 166.503906 " fill-opacity="1" fill-rule="nonzero"/><path fill="#84b6e5" d="M 230.015625 166.503906 L 184.5 166.503906 L 144.574219 126.523438 L 190.085938 126.523438 L 230.015625 166.503906 " fill-opacity="1" fill-rule="nonzero"/><path fill="#84b6e5" d="M 138.933594 166.503906 L 99.460938 166.503906 L 59.53125 126.523438 L 99.003906 126.523438 L 138.933594 166.503906 " fill-opacity="1" fill-rule="nonzero"/><path fill="#84b6e5" d="M 50.496094 166.503906 L 22.164062 166.503906 C 16.699219 166.503906 12.253906 162.054688 12.253906 156.585938 L 12.253906 128.207031 L 50.496094 166.503906 " fill-opacity="1" fill-rule="nonzero"/><path fill="#434345" d="M 65.738281 167.714844 L 61.863281 167.714844 L 61.863281 128.949219 L 65.738281 128.949219 L 65.738281 167.714844 " fill-opacity="1" fill-rule="nonzero"/><path fill="#434345" d="M 119.460938 167.714844 L 115.589844 167.714844 L 115.589844 128.949219 L 119.460938 128.949219 L 119.460938 167.714844 " fill-opacity="1" fill-rule="nonzero"/><path fill="#434345" d="M 173.183594 167.714844 L 169.3125 167.714844 L 169.3125 128.949219 L 173.183594 128.949219 L 173.183594 167.714844 " fill-opacity="1" fill-rule="nonzero"/><path fill="#434345" d="M 226.90625 167.714844 L 223.035156 167.714844 L 223.035156 128.949219 L 226.90625 128.949219 L 226.90625 167.714844 " fill-opacity="1" fill-rule="nonzero"/><path fill="#434345" d="M 280.628906 167.714844 L 276.757812 167.714844 L 276.757812 128.949219 L 280.628906 128.949219 L 280.628906 167.714844 " fill-opacity="1" fill-rule="nonzero"/><path fill="#d7791a" d="M 34.519531 211.332031 L 8.867188 211.332031 C 8.46875 211.332031 8.140625 211.003906 8.140625 210.601562 C 8.140625 210.203125 8.46875 209.875 8.867188 209.875 L 34.519531 209.875 C 34.921875 209.875 35.246094 210.203125 35.246094 210.601562 C 35.246094 211.003906 34.921875 211.332031 34.519531 211.332031 " fill-opacity="1" fill-rule="nonzero"/><path fill="#d7791a" d="M 34.519531 214.480469 L 8.867188 214.480469 C 8.46875 214.480469 8.140625 214.15625 8.140625 213.753906 C 8.140625 213.351562 8.46875 213.027344 8.867188 213.027344 L 34.519531 213.027344 C 34.921875 213.027344 35.246094 213.351562 35.246094 213.753906 C 35.246094 214.15625 34.921875 214.480469 34.519531 214.480469 " fill-opacity="1" fill-rule="nonzero"/><path fill="#d7791a" d="M 34.519531 217.628906 L 8.867188 217.628906 C 8.46875 217.628906 8.140625 217.304688 8.140625 216.902344 C 8.140625 216.5 8.46875 216.175781 8.867188 216.175781 L 34.519531 216.175781 C 34.921875 216.175781 35.246094 216.5 35.246094 216.902344 C 35.246094 217.304688 34.921875 217.628906 34.519531 217.628906 " fill-opacity="1" fill-rule="nonzero"/><path fill="#d7791a" d="M 34.519531 220.78125 L 8.867188 220.78125 C 8.46875 220.78125 8.140625 220.453125 8.140625 220.054688 C 8.140625 219.652344 8.46875 219.324219 8.867188 219.324219 L 34.519531 219.324219 C 34.921875 219.324219 35.246094 219.652344 35.246094 220.054688 C 35.246094 220.453125 34.921875 220.78125 34.519531 220.78125 " fill-opacity="1" fill-rule="nonzero"/><path fill="#d7791a" d="M 34.519531 223.929688 L 8.867188 223.929688 C 8.46875 223.929688 8.140625 223.605469 8.140625 223.203125 C 8.140625 222.800781 8.46875 222.476562 8.867188 222.476562 L 34.519531 222.476562 C 34.921875 222.476562 35.246094 222.800781 35.246094 223.203125 C 35.246094 223.605469 34.921875 223.929688 34.519531 223.929688 " fill-opacity="1" fill-rule="nonzero"/><path fill="#d7791a" d="M 34.519531 227.078125 L 8.867188 227.078125 C 8.46875 227.078125 8.140625 226.753906 8.140625 226.355469 C 8.140625 225.953125 8.46875 225.625 8.867188 225.625 L 34.519531 225.625 C 34.921875 225.625 35.246094 225.953125 35.246094 226.355469 C 35.246094 226.753906 34.921875 227.078125 34.519531 227.078125 " fill-opacity="1" fill-rule="nonzero"/><path fill="#d7791a" d="M 34.519531 230.230469 L 8.867188 230.230469 C 8.46875 230.230469 8.140625 229.90625 8.140625 229.503906 C 8.140625 229.101562 8.46875 228.777344 8.867188 228.777344 L 34.519531 228.777344 C 34.921875 228.777344 35.246094 229.101562 35.246094 229.503906 C 35.246094 229.90625 34.921875 230.230469 34.519531 230.230469 " fill-opacity="1" fill-rule="nonzero"/><path fill="#d7791a" d="M 34.519531 233.378906 L 8.867188 233.378906 C 8.46875 233.378906 8.140625 233.054688 8.140625 232.652344 C 8.140625 232.25 8.46875 231.925781 8.867188 231.925781 L 34.519531 231.925781 C 34.921875 231.925781 35.246094 232.25 35.246094 232.652344 C 35.246094 233.054688 34.921875 233.378906 34.519531 233.378906 " fill-opacity="1" fill-rule="nonzero"/><path fill="#d7791a" d="M 307.667969 169.011719 L 307.667969 169.808594 L -0.0078125 169.808594 L -0.0078125 169.011719 L 307.667969 169.011719 " fill-opacity="1" fill-rule="nonzero"/><path fill="#d7791a" d="M 6.847656 169.414062 L 6.847656 241.464844 L 6.050781 241.332031 L 6.050781 169.414062 L 6.847656 169.414062 " fill-opacity="1" fill-rule="nonzero"/><path fill="#e48516" d="M 363.441406 241.464844 C 362.777344 243.554688 360.820312 245.070312 358.507812 245.070312 L 28.953125 245.070312 L 8.140625 241.675781 L 8.140625 241.464844 L 363.441406 241.464844 " fill-opacity="1" fill-rule="nonzero"/><path fill="#d7791a" d="M 37.339844 245.070312 L 36.539062 245.070312 L 36.539062 201.457031 L 37.339844 201.457031 L 37.339844 245.070312 " fill-opacity="1" fill-rule="nonzero"/><path fill="#d7791a" d="M 58.152344 245.070312 L 57.351562 245.070312 L 57.351562 201.457031 L 58.152344 201.457031 L 58.152344 245.070312 " fill-opacity="1" fill-rule="nonzero"/><path fill="#d7791a" d="M 152.171875 217.265625 L 57.75 217.265625 L 57.75 216.539062 L 152.171875 216.539062 L 152.171875 217.265625 " fill-opacity="1" fill-rule="nonzero"/><path fill="#d7791a" d="M 259.765625 245.070312 L 259.382812 245.070312 L 259.382812 217.09375 L 192.976562 217.09375 L 192.976562 245.070312 L 192.589844 245.070312 L 192.589844 216.710938 L 259.765625 216.710938 L 259.765625 245.070312 " fill-opacity="1" fill-rule="nonzero"/><path fill="#d7791a" d="M 358.914062 190.851562 L 358.914062 238.007812 C 358.914062 240.402344 357.921875 242.722656 356.183594 244.367188 L 355.367188 245.070312 L 354.253906 245.070312 L 355.703125 243.832031 C 357.277344 242.328125 358.1875 240.203125 358.1875 238.007812 L 358.1875 191.582031 L 329.148438 191.582031 L 329.148438 245.070312 L 328.421875 245.070312 L 328.421875 190.851562 L 358.914062 190.851562 " fill-opacity="1" fill-rule="nonzero"/><path fill="#b4bdc1" d="M 363.695312 206.367188 L 347.109375 201.6875 C 346.929688 201.613281 346.746094 201.539062 346.566406 201.460938 C 326.324219 193.203125 309.902344 177.640625 300.5625 157.839844 L 290.132812 135.753906 C 288.175781 131.597656 284 128.949219 279.410156 128.949219 L 9.351562 128.949219 L 9.351562 122.410156 L 327.28125 122.410156 C 338.019531 122.410156 347.277344 129.96875 349.429688 140.5 L 363.351562 199.082031 L 363.691406 201.460938 L 363.695312 206.367188 " fill-opacity="1" fill-rule="nonzero"/><path fill="#577ea4" d="M 363.691406 201.460938 L 361.382812 200.535156 L 357.753906 199.085938 L 352.011719 196.78125 C 347.449219 194.953125 343.078125 192.757812 338.941406 190.226562 C 337.460938 189.324219 336.015625 188.378906 334.601562 187.394531 C 322.136719 178.722656 312.039062 166.875 305.460938 152.933594 L 295.035156 130.847656 C 293.074219 126.6875 288.898438 124.046875 284.3125 124.046875 L 9.351562 124.046875 L 9.351562 117.503906 L 332.179688 117.503906 C 338.09375 117.503906 343.550781 119.792969 347.632812 123.613281 C 347.78125 123.753906 347.925781 123.890625 348.066406 124.035156 C 351.171875 127.09375 353.402344 131.066406 354.332031 135.59375 L 356.164062 148.445312 L 356.773438 152.785156 L 361.792969 188.101562 L 363.691406 201.460938 " fill-opacity="1" fill-rule="nonzero"/><path fill="#84b6e5" d="M 361.792969 188.101562 L 291.28125 117.503906 L 332.179688 117.503906 C 338.09375 117.503906 343.550781 119.792969 347.632812 123.613281 C 347.78125 123.753906 347.925781 123.890625 348.066406 124.035156 C 351.171875 127.09375 353.402344 131.066406 354.332031 135.59375 L 356.164062 148.445312 L 356.773438 152.785156 L 361.792969 188.101562 " fill-opacity="1" fill-rule="nonzero"/><path fill="#434345" d="M 363.691406 201.460938 L 361.382812 200.535156 L 354.59375 152.785156 L 353.984375 148.445312 L 352.152344 135.59375 C 351.222656 131.066406 348.996094 127.09375 345.890625 124.035156 C 345.746094 123.890625 345.597656 123.753906 345.457031 123.613281 C 341.375 119.792969 335.914062 117.503906 330.003906 117.503906 L 332.179688 117.503906 C 338.09375 117.503906 343.550781 119.792969 347.632812 123.613281 C 347.78125 123.753906 347.925781 123.890625 348.066406 124.035156 C 351.171875 127.09375 353.402344 131.066406 354.332031 135.59375 L 356.164062 148.445312 L 356.773438 152.785156 L 363.691406 201.460938 " fill-opacity="1" fill-rule="nonzero"/><path fill="#434345" d="M 348.066406 124.035156 L 9.351562 124.035156 L 9.351562 117.503906 L 332.179688 117.503906 C 338.09375 117.503906 343.550781 119.792969 347.632812 123.613281 C 347.78125 123.753906 347.925781 123.890625 348.066406 124.035156 " fill-opacity="1" fill-rule="nonzero"/><path fill="#434345" d="M 338.941406 123.824219 L 338.941406 190.226562 C 337.460938 189.324219 336.015625 188.378906 334.601562 187.394531 L 334.601562 123.824219 L 338.941406 123.824219 " fill-opacity="1" fill-rule="nonzero"/><path fill="#434345" d="M 356.773438 152.785156 L 337.25 152.785156 L 337.25 148.445312 L 356.164062 148.445312 L 356.773438 152.785156 " fill-opacity="1" fill-rule="nonzero"/><path fill="#434345" d="M 374.644531 151.859375 L 370.96875 141.132812 C 370.457031 139.640625 369.054688 138.636719 367.476562 138.636719 L 353.46875 138.636719 L 353.46875 142.707031 L 366.4375 142.707031 C 367.042969 142.707031 367.578125 143.089844 367.769531 143.660156 L 370.582031 151.859375 L 374.644531 151.859375 " fill-opacity="1" fill-rule="nonzero"/><path fill="#f9a82f" d="M 372.527344 166.316406 L 368.148438 166.316406 L 368.148438 148.875 L 372.527344 148.875 C 373.898438 148.875 375.003906 149.988281 375.003906 151.363281 L 375.003906 163.832031 C 375.003906 165.203125 373.898438 166.316406 372.527344 166.316406 " fill-opacity="1" fill-rule="nonzero"/><path fill="#d7791a" d="M 308.03125 245.070312 L 307.304688 245.070312 L 307.304688 201.460938 L 308.03125 201.460938 L 308.03125 245.070312 " fill-opacity="1" fill-rule="nonzero"/><path fill="#4c4d4e" d="M 320.535156 239.921875 L 314.773438 239.921875 L 314.773438 235.527344 L 320.535156 235.527344 L 320.535156 239.921875 " fill-opacity="1" fill-rule="nonzero"/><path fill="#fab84a" d="M 320.535156 237.023438 L 314.773438 237.023438 L 314.773438 235.441406 L 320.535156 235.441406 L 320.535156 237.023438 " fill-opacity="1" fill-rule="nonzero"/><path fill="#4c4d4e" d="M 229.0625 239.921875 L 223.300781 239.921875 L 223.300781 235.527344 L 229.0625 235.527344 L 229.0625 239.921875 " fill-opacity="1" fill-rule="nonzero"/><path fill="#fab84a" d="M 229.0625 237.023438 L 223.300781 237.023438 L 223.300781 235.441406 L 229.0625 235.441406 L 229.0625 237.023438 " fill-opacity="1" fill-rule="nonzero"/><path fill="#4c4d4e" d="M 50.007812 239.921875 L 44.246094 239.921875 L 44.246094 235.527344 L 50.007812 235.527344 L 50.007812 239.921875 " fill-opacity="1" fill-rule="nonzero"/><path fill="#fab84a" d="M 50.007812 237.023438 L 44.246094 237.023438 L 44.246094 235.441406 L 50.007812 235.441406 L 50.007812 237.023438 " fill-opacity="1" fill-rule="nonzero"/><path fill="#363536" d="M 335.683594 212.84375 L 331.871094 212.84375 L 331.871094 209.027344 L 335.683594 209.027344 L 335.683594 212.84375 " fill-opacity="1" fill-rule="nonzero"/><path fill="#434345" d="M 335.683594 210.9375 L 331.871094 210.9375 L 331.871094 209.027344 L 335.683594 209.027344 L 335.683594 210.9375 " fill-opacity="1" fill-rule="nonzero"/><path fill="#d7791a" d="M 190.683594 245.070312 L 189.957031 245.070312 L 189.957031 172.683594 L 152.535156 172.683594 L 152.535156 245.070312 L 151.808594 245.070312 L 151.808594 171.953125 L 190.683594 171.953125 L 190.683594 245.070312 " fill-opacity="1" fill-rule="nonzero"/><path fill="#363536" d="M 158.90625 212.84375 L 155.09375 212.84375 L 155.09375 209.027344 L 158.90625 209.027344 L 158.90625 212.84375 " fill-opacity="1" fill-rule="nonzero"/><path fill="#434345" d="M 158.90625 210.9375 L 155.09375 210.9375 L 155.09375 209.027344 L 158.90625 209.027344 L 158.90625 210.9375 " fill-opacity="1" fill-rule="nonzero"/><path fill="#d8e3e8" d="M 363.691406 213.472656 L 363.691406 222.714844 L 362.113281 222.714844 C 361.589844 222.714844 361.148438 222.328125 361.082031 221.808594 L 360.34375 216.117188 L 360.140625 214.53125 L 360 213.472656 L 363.691406 213.472656 " fill-opacity="1" fill-rule="nonzero"/><path fill="#363536" d="M 106.917969 245.070312 L 107.785156 235.691406 C 108.339844 229.664062 111.859375 224.3125 117.167969 221.417969 L 119.140625 220.339844 C 119.855469 219.949219 120.65625 219.746094 121.46875 219.746094 L 128.515625 219.746094 L 128.515625 245.070312 L 106.917969 245.070312 " fill-opacity="1" fill-rule="nonzero"/><path fill="#363536" d="M 150.113281 245.03125 L 149.246094 235.65625 C 148.691406 229.628906 145.171875 224.273438 139.863281 221.378906 L 137.890625 220.304688 C 137.175781 219.914062 136.375 219.710938 135.566406 219.710938 L 128.515625 219.710938 L 128.515625 245.03125 L 150.113281 245.03125 " fill-opacity="1" fill-rule="nonzero"/><g clip-path="url(#1afe1ab435)"><path fill="#434345" d="M 108.976562 240.730469 C 108.976562 251.535156 117.722656 260.296875 128.515625 260.296875 C 139.308594 260.296875 148.054688 251.535156 148.054688 240.730469 C 148.054688 229.925781 139.308594 221.164062 128.515625 221.164062 C 117.722656 221.164062 108.976562 229.925781 108.976562 240.730469 " fill-opacity="1" fill-rule="nonzero"/></g><path fill="#b4bdc1" d="M 114.160156 240.730469 C 114.160156 248.671875 120.585938 255.105469 128.515625 255.105469 C 136.445312 255.105469 142.871094 248.671875 142.871094 240.730469 C 142.871094 232.792969 136.445312 226.355469 128.515625 226.355469 C 120.585938 226.355469 114.160156 232.792969 114.160156 240.730469 " fill-opacity="1" fill-rule="nonzero"/><path fill="#828b92" d="M 117.078125 240.730469 L 116.886719 240.730469 C 116.886719 247.160156 122.09375 252.375 128.515625 252.375 C 134.9375 252.375 140.144531 247.160156 140.144531 240.730469 C 140.144531 234.300781 134.9375 229.085938 128.515625 229.085938 C 122.09375 229.085938 116.886719 234.300781 116.886719 240.730469 L 117.273438 240.730469 C 117.273438 237.621094 118.53125 234.808594 120.566406 232.769531 C 122.601562 230.730469 125.410156 229.472656 128.515625 229.472656 C 131.621094 229.472656 134.429688 230.730469 136.464844 232.769531 C 138.5 234.808594 139.757812 237.621094 139.757812 240.730469 C 139.757812 243.839844 138.5 246.652344 136.464844 248.691406 C 134.429688 250.730469 131.621094 251.988281 128.515625 251.988281 C 125.410156 251.988281 122.601562 250.730469 120.566406 248.691406 C 118.53125 246.652344 117.273438 243.839844 117.273438 240.730469 L 117.078125 240.730469 " fill-opacity="1" fill-rule="nonzero"/><path fill="#828b92" d="M 123.214844 240.730469 C 123.214844 243.664062 125.589844 246.039062 128.515625 246.039062 C 131.445312 246.039062 133.816406 243.664062 133.816406 240.730469 C 133.816406 237.796875 131.445312 235.421875 128.515625 235.421875 C 125.589844 235.421875 123.214844 237.796875 123.214844 240.730469 " fill-opacity="1" fill-rule="nonzero"/><path fill="#b4bdc1" d="M 126.480469 240.730469 C 126.480469 241.855469 127.390625 242.765625 128.515625 242.765625 C 129.640625 242.765625 130.550781 241.855469 130.550781 240.730469 C 130.550781 239.605469 129.640625 238.691406 128.515625 238.691406 C 127.390625 238.691406 126.480469 239.605469 126.480469 240.730469 " fill-opacity="1" fill-rule="nonzero"/><path fill="#363536" d="M 261.816406 245.070312 L 262.679688 235.691406 C 263.238281 229.664062 266.757812 224.3125 272.066406 221.417969 L 274.039062 220.339844 C 274.75 219.949219 275.550781 219.746094 276.367188 219.746094 L 283.414062 219.746094 L 283.414062 245.070312 L 261.816406 245.070312 " fill-opacity="1" fill-rule="nonzero"/><path fill="#363536" d="M 305.011719 245.03125 L 304.144531 235.65625 C 303.589844 229.628906 300.070312 224.273438 294.761719 221.378906 L 292.789062 220.304688 C 292.074219 219.914062 291.273438 219.710938 290.460938 219.710938 L 283.414062 219.710938 L 283.414062 245.03125 L 305.011719 245.03125 " fill-opacity="1" fill-rule="nonzero"/><g clip-path="url(#d50e9c82f0)"><path fill="#434345" d="M 263.871094 240.730469 C 263.871094 251.535156 272.621094 260.296875 283.414062 260.296875 C 294.203125 260.296875 302.953125 251.535156 302.953125 240.730469 C 302.953125 229.925781 294.203125 221.164062 283.414062 221.164062 C 272.621094 221.164062 263.871094 229.925781 263.871094 240.730469 " fill-opacity="1" fill-rule="nonzero"/></g><path fill="#b4bdc1" d="M 269.054688 240.730469 C 269.054688 248.671875 275.484375 255.105469 283.414062 255.105469 C 291.34375 255.105469 297.773438 248.671875 297.773438 240.730469 C 297.773438 232.792969 291.34375 226.355469 283.414062 226.355469 C 275.484375 226.355469 269.054688 232.792969 269.054688 240.730469 " fill-opacity="1" fill-rule="nonzero"/><path fill="#828b92" d="M 271.976562 240.730469 L 271.785156 240.730469 C 271.785156 247.160156 276.992188 252.375 283.414062 252.375 C 289.835938 252.375 295.042969 247.160156 295.042969 240.730469 C 295.042969 234.300781 289.835938 229.085938 283.414062 229.085938 C 276.992188 229.085938 271.785156 234.300781 271.785156 240.730469 L 272.167969 240.730469 C 272.167969 237.621094 273.425781 234.808594 275.460938 232.769531 C 277.496094 230.730469 280.308594 229.472656 283.414062 229.472656 C 286.519531 229.472656 289.332031 230.730469 291.363281 232.769531 C 293.398438 234.808594 294.660156 237.621094 294.660156 240.730469 C 294.660156 243.839844 293.398438 246.652344 291.363281 248.691406 C 289.332031 250.730469 286.519531 251.988281 283.414062 251.988281 C 280.308594 251.988281 277.496094 250.730469 275.460938 248.691406 C 273.425781 246.652344 272.167969 243.839844 272.167969 240.730469 L 271.976562 240.730469 " fill-opacity="1" fill-rule="nonzero"/><path fill="#828b92" d="M 278.109375 240.730469 C 278.109375 243.664062 280.484375 246.039062 283.414062 246.039062 C 286.34375 246.039062 288.714844 243.664062 288.714844 240.730469 C 288.714844 237.796875 286.34375 235.421875 283.414062 235.421875 C 280.484375 235.421875 278.109375 237.796875 278.109375 240.730469 " fill-opacity="1" fill-rule="nonzero"/><path fill="#b4bdc1" d="M 281.378906 240.730469 C 281.378906 241.855469 282.292969 242.765625 283.414062 242.765625 C 284.535156 242.765625 285.449219 241.855469 285.449219 240.730469 C 285.449219 239.605469 284.535156 238.691406 283.414062 238.691406 C 282.292969 238.691406 281.378906 239.605469 281.378906 240.730469 " fill-opacity="1" fill-rule="nonzero"/><path fill="#363536" d="M 59.6875 245.070312 L 60.550781 235.691406 C 61.109375 229.664062 64.625 224.3125 69.9375 221.417969 L 71.910156 220.339844 C 72.621094 219.949219 73.421875 219.746094 74.234375 219.746094 L 81.285156 219.746094 L 81.285156 245.070312 L 59.6875 245.070312 " fill-opacity="1" fill-rule="nonzero"/><path fill="#363536" d="M 102.882812 245.070312 L 102.015625 235.691406 C 101.460938 229.664062 97.941406 224.3125 92.632812 221.417969 L 90.660156 220.339844 C 89.945312 219.949219 89.144531 219.746094 88.332031 219.746094 L 81.285156 219.746094 L 81.285156 245.070312 L 102.882812 245.070312 " fill-opacity="1" fill-rule="nonzero"/><g clip-path="url(#13d135c40c)"><path fill="#434345" d="M 61.746094 240.730469 C 61.746094 251.535156 70.492188 260.296875 81.285156 260.296875 C 92.074219 260.296875 100.824219 251.535156 100.824219 240.730469 C 100.824219 229.925781 92.074219 221.164062 81.285156 221.164062 C 70.492188 221.164062 61.746094 229.925781 61.746094 240.730469 " fill-opacity="1" fill-rule="nonzero"/></g><path fill="#b4bdc1" d="M 66.925781 240.730469 C 66.925781 248.671875 73.355469 255.105469 81.285156 255.105469 C 89.210938 255.105469 95.640625 248.671875 95.640625 240.730469 C 95.640625 232.792969 89.210938 226.355469 81.285156 226.355469 C 73.355469 226.355469 66.925781 232.792969 66.925781 240.730469 " fill-opacity="1" fill-rule="nonzero"/><path fill="#828b92" d="M 69.847656 240.730469 L 69.65625 240.730469 C 69.65625 247.160156 74.863281 252.375 81.285156 252.375 C 87.707031 252.375 92.910156 247.160156 92.910156 240.730469 C 92.910156 234.300781 87.707031 229.085938 81.285156 229.085938 C 74.863281 229.085938 69.65625 234.300781 69.65625 240.730469 L 70.039062 240.730469 C 70.039062 237.621094 71.296875 234.808594 73.332031 232.769531 C 75.367188 230.730469 78.179688 229.472656 81.285156 229.472656 C 84.390625 229.472656 87.199219 230.730469 89.234375 232.769531 C 91.269531 234.808594 92.527344 237.621094 92.527344 240.730469 C 92.527344 243.839844 91.269531 246.652344 89.234375 248.691406 C 87.199219 250.730469 84.390625 251.988281 81.285156 251.988281 C 78.179688 251.988281 75.367188 250.730469 73.332031 248.691406 C 71.296875 246.652344 70.039062 243.839844 70.039062 240.730469 L 69.847656 240.730469 " fill-opacity="1" fill-rule="nonzero"/><path fill="#828b92" d="M 75.984375 240.730469 C 75.984375 243.664062 78.355469 246.039062 81.285156 246.039062 C 84.210938 246.039062 86.585938 243.664062 86.585938 240.730469 C 86.585938 237.796875 84.210938 235.421875 81.285156 235.421875 C 78.355469 235.421875 75.984375 237.796875 75.984375 240.730469 " fill-opacity="1" fill-rule="nonzero"/><path fill="#b4bdc1" d="M 79.25 240.730469 C 79.25 241.855469 80.160156 242.765625 81.285156 242.765625 C 82.410156 242.765625 83.320312 241.855469 83.320312 240.730469 C 83.320312 239.605469 82.410156 238.691406 81.285156 238.691406 C 80.160156 238.691406 79.25 239.605469 79.25 240.730469 " fill-opacity="1" fill-rule="nonzero"/><path fill="#d23f46" d="M 4.09375 216.175781 L -0.0078125 216.175781 L -0.0078125 208.511719 L 4.09375 208.511719 L 4.09375 216.175781 " fill-opacity="1" fill-rule="nonzero"/><path fill="#d23f46" d="M 363.691406 212.605469 L 363.691406 216.117188 L 360.34375 216.117188 L 360.140625 214.53125 L 360 213.472656 C 360 212.507812 360.925781 211.8125 361.851562 212.078125 L 363.691406 212.605469 " fill-opacity="1" fill-rule="nonzero"/><path fill="#d23f46" d="M 5.171875 128.949219 L 9.351562 128.949219 L 9.351562 124.046875 L 5.171875 124.046875 C 3.972656 124.046875 3.003906 125.015625 3.003906 126.210938 L 3.003906 126.785156 C 3.003906 127.980469 3.972656 128.949219 5.171875 128.949219 " fill-opacity="1" fill-rule="nonzero"/><path fill="#f39717" d="M 368.148438 161.804688 L 368.148438 166.316406 L 372.527344 166.316406 C 373.898438 166.316406 375.003906 165.203125 375.003906 163.832031 L 375.003906 161.804688 L 368.148438 161.804688 " fill-opacity="1" fill-rule="nonzero"/></svg>