<svg xmlns="http://www.w3.org/2000/svg" xmlns:xlink="http://www.w3.org/1999/xlink" width="500" zoomAndPan="magnify" viewBox="0 0 375 374.999991" height="500" preserveAspectRatio="xMidYMid meet" version="1.0"><path fill="#b2bbc2" d="M 118.082031 266.507812 C 118.082031 267.476562 118.035156 268.441406 117.9375 269.402344 C 117.84375 270.367188 117.703125 271.320312 117.515625 272.269531 C 117.324219 273.21875 117.089844 274.15625 116.808594 275.082031 C 116.527344 276.007812 116.203125 276.917969 115.832031 277.8125 C 115.464844 278.703125 115.050781 279.578125 114.59375 280.429688 C 114.140625 281.285156 113.640625 282.113281 113.105469 282.917969 C 112.566406 283.722656 111.992188 284.5 111.378906 285.246094 C 110.765625 285.992188 110.117188 286.710938 109.433594 287.394531 C 108.75 288.078125 108.03125 288.726562 107.285156 289.339844 C 106.539062 289.953125 105.761719 290.53125 104.957031 291.066406 C 104.152344 291.605469 103.324219 292.101562 102.472656 292.558594 C 101.621094 293.011719 100.746094 293.425781 99.851562 293.796875 C 98.960938 294.167969 98.050781 294.492188 97.125 294.773438 C 96.199219 295.054688 95.261719 295.289062 94.3125 295.476562 C 93.363281 295.667969 92.410156 295.808594 91.445312 295.902344 C 90.484375 295.996094 89.519531 296.046875 88.550781 296.046875 C 87.585938 296.046875 86.621094 295.996094 85.65625 295.902344 C 84.695312 295.808594 83.738281 295.667969 82.792969 295.476562 C 81.84375 295.289062 80.90625 295.054688 79.980469 294.773438 C 79.054688 294.492188 78.144531 294.167969 77.25 293.796875 C 76.359375 293.425781 75.484375 293.011719 74.632812 292.558594 C 73.78125 292.101562 72.949219 291.605469 72.148438 291.066406 C 71.34375 290.53125 70.566406 289.953125 69.820312 289.339844 C 69.070312 288.726562 68.355469 288.078125 67.671875 287.394531 C 66.988281 286.710938 66.339844 285.992188 65.726562 285.246094 C 65.113281 284.5 64.535156 283.722656 64 282.917969 C 63.460938 282.113281 62.964844 281.285156 62.511719 280.429688 C 62.054688 279.578125 61.640625 278.703125 61.269531 277.8125 C 60.902344 276.917969 60.574219 276.007812 60.292969 275.082031 C 60.015625 274.15625 59.777344 273.21875 59.589844 272.269531 C 59.402344 271.320312 59.261719 270.367188 59.164062 269.402344 C 59.070312 268.441406 59.023438 267.476562 59.023438 266.507812 C 59.023438 265.539062 59.070312 264.574219 59.164062 263.613281 C 59.261719 262.648438 59.402344 261.695312 59.589844 260.746094 C 59.777344 259.796875 60.015625 258.859375 60.292969 257.933594 C 60.574219 257.007812 60.902344 256.097656 61.269531 255.203125 C 61.640625 254.308594 62.054688 253.4375 62.511719 252.582031 C 62.964844 251.730469 63.460938 250.902344 64 250.097656 C 64.535156 249.292969 65.113281 248.515625 65.726562 247.769531 C 66.339844 247.019531 66.988281 246.304688 67.671875 245.621094 C 68.355469 244.9375 69.070312 244.289062 69.820312 243.675781 C 70.566406 243.058594 71.34375 242.484375 72.148438 241.949219 C 72.949219 241.410156 73.78125 240.914062 74.632812 240.457031 C 75.484375 240 76.359375 239.589844 77.25 239.21875 C 78.144531 238.847656 79.054688 238.523438 79.980469 238.242188 C 80.90625 237.960938 81.84375 237.726562 82.792969 237.535156 C 83.738281 237.347656 84.695312 237.207031 85.65625 237.113281 C 86.621094 237.015625 87.585938 236.96875 88.550781 236.96875 C 89.519531 236.96875 90.484375 237.015625 91.445312 237.113281 C 92.410156 237.207031 93.363281 237.347656 94.3125 237.535156 C 95.261719 237.726562 96.199219 237.960938 97.125 238.242188 C 98.050781 238.523438 98.960938 238.847656 99.851562 239.21875 C 100.746094 239.589844 101.621094 240 102.472656 240.457031 C 103.324219 240.914062 104.152344 241.410156 104.957031 241.949219 C 105.761719 242.484375 106.539062 243.0625 107.285156 243.675781 C 108.03125 244.289062 108.75 244.9375 109.433594 245.621094 C 110.117188 246.304688 110.765625 247.019531 111.378906 247.769531 C 111.992188 248.515625 112.566406 249.292969 113.105469 250.097656 C 113.640625 250.902344 114.140625 251.730469 114.59375 252.582031 C 115.050781 253.4375 115.464844 254.308594 115.832031 255.203125 C 116.203125 256.097656 116.527344 257.007812 116.808594 257.933594 C 117.089844 258.859375 117.324219 259.796875 117.515625 260.746094 C 117.703125 261.695312 117.84375 262.648438 117.9375 263.613281 C 118.035156 264.574219 118.082031 265.539062 118.082031 266.507812 Z M 302.628906 232.992188 C 301.660156 232.992188 300.695312 233.039062 299.734375 233.132812 C 298.769531 233.230469 297.816406 233.371094 296.867188 233.558594 C 295.917969 233.746094 294.980469 233.984375 294.054688 234.261719 C 293.128906 234.542969 292.21875 234.871094 291.328125 235.238281 C 290.433594 235.609375 289.558594 236.023438 288.707031 236.480469 C 287.855469 236.9375 287.027344 237.433594 286.222656 237.96875 C 285.417969 238.507812 284.640625 239.082031 283.894531 239.695312 C 283.148438 240.308594 282.429688 240.960938 281.746094 241.644531 C 281.0625 242.328125 280.414062 243.042969 279.800781 243.789062 C 279.1875 244.539062 278.613281 245.316406 278.074219 246.121094 C 277.539062 246.921875 277.042969 247.753906 276.585938 248.605469 C 276.128906 249.457031 275.714844 250.332031 275.347656 251.226562 C 274.976562 252.121094 274.652344 253.03125 274.371094 253.957031 C 274.089844 254.882812 273.855469 255.816406 273.664062 256.765625 C 273.476562 257.714844 273.335938 258.671875 273.242188 259.632812 C 273.144531 260.597656 273.097656 261.5625 273.097656 262.53125 C 273.097656 263.496094 273.144531 264.460938 273.242188 265.425781 C 273.335938 266.386719 273.476562 267.34375 273.664062 268.292969 C 273.855469 269.242188 274.089844 270.179688 274.371094 271.105469 C 274.652344 272.03125 274.976562 272.9375 275.347656 273.832031 C 275.714844 274.726562 276.128906 275.601562 276.585938 276.453125 C 277.039062 277.308594 277.539062 278.136719 278.074219 278.941406 C 278.613281 279.746094 279.1875 280.519531 279.800781 281.269531 C 280.414062 282.015625 281.0625 282.730469 281.746094 283.414062 C 282.429688 284.101562 283.148438 284.75 283.894531 285.363281 C 284.640625 285.976562 285.417969 286.550781 286.222656 287.089844 C 287.027344 287.625 287.855469 288.125 288.707031 288.578125 C 289.558594 289.035156 290.433594 289.449219 291.328125 289.820312 C 292.21875 290.1875 293.128906 290.515625 294.054688 290.796875 C 294.980469 291.078125 295.917969 291.3125 296.867188 291.5 C 297.816406 291.6875 298.769531 291.832031 299.734375 291.925781 C 300.695312 292.019531 301.660156 292.066406 302.628906 292.066406 C 303.59375 292.066406 304.558594 292.019531 305.523438 291.925781 C 306.484375 291.832031 307.441406 291.6875 308.386719 291.5 C 309.335938 291.3125 310.273438 291.078125 311.199219 290.796875 C 312.125 290.515625 313.035156 290.1875 313.929688 289.820312 C 314.820312 289.449219 315.695312 289.035156 316.546875 288.578125 C 317.398438 288.125 318.230469 287.625 319.03125 287.089844 C 319.835938 286.550781 320.613281 285.976562 321.359375 285.363281 C 322.109375 284.75 322.824219 284.101562 323.507812 283.414062 C 324.191406 282.730469 324.839844 282.015625 325.453125 281.269531 C 326.066406 280.519531 326.644531 279.746094 327.179688 278.941406 C 327.71875 278.136719 328.214844 277.308594 328.667969 276.453125 C 329.125 275.601562 329.539062 274.726562 329.910156 273.832031 C 330.277344 272.9375 330.605469 272.03125 330.886719 271.105469 C 331.164062 270.179688 331.402344 269.242188 331.589844 268.292969 C 331.777344 267.34375 331.917969 266.386719 332.015625 265.425781 C 332.109375 264.460938 332.15625 263.496094 332.15625 262.53125 C 332.15625 261.5625 332.105469 260.597656 332.011719 259.636719 C 331.914062 258.675781 331.773438 257.71875 331.582031 256.773438 C 331.394531 255.824219 331.160156 254.886719 330.875 253.964844 C 330.59375 253.039062 330.269531 252.128906 329.898438 251.238281 C 329.527344 250.34375 329.113281 249.472656 328.660156 248.621094 C 328.203125 247.765625 327.707031 246.941406 327.167969 246.136719 C 326.628906 245.332031 326.054688 244.558594 325.441406 243.8125 C 324.828125 243.0625 324.179688 242.347656 323.496094 241.664062 C 322.8125 240.984375 322.097656 240.335938 321.347656 239.722656 C 320.601562 239.109375 319.824219 238.535156 319.023438 237.996094 C 318.21875 237.460938 317.390625 236.964844 316.539062 236.507812 C 315.683594 236.054688 314.8125 235.640625 313.917969 235.273438 C 313.027344 234.902344 312.117188 234.578125 311.191406 234.296875 C 310.269531 234.015625 309.332031 233.78125 308.382812 233.59375 C 307.4375 233.40625 306.480469 233.265625 305.519531 233.167969 C 304.558594 233.074219 303.59375 233.027344 302.628906 233.027344 Z M 302.628906 232.992188 " fill-opacity="1" fill-rule="nonzero"/><path fill="#e6b74e" d="M 265.480469 182.578125 L 100.121094 182.578125 L 100.121094 123.113281 C 100.121094 122.320312 100.160156 121.527344 100.238281 120.738281 C 100.316406 119.949219 100.429688 119.164062 100.585938 118.386719 C 100.742188 117.609375 100.933594 116.839844 101.164062 116.082031 C 101.394531 115.320312 101.660156 114.574219 101.964844 113.84375 C 102.269531 113.109375 102.605469 112.390625 102.980469 111.691406 C 103.355469 110.992188 103.761719 110.3125 104.203125 109.652344 C 104.644531 108.992188 105.113281 108.355469 105.617188 107.742188 C 106.121094 107.128906 106.652344 106.542969 107.214844 105.980469 C 107.777344 105.421875 108.363281 104.886719 108.976562 104.386719 C 109.589844 103.882812 110.226562 103.410156 110.886719 102.96875 C 111.542969 102.527344 112.222656 102.121094 112.925781 101.746094 C 113.625 101.371094 114.339844 101.035156 115.074219 100.730469 C 115.804688 100.425781 116.550781 100.160156 117.3125 99.929688 C 118.070312 99.699219 118.839844 99.503906 119.617188 99.351562 C 120.394531 99.195312 121.179688 99.078125 121.96875 99.003906 C 122.757812 98.925781 123.546875 98.886719 124.339844 98.886719 L 241.25 98.886719 C 242.042969 98.886719 242.835938 98.921875 243.625 99 C 244.414062 99.078125 245.199219 99.195312 245.976562 99.347656 C 246.753906 99.503906 247.523438 99.695312 248.285156 99.925781 C 249.042969 100.15625 249.789062 100.421875 250.523438 100.726562 C 251.253906 101.03125 251.972656 101.371094 252.671875 101.742188 C 253.371094 102.117188 254.050781 102.523438 254.710938 102.964844 C 255.371094 103.40625 256.007812 103.878906 256.621094 104.382812 C 257.234375 104.886719 257.820312 105.417969 258.382812 105.980469 C 258.945312 106.539062 259.476562 107.128906 259.980469 107.742188 C 260.484375 108.355469 260.957031 108.992188 261.394531 109.652344 C 261.835938 110.308594 262.246094 110.988281 262.617188 111.691406 C 262.992188 112.390625 263.332031 113.105469 263.636719 113.839844 C 263.9375 114.574219 264.207031 115.320312 264.4375 116.078125 C 264.667969 116.839844 264.859375 117.609375 265.015625 118.386719 C 265.167969 119.164062 265.285156 119.949219 265.363281 120.738281 C 265.441406 121.527344 265.480469 122.320312 265.480469 123.113281 Z M 265.480469 182.578125 " fill-opacity="1" fill-rule="nonzero"/><path fill="#e6b74e" d="M 23.746094 195.355469 C 22.980469 199.996094 21.738281 204.5 20.023438 208.878906 C 19.40625 210.464844 18.570312 212.1875 16.980469 212.792969 C 16.101562 213.066406 15.207031 213.136719 14.292969 213.007812 C 11.53125 212.800781 8.789062 212.425781 6.074219 211.878906 C 5.597656 211.828125 5.1875 211.636719 4.839844 211.304688 C 4.523438 210.734375 4.484375 210.144531 4.726562 209.539062 C 5.816406 205.191406 7.429688 201.042969 9.558594 197.09375 C 10.066406 196.03125 10.746094 195.089844 11.59375 194.273438 C 14.558594 191.6875 19.117188 193.027344 22.765625 194.5 M 356.484375 196.355469 C 357.175781 202.65625 358.480469 208.832031 360.390625 214.875 C 360.507812 215.445312 360.800781 215.90625 361.269531 216.25 C 361.746094 216.460938 362.238281 216.503906 362.742188 216.382812 C 366.023438 215.96875 369.382812 215.5 372.320312 214.019531 C 373.277344 213.601562 374.019531 212.945312 374.550781 212.042969 C 374.941406 211.054688 375.046875 210.035156 374.867188 208.984375 C 374.566406 205.542969 374.113281 202.125 373.5 198.726562 C 373.203125 197.078125 372.742188 195.25 371.304688 194.386719 C 370.375 193.921875 369.386719 193.738281 368.351562 193.832031 C 364.957031 193.894531 361.683594 194.550781 358.527344 195.808594 " fill-opacity="1" fill-rule="nonzero"/><path fill="#112838" d="M 17.742188 238.238281 C 17.554688 239.121094 8.625 239.542969 7.601562 239.675781 C 5.546875 239.941406 4.453125 240.558594 3.472656 238.511719 C 0.0351562 231.308594 14.644531 234.316406 18.109375 233.769531 C 18.058594 233.777344 17.8125 237.886719 17.742188 238.238281 Z M 17.742188 238.238281 " fill-opacity="1" fill-rule="nonzero"/><path fill="#112838" d="M 114.75 229.773438 C 100.941406 222.328125 82.125 221.949219 67.894531 228.527344 C 66.242188 229.28125 64.664062 230.164062 63.160156 231.175781 C 50.054688 239.996094 44.640625 256.753906 45.726562 271.816406 C 47.488281 295.894531 74.074219 307.75 97.015625 304.070312 C 106.40625 302.570312 117.078125 299.660156 123.203125 292.3125 C 126.265625 288.636719 130.8125 283.078125 132.25 278.519531 C 137.613281 260.914062 132.445312 239.332031 114.75 229.773438 Z M 100.324219 281.933594 C 86.789062 287.570312 68.878906 280.230469 66.886719 266.480469 C 65.847656 259.378906 69.453125 249.46875 77.390625 246.601562 C 87.441406 242.949219 100.113281 243.753906 106.875 252.007812 C 114.007812 260.703125 111.972656 277.089844 100.324219 281.933594 Z M 322.863281 229.164062 C 309.460938 221.71875 291.21875 221.339844 277.382812 227.921875 C 275.785156 228.679688 274.253906 229.558594 272.796875 230.566406 C 260.074219 239.386719 254.800781 256.144531 255.871094 271.199219 C 257.632812 295.285156 283.386719 307.132812 305.660156 303.460938 C 314.769531 301.964844 325.121094 299.050781 331.070312 291.695312 C 334.042969 288.027344 338.460938 282.472656 339.84375 277.910156 C 345.019531 260.316406 340.039062 238.742188 322.863281 229.164062 Z M 310.738281 283.238281 C 297.609375 288.855469 280.25 281.535156 278.292969 267.785156 C 277.277344 260.6875 280.777344 250.753906 288.484375 247.886719 C 298.253906 244.253906 310.527344 245.058594 317.105469 253.296875 C 324.035156 262.019531 322.042969 278.398438 310.738281 283.246094 Z M 310.738281 283.238281 " fill-opacity="1" fill-rule="nonzero"/><path fill="#d55432" d="M 351.660156 181.351562 C 345.699219 175.152344 338.847656 170.179688 331.109375 166.4375 C 325.011719 163.441406 318.679688 161.089844 312.105469 159.382812 C 303.289062 157.042969 294.472656 155.03125 288.300781 147.695312 C 278.601562 136.230469 276.511719 120.273438 268.230469 107.882812 C 252.820312 84.851562 225.492188 74.902344 199.175781 71.058594 C 173.3125 67.292969 140.300781 69.796875 118.785156 86.050781 C 99.601562 100.480469 88.4375 120.335938 77.144531 140.964844 C 75.566406 143.820312 73.652344 146.429688 71.410156 148.796875 C 59.765625 161.25 41.054688 166.808594 29.300781 180.125 C 25.308594 184.707031 21.972656 189.722656 19.289062 195.179688 C 16.609375 200.632812 14.675781 206.339844 13.492188 212.300781 C 11.515625 222.0625 7.320312 245.453125 21.285156 248.460938 C 27.75 249.835938 39.0625 250.332031 44.457031 245.65625 C 49.234375 241.457031 50.445312 233.308594 55.390625 228.820312 C 65.089844 219.957031 78.253906 214.480469 91.488281 215.246094 C 107.675781 216.179688 122.832031 224.535156 133.027344 237.011719 C 138.265625 243.386719 142.011719 250.539062 144.269531 258.472656 C 145.496094 262.882812 143.996094 267.566406 147.011719 270.933594 C 150.371094 274.683594 158.351562 274.460938 162.882812 274.460938 C 188.636719 274.515625 214.480469 274.558594 240.023438 271.207031 C 254.953125 269.25 249.96875 247.058594 256.847656 236.335938 C 267.269531 220.070312 292.117188 211.640625 310.632812 215.300781 C 320.078125 217.1875 328.480469 222.40625 334.988281 229.410156 C 339.878906 234.703125 339.394531 242.148438 347.957031 242.578125 C 354.128906 242.886719 358.539062 239.394531 361.5 234.71875 C 362.59375 232.941406 363.492188 231.070312 364.191406 229.101562 C 369.914062 213.101562 362.886719 193.328125 351.660156 181.351562 Z M 166.171875 152.855469 C 166.25 155.5 166.910156 158.648438 165.757812 161.152344 C 164.945312 162.917969 161.214844 161.859375 159.664062 161.929688 C 157.363281 162.027344 155.0625 162.054688 152.761719 162.054688 C 148.085938 162.054688 143.414062 161.902344 138.75 161.929688 C 132.859375 161.929688 126.96875 162.167969 121.113281 162.265625 C 118.769531 162.265625 116.511719 161.902344 114.246094 161.804688 C 112.480469 161.734375 109.96875 162.875 108.550781 161.257812 C 108.136719 160.710938 107.90625 160.09375 107.851562 159.40625 C 107.296875 155.375 108.734375 151.363281 110.3125 147.597656 C 111.9375 143.460938 113.851562 139.464844 116.0625 135.613281 C 125.425781 119.839844 141.898438 110.253906 159.882812 108.773438 C 161.445312 108.648438 165.085938 108.304688 165.976562 109.910156 C 166.453125 110.792969 165.976562 113.296875 165.976562 114.320312 C 165.976562 115.847656 165.976562 117.363281 165.976562 118.890625 C 165.976562 124.976562 165.925781 131.058594 165.976562 137.15625 C 165.953125 142.382812 166.019531 147.617188 166.171875 152.855469 Z M 256.503906 154.335938 C 256.644531 155.367188 256.75 156.398438 256.8125 157.421875 C 256.855469 157.769531 256.808594 158.101562 256.671875 158.417969 C 255.84375 159.964844 252.710938 159.628906 251.292969 159.75 L 244.378906 160.324219 C 240.960938 160.617188 237.777344 160.183594 234.363281 160.238281 C 230.140625 160.308594 225.917969 160.5625 221.683594 160.527344 C 215.601562 160.484375 209.507812 160.449219 203.425781 160.667969 C 200.859375 160.765625 198.285156 160.84375 195.71875 160.855469 L 190.074219 160.855469 C 189.074219 160.984375 188.070312 161 187.066406 160.898438 C 185.914062 160.546875 186.308594 158.761719 186.273438 157.933594 C 186.125 153.957031 185.84375 149.953125 185.746094 145.964844 C 185.628906 141.132812 185.648438 136.265625 185.394531 131.476562 C 185.003906 124.339844 183.910156 116.929688 184.335938 109.8125 C 184.332031 109.535156 184.386719 109.273438 184.503906 109.019531 C 184.8125 108.453125 185.558594 108.367188 186.203125 108.359375 C 193.257812 108.171875 200.3125 108.359375 207.367188 108.597656 C 211.960938 108.738281 216.5625 108.816406 221.136719 109.257812 C 225.089844 109.644531 229.074219 109.390625 232.875 110.800781 C 236.675781 112.210938 238.730469 114.824219 241.375 117.644531 C 246.789062 123.40625 249.625 130.117188 252.21875 137.570312 C 254.203125 143.015625 255.632812 148.605469 256.503906 154.335938 Z M 256.503906 154.335938 " fill-opacity="1" fill-rule="nonzero"/><path fill="#ed7562" d="M 32.296875 225.460938 C 50.8125 184.492188 105.675781 169.082031 140.449219 199.609375 C 161.082031 217.722656 167.097656 244.835938 168.429688 271.148438 C 168.542969 273.464844 168.523438 275.988281 167.113281 277.832031 C 165.472656 279.964844 162.503906 280.476562 159.824219 280.714844 C 156.738281 281 153.648438 281.121094 150.539062 281.09375 C 148.035156 281.09375 145.398438 280.902344 143.316406 279.507812 C 140.089844 277.339844 139.269531 272.945312 139.359375 269.046875 C 139.894531 245.71875 124.007812 222.300781 100.5625 218.085938 C 81.464844 214.671875 62.726562 221.976562 51.371094 237.773438 C 42.621094 249.945312 45.796875 263.199219 27.757812 265.042969 C 21.410156 265.695312 13.050781 266.082031 7.476562 262.53125 C 3.660156 260.105469 0.0703125 256.265625 6.515625 254.398438 C 9.757812 253.496094 12.898438 252.320312 15.933594 250.871094 C 25.375 246.238281 28.242188 234.457031 32.296875 225.460938 Z M 228.351562 248.566406 C 227.265625 255.667969 224.558594 266.207031 225.933594 273.371094 C 227.355469 280.75 232.589844 279.03125 239.882812 278.085938 C 242.777344 277.71875 245.792969 277.109375 248.039062 275.238281 C 253.523438 270.6875 251.636719 262.785156 252.449219 256.628906 C 253.328125 249.574219 256.539062 242.464844 260.738281 236.546875 C 283.574219 204.414062 342.464844 216.164062 345.257812 257.042969 C 346.140625 270.273438 355.335938 259.691406 357.71875 253.859375 C 366.058594 233.574219 353.53125 215.226562 338.664062 202.226562 C 322.175781 187.808594 300.660156 182.648438 279.078125 187.878906 C 275.394531 188.757812 271.824219 189.964844 268.363281 191.492188 C 264.902344 193.019531 261.605469 194.847656 258.472656 196.976562 C 255.34375 199.101562 252.429688 201.492188 249.730469 204.148438 C 247.035156 206.804688 244.597656 209.679688 242.421875 212.777344 C 235.070312 222.988281 230.394531 235.335938 228.351562 248.566406 Z M 228.351562 248.566406 " fill-opacity="1" fill-rule="nonzero"/><path fill="#d55432" d="M 226.648438 101.046875 L 226.753906 101.046875 C 226.902344 100.984375 227.058594 100.960938 227.222656 100.972656 C 227.382812 100.988281 227.53125 101.039062 227.667969 101.128906 C 227.804688 101.214844 227.910156 101.332031 227.988281 101.472656 C 228.066406 101.613281 228.109375 101.765625 228.113281 101.929688 C 229.09375 104.808594 229.839844 107.746094 230.34375 110.75 C 230.8125 113.226562 231.480469 115.660156 231.957031 118.148438 C 233.226562 124.824219 234.453125 131.5 236.09375 138.125 C 237.644531 144.394531 238.789062 150.765625 240.316406 157.042969 C 241.699219 162.777344 243.84375 168.414062 244.582031 174.269531 C 244.707031 175.335938 242.75 175.617188 242.617188 174.542969 C 241.9375 168.855469 239.832031 163.394531 238.417969 157.835938 C 236.851562 151.664062 235.773438 145.355469 234.3125 139.148438 C 232.679688 132.261719 231.355469 125.34375 229.980469 118.429688 C 229.523438 116.128906 228.941406 113.84375 228.484375 111.542969 C 227.957031 108.355469 227.164062 105.242188 226.101562 102.191406 C 226.015625 101.957031 226.023438 101.730469 226.132812 101.503906 C 226.238281 101.277344 226.410156 101.125 226.648438 101.046875 Z M 226.648438 101.046875 " fill-opacity="1" fill-rule="nonzero"/><path fill="#d55432" d="M 141.253906 226.085938 Z M 31.664062 257.386719 Z M 21.804688 261.269531 C 21.496094 261.339844 21.1875 261.417969 20.878906 261.472656 L 20.269531 261.578125 L 20.085938 261.621094 C 19.820312 261.683594 19.558594 261.753906 19.285156 261.804688 L 18.480469 261.964844 C 18.164062 262.035156 17.847656 262.160156 17.527344 262.246094 C 17.324219 262.292969 17.125 262.359375 16.929688 262.441406 C 16.707031 262.539062 16.488281 262.636719 16.277344 262.75 L 15.589844 263.066406 C 15.386719 263.148438 15.183594 263.210938 14.972656 263.261719 C 14.433594 263.359375 13.886719 263.386719 13.347656 263.464844 C 12.8125 263.542969 12.097656 263.625 11.472656 263.738281 C 11.164062 263.800781 10.84375 263.824219 10.535156 263.886719 L 10.296875 263.886719 C 11.121094 264.195312 11.957031 264.449219 12.8125 264.644531 C 13.261719 264.539062 13.691406 264.417969 14.152344 264.320312 C 14.371094 264.320312 14.582031 264.25 14.804688 264.222656 C 14.925781 264.214844 15.046875 264.214844 15.164062 264.222656 L 15.5625 264.222656 C 15.941406 264.222656 16.3125 264.382812 16.699219 264.398438 C 17.027344 264.421875 17.359375 264.421875 17.6875 264.398438 L 18.570312 264.320312 C 19.03125 264.257812 19.484375 264.164062 19.9375 264.046875 C 20.164062 264.003906 20.394531 263.933594 20.625 263.871094 C 20.851562 263.808594 21.265625 263.648438 21.574219 263.535156 C 21.882812 263.421875 22.300781 263.242188 22.652344 263.09375 C 22.820312 263.007812 22.960938 262.882812 23.066406 262.722656 C 23.222656 262.480469 23.261719 262.21875 23.179688 261.9375 C 23.070312 261.667969 22.886719 261.464844 22.621094 261.335938 C 22.359375 261.210938 22.085938 261.1875 21.804688 261.269531 Z M 30.773438 257.386719 C 30.828125 257.175781 30.921875 256.984375 31.054688 256.8125 C 31.300781 256.433594 31.539062 256.074219 31.761719 255.667969 C 32.078125 255.128906 32.402344 254.617188 32.6875 254.0625 C 32.941406 253.625 33.160156 253.175781 33.347656 252.703125 C 33.46875 252.394531 33.613281 252.09375 33.742188 251.820312 L 34.078125 250.886719 C 34.097656 250.828125 34.121094 250.765625 34.148438 250.710938 C 34.195312 250.613281 34.265625 250.535156 34.351562 250.472656 C 34.484375 250.371094 34.636719 250.328125 34.800781 250.347656 C 34.972656 250.363281 35.109375 250.441406 35.210938 250.578125 C 35.3125 250.71875 35.34375 250.871094 35.304688 251.039062 C 35.144531 251.703125 34.925781 252.351562 34.652344 252.976562 C 34.441406 253.410156 34.253906 253.859375 34 254.292969 L 33.292969 255.394531 C 33.011719 255.800781 32.695312 256.171875 32.414062 256.585938 C 32.296875 256.769531 32.164062 256.945312 32.023438 257.113281 C 31.917969 257.238281 31.8125 257.359375 31.714844 257.492188 C 31.726562 257.550781 31.726562 257.605469 31.714844 257.660156 C 31.675781 257.742188 31.617188 257.808594 31.546875 257.863281 C 31.441406 257.945312 31.320312 257.988281 31.1875 257.988281 C 31.109375 257.980469 31.042969 257.953125 30.984375 257.90625 C 30.71875 257.863281 30.726562 257.617188 30.773438 257.386719 Z M 31.652344 257.335938 Z M 47.226562 224.558594 C 46.980469 224.390625 46.710938 224.324219 46.417969 224.371094 C 46.121094 224.414062 45.882812 224.554688 45.699219 224.789062 C 45.292969 225.300781 44.878906 225.792969 44.519531 226.339844 L 43.796875 227.410156 C 43.453125 227.921875 43.160156 228.46875 42.851562 228.996094 C 42.207031 230.144531 41.679688 231.351562 41.089844 232.523438 C 39.941406 235.042969 38.929688 237.617188 38.046875 240.242188 L 37.933594 240.601562 C 37.894531 240.847656 37.921875 241.085938 38.011719 241.316406 C 38.160156 241.679688 38.417969 241.941406 38.777344 242.09375 C 39.148438 242.242188 39.519531 242.242188 39.890625 242.09375 C 40.261719 241.980469 40.53125 241.742188 40.691406 241.386719 C 41.378906 239.191406 42.113281 236.976562 42.929688 234.863281 C 43.433594 233.511719 43.988281 232.214844 44.617188 230.902344 C 44.960938 230.214844 45.347656 229.550781 45.746094 228.890625 L 46.398438 227.851562 C 46.785156 227.222656 47.121094 226.570312 47.5 225.945312 C 47.578125 225.828125 47.632812 225.703125 47.660156 225.566406 C 47.691406 225.425781 47.691406 225.289062 47.664062 225.152344 C 47.636719 225.011719 47.582031 224.886719 47.503906 224.769531 C 47.425781 224.652344 47.324219 224.558594 47.207031 224.480469 Z M 58.328125 214.242188 L 60.089844 212.476562 C 60.734375 211.851562 61.402344 211.257812 62.066406 210.632812 C 62.726562 210.007812 63.316406 209.582031 63.941406 209.035156 C 64.261719 208.78125 64.570312 208.5 64.894531 208.242188 L 65.890625 207.511719 L 67.277344 206.496094 C 67.769531 206.1875 68.273438 205.90625 68.785156 205.613281 L 70.371094 204.792969 L 71.386719 204.28125 C 71.957031 204 72.503906 203.65625 73.058594 203.320312 C 73.207031 203.226562 73.304688 203.097656 73.355469 202.929688 C 73.40625 202.765625 73.398438 202.601562 73.332031 202.441406 C 73.261719 202.238281 73.132812 202.09375 72.941406 201.996094 C 72.753906 201.902344 72.558594 201.882812 72.355469 201.945312 L 69.523438 202.914062 L 69.269531 203.011719 C 68.792969 203.238281 68.324219 203.472656 67.867188 203.726562 C 67.320312 204.027344 66.773438 204.316406 66.246094 204.609375 C 65.714844 204.902344 65.195312 205.269531 64.65625 205.589844 C 62.453125 206.886719 60.367188 208.355469 58.40625 210 C 57.648438 210.695312 56.863281 211.367188 56.121094 212.070312 L 54.765625 213.507812 L 54.304688 214.011719 C 54.007812 214.328125 53.75 214.691406 53.476562 215.027344 C 53.234375 215.351562 53.03125 215.703125 52.867188 216.074219 C 52.726562 216.308594 52.664062 216.5625 52.675781 216.832031 C 52.683594 217.113281 52.765625 217.371094 52.921875 217.601562 C 53.121094 217.894531 53.382812 218.109375 53.714844 218.246094 C 54.042969 218.378906 54.378906 218.410156 54.730469 218.34375 C 55.132812 218.253906 55.425781 218.023438 55.609375 217.652344 C 56.042969 216.808594 56.585938 216.046875 57.242188 215.359375 C 57.664062 215.050781 57.992188 214.644531 58.335938 214.277344 Z M 93.535156 198.671875 C 93.625 198.585938 93.671875 198.476562 93.675781 198.347656 C 93.675781 198.214844 93.632812 198.101562 93.546875 198.007812 C 93.457031 197.910156 93.347656 197.859375 93.214844 197.851562 C 92.617188 197.851562 92.007812 197.851562 91.398438 197.851562 C 90.96875 197.851562 90.519531 197.925781 90.105469 197.949219 L 88.253906 198.160156 C 87.0625 198.269531 85.878906 198.53125 84.726562 198.726562 L 83.472656 198.929688 C 83.191406 198.929688 82.917969 199.035156 82.589844 199.097656 L 82.355469 199.160156 L 82.117188 199.21875 C 82.0625 199.226562 82.011719 199.242188 81.964844 199.265625 C 81.8125 199.328125 81.761719 199.4375 81.808594 199.597656 C 81.859375 199.753906 81.960938 199.816406 82.125 199.785156 C 82.179688 199.789062 82.234375 199.789062 82.292969 199.785156 L 82.589844 199.730469 L 82.960938 199.671875 C 83.28125 199.609375 83.597656 199.601562 83.90625 199.5625 C 84.53125 199.503906 85.148438 199.441406 85.765625 199.363281 C 87.035156 199.160156 88.324219 199.105469 89.601562 199 L 90.808594 198.910156 C 91.601562 198.867188 92.398438 198.910156 93.191406 198.839844 C 93.328125 198.847656 93.445312 198.804688 93.542969 198.707031 Z M 119.4375 203.585938 C 118.175781 202.644531 116.855469 201.785156 115.480469 201.011719 C 115.03125 200.71875 114.597656 200.410156 114.113281 200.128906 C 113.917969 200.039062 113.734375 199.953125 113.539062 199.882812 L 112.808594 199.636719 L 109.917969 198.753906 C 108.929688 198.496094 107.914062 198.339844 106.917969 198.136719 C 105.933594 197.917969 104.941406 197.757812 103.9375 197.652344 L 102.175781 197.492188 L 101.292969 197.414062 C 100.886719 197.414062 100.480469 197.359375 100.078125 197.351562 C 99.878906 197.355469 99.679688 197.371094 99.484375 197.402344 C 99.273438 197.449219 99.070312 197.523438 98.878906 197.625 C 98.636719 197.734375 98.453125 197.90625 98.332031 198.140625 C 98.210938 198.375 98.175781 198.625 98.226562 198.886719 C 98.265625 199.089844 98.351562 199.277344 98.480469 199.441406 L 98.691406 199.644531 C 98.859375 199.769531 99.046875 199.839844 99.257812 199.863281 C 99.457031 199.882812 99.652344 199.847656 99.839844 199.765625 L 99.898438 199.765625 C 100.070312 199.753906 100.242188 199.753906 100.410156 199.765625 C 102.480469 199.792969 104.539062 199.972656 106.582031 200.304688 C 107.464844 200.457031 108.433594 200.578125 109.34375 200.789062 C 110.25 201.003906 111.105469 201.328125 111.988281 201.621094 L 113.488281 202.085938 C 113.972656 202.289062 114.449219 202.492188 114.925781 202.714844 L 116.421875 203.402344 L 117.492188 203.886719 L 118.882812 204.617188 C 119.019531 204.695312 119.160156 204.710938 119.3125 204.671875 C 119.460938 204.628906 119.574219 204.542969 119.652344 204.40625 C 119.730469 204.261719 119.753906 204.113281 119.710938 203.953125 C 119.671875 203.792969 119.578125 203.671875 119.4375 203.585938 Z M 130.972656 215.050781 C 131.5 215.703125 132.03125 216.367188 132.578125 216.992188 L 133.457031 217.960938 C 133.710938 218.304688 133.976562 218.640625 134.253906 218.96875 L 135.34375 220.253906 C 135.59375 220.554688 135.855469 220.847656 136.121094 221.136719 L 136.878906 222.019531 C 137.023438 222.234375 137.21875 222.367188 137.46875 222.425781 C 137.730469 222.46875 137.964844 222.421875 138.183594 222.277344 C 138.398438 222.121094 138.535156 221.910156 138.585938 221.648438 C 138.640625 221.390625 138.597656 221.144531 138.457031 220.917969 L 137.894531 219.894531 C 137.683594 219.566406 137.46875 219.242188 137.242188 218.925781 L 136.175781 217.441406 L 136.105469 217.34375 C 135.847656 217 135.582031 216.667969 135.320312 216.339844 L 134.4375 215.414062 C 133.835938 214.769531 133.195312 214.171875 132.566406 213.570312 C 132.292969 213.300781 132 213.058594 131.6875 212.839844 C 131.210938 212.46875 130.734375 212.105469 130.242188 211.78125 C 130.082031 211.691406 129.910156 211.660156 129.730469 211.6875 C 129.546875 211.714844 129.394531 211.796875 129.269531 211.929688 C 129.125 212.097656 129.050781 212.289062 129.050781 212.511719 C 129.050781 212.734375 129.125 212.925781 129.269531 213.09375 C 129.800781 213.78125 130.425781 214.390625 130.972656 215.050781 Z M 141.269531 226.078125 Z M 151.039062 241.027344 C 151.21875 240.960938 151.347656 240.839844 151.425781 240.671875 C 151.507812 240.5 151.515625 240.324219 151.453125 240.144531 C 151.253906 239.589844 151.058594 239.015625 150.820312 238.46875 C 150.660156 238.089844 150.476562 237.726562 150.300781 237.347656 L 149.886719 236.574219 L 149.488281 235.832031 L 148.5625 234.066406 C 148.226562 233.484375 147.882812 232.902344 147.511719 232.347656 C 146.871094 231.371094 146.152344 230.457031 145.363281 229.597656 L 144.066406 228.183594 C 143.730469 227.824219 143.386719 227.460938 143.035156 227.125 C 142.679688 226.792969 142.445312 226.625 142.152344 226.394531 C 142.011719 226.285156 141.859375 226.199219 141.695312 226.140625 C 141.558594 226.101562 141.421875 226.101562 141.289062 226.140625 L 141.226562 226.140625 C 141.101562 226.140625 141.007812 226.195312 140.945312 226.304688 C 140.886719 226.414062 140.886719 226.519531 140.945312 226.625 C 140.964844 226.65625 140.988281 226.6875 141.015625 226.710938 C 141.085938 226.796875 141.171875 226.828125 141.28125 226.800781 L 141.367188 226.800781 L 141.597656 226.941406 C 141.738281 227.054688 141.878906 227.195312 142.011719 227.328125 L 142.496094 227.816406 C 142.726562 228.050781 142.953125 228.308594 143.175781 228.574219 L 143.925781 229.453125 C 144.355469 229.988281 144.757812 230.539062 145.132812 231.113281 C 145.757812 232.1875 146.367188 233.273438 146.976562 234.375 C 147.585938 235.480469 148.105469 236.609375 148.675781 237.71875 L 149.214844 238.734375 L 149.488281 239.296875 C 149.734375 239.808594 150.019531 240.304688 150.28125 240.796875 C 150.351562 240.894531 150.441406 240.972656 150.546875 241.027344 C 150.710938 241.089844 150.875 241.089844 151.039062 241.027344 Z M 141.253906 226.085938 Z M 155.855469 256.25 L 156.5 258.402344 C 156.859375 259.742188 157.125 261.109375 157.378906 262.46875 C 157.511719 263.207031 157.617188 263.957031 157.734375 264.707031 L 158.199219 267.945312 C 158.234375 268.195312 158.375 268.335938 158.625 268.367188 C 158.761719 268.378906 158.886719 268.339844 158.992188 268.253906 C 159.101562 268.167969 159.167969 268.054688 159.1875 267.917969 C 159.1875 267.511719 159.1875 267.105469 159.1875 266.703125 L 159.1875 266.09375 C 159.1875 265.785156 159.1875 265.484375 159.125 265.210938 L 158.976562 264.003906 C 158.976562 263.632812 158.886719 263.253906 158.835938 262.882812 C 158.753906 262.148438 158.625 261.4375 158.492188 260.710938 L 158.445312 260.472656 C 158.332031 259.855469 158.199219 259.25 158.066406 258.632812 C 157.996094 258.277344 157.890625 257.925781 157.792969 257.582031 C 157.699219 257.238281 157.574219 256.789062 157.433594 256.390625 L 157.132812 255.507812 C 157.0625 255.332031 157.007812 255.136719 156.9375 254.960938 C 156.726562 254.433594 156.488281 253.902344 156.25 253.382812 C 156.164062 253.230469 156.035156 253.125 155.863281 253.074219 C 155.691406 253.023438 155.527344 253.039062 155.371094 253.117188 C 155.210938 253.21875 155.105469 253.355469 155.050781 253.535156 C 155 253.714844 155.019531 253.894531 155.105469 254.0625 L 155.230469 254.378906 C 155.449219 254.996094 155.652344 255.625 155.855469 256.25 Z M 160.261719 280.671875 C 160.261719 280.292969 160.167969 279.921875 160.121094 279.542969 C 160.058594 278.996094 159.964844 278.457031 159.839844 277.921875 L 159.859375 277.671875 C 159.828125 277.5625 159.785156 277.460938 159.726562 277.363281 C 159.679688 277.25 159.597656 277.179688 159.480469 277.152344 C 159.347656 277.132812 159.242188 277.171875 159.160156 277.277344 C 159.101562 277.347656 159.078125 277.429688 159.089844 277.523438 L 159.089844 279.339844 L 159.046875 280.777344 L 159.867188 280.707031 Z M 334.539062 218.367188 Z M 238.171875 261.054688 Z M 237.484375 275.785156 C 237.484375 275.6875 237.484375 275.582031 237.484375 275.484375 L 237.566406 275.160156 C 237.652344 274.851562 237.828125 274.570312 237.925781 274.277344 C 238.019531 274.023438 238.09375 273.761719 238.148438 273.492188 L 238.261719 272.8125 C 238.3125 272.441406 238.335938 272.070312 238.332031 271.695312 L 238.332031 271.128906 C 238.332031 270.859375 238.3125 270.59375 238.277344 270.328125 L 238.226562 269.445312 C 238.195312 269.285156 238.125 269.144531 238.023438 269.019531 C 237.835938 268.824219 237.605469 268.710938 237.335938 268.6875 C 237.070312 268.640625 236.824219 268.695312 236.601562 268.847656 C 236.378906 269 236.238281 269.207031 236.179688 269.472656 L 236.066406 270.273438 L 235.984375 270.800781 L 235.984375 270.960938 L 235.941406 271.667969 L 235.898438 272.371094 C 235.898438 272.65625 235.898438 272.945312 235.949219 273.253906 C 235.953125 273.4375 235.976562 273.613281 236.011719 273.792969 C 236.074219 274.003906 236.117188 274.207031 236.1875 274.402344 C 236.257812 274.59375 236.332031 274.824219 236.390625 275.027344 C 236.4375 275.210938 236.46875 275.394531 236.488281 275.582031 C 236.488281 276.050781 236.488281 276.519531 236.488281 276.984375 C 236.488281 277.453125 236.53125 278.070312 236.59375 278.609375 L 236.59375 278.554688 L 237.828125 278.378906 C 237.679688 277.695312 237.5625 277.007812 237.484375 276.316406 C 237.511719 276.15625 237.503906 275.972656 237.511719 275.785156 Z M 238.261719 258.144531 L 238.242188 259.152344 C 238.21875 259.523438 238.21875 259.890625 238.242188 260.261719 L 238.289062 260.757812 C 238.273438 260.878906 238.273438 260.996094 238.289062 261.117188 C 238.324219 261.152344 238.351562 261.1875 238.375 261.234375 C 238.394531 261.296875 238.394531 261.363281 238.375 261.425781 C 238.355469 261.535156 238.296875 261.613281 238.199219 261.664062 C 238.136719 261.699219 238.070312 261.722656 237.996094 261.726562 C 237.792969 261.738281 237.636719 261.65625 237.53125 261.480469 C 237.425781 261.332031 237.359375 261.167969 237.335938 260.984375 C 237.265625 260.632812 237.175781 260.273438 237.132812 259.910156 C 237.050781 259.410156 237.003906 258.90625 237 258.402344 L 237 257.148438 C 237 256.585938 237.0625 256.027344 237.105469 255.472656 C 237.101562 255.421875 237.101562 255.367188 237.105469 255.316406 C 237.121094 255.222656 237.167969 255.144531 237.238281 255.085938 C 237.421875 254.925781 237.632812 254.882812 237.863281 254.964844 C 238.09375 255.046875 238.234375 255.207031 238.277344 255.445312 C 238.277344 255.976562 238.277344 256.503906 238.277344 257.035156 Z M 238.183594 261.039062 Z M 246.734375 230.273438 C 246.488281 230.125 246.226562 230.078125 245.945312 230.128906 C 245.660156 230.183594 245.433594 230.328125 245.261719 230.558594 C 244.902344 231.035156 244.578125 231.539062 244.292969 232.066406 L 243.71875 233.105469 C 243.445312 233.609375 243.199219 234.121094 242.953125 234.632812 C 242.457031 235.734375 242.070312 236.898438 241.664062 238.027344 C 241.257812 239.15625 240.890625 240.472656 240.5 241.6875 C 240.113281 242.90625 239.832031 244.148438 239.566406 245.390625 L 239.496094 245.738281 C 239.488281 245.96875 239.539062 246.1875 239.65625 246.390625 C 239.859375 246.730469 240.152344 246.949219 240.535156 247.050781 C 240.910156 247.167969 241.277344 247.152344 241.636719 247.007812 C 241.984375 246.882812 242.21875 246.648438 242.34375 246.300781 C 242.722656 244.226562 243.226562 242.191406 243.753906 240.128906 C 244.125 238.867188 244.523438 237.605469 244.960938 236.359375 C 245.21875 235.703125 245.511719 235.066406 245.84375 234.445312 L 246.355469 233.433594 C 246.65625 232.832031 246.882812 232.1875 247.238281 231.597656 C 247.378906 231.367188 247.410156 231.125 247.324219 230.867188 C 247.207031 230.605469 247.019531 230.414062 246.761719 230.292969 Z M 267.207031 209.425781 C 267.710938 209.109375 268.167969 208.746094 268.644531 208.382812 C 268.761719 208.269531 268.832031 208.128906 268.855469 207.964844 C 268.878906 207.800781 268.851562 207.644531 268.769531 207.503906 C 268.679688 207.316406 268.542969 207.1875 268.351562 207.113281 C 268.160156 207.039062 267.972656 207.039062 267.78125 207.113281 C 266.929688 207.464844 266.101562 207.863281 265.296875 208.304688 L 265.074219 208.4375 C 264.660156 208.683594 264.261719 208.949219 263.867188 209.230469 C 262.941406 209.910156 261.996094 210.554688 261.125 211.304688 L 258.363281 213.507812 C 257.5 214.320312 256.652344 215.140625 255.824219 215.96875 C 255.140625 216.632812 254.5 217.335938 253.910156 218.085938 L 252.765625 219.507812 L 252.378906 219.992188 C 252.128906 220.308594 251.9375 220.671875 251.714844 221.003906 C 251.527344 221.332031 251.371094 221.675781 251.257812 222.039062 C 251.160156 222.277344 251.132812 222.523438 251.167969 222.777344 C 251.214844 223.046875 251.324219 223.289062 251.496094 223.5 C 251.714844 223.773438 251.992188 223.964844 252.324219 224.078125 C 252.652344 224.191406 252.988281 224.207031 253.328125 224.128906 C 253.722656 224.035156 253.996094 223.800781 254.140625 223.421875 C 254.277344 223.003906 254.457031 222.609375 254.679688 222.230469 C 254.917969 221.871094 255.171875 221.515625 255.429688 221.164062 L 256.308594 219.945312 L 256.167969 220.140625 C 257.160156 218.808594 258.21875 217.527344 259.34375 216.304688 C 259.597656 216.023438 259.835938 215.714844 260.09375 215.421875 L 260.902344 214.621094 L 262.527344 212.996094 C 263.289062 212.238281 264.117188 211.558594 265.003906 210.949219 C 265.460938 210.640625 265.929688 210.351562 266.363281 210.007812 C 266.644531 209.804688 266.933594 209.613281 267.234375 209.441406 Z M 277.453125 202.855469 L 276.714844 203.117188 L 276.5 203.199219 L 276.289062 203.285156 C 276.242188 203.296875 276.199219 203.316406 276.15625 203.339844 C 276.054688 203.417969 276.019531 203.523438 276.0625 203.648438 C 276.121094 203.800781 276.230469 203.867188 276.394531 203.84375 L 276.546875 203.796875 L 276.808594 203.710938 L 277.144531 203.613281 L 277.984375 203.375 C 278.546875 203.214844 279.09375 203.058594 279.640625 202.871094 C 280.203125 202.683594 280.773438 202.527344 281.351562 202.40625 L 283.113281 201.980469 L 284.199219 201.707031 C 284.914062 201.558594 285.609375 201.300781 286.34375 201.203125 C 286.460938 201.195312 286.558594 201.136719 286.625 201.039062 C 286.699219 200.933594 286.726562 200.820312 286.703125 200.691406 C 286.683594 200.570312 286.625 200.464844 286.527344 200.386719 C 286.429688 200.304688 286.320312 200.265625 286.191406 200.269531 C 285.632812 200.332031 285.078125 200.4375 284.535156 200.585938 L 283.378906 200.894531 L 281.730469 201.382812 L 280.144531 201.847656 L 278.582031 202.449219 Z M 301.261719 200.527344 C 302.144531 200.605469 302.972656 200.753906 303.828125 200.886719 C 304.785156 201.007812 305.734375 201.179688 306.675781 201.398438 L 308.136719 201.832031 L 309.179688 202.121094 C 309.644531 202.253906 310.113281 202.351562 310.589844 202.476562 C 310.730469 202.519531 310.863281 202.507812 310.996094 202.4375 C 311.125 202.371094 311.210938 202.265625 311.25 202.121094 C 311.304688 201.976562 311.296875 201.835938 311.238281 201.691406 C 311.175781 201.550781 311.074219 201.449219 310.933594 201.390625 L 306.929688 199.625 C 306.480469 199.410156 306.019531 199.234375 305.539062 199.105469 C 305.359375 199.046875 305.175781 198.996094 304.992188 198.957031 L 304.945312 198.957031 L 304.25 198.832031 C 303.324219 198.71875 302.40625 198.558594 301.488281 198.460938 L 298.675781 198.339844 L 297.277344 198.339844 C 296.8125 198.296875 296.347656 198.296875 295.882812 198.339844 L 294.261719 198.460938 L 293.378906 198.542969 C 293 198.542969 292.621094 198.621094 292.242188 198.683594 C 292.058594 198.707031 291.878906 198.746094 291.703125 198.804688 C 291.515625 198.875 291.34375 198.96875 291.183594 199.089844 C 290.980469 199.25 290.839844 199.453125 290.769531 199.703125 C 290.699219 199.953125 290.707031 200.203125 290.792969 200.445312 C 290.859375 200.636719 290.964844 200.800781 291.113281 200.941406 L 291.339844 201.109375 C 291.507812 201.210938 291.691406 201.265625 291.886719 201.265625 C 292.078125 201.257812 292.25 201.203125 292.410156 201.097656 L 292.460938 201.097656 C 292.636719 201.035156 292.816406 200.980469 293 200.941406 C 293.941406 200.808594 294.886719 200.691406 295.839844 200.578125 L 296.550781 200.507812 L 298.703125 200.507812 C 299.59375 200.507812 300.457031 200.527344 301.324219 200.542969 Z M 329.777344 212.40625 L 328.550781 211.242188 L 328.460938 211.164062 C 327.878906 210.632812 327.261719 210.140625 326.65625 209.644531 C 326.046875 209.152344 325.289062 208.761719 324.601562 208.332031 C 324.300781 208.136719 323.992188 207.96875 323.71875 207.792969 C 323.445312 207.617188 323.242188 207.527344 322.996094 207.40625 C 322.75 207.28125 322.484375 207.183594 322.21875 207.085938 C 322.050781 207.042969 321.882812 207.058594 321.71875 207.125 C 321.554688 207.191406 321.429688 207.300781 321.335938 207.449219 C 321.21875 207.628906 321.179688 207.820312 321.214844 208.03125 C 321.25 208.242188 321.351562 208.414062 321.523438 208.542969 C 322.175781 209.011719 322.75 209.582031 323.375 210.078125 C 324 210.570312 324.574219 211.066406 325.191406 211.53125 C 325.808594 212 326.363281 212.589844 326.953125 213.085938 L 328.171875 214.054688 L 329.835938 215.421875 C 330.015625 215.585938 330.222656 215.671875 330.464844 215.679688 C 330.71875 215.664062 330.941406 215.566406 331.125 215.386719 C 331.3125 215.210938 331.414062 214.996094 331.429688 214.742188 C 331.445312 214.484375 331.371094 214.261719 331.203125 214.0625 C 330.757812 213.484375 330.285156 212.933594 329.777344 212.40625 Z M 334.554688 218.359375 Z M 346.078125 229.710938 C 345.816406 229.226562 345.566406 228.722656 345.277344 228.253906 L 344.625 227.292969 C 344.472656 227.066406 344.296875 226.851562 344.140625 226.632812 L 343.671875 226.007812 C 342.960938 224.972656 342.179688 223.996094 341.335938 223.070312 C 340.601562 222.261719 339.792969 221.527344 338.917969 220.875 L 337.5 219.789062 C 337.121094 219.507812 336.75 219.234375 336.363281 218.984375 C 336.066406 218.785156 335.753906 218.609375 335.429688 218.457031 C 335.277344 218.382812 335.117188 218.332031 334.953125 218.308594 C 334.824219 218.269531 334.691406 218.269531 334.5625 218.308594 L 334.503906 218.308594 C 334.386719 218.335938 334.304688 218.40625 334.253906 218.519531 C 334.199219 218.617188 334.199219 218.71875 334.253906 218.816406 C 334.273438 218.847656 334.296875 218.871094 334.324219 218.890625 C 334.417969 218.953125 334.507812 218.953125 334.597656 218.890625 L 334.6875 218.890625 L 334.925781 218.96875 L 335.367188 219.25 L 335.886719 219.621094 L 336.636719 220.210938 L 337.519531 220.910156 C 338 221.324219 338.453125 221.769531 338.882812 222.242188 C 339.617188 223.128906 340.34375 224.035156 341.054688 224.964844 C 341.777344 225.847656 342.402344 226.851562 343.089844 227.796875 L 343.714844 228.679688 C 343.839844 228.835938 343.953125 228.996094 344.058594 229.15625 C 344.359375 229.585938 344.6875 230.035156 344.996094 230.433594 C 345.070312 230.511719 345.160156 230.566406 345.269531 230.59375 C 345.546875 230.671875 345.78125 230.601562 345.972656 230.386719 C 346.164062 230.167969 346.203125 229.925781 346.089844 229.65625 Z M 334.5625 218.351562 Z M 354.21875 249.589844 C 354.4375 250.261719 354.625 250.941406 354.789062 251.621094 L 355.566406 254.566406 C 355.636719 254.796875 355.792969 254.90625 356.035156 254.898438 C 356.273438 254.898438 356.5625 254.671875 356.546875 254.414062 C 356.527344 254.160156 356.492188 253.65625 356.441406 253.285156 L 356.351562 252.722656 C 356.308594 252.441406 356.261719 252.167969 356.203125 251.882812 L 355.988281 250.808594 C 355.929688 250.464844 355.824219 250.121094 355.734375 249.785156 C 355.566406 249.125 355.371094 248.46875 355.1875 247.816406 L 355.117188 247.597656 C 354.957031 247.042969 354.765625 246.484375 354.550781 245.9375 C 354.4375 245.621094 354.304688 245.3125 354.171875 244.996094 C 354.042969 244.679688 353.882812 244.289062 353.714844 243.945312 L 353.335938 243.160156 C 353.246094 243.003906 353.167969 242.835938 353.082031 242.683594 L 352.242188 241.308594 C 352.125 241.164062 351.976562 241.085938 351.792969 241.0625 C 351.609375 241.042969 351.445312 241.089844 351.300781 241.203125 C 351.15625 241.3125 351.066406 241.453125 351.027344 241.625 C 350.996094 241.804688 351.03125 241.96875 351.132812 242.121094 L 351.28125 242.386719 C 351.5625 242.933594 351.863281 243.46875 352.109375 244.035156 C 352.355469 244.597656 352.675781 245.304688 352.9375 245.949219 C 353.433594 247.144531 353.859375 248.363281 354.21875 249.609375 Z M 354.21875 249.589844 " fill-opacity="1" fill-rule="nonzero"/><path fill="#b2bbc2" d="M 60.980469 281.203125 C 62.046875 282.753906 63.261719 284.175781 64.628906 285.46875 C 66.210938 286.929688 67.929688 288.195312 69.789062 289.269531 C 73.582031 291.441406 77.628906 292.910156 81.929688 293.679688 C 86.140625 294.492188 90.363281 294.601562 94.609375 294.007812 C 98.941406 293.480469 103.125 292.378906 107.15625 290.710938 C 109.042969 289.890625 110.808594 288.855469 112.445312 287.613281 C 113.292969 286.972656 114.070312 286.261719 114.785156 285.480469 C 115.507812 284.675781 116.230469 283.828125 116.917969 283 C 118.523438 281.117188 119.933594 279.09375 121.140625 276.933594 C 121.597656 276.089844 121.949219 275.210938 122.199219 274.285156 C 122.429688 273.351562 122.761719 272.441406 122.914062 271.492188 C 123.859375 267.160156 124.007812 262.804688 123.363281 258.417969 C 122.972656 255.949219 122.324219 253.550781 121.414062 251.222656 C 121.054688 250.339844 120.65625 249.527344 120.269531 248.683594 L 118.890625 246.265625 C 117.726562 244.457031 116.390625 242.785156 114.890625 241.246094 L 113.742188 240.101562 C 113.335938 239.738281 112.914062 239.402344 112.5 239.050781 L 111.925781 238.558594 C 111.671875 238.316406 111.402344 238.097656 111.117188 237.894531 C 110.9375 237.761719 110.746094 237.621094 110.585938 237.480469 L 110.242188 237.179688 C 110.050781 237.003906 109.875 236.808594 109.714844 236.597656 C 109.546875 236.429688 109.445312 236.226562 109.414062 235.992188 C 109.410156 235.863281 109.460938 235.769531 109.574219 235.707031 C 109.902344 235.585938 110.214844 235.617188 110.515625 235.796875 C 110.78125 235.914062 111.039062 236.046875 111.292969 236.195312 L 111.707031 236.457031 C 111.910156 236.589844 112.101562 236.730469 112.289062 236.871094 L 113.382812 237.753906 L 114.589844 238.75 C 114.96875 239.105469 115.332031 239.484375 115.699219 239.84375 L 116.785156 240.9375 L 117.765625 242.121094 C 118.082031 242.515625 118.433594 242.886719 118.726562 243.3125 L 119.605469 244.570312 C 121.980469 248.078125 123.621094 251.902344 124.527344 256.039062 C 125.457031 260.464844 125.59375 264.917969 124.933594 269.390625 C 124.851562 270.089844 124.675781 270.757812 124.554688 271.445312 C 124.433594 272.132812 124.277344 272.808594 124.078125 273.476562 C 123.882812 274.152344 123.722656 274.816406 123.496094 275.503906 C 123.246094 276.1875 122.953125 276.851562 122.613281 277.496094 C 121.738281 279.113281 120.738281 280.644531 119.617188 282.101562 C 118.976562 282.9375 118.3125 283.757812 117.632812 284.5625 C 116.933594 285.363281 116.308594 286.148438 115.523438 286.941406 C 113.890625 288.601562 112.046875 289.972656 109.988281 291.054688 C 107.988281 292.140625 105.898438 293.019531 103.726562 293.699219 C 101.5625 294.359375 99.363281 294.875 97.132812 295.25 C 92.773438 296.082031 88.398438 296.203125 84.003906 295.613281 C 79.597656 295.050781 75.398438 293.792969 71.410156 291.839844 C 69.410156 290.855469 67.527344 289.679688 65.769531 288.308594 C 63.960938 286.894531 62.355469 285.277344 60.953125 283.460938 C 59.683594 281.835938 58.617188 280.085938 57.753906 278.210938 C 56.875 276.238281 56.285156 274.179688 55.988281 272.039062 C 55.4375 267.722656 55.550781 263.429688 56.332031 259.152344 C 56.726562 256.949219 57.316406 254.800781 58.097656 252.703125 C 58.878906 250.664062 59.847656 248.71875 61.007812 246.867188 C 63.285156 243.140625 66.257812 240.085938 69.921875 237.710938 C 70.839844 237.121094 71.796875 236.597656 72.785156 236.140625 L 74.277344 235.453125 C 74.78125 235.230469 75.289062 235.046875 75.800781 234.84375 C 76.789062 234.410156 77.820312 234.128906 78.835938 233.769531 C 79.847656 233.40625 80.890625 233.160156 81.949219 232.964844 L 83.457031 232.640625 L 84.980469 232.382812 C 85.996094 232.1875 87.027344 232.128906 88.058594 232.003906 C 90.230469 231.832031 92.402344 231.832031 94.574219 232.003906 C 95.675781 232.066406 96.769531 232.269531 97.863281 232.410156 C 98.957031 232.550781 100.050781 232.816406 101.117188 233.140625 C 101.671875 233.308594 102.238281 233.449219 102.785156 233.644531 L 104.421875 234.246094 C 104.980469 234.429688 105.507812 234.703125 106.046875 234.921875 C 106.582031 235.144531 106.925781 235.257812 107.378906 235.46875 L 107.949219 235.707031 C 108.285156 235.839844 108.601562 235.964844 108.9375 236.070312 L 108.992188 236.070312 C 109.070312 236.097656 109.125 236.15625 109.148438 236.238281 C 109.148438 236.289062 109.078125 236.324219 108.992188 236.308594 C 108.628906 236.21875 108.277344 236.105469 107.898438 235.980469 C 107.695312 235.910156 107.484375 235.847656 107.28125 235.769531 L 106.664062 235.550781 L 106.070312 235.335938 C 105.667969 235.195312 105.269531 235.027344 104.882812 234.871094 C 104.492188 234.710938 104 234.535156 103.488281 234.359375 C 102.695312 234.066406 101.890625 233.8125 101.074219 233.601562 C 100.269531 233.351562 99.433594 233.203125 98.613281 233.035156 C 95.144531 232.371094 91.65625 232.191406 88.136719 232.496094 L 88.234375 232.496094 L 86.214844 232.734375 C 85.546875 232.816406 84.875 232.957031 84.214844 233.0625 C 83.171875 233.238281 82.140625 233.511719 81.121094 233.742188 C 80.097656 233.972656 79.082031 234.289062 78.09375 234.625 C 76.128906 235.308594 74.226562 236.132812 72.382812 237.101562 C 71.394531 237.625 70.449219 238.214844 69.542969 238.867188 C 69.082031 239.175781 68.660156 239.546875 68.21875 239.878906 L 67.566406 240.390625 C 67.355469 240.578125 67.160156 240.769531 66.957031 240.957031 C 65.390625 242.390625 64.011719 243.984375 62.816406 245.738281 C 61.609375 247.46875 60.578125 249.296875 59.71875 251.222656 C 58.84375 253.191406 58.164062 255.222656 57.675781 257.316406 C 57.214844 259.320312 56.90625 261.347656 56.738281 263.394531 C 56.59375 265.503906 56.59375 267.617188 56.738281 269.726562 C 56.894531 271.765625 57.320312 273.75 58.019531 275.671875 C 58.683594 277.523438 59.566406 279.265625 60.664062 280.902344 C 60.785156 280.964844 60.890625 281.085938 60.980469 281.203125 Z M 269.316406 281.582031 C 268.21875 279.945312 267.335938 278.203125 266.671875 276.351562 C 265.964844 274.429688 265.539062 272.445312 265.390625 270.40625 C 265.242188 268.292969 265.242188 266.183594 265.390625 264.074219 C 265.554688 262.023438 265.863281 260 266.328125 257.996094 C 266.800781 255.910156 267.460938 253.882812 268.3125 251.917969 C 269.167969 249.992188 270.199219 248.164062 271.40625 246.433594 C 272.601562 244.679688 273.980469 243.089844 275.550781 241.660156 C 275.753906 241.476562 275.945312 241.273438 276.15625 241.097656 L 276.808594 240.585938 C 277.25 240.242188 277.691406 239.878906 278.132812 239.5625 C 279.042969 238.917969 279.988281 238.328125 280.972656 237.796875 C 282.816406 236.863281 284.714844 236.066406 286.675781 235.410156 C 287.664062 235.039062 288.6875 234.789062 289.703125 234.527344 C 290.714844 234.261719 291.753906 234.015625 292.796875 233.847656 C 293.457031 233.742188 294.128906 233.601562 294.796875 233.511719 L 296.816406 233.28125 L 296.71875 233.28125 C 300.234375 232.984375 303.726562 233.164062 307.195312 233.820312 C 308.015625 233.988281 308.84375 234.148438 309.65625 234.394531 C 310.472656 234.605469 311.277344 234.855469 312.070312 235.152344 C 312.53125 235.320312 313.003906 235.46875 313.464844 235.65625 C 313.921875 235.839844 314.25 235.992188 314.65625 236.132812 L 315.273438 236.34375 L 315.890625 236.5625 L 316.507812 236.785156 C 316.886719 236.90625 317.238281 237.011719 317.597656 237.101562 C 317.6875 237.101562 317.757812 237.101562 317.757812 237.039062 C 317.734375 236.957031 317.679688 236.902344 317.597656 236.871094 L 317.546875 236.871094 C 317.210938 236.757812 316.894531 236.632812 316.558594 236.503906 L 315.984375 236.265625 C 315.554688 236.0625 315.105469 235.910156 314.65625 235.71875 C 314.203125 235.523438 313.585938 235.230469 313.03125 235.039062 L 311.390625 234.4375 C 310.84375 234.253906 310.28125 234.101562 309.726562 233.945312 C 308.660156 233.609375 307.554688 233.441406 306.472656 233.210938 C 305.386719 232.984375 304.285156 232.859375 303.183594 232.804688 C 301.011719 232.625 298.839844 232.625 296.667969 232.804688 C 295.636719 232.921875 294.605469 232.984375 293.589844 233.175781 L 292.0625 233.433594 L 290.558594 233.757812 C 289.5 233.953125 288.476562 234.296875 287.433594 234.570312 C 286.394531 234.84375 285.390625 235.214844 284.410156 235.636719 C 283.898438 235.847656 283.378906 236.027344 282.886719 236.253906 L 281.394531 236.933594 C 280.40625 237.398438 279.453125 237.921875 278.53125 238.503906 C 274.867188 240.878906 271.890625 243.929688 269.605469 247.648438 C 268.449219 249.503906 267.476562 251.453125 266.695312 253.496094 C 265.914062 255.59375 265.324219 257.742188 264.933594 259.945312 C 264.132812 264.210938 263.992188 268.496094 264.511719 272.804688 C 264.808594 274.945312 265.398438 277.003906 266.273438 278.980469 C 267.140625 280.851562 268.210938 282.601562 269.484375 284.226562 C 270.886719 286.046875 272.492188 287.667969 274.296875 289.085938 C 276.054688 290.457031 277.9375 291.632812 279.941406 292.613281 C 283.929688 294.570312 288.125 295.832031 292.53125 296.398438 C 296.925781 296.984375 301.304688 296.863281 305.660156 296.035156 C 307.890625 295.652344 310.089844 295.136719 312.257812 294.484375 C 314.429688 293.804688 316.515625 292.921875 318.515625 291.839844 C 320.578125 290.757812 322.421875 289.390625 324.054688 287.726562 C 324.839844 286.933594 325.464844 286.15625 326.160156 285.355469 C 326.859375 284.550781 327.5 283.734375 328.144531 282.886719 C 329.265625 281.4375 330.261719 279.90625 331.132812 278.289062 C 331.472656 277.644531 331.769531 276.976562 332.015625 276.289062 C 332.246094 275.601562 332.402344 274.949219 332.597656 274.269531 C 332.792969 273.597656 332.949219 272.917969 333.074219 272.230469 C 333.195312 271.550781 333.375 270.875 333.453125 270.183594 C 334.113281 265.707031 333.976562 261.253906 333.046875 256.824219 C 332.136719 252.6875 330.5 248.867188 328.128906 245.355469 L 327.246094 244.097656 C 326.953125 243.679688 326.601562 243.3125 326.285156 242.90625 L 325.296875 241.722656 L 324.273438 240.628906 C 323.894531 240.257812 323.542969 239.878906 323.152344 239.527344 L 321.957031 238.53125 L 320.863281 237.648438 C 320.667969 237.515625 320.484375 237.367188 320.28125 237.242188 L 319.867188 236.976562 C 319.613281 236.832031 319.355469 236.699219 319.089844 236.582031 C 318.789062 236.398438 318.46875 236.367188 318.136719 236.484375 C 318.03125 236.550781 317.984375 236.644531 317.988281 236.765625 C 318.015625 237.007812 318.117188 237.210938 318.285156 237.382812 C 318.445312 237.589844 318.625 237.78125 318.816406 237.957031 L 319.160156 238.257812 C 319.328125 238.40625 319.503906 238.542969 319.6875 238.671875 C 319.976562 238.871094 320.246094 239.09375 320.5 239.332031 L 321.074219 239.828125 C 321.488281 240.1875 321.957031 240.523438 322.316406 240.875 L 323.460938 242.023438 C 324.972656 243.570312 326.3125 245.25 327.484375 247.066406 L 328.859375 249.492188 C 329.238281 250.375 329.644531 251.167969 330.003906 252.023438 C 330.914062 254.355469 331.566406 256.757812 331.953125 259.230469 C 332.601562 263.613281 332.449219 267.964844 331.503906 272.292969 C 331.355469 273.246094 331.019531 274.164062 330.789062 275.097656 C 330.542969 276.023438 330.1875 276.902344 329.730469 277.742188 C 328.523438 279.90625 327.117188 281.929688 325.507812 283.8125 C 324.8125 284.695312 324.097656 285.496094 323.375 286.289062 C 322.660156 287.074219 321.882812 287.789062 321.039062 288.433594 C 319.394531 289.671875 317.632812 290.707031 315.746094 291.527344 C 311.714844 293.191406 307.53125 294.292969 303.199219 294.828125 C 298.957031 295.410156 294.730469 295.304688 290.519531 294.5 C 286.222656 293.726562 282.175781 292.253906 278.378906 290.089844 C 276.519531 289.015625 274.800781 287.746094 273.222656 286.289062 C 271.851562 284.996094 270.628906 283.578125 269.554688 282.03125 C 269.464844 281.890625 269.386719 281.746094 269.316406 281.597656 Z M 269.316406 281.582031 " fill-opacity="1" fill-rule="nonzero"/><path fill="#ed7562" d="M 208.847656 79.746094 C 210.355469 80.097656 211.871094 80.382812 213.351562 80.824219 C 214.832031 81.261719 216.332031 81.652344 217.8125 82.128906 C 221.125 83.183594 224.378906 84.402344 227.566406 85.789062 C 233.9375 88.539062 239.816406 92.101562 245.199219 96.488281 L 247.148438 98.089844 L 248.984375 99.785156 C 249.609375 100.332031 250.191406 100.921875 250.746094 101.550781 C 251.300781 102.175781 251.917969 102.722656 252.511719 103.3125 C 254.746094 105.742188 256.851562 108.28125 258.824219 110.933594 C 260.78125 113.632812 262.609375 116.40625 264.308594 119.25 C 265.984375 122.097656 267.542969 125.011719 269.035156 127.9375 C 270.523438 130.867188 271.785156 133.574219 273.046875 136.433594 C 274.304688 139.289062 275.648438 142.386719 277.058594 145.296875 C 278.589844 148.601562 280.671875 151.515625 283.300781 154.035156 C 285.390625 155.992188 287.703125 157.640625 290.230469 158.984375 C 293.136719 160.511719 296.152344 161.78125 299.277344 162.792969 C 302.398438 163.851562 305.582031 164.777344 308.753906 165.730469 C 312.363281 166.808594 315.960938 167.910156 319.496094 169.257812 C 322.140625 170.230469 324.695312 171.324219 327.203125 172.539062 C 330.105469 173.964844 332.867188 175.621094 335.488281 177.515625 C 336.8125 178.398438 338.046875 179.464844 339.261719 180.488281 L 340.074219 181.253906 C 340.445312 181.605469 340.824219 181.96875 341.167969 182.332031 C 341.410156 182.554688 341.628906 182.800781 341.828125 183.0625 L 342.226562 183.589844 C 342.4375 183.894531 342.625 184.214844 342.78125 184.554688 C 342.96875 184.84375 343.035156 185.164062 342.976562 185.503906 C 342.914062 185.679688 342.796875 185.796875 342.621094 185.859375 C 342.128906 185.957031 341.6875 185.84375 341.300781 185.523438 C 340.972656 185.308594 340.660156 185.070312 340.367188 184.808594 L 339.890625 184.359375 L 339.203125 183.699219 L 337.816406 182.390625 C 337.289062 181.925781 336.734375 181.511719 336.195312 181.050781 C 335.65625 180.59375 335.101562 180.167969 334.519531 179.765625 C 332.285156 178.109375 329.933594 176.640625 327.464844 175.355469 C 322.214844 172.695312 316.757812 170.578125 311.09375 168.996094 C 304.921875 167.105469 298.570312 165.519531 292.417969 162.820312 C 291.457031 162.425781 290.519531 161.9375 289.578125 161.472656 C 288.632812 161.003906 287.707031 160.367188 286.828125 159.785156 C 285.023438 158.675781 283.347656 157.402344 281.800781 155.957031 C 279.757812 154.058594 278.015625 151.914062 276.582031 149.519531 C 275.027344 146.792969 273.640625 143.984375 272.429688 141.089844 C 271.089844 138.082031 269.78125 135.066406 268.347656 132.117188 C 266.910156 129.171875 265.425781 126.28125 263.832031 123.449219 C 262.234375 120.617188 260.523438 117.804688 258.691406 115.097656 C 256.855469 112.390625 254.953125 109.9375 252.898438 107.492188 C 250.8125 105.066406 248.585938 102.773438 246.222656 100.613281 C 241.371094 96.230469 236.023438 92.566406 230.183594 89.625 C 228.710938 88.832031 227.167969 88.195312 225.652344 87.472656 C 224.136719 86.75 222.558594 86.203125 220.996094 85.585938 C 219.4375 84.96875 217.726562 84.402344 216.066406 83.882812 C 214.410156 83.363281 212.734375 82.84375 211.042969 82.4375 C 209.5 82.066406 207.964844 81.679688 206.402344 81.371094 L 201.722656 80.558594 L 196.765625 79.886719 C 195.117188 79.648438 193.460938 79.542969 191.804688 79.367188 C 190.144531 79.191406 188.488281 79.09375 186.828125 79.015625 C 185.171875 78.933594 183.515625 78.800781 181.847656 78.828125 L 176.847656 78.828125 L 171.859375 79.128906 C 170.976562 79.171875 170.09375 79.269531 169.285156 79.375 L 166.707031 79.675781 C 164.945312 79.84375 163.296875 80.167969 161.59375 80.441406 L 159.097656 80.867188 L 156.621094 81.40625 L 154.152344 81.941406 C 153.332031 82.144531 152.523438 82.382812 151.710938 82.605469 C 145.285156 84.378906 139.136719 86.855469 133.273438 90.03125 L 131.078125 91.230469 L 128.945312 92.542969 C 127.515625 93.425781 126.15625 94.351562 124.800781 95.3125 L 123.8125 96.011719 L 122.859375 96.761719 L 120.964844 98.25 C 119.722656 99.273438 118.511719 100.339844 117.3125 101.398438 C 115.074219 103.488281 112.90625 105.648438 110.921875 107.933594 C 108.777344 110.28125 106.796875 112.757812 104.871094 115.28125 C 102.949219 117.804688 101.089844 120.457031 99.351562 123.15625 C 98.4375 124.558594 97.554688 125.972656 96.707031 127.398438 C 96.285156 128.140625 95.828125 128.863281 95.464844 129.613281 C 95.128906 130.222656 94.847656 130.847656 94.582031 131.484375 C 94.46875 131.757812 94.371094 132.03125 94.265625 132.304688 C 94.097656 132.78125 93.949219 133.246094 93.832031 133.714844 L 93.832031 133.792969 C 93.796875 133.910156 93.722656 133.980469 93.605469 134.007812 C 93.523438 134.007812 93.453125 133.9375 93.472656 133.8125 C 93.546875 133.277344 93.667969 132.75 93.832031 132.234375 C 93.921875 131.925781 94 131.617188 94.105469 131.351562 C 94.214844 131.085938 94.320312 130.75 94.441406 130.46875 C 94.566406 130.1875 94.699219 129.878906 94.832031 129.585938 C 95.097656 129.015625 95.390625 128.457031 95.710938 127.910156 C 96.054688 127.277344 96.425781 126.652344 96.804688 126.03125 C 98.09375 123.917969 99.449219 121.816406 100.816406 119.769531 C 103.734375 115.441406 106.929688 111.328125 110.394531 107.421875 L 110.296875 107.539062 C 111.617188 105.984375 113.039062 104.519531 114.449219 103.046875 C 116.726562 100.757812 119.128906 98.609375 121.660156 96.601562 C 122.289062 96.105469 122.90625 95.605469 123.546875 95.121094 L 125.503906 93.726562 C 126.792969 92.765625 128.152344 91.960938 129.535156 91.078125 C 130.917969 90.199219 132.601562 89.316406 134.136719 88.433594 C 135.671875 87.550781 137.3125 86.847656 138.898438 86.042969 C 140.484375 85.242188 142.019531 84.695312 143.589844 84.015625 L 148.394531 82.25 C 150.019531 81.738281 151.648438 81.28125 153.28125 80.8125 C 154.910156 80.347656 156.59375 80.046875 158.253906 79.667969 C 161.640625 79.003906 165.042969 78.433594 168.464844 78.0625 C 169.285156 77.964844 170.09375 77.851562 170.914062 77.769531 L 173.375 77.601562 C 175.023438 77.515625 176.664062 77.328125 178.304688 77.347656 L 183.390625 77.269531 L 188.453125 77.433594 C 190.117188 77.433594 191.792969 77.636719 193.46875 77.746094 L 195.972656 77.921875 L 198.476562 78.183594 C 201.722656 78.492188 204.957031 79.015625 208.175781 79.621094 Z M 208.847656 79.746094 " fill-opacity="1" fill-rule="nonzero"/><path fill="#112838" d="M 206.492188 179.648438 C 208.113281 179.058594 209.226562 181.800781 208.078125 183.105469 C 206.933594 184.410156 204.96875 184.464844 203.238281 184.410156 L 197.121094 184.246094 C 195.816406 184.246094 194.238281 184.015625 193.671875 182.824219 C 192.84375 181.058594 195.054688 179.4375 196.925781 178.933594 C 200.03125 178.105469 203.179688 177.925781 206.359375 178.386719 M 176.929688 204.910156 C 177.0625 204.964844 177.203125 204.992188 177.351562 204.988281 C 177.496094 204.984375 177.636719 204.953125 177.769531 204.886719 C 177.898438 204.824219 178.011719 204.734375 178.105469 204.621094 C 178.199219 204.507812 178.265625 204.378906 178.304688 204.238281 C 179.097656 201.796875 178.410156 198.671875 178.410156 196.132812 L 178.410156 185.769531 C 178.410156 182.605469 178.816406 179.121094 178.269531 175.996094 C 177.722656 172.875 177.976562 169.269531 177.984375 165.941406 L 177.984375 165.660156 C 177.960938 165.390625 177.847656 165.164062 177.648438 164.980469 C 177.449219 164.796875 177.210938 164.707031 176.941406 164.707031 C 176.671875 164.707031 176.433594 164.796875 176.234375 164.980469 C 176.035156 165.164062 175.921875 165.390625 175.894531 165.660156 L 175.894531 165.960938 C 175.894531 172.300781 176.3125 178.644531 176.3125 184.984375 L 176.3125 191.988281 C 176.804688 194.246094 176.550781 196.867188 176.523438 199.042969 C 176.546875 199.570312 176.515625 200.09375 176.425781 200.613281 C 176.496094 201.339844 176.496094 202.066406 176.425781 202.792969 C 176.609375 203.507812 176.726562 204.210938 176.929688 204.910156 Z M 253.082031 159.214844 L 253.039062 159.214844 C 252.890625 159.191406 252.738281 159.195312 252.589844 159.230469 C 252.445312 159.265625 252.308594 159.328125 252.183594 159.417969 C 252.0625 159.507812 251.960938 159.617188 251.878906 159.746094 C 251.800781 159.875 251.75 160.015625 251.726562 160.164062 C 251.703125 160.316406 251.707031 160.464844 251.742188 160.613281 C 251.777344 160.761719 251.839844 160.898438 251.929688 161.019531 C 252.019531 161.144531 252.128906 161.246094 252.257812 161.324219 C 252.386719 161.40625 252.527344 161.457031 252.675781 161.480469 C 253.625 161.628906 254.574219 161.648438 255.527344 161.53125 C 256.519531 161.464844 257.382812 161.097656 258.117188 160.421875 C 258.863281 159.4375 259.230469 158.328125 259.21875 157.097656 L 259.722656 152.226562 C 259.710938 151.898438 259.804688 151.605469 260.003906 151.347656 C 260.308594 151.113281 260.648438 151.023438 261.027344 151.074219 L 269.378906 151.074219 C 269.570312 151.121094 269.765625 151.148438 269.964844 151.152344 C 270.167969 151.152344 270.363281 151.132812 270.558594 151.085938 C 270.75 151.042969 270.9375 150.976562 271.117188 150.886719 C 271.292969 150.796875 271.460938 150.683594 271.609375 150.554688 C 271.761719 150.425781 271.894531 150.277344 272.011719 150.117188 C 272.128906 149.953125 272.222656 149.78125 272.296875 149.59375 C 272.371094 149.410156 272.421875 149.21875 272.453125 149.019531 C 272.480469 148.824219 272.484375 148.625 272.464844 148.425781 C 273.167969 142.835938 273.621094 137.21875 273.820312 131.582031 C 273.9375 130.605469 273.816406 129.664062 273.460938 128.75 C 272.632812 126.984375 270.453125 126.5 268.546875 126.304688 C 266.445312 126.085938 264.332031 126.015625 262.21875 126.105469 C 261.484375 126.078125 260.789062 126.222656 260.128906 126.542969 C 258.761719 127.339844 258.558594 129.191406 258.503906 130.75 C 258.242188 138.796875 257.972656 146.839844 257.695312 154.882812 C 257.753906 156.078125 257.527344 157.214844 257.015625 158.296875 C 256.882812 158.558594 256.707031 158.789062 256.492188 158.988281 C 256.273438 159.1875 256.03125 159.34375 255.761719 159.457031 C 255.488281 159.570312 255.207031 159.632812 254.914062 159.644531 C 254.621094 159.65625 254.332031 159.621094 254.054688 159.53125 Z M 253.082031 159.214844 " fill-opacity="1" fill-rule="nonzero"/></svg>