<svg xmlns="http://www.w3.org/2000/svg" xmlns:xlink="http://www.w3.org/1999/xlink" width="500" zoomAndPan="magnify" viewBox="0 0 375 374.999991" height="500" preserveAspectRatio="xMidYMid meet" version="1.0"><rect x="-37.5" width="450" fill="#ffffff" y="-37.499999" height="449.999989" fill-opacity="1"/><rect x="-37.5" width="450" fill="#ffffff" y="-37.499999" height="449.999989" fill-opacity="1"/><rect x="-37.5" width="450" fill="#ffffff" y="-37.499999" height="449.999989" fill-opacity="1"/><path fill="#b2bbc2" d="M 118.082031 259.917969 C 118.082031 260.882812 118.035156 261.847656 117.9375 262.8125 C 117.84375 263.773438 117.703125 264.730469 117.515625 265.679688 C 117.324219 266.628906 117.089844 267.566406 116.808594 268.492188 C 116.527344 269.417969 116.203125 270.328125 115.832031 271.21875 C 115.464844 272.113281 115.050781 272.988281 114.59375 273.839844 C 114.140625 274.695312 113.640625 275.523438 113.105469 276.328125 C 112.566406 277.132812 111.992188 277.90625 111.378906 278.65625 C 110.765625 279.402344 110.117188 280.117188 109.433594 280.804688 C 108.75 281.488281 108.03125 282.136719 107.285156 282.75 C 106.539062 283.363281 105.761719 283.9375 104.957031 284.476562 C 104.152344 285.011719 103.324219 285.511719 102.472656 285.964844 C 101.621094 286.421875 100.746094 286.835938 99.851562 287.207031 C 98.960938 287.574219 98.050781 287.902344 97.125 288.183594 C 96.199219 288.464844 95.261719 288.699219 94.3125 288.886719 C 93.363281 289.074219 92.410156 289.21875 91.445312 289.3125 C 90.484375 289.40625 89.519531 289.453125 88.550781 289.453125 C 87.585938 289.453125 86.621094 289.40625 85.65625 289.3125 C 84.695312 289.21875 83.738281 289.074219 82.792969 288.886719 C 81.84375 288.699219 80.90625 288.464844 79.980469 288.183594 C 79.054688 287.902344 78.144531 287.574219 77.25 287.207031 C 76.359375 286.835938 75.484375 286.421875 74.632812 285.964844 C 73.78125 285.511719 72.949219 285.011719 72.148438 284.476562 C 71.34375 283.9375 70.566406 283.363281 69.820312 282.75 C 69.070312 282.136719 68.355469 281.488281 67.671875 280.804688 C 66.988281 280.117188 66.339844 279.402344 65.726562 278.65625 C 65.113281 277.90625 64.535156 277.132812 64 276.328125 C 63.460938 275.523438 62.964844 274.695312 62.511719 273.839844 C 62.054688 272.988281 61.640625 272.113281 61.269531 271.21875 C 60.902344 270.328125 60.574219 269.417969 60.292969 268.492188 C 60.015625 267.566406 59.777344 266.628906 59.589844 265.679688 C 59.402344 264.730469 59.261719 263.773438 59.164062 262.8125 C 59.070312 261.847656 59.023438 260.882812 59.023438 259.917969 C 59.023438 258.949219 59.070312 257.984375 59.164062 257.019531 C 59.261719 256.058594 59.402344 255.101562 59.589844 254.152344 C 59.777344 253.203125 60.015625 252.269531 60.292969 251.34375 C 60.574219 250.417969 60.902344 249.507812 61.269531 248.613281 C 61.640625 247.71875 62.054688 246.84375 62.511719 245.992188 C 62.964844 245.140625 63.460938 244.308594 64 243.507812 C 64.535156 242.703125 65.113281 241.925781 65.726562 241.179688 C 66.339844 240.429688 66.988281 239.714844 67.671875 239.03125 C 68.355469 238.347656 69.070312 237.695312 69.820312 237.082031 C 70.566406 236.46875 71.34375 235.894531 72.148438 235.355469 C 72.949219 234.820312 73.78125 234.324219 74.632812 233.867188 C 75.484375 233.410156 76.359375 232.996094 77.25 232.628906 C 78.144531 232.257812 79.054688 231.929688 79.980469 231.652344 C 80.90625 231.371094 81.84375 231.136719 82.792969 230.945312 C 83.738281 230.757812 84.695312 230.617188 85.65625 230.519531 C 86.621094 230.425781 87.585938 230.378906 88.550781 230.378906 C 89.519531 230.378906 90.484375 230.425781 91.445312 230.519531 C 92.410156 230.617188 93.363281 230.757812 94.3125 230.945312 C 95.261719 231.136719 96.199219 231.371094 97.125 231.652344 C 98.050781 231.929688 98.960938 232.257812 99.851562 232.628906 C 100.746094 232.996094 101.621094 233.410156 102.472656 233.867188 C 103.324219 234.324219 104.152344 234.820312 104.957031 235.355469 C 105.761719 235.894531 106.539062 236.46875 107.285156 237.082031 C 108.03125 237.695312 108.75 238.347656 109.433594 239.03125 C 110.117188 239.714844 110.765625 240.429688 111.378906 241.179688 C 111.992188 241.925781 112.566406 242.703125 113.105469 243.507812 C 113.640625 244.308594 114.140625 245.140625 114.59375 245.992188 C 115.050781 246.84375 115.464844 247.71875 115.832031 248.613281 C 116.203125 249.507812 116.527344 250.417969 116.808594 251.34375 C 117.089844 252.269531 117.324219 253.203125 117.515625 254.152344 C 117.703125 255.101562 117.84375 256.058594 117.9375 257.019531 C 118.035156 257.984375 118.082031 258.949219 118.082031 259.917969 Z M 302.628906 226.402344 C 301.660156 226.402344 300.695312 226.449219 299.734375 226.542969 C 298.769531 226.636719 297.816406 226.78125 296.867188 226.96875 C 295.917969 227.15625 294.980469 227.390625 294.054688 227.671875 C 293.128906 227.953125 292.21875 228.277344 291.328125 228.648438 C 290.433594 229.019531 289.558594 229.433594 288.707031 229.886719 C 287.855469 230.34375 287.027344 230.839844 286.222656 231.378906 C 285.417969 231.917969 284.640625 232.492188 283.894531 233.105469 C 283.148438 233.71875 282.429688 234.367188 281.746094 235.050781 C 281.0625 235.738281 280.414062 236.453125 279.800781 237.199219 C 279.1875 237.949219 278.613281 238.722656 278.074219 239.527344 C 277.539062 240.332031 277.042969 241.160156 276.585938 242.015625 C 276.128906 242.867188 275.714844 243.742188 275.347656 244.636719 C 274.976562 245.527344 274.652344 246.4375 274.371094 247.363281 C 274.089844 248.289062 273.855469 249.226562 273.664062 250.175781 C 273.476562 251.125 273.335938 252.082031 273.242188 253.042969 C 273.144531 254.007812 273.097656 254.972656 273.097656 255.9375 C 273.097656 256.90625 273.144531 257.871094 273.242188 258.832031 C 273.335938 259.796875 273.476562 260.753906 273.664062 261.703125 C 273.855469 262.648438 274.089844 263.585938 274.371094 264.511719 C 274.652344 265.4375 274.976562 266.347656 275.347656 267.242188 C 275.714844 268.136719 276.128906 269.007812 276.585938 269.863281 C 277.039062 270.714844 277.539062 271.542969 278.074219 272.347656 C 278.613281 273.152344 279.1875 273.929688 279.800781 274.675781 C 280.414062 275.425781 281.0625 276.140625 281.746094 276.824219 C 282.429688 277.507812 283.148438 278.15625 283.894531 278.773438 C 284.640625 279.386719 285.417969 279.960938 286.222656 280.5 C 287.027344 281.035156 287.855469 281.53125 288.707031 281.988281 C 289.558594 282.445312 290.433594 282.859375 291.328125 283.226562 C 292.21875 283.597656 293.128906 283.921875 294.054688 284.203125 C 294.980469 284.484375 295.917969 284.71875 296.867188 284.910156 C 297.816406 285.097656 298.769531 285.238281 299.734375 285.335938 C 300.695312 285.429688 301.660156 285.476562 302.628906 285.476562 C 303.59375 285.476562 304.558594 285.429688 305.523438 285.335938 C 306.484375 285.238281 307.441406 285.097656 308.386719 284.910156 C 309.335938 284.71875 310.273438 284.484375 311.199219 284.203125 C 312.125 283.921875 313.035156 283.597656 313.929688 283.226562 C 314.820312 282.859375 315.695312 282.445312 316.546875 281.988281 C 317.398438 281.53125 318.230469 281.035156 319.03125 280.5 C 319.835938 279.960938 320.613281 279.386719 321.359375 278.773438 C 322.109375 278.15625 322.824219 277.507812 323.507812 276.824219 C 324.191406 276.140625 324.839844 275.425781 325.453125 274.675781 C 326.066406 273.929688 326.644531 273.152344 327.179688 272.347656 C 327.71875 271.542969 328.214844 270.714844 328.667969 269.863281 C 329.125 269.007812 329.539062 268.136719 329.910156 267.242188 C 330.277344 266.347656 330.605469 265.4375 330.886719 264.511719 C 331.164062 263.585938 331.402344 262.648438 331.589844 261.703125 C 331.777344 260.753906 331.917969 259.796875 332.015625 258.832031 C 332.109375 257.871094 332.15625 256.90625 332.15625 255.9375 C 332.15625 254.972656 332.105469 254.007812 332.011719 253.046875 C 331.914062 252.082031 331.773438 251.128906 331.582031 250.179688 C 331.394531 249.234375 331.160156 248.296875 330.875 247.371094 C 330.59375 246.449219 330.269531 245.539062 329.898438 244.644531 C 329.527344 243.753906 329.113281 242.878906 328.660156 242.027344 C 328.203125 241.175781 327.707031 240.347656 327.167969 239.546875 C 326.628906 238.742188 326.054688 237.96875 325.441406 237.21875 C 324.828125 236.472656 324.179688 235.757812 323.496094 235.074219 C 322.8125 234.390625 322.097656 233.742188 321.347656 233.132812 C 320.601562 232.519531 319.824219 231.945312 319.023438 231.40625 C 318.21875 230.871094 317.390625 230.375 316.539062 229.917969 C 315.683594 229.464844 314.8125 229.050781 313.917969 228.679688 C 313.027344 228.3125 312.117188 227.988281 311.191406 227.707031 C 310.269531 227.425781 309.332031 227.191406 308.382812 227.003906 C 307.4375 226.8125 306.480469 226.671875 305.519531 226.578125 C 304.558594 226.484375 303.59375 226.4375 302.628906 226.4375 Z M 302.628906 226.402344 " fill-opacity="1" fill-rule="nonzero"/><path fill="#e6b74e" d="M 265.480469 175.988281 L 100.121094 175.988281 L 100.121094 116.523438 C 100.121094 115.730469 100.160156 114.9375 100.238281 114.148438 C 100.316406 113.359375 100.429688 112.574219 100.585938 111.796875 C 100.742188 111.019531 100.933594 110.25 101.164062 109.488281 C 101.394531 108.730469 101.660156 107.984375 101.964844 107.25 C 102.269531 106.519531 102.605469 105.800781 102.980469 105.101562 C 103.355469 104.402344 103.761719 103.722656 104.203125 103.0625 C 104.644531 102.402344 105.113281 101.765625 105.617188 101.152344 C 106.121094 100.539062 106.652344 99.953125 107.214844 99.390625 C 107.777344 98.828125 108.363281 98.296875 108.976562 97.792969 C 109.589844 97.289062 110.226562 96.820312 110.886719 96.378906 C 111.542969 95.9375 112.222656 95.53125 112.925781 95.15625 C 113.625 94.78125 114.339844 94.441406 115.074219 94.140625 C 115.804688 93.835938 116.550781 93.566406 117.3125 93.335938 C 118.070312 93.109375 118.839844 92.914062 119.617188 92.761719 C 120.394531 92.605469 121.179688 92.488281 121.96875 92.410156 C 122.757812 92.332031 123.546875 92.292969 124.339844 92.292969 L 241.25 92.292969 C 242.042969 92.292969 242.835938 92.332031 243.625 92.410156 C 244.414062 92.488281 245.199219 92.605469 245.976562 92.757812 C 246.753906 92.914062 247.523438 93.105469 248.285156 93.335938 C 249.042969 93.566406 249.789062 93.832031 250.523438 94.136719 C 251.253906 94.441406 251.972656 94.777344 252.671875 95.152344 C 253.371094 95.527344 254.050781 95.933594 254.710938 96.375 C 255.371094 96.816406 256.007812 97.289062 256.621094 97.789062 C 257.234375 98.292969 257.820312 98.828125 258.382812 99.386719 C 258.945312 99.949219 259.476562 100.535156 259.980469 101.148438 C 260.484375 101.761719 260.957031 102.398438 261.394531 103.058594 C 261.835938 103.71875 262.246094 104.398438 262.617188 105.097656 C 262.992188 105.800781 263.332031 106.515625 263.636719 107.25 C 263.9375 107.980469 264.207031 108.730469 264.4375 109.488281 C 264.667969 110.246094 264.859375 111.015625 265.015625 111.796875 C 265.167969 112.574219 265.285156 113.359375 265.363281 114.148438 C 265.441406 114.9375 265.480469 115.730469 265.480469 116.523438 Z M 265.480469 175.988281 " fill-opacity="1" fill-rule="nonzero"/><path fill="#e6b74e" d="M 23.746094 188.765625 C 22.980469 193.402344 21.738281 197.910156 20.023438 202.289062 C 19.40625 203.875 18.570312 205.59375 16.980469 206.203125 C 16.101562 206.476562 15.207031 206.546875 14.292969 206.414062 C 11.53125 206.210938 8.789062 205.835938 6.074219 205.285156 C 5.597656 205.238281 5.1875 205.046875 4.839844 204.710938 C 4.523438 204.144531 4.484375 203.554688 4.726562 202.949219 C 5.816406 198.597656 7.429688 194.449219 9.558594 190.503906 C 10.066406 189.4375 10.746094 188.5 11.59375 187.679688 C 14.558594 185.097656 19.117188 186.4375 22.765625 187.910156 M 356.484375 189.761719 C 357.175781 196.066406 358.480469 202.238281 360.390625 208.285156 C 360.507812 208.855469 360.800781 209.3125 361.269531 209.660156 C 361.746094 209.871094 362.238281 209.914062 362.742188 209.792969 C 366.023438 209.378906 369.382812 208.910156 372.320312 207.429688 C 373.277344 207.011719 374.019531 206.351562 374.550781 205.453125 C 374.941406 204.464844 375.046875 203.441406 374.867188 202.394531 C 374.566406 198.953125 374.113281 195.535156 373.5 192.136719 C 373.203125 190.484375 372.742188 188.660156 371.304688 187.796875 C 370.375 187.332031 369.386719 187.148438 368.351562 187.242188 C 364.957031 187.304688 361.683594 187.960938 358.527344 189.214844 " fill-opacity="1" fill-rule="nonzero"/><path fill="#112838" d="M 17.742188 231.648438 C 17.554688 232.53125 8.625 232.953125 7.601562 233.085938 C 5.546875 233.351562 4.453125 233.96875 3.472656 231.921875 C 0.0351562 224.714844 14.644531 227.722656 18.109375 227.175781 C 18.058594 227.1875 17.8125 231.296875 17.742188 231.648438 Z M 17.742188 231.648438 " fill-opacity="1" fill-rule="nonzero"/><path fill="#112838" d="M 114.75 223.179688 C 100.941406 215.738281 82.125 215.359375 67.894531 221.9375 C 66.242188 222.691406 64.664062 223.574219 63.160156 224.582031 C 50.054688 233.402344 44.640625 250.160156 45.726562 265.226562 C 47.488281 289.304688 74.074219 301.15625 97.015625 297.480469 C 106.40625 295.980469 117.078125 293.070312 123.203125 285.722656 C 126.265625 282.046875 130.8125 276.488281 132.25 271.929688 C 137.613281 254.324219 132.445312 232.742188 114.75 223.179688 Z M 100.324219 275.34375 C 86.789062 280.976562 68.878906 273.640625 66.886719 259.890625 C 65.847656 252.789062 69.453125 242.875 77.390625 240.011719 C 87.441406 236.359375 100.113281 237.160156 106.875 245.417969 C 114.007812 254.113281 111.972656 270.5 100.324219 275.34375 Z M 322.863281 222.574219 C 309.460938 215.128906 291.21875 214.75 277.382812 221.328125 C 275.785156 222.085938 274.253906 222.96875 272.796875 223.976562 C 260.074219 232.796875 254.800781 249.554688 255.871094 264.609375 C 257.632812 288.695312 283.386719 300.539062 305.660156 296.871094 C 314.769531 295.371094 325.121094 292.460938 331.070312 285.105469 C 334.042969 281.4375 338.460938 275.878906 339.84375 271.320312 C 345.019531 253.726562 340.039062 232.152344 322.863281 222.574219 Z M 310.738281 276.648438 C 297.609375 282.265625 280.25 274.945312 278.292969 261.195312 C 277.277344 254.09375 280.777344 244.164062 288.484375 241.296875 C 298.253906 237.664062 310.527344 238.464844 317.105469 246.703125 C 324.035156 255.425781 322.042969 271.804688 310.738281 276.65625 Z M 310.738281 276.648438 " fill-opacity="1" fill-rule="nonzero"/><path fill="#d55432" d="M 351.660156 174.761719 C 345.699219 168.5625 338.847656 163.589844 331.109375 159.847656 C 325.011719 156.851562 318.679688 154.5 312.105469 152.789062 C 303.289062 150.453125 294.472656 148.441406 288.300781 141.105469 C 278.601562 129.636719 276.511719 113.683594 268.230469 101.289062 C 252.820312 78.261719 225.492188 68.3125 199.175781 64.46875 C 173.3125 60.703125 140.300781 63.207031 118.785156 79.460938 C 99.601562 93.890625 88.4375 113.746094 77.144531 134.375 C 75.566406 137.226562 73.652344 139.839844 71.410156 142.207031 C 59.765625 154.660156 41.054688 160.214844 29.300781 173.535156 C 25.308594 178.117188 21.972656 183.132812 19.289062 188.585938 C 16.609375 194.042969 14.675781 199.75 13.492188 205.710938 C 11.515625 215.472656 7.320312 238.863281 21.285156 241.871094 C 27.75 243.246094 39.0625 243.742188 44.457031 239.066406 C 49.234375 234.867188 50.445312 226.71875 55.390625 222.230469 C 65.089844 213.363281 78.253906 207.886719 91.488281 208.65625 C 107.675781 209.589844 122.832031 217.941406 133.027344 230.421875 C 138.265625 236.792969 142.011719 243.949219 144.269531 251.882812 C 145.496094 256.292969 143.996094 260.976562 147.011719 264.34375 C 150.371094 268.09375 158.351562 267.871094 162.882812 267.871094 C 188.636719 267.925781 214.480469 267.96875 240.023438 264.617188 C 254.953125 262.660156 249.96875 240.46875 256.847656 229.742188 C 267.269531 213.480469 292.117188 205.046875 310.632812 208.707031 C 320.078125 210.59375 328.480469 215.816406 334.988281 222.820312 C 339.878906 228.113281 339.394531 235.554688 347.957031 235.988281 C 354.128906 236.296875 358.539062 232.804688 361.5 228.128906 C 362.59375 226.351562 363.492188 224.480469 364.191406 222.511719 C 369.914062 206.511719 362.886719 186.738281 351.660156 174.761719 Z M 166.171875 146.261719 C 166.25 148.910156 166.910156 152.058594 165.757812 154.5625 C 164.945312 156.328125 161.214844 155.269531 159.664062 155.339844 C 157.363281 155.4375 155.0625 155.460938 152.761719 155.460938 C 148.085938 155.460938 143.414062 155.3125 138.75 155.339844 C 132.859375 155.339844 126.96875 155.578125 121.113281 155.675781 C 118.769531 155.675781 116.511719 155.3125 114.246094 155.214844 C 112.480469 155.144531 109.96875 156.28125 108.550781 154.667969 C 108.136719 154.121094 107.90625 153.5 107.851562 152.816406 C 107.296875 148.785156 108.734375 144.773438 110.3125 141.007812 C 111.9375 136.871094 113.851562 132.875 116.0625 129.019531 C 125.425781 113.25 141.898438 103.664062 159.882812 102.183594 C 161.445312 102.058594 165.085938 101.714844 165.976562 103.320312 C 166.453125 104.203125 165.976562 106.707031 165.976562 107.730469 C 165.976562 109.253906 165.976562 110.773438 165.976562 112.296875 C 165.976562 118.382812 165.925781 124.46875 165.976562 130.5625 C 165.953125 135.792969 166.019531 141.023438 166.171875 146.261719 Z M 256.503906 147.746094 C 256.644531 148.777344 256.75 149.808594 256.8125 150.832031 C 256.855469 151.175781 256.808594 151.507812 256.671875 151.828125 C 255.84375 153.371094 252.710938 153.035156 251.292969 153.160156 L 244.378906 153.734375 C 240.960938 154.023438 237.777344 153.59375 234.363281 153.644531 C 230.140625 153.714844 225.917969 153.972656 221.683594 153.9375 C 215.601562 153.894531 209.507812 153.855469 203.425781 154.078125 C 200.859375 154.175781 198.285156 154.253906 195.71875 154.261719 L 190.074219 154.261719 C 189.074219 154.390625 188.070312 154.40625 187.066406 154.308594 C 185.914062 153.953125 186.308594 152.171875 186.273438 151.34375 C 186.125 147.367188 185.84375 143.363281 185.746094 139.375 C 185.628906 134.542969 185.648438 129.671875 185.394531 124.882812 C 185.003906 117.75 183.910156 110.339844 184.335938 103.222656 C 184.332031 102.945312 184.386719 102.679688 184.503906 102.429688 C 184.8125 101.863281 185.558594 101.777344 186.203125 101.765625 C 193.257812 101.582031 200.3125 101.765625 207.367188 102.003906 C 211.960938 102.144531 216.5625 102.226562 221.136719 102.667969 C 225.089844 103.054688 229.074219 102.800781 232.875 104.210938 C 236.675781 105.621094 238.730469 108.230469 241.375 111.054688 C 246.789062 116.8125 249.625 123.527344 252.21875 130.980469 C 254.203125 136.425781 255.632812 142.015625 256.503906 147.746094 Z M 256.503906 147.746094 " fill-opacity="1" fill-rule="nonzero"/><path fill="#ed7562" d="M 32.296875 218.867188 C 50.8125 177.898438 105.675781 162.492188 140.449219 193.019531 C 161.082031 211.132812 167.097656 238.246094 168.429688 264.554688 C 168.542969 266.875 168.523438 269.398438 167.113281 271.242188 C 165.472656 273.375 162.503906 273.886719 159.824219 274.125 C 156.738281 274.40625 153.648438 274.53125 150.539062 274.503906 C 148.035156 274.503906 145.398438 274.308594 143.316406 272.917969 C 140.089844 270.746094 139.269531 266.355469 139.359375 262.457031 C 139.894531 239.128906 124.007812 215.710938 100.5625 211.496094 C 81.464844 208.082031 62.726562 215.386719 51.371094 231.179688 C 42.621094 243.351562 45.796875 256.609375 27.757812 258.453125 C 21.410156 259.105469 13.050781 259.492188 7.476562 255.9375 C 3.660156 253.511719 0.0703125 249.675781 6.515625 247.808594 C 9.757812 246.90625 12.898438 245.730469 15.933594 244.277344 C 25.375 239.648438 28.242188 227.863281 32.296875 218.867188 Z M 228.351562 241.976562 C 227.265625 249.078125 224.558594 259.617188 225.933594 266.777344 C 227.355469 274.160156 232.589844 272.441406 239.882812 271.496094 C 242.777344 271.125 245.792969 270.519531 248.039062 268.648438 C 253.523438 264.097656 251.636719 256.195312 252.449219 250.039062 C 253.328125 242.980469 256.539062 235.875 260.738281 229.957031 C 283.574219 197.824219 342.464844 209.574219 345.257812 250.453125 C 346.140625 263.683594 355.335938 253.097656 357.71875 247.269531 C 366.058594 226.984375 353.53125 208.636719 338.664062 195.636719 C 322.175781 181.214844 300.660156 176.058594 279.078125 181.289062 C 275.394531 182.167969 271.824219 183.371094 268.363281 184.902344 C 264.902344 186.429688 261.605469 188.257812 258.472656 190.382812 C 255.34375 192.511719 252.429688 194.902344 249.730469 197.558594 C 247.035156 200.210938 244.597656 203.089844 242.421875 206.1875 C 235.070312 216.398438 230.394531 228.746094 228.351562 241.976562 Z M 228.351562 241.976562 " fill-opacity="1" fill-rule="nonzero"/><path fill="#d55432" d="M 226.648438 94.457031 L 226.753906 94.457031 C 226.902344 94.394531 227.058594 94.367188 227.222656 94.382812 C 227.382812 94.398438 227.53125 94.449219 227.667969 94.535156 C 227.804688 94.625 227.910156 94.738281 227.988281 94.882812 C 228.066406 95.023438 228.109375 95.175781 228.113281 95.335938 C 229.09375 98.214844 229.839844 101.15625 230.34375 104.15625 C 230.8125 106.636719 231.480469 109.070312 231.957031 111.558594 C 233.226562 118.234375 234.453125 124.910156 236.09375 131.535156 C 237.644531 137.804688 238.789062 144.171875 240.316406 150.453125 C 241.699219 156.1875 243.84375 161.820312 244.582031 167.679688 C 244.707031 168.746094 242.75 169.027344 242.617188 167.953125 C 241.9375 162.261719 239.832031 156.804688 238.417969 151.246094 C 236.851562 145.074219 235.773438 138.765625 234.3125 132.558594 C 232.679688 125.667969 231.355469 118.753906 229.980469 111.839844 C 229.523438 109.539062 228.941406 107.253906 228.484375 104.949219 C 227.957031 101.765625 227.164062 98.648438 226.101562 95.601562 C 226.015625 95.367188 226.023438 95.136719 226.132812 94.914062 C 226.238281 94.6875 226.410156 94.535156 226.648438 94.457031 Z M 226.648438 94.457031 " fill-opacity="1" fill-rule="nonzero"/><path fill="#d55432" d="M 141.253906 219.496094 Z M 31.664062 250.796875 Z M 21.804688 254.675781 C 21.496094 254.746094 21.1875 254.828125 20.878906 254.878906 L 20.269531 254.984375 L 20.085938 255.03125 C 19.820312 255.09375 19.558594 255.164062 19.285156 255.214844 L 18.480469 255.375 C 18.164062 255.445312 17.847656 255.566406 17.527344 255.65625 C 17.324219 255.703125 17.125 255.769531 16.929688 255.851562 C 16.707031 255.949219 16.488281 256.042969 16.277344 256.160156 L 15.589844 256.476562 C 15.386719 256.554688 15.183594 256.621094 14.972656 256.671875 C 14.433594 256.769531 13.886719 256.792969 13.347656 256.875 C 12.8125 256.953125 12.097656 257.03125 11.472656 257.148438 C 11.164062 257.207031 10.84375 257.234375 10.535156 257.296875 L 10.296875 257.296875 C 11.121094 257.605469 11.957031 257.859375 12.8125 258.054688 C 13.261719 257.949219 13.691406 257.824219 14.152344 257.730469 C 14.371094 257.730469 14.582031 257.660156 14.804688 257.632812 C 14.925781 257.625 15.046875 257.625 15.164062 257.632812 L 15.5625 257.632812 C 15.941406 257.632812 16.3125 257.789062 16.699219 257.808594 C 17.027344 257.832031 17.359375 257.832031 17.6875 257.808594 L 18.570312 257.730469 C 19.03125 257.664062 19.484375 257.574219 19.9375 257.457031 C 20.164062 257.410156 20.394531 257.339844 20.625 257.277344 C 20.851562 257.21875 21.265625 257.058594 21.574219 256.945312 C 21.882812 256.828125 22.300781 256.652344 22.652344 256.503906 C 22.820312 256.414062 22.960938 256.292969 23.066406 256.132812 C 23.222656 255.886719 23.261719 255.625 23.179688 255.347656 C 23.070312 255.074219 22.886719 254.875 22.621094 254.746094 C 22.359375 254.617188 22.085938 254.59375 21.804688 254.675781 Z M 30.773438 250.796875 C 30.828125 250.585938 30.921875 250.394531 31.054688 250.222656 C 31.300781 249.84375 31.539062 249.484375 31.761719 249.078125 C 32.078125 248.539062 32.402344 248.027344 32.6875 247.472656 C 32.941406 247.035156 33.160156 246.582031 33.347656 246.113281 C 33.46875 245.804688 33.613281 245.503906 33.742188 245.230469 L 34.078125 244.296875 C 34.097656 244.234375 34.121094 244.175781 34.148438 244.121094 C 34.195312 244.023438 34.265625 243.945312 34.351562 243.882812 C 34.484375 243.777344 34.636719 243.738281 34.800781 243.757812 C 34.972656 243.773438 35.109375 243.847656 35.210938 243.988281 C 35.3125 244.125 35.34375 244.277344 35.304688 244.445312 C 35.144531 245.113281 34.925781 245.757812 34.652344 246.386719 C 34.441406 246.820312 34.253906 247.269531 34 247.699219 L 33.292969 248.804688 C 33.011719 249.210938 32.695312 249.578125 32.414062 249.992188 C 32.296875 250.179688 32.164062 250.355469 32.023438 250.523438 C 31.917969 250.648438 31.8125 250.769531 31.714844 250.902344 C 31.726562 250.957031 31.726562 251.015625 31.714844 251.070312 C 31.675781 251.148438 31.617188 251.21875 31.546875 251.273438 C 31.441406 251.355469 31.320312 251.394531 31.1875 251.394531 C 31.109375 251.390625 31.042969 251.363281 30.984375 251.316406 C 30.71875 251.273438 30.726562 251.027344 30.773438 250.796875 Z M 31.652344 250.742188 Z M 47.226562 217.96875 C 46.980469 217.796875 46.710938 217.734375 46.417969 217.777344 C 46.121094 217.824219 45.882812 217.964844 45.699219 218.199219 C 45.292969 218.710938 44.878906 219.203125 44.519531 219.75 L 43.796875 220.816406 C 43.453125 221.328125 43.160156 221.875 42.851562 222.40625 C 42.207031 223.550781 41.679688 224.761719 41.089844 225.933594 C 39.941406 228.453125 38.929688 231.027344 38.046875 233.652344 L 37.933594 234.011719 C 37.894531 234.257812 37.921875 234.496094 38.011719 234.726562 C 38.160156 235.089844 38.417969 235.347656 38.777344 235.503906 C 39.148438 235.648438 39.519531 235.648438 39.890625 235.503906 C 40.261719 235.386719 40.53125 235.152344 40.691406 234.796875 C 41.378906 232.601562 42.113281 230.386719 42.929688 228.269531 C 43.433594 226.921875 43.988281 225.625 44.617188 224.3125 C 44.960938 223.621094 45.347656 222.960938 45.746094 222.300781 L 46.398438 221.257812 C 46.785156 220.632812 47.121094 219.980469 47.5 219.355469 C 47.578125 219.238281 47.632812 219.109375 47.660156 218.972656 C 47.691406 218.835938 47.691406 218.699219 47.664062 218.558594 C 47.636719 218.421875 47.582031 218.296875 47.503906 218.179688 C 47.425781 218.0625 47.324219 217.964844 47.207031 217.890625 Z M 58.328125 207.648438 L 60.089844 205.886719 C 60.734375 205.257812 61.402344 204.667969 62.066406 204.042969 C 62.726562 203.417969 63.316406 202.992188 63.941406 202.445312 C 64.261719 202.191406 64.570312 201.90625 64.894531 201.652344 L 65.890625 200.921875 L 67.277344 199.90625 C 67.769531 199.597656 68.273438 199.316406 68.785156 199.023438 L 70.371094 198.203125 L 71.386719 197.691406 C 71.957031 197.410156 72.503906 197.066406 73.058594 196.730469 C 73.207031 196.636719 73.304688 196.503906 73.355469 196.339844 C 73.40625 196.171875 73.398438 196.007812 73.332031 195.847656 C 73.261719 195.648438 73.132812 195.5 72.941406 195.40625 C 72.753906 195.308594 72.558594 195.292969 72.355469 195.355469 L 69.523438 196.324219 L 69.269531 196.421875 C 68.792969 196.644531 68.324219 196.882812 67.867188 197.136719 C 67.320312 197.4375 66.773438 197.726562 66.246094 198.019531 C 65.714844 198.308594 65.195312 198.679688 64.65625 198.996094 C 62.453125 200.292969 60.367188 201.765625 58.40625 203.40625 C 57.648438 204.105469 56.863281 204.773438 56.121094 205.480469 L 54.765625 206.917969 L 54.304688 207.421875 C 54.007812 207.738281 53.75 208.101562 53.476562 208.433594 C 53.234375 208.761719 53.03125 209.113281 52.867188 209.484375 C 52.726562 209.71875 52.664062 209.96875 52.675781 210.242188 C 52.683594 210.523438 52.765625 210.777344 52.921875 211.011719 C 53.121094 211.304688 53.382812 211.519531 53.714844 211.652344 C 54.042969 211.789062 54.378906 211.820312 54.730469 211.75 C 55.132812 211.660156 55.425781 211.433594 55.609375 211.0625 C 56.042969 210.21875 56.585938 209.457031 57.242188 208.769531 C 57.664062 208.460938 57.992188 208.054688 58.335938 207.683594 Z M 93.535156 192.082031 C 93.625 191.992188 93.671875 191.886719 93.675781 191.757812 C 93.675781 191.625 93.632812 191.511719 93.546875 191.417969 C 93.457031 191.320312 93.347656 191.269531 93.214844 191.261719 C 92.617188 191.261719 92.007812 191.261719 91.398438 191.261719 C 90.96875 191.261719 90.519531 191.332031 90.105469 191.359375 L 88.253906 191.570312 C 87.0625 191.675781 85.878906 191.941406 84.726562 192.136719 L 83.472656 192.339844 C 83.191406 192.339844 82.917969 192.445312 82.589844 192.507812 L 82.355469 192.566406 L 82.117188 192.628906 C 82.0625 192.636719 82.011719 192.648438 81.964844 192.671875 C 81.8125 192.738281 81.761719 192.847656 81.808594 193.003906 C 81.859375 193.164062 81.960938 193.226562 82.125 193.195312 C 82.179688 193.199219 82.234375 193.199219 82.292969 193.195312 L 82.589844 193.140625 L 82.960938 193.078125 C 83.28125 193.019531 83.597656 193.007812 83.90625 192.972656 C 84.53125 192.910156 85.148438 192.851562 85.765625 192.769531 C 87.035156 192.566406 88.324219 192.515625 89.601562 192.410156 L 90.808594 192.320312 C 91.601562 192.277344 92.398438 192.320312 93.191406 192.25 C 93.328125 192.257812 93.445312 192.210938 93.542969 192.117188 Z M 119.4375 196.996094 C 118.175781 196.054688 116.855469 195.195312 115.480469 194.421875 C 115.03125 194.128906 114.597656 193.820312 114.113281 193.539062 C 113.917969 193.449219 113.734375 193.363281 113.539062 193.292969 L 112.808594 193.042969 L 109.917969 192.160156 C 108.929688 191.90625 107.914062 191.746094 106.917969 191.542969 C 105.933594 191.328125 104.941406 191.167969 103.9375 191.058594 L 102.175781 190.902344 L 101.292969 190.820312 C 100.886719 190.820312 100.480469 190.769531 100.078125 190.757812 C 99.878906 190.765625 99.679688 190.78125 99.484375 190.8125 C 99.273438 190.859375 99.070312 190.933594 98.878906 191.03125 C 98.636719 191.144531 98.453125 191.316406 98.332031 191.550781 C 98.210938 191.785156 98.175781 192.035156 98.226562 192.292969 C 98.265625 192.5 98.351562 192.683594 98.480469 192.851562 L 98.691406 193.054688 C 98.859375 193.175781 99.046875 193.25 99.257812 193.273438 C 99.457031 193.289062 99.652344 193.257812 99.839844 193.175781 L 99.898438 193.175781 C 100.070312 193.164062 100.242188 193.164062 100.410156 193.175781 C 102.480469 193.203125 104.539062 193.382812 106.582031 193.714844 C 107.464844 193.863281 108.433594 193.988281 109.34375 194.199219 C 110.25 194.410156 111.105469 194.738281 111.988281 195.027344 L 113.488281 195.496094 C 113.972656 195.699219 114.449219 195.902344 114.925781 196.121094 L 116.421875 196.808594 L 117.492188 197.296875 L 118.882812 198.027344 C 119.019531 198.105469 119.160156 198.121094 119.3125 198.078125 C 119.460938 198.039062 119.574219 197.949219 119.652344 197.816406 C 119.730469 197.671875 119.753906 197.523438 119.710938 197.363281 C 119.671875 197.203125 119.578125 197.082031 119.4375 196.996094 Z M 130.972656 208.460938 C 131.5 209.113281 132.03125 209.777344 132.578125 210.402344 L 133.457031 211.371094 C 133.710938 211.710938 133.976562 212.046875 134.253906 212.378906 L 135.34375 213.664062 C 135.59375 213.964844 135.855469 214.257812 136.121094 214.546875 L 136.878906 215.429688 C 137.023438 215.640625 137.21875 215.777344 137.46875 215.835938 C 137.730469 215.878906 137.964844 215.828125 138.183594 215.683594 C 138.398438 215.527344 138.535156 215.320312 138.585938 215.058594 C 138.640625 214.796875 138.597656 214.554688 138.457031 214.328125 L 137.894531 213.304688 C 137.683594 212.976562 137.46875 212.652344 137.242188 212.332031 L 136.175781 210.851562 L 136.105469 210.753906 C 135.847656 210.410156 135.582031 210.074219 135.320312 209.75 L 134.4375 208.824219 C 133.835938 208.179688 133.195312 207.578125 132.566406 206.980469 C 132.292969 206.710938 132 206.46875 131.6875 206.246094 C 131.210938 205.878906 130.734375 205.515625 130.242188 205.1875 C 130.082031 205.097656 129.910156 205.066406 129.730469 205.097656 C 129.546875 205.125 129.394531 205.203125 129.269531 205.339844 C 129.125 205.503906 129.050781 205.699219 129.050781 205.921875 C 129.050781 206.144531 129.125 206.335938 129.269531 206.503906 C 129.800781 207.191406 130.425781 207.800781 130.972656 208.460938 Z M 141.269531 219.484375 Z M 151.039062 234.4375 C 151.21875 234.371094 151.347656 234.25 151.425781 234.078125 C 151.507812 233.90625 151.515625 233.734375 151.453125 233.554688 C 151.253906 233 151.058594 232.425781 150.820312 231.878906 C 150.660156 231.5 150.476562 231.136719 150.300781 230.757812 L 149.886719 229.980469 L 149.488281 229.242188 L 148.5625 227.476562 C 148.226562 226.894531 147.882812 226.3125 147.511719 225.757812 C 146.871094 224.78125 146.152344 223.863281 145.363281 223.003906 L 144.066406 221.59375 C 143.730469 221.230469 143.386719 220.871094 143.035156 220.535156 C 142.679688 220.199219 142.445312 220.03125 142.152344 219.804688 C 142.011719 219.695312 141.859375 219.609375 141.695312 219.546875 C 141.558594 219.511719 141.421875 219.511719 141.289062 219.546875 L 141.226562 219.546875 C 141.101562 219.550781 141.007812 219.605469 140.945312 219.714844 C 140.886719 219.820312 140.886719 219.925781 140.945312 220.03125 C 140.964844 220.066406 140.988281 220.09375 141.015625 220.121094 C 141.085938 220.207031 141.171875 220.238281 141.28125 220.210938 L 141.367188 220.210938 L 141.597656 220.351562 C 141.738281 220.464844 141.878906 220.605469 142.011719 220.738281 L 142.496094 221.222656 C 142.726562 221.460938 142.953125 221.71875 143.175781 221.980469 L 143.925781 222.863281 C 144.355469 223.398438 144.757812 223.949219 145.132812 224.523438 C 145.757812 225.597656 146.367188 226.683594 146.976562 227.785156 C 147.585938 228.886719 148.105469 230.015625 148.675781 231.128906 L 149.214844 232.144531 L 149.488281 232.707031 C 149.734375 233.21875 150.019531 233.710938 150.28125 234.207031 C 150.351562 234.304688 150.441406 234.382812 150.546875 234.4375 C 150.710938 234.5 150.875 234.5 151.039062 234.4375 Z M 141.253906 219.496094 Z M 155.855469 249.660156 L 156.5 251.8125 C 156.859375 253.152344 157.125 254.519531 157.378906 255.875 C 157.511719 256.617188 157.617188 257.367188 157.734375 258.117188 L 158.199219 261.355469 C 158.234375 261.601562 158.375 261.742188 158.625 261.777344 C 158.761719 261.789062 158.886719 261.75 158.992188 261.664062 C 159.101562 261.578125 159.167969 261.464844 159.1875 261.328125 C 159.1875 260.921875 159.1875 260.515625 159.1875 260.109375 L 159.1875 259.5 C 159.1875 259.191406 159.1875 258.894531 159.125 258.621094 L 158.976562 257.410156 C 158.976562 257.042969 158.886719 256.660156 158.835938 256.292969 C 158.753906 255.558594 158.625 254.84375 158.492188 254.121094 L 158.445312 253.882812 C 158.332031 253.265625 158.199219 252.65625 158.066406 252.039062 C 157.996094 251.6875 157.890625 251.335938 157.792969 250.992188 C 157.699219 250.648438 157.574219 250.195312 157.433594 249.800781 L 157.132812 248.917969 C 157.0625 248.742188 157.007812 248.546875 156.9375 248.371094 C 156.726562 247.84375 156.488281 247.3125 156.25 246.792969 C 156.164062 246.636719 156.035156 246.535156 155.863281 246.484375 C 155.691406 246.433594 155.527344 246.449219 155.371094 246.527344 C 155.210938 246.625 155.105469 246.765625 155.050781 246.941406 C 155 247.125 155.019531 247.300781 155.105469 247.472656 L 155.230469 247.789062 C 155.449219 248.40625 155.652344 249.03125 155.855469 249.660156 Z M 160.261719 274.082031 C 160.261719 273.703125 160.167969 273.332031 160.121094 272.953125 C 160.058594 272.40625 159.964844 271.863281 159.839844 271.328125 L 159.859375 271.082031 C 159.828125 270.972656 159.785156 270.871094 159.726562 270.773438 C 159.679688 270.660156 159.597656 270.589844 159.480469 270.5625 C 159.347656 270.539062 159.242188 270.582031 159.160156 270.683594 C 159.101562 270.757812 159.078125 270.839844 159.089844 270.933594 L 159.089844 272.75 L 159.046875 274.1875 L 159.867188 274.117188 Z M 334.539062 211.777344 Z M 238.171875 254.464844 Z M 237.484375 269.195312 C 237.484375 269.097656 237.484375 268.992188 237.484375 268.894531 L 237.566406 268.570312 C 237.652344 268.261719 237.828125 267.976562 237.925781 267.6875 C 238.019531 267.429688 238.09375 267.167969 238.148438 266.902344 L 238.261719 266.222656 C 238.3125 265.851562 238.335938 265.476562 238.332031 265.101562 L 238.332031 264.539062 C 238.332031 264.269531 238.3125 264 238.277344 263.734375 L 238.226562 262.851562 C 238.195312 262.695312 238.125 262.554688 238.023438 262.429688 C 237.835938 262.230469 237.605469 262.121094 237.335938 262.09375 C 237.070312 262.050781 236.824219 262.105469 236.601562 262.257812 C 236.378906 262.410156 236.238281 262.617188 236.179688 262.878906 L 236.066406 263.683594 L 235.984375 264.210938 L 235.984375 264.371094 L 235.941406 265.074219 L 235.898438 265.78125 C 235.898438 266.0625 235.898438 266.355469 235.949219 266.664062 C 235.953125 266.84375 235.976562 267.023438 236.011719 267.203125 C 236.074219 267.414062 236.117188 267.617188 236.1875 267.808594 C 236.257812 268.003906 236.332031 268.234375 236.390625 268.4375 C 236.4375 268.621094 236.46875 268.804688 236.488281 268.992188 C 236.488281 269.460938 236.488281 269.925781 236.488281 270.394531 C 236.488281 270.863281 236.53125 271.480469 236.59375 272.015625 L 236.59375 271.964844 L 237.828125 271.789062 C 237.679688 271.105469 237.5625 270.417969 237.484375 269.722656 C 237.511719 269.566406 237.503906 269.378906 237.511719 269.195312 Z M 238.261719 251.554688 L 238.242188 252.5625 C 238.21875 252.929688 238.21875 253.300781 238.242188 253.671875 L 238.289062 254.164062 C 238.273438 254.285156 238.273438 254.40625 238.289062 254.527344 C 238.324219 254.558594 238.351562 254.597656 238.375 254.640625 C 238.394531 254.707031 238.394531 254.773438 238.375 254.835938 C 238.355469 254.945312 238.296875 255.023438 238.199219 255.074219 C 238.136719 255.109375 238.070312 255.128906 237.996094 255.136719 C 237.792969 255.148438 237.636719 255.066406 237.53125 254.890625 C 237.425781 254.738281 237.359375 254.574219 237.335938 254.394531 C 237.265625 254.042969 237.175781 253.679688 237.132812 253.320312 C 237.050781 252.820312 237.003906 252.316406 237 251.8125 L 237 250.558594 C 237 249.992188 237.0625 249.4375 237.105469 248.882812 C 237.101562 248.828125 237.101562 248.777344 237.105469 248.722656 C 237.121094 248.632812 237.167969 248.554688 237.238281 248.496094 C 237.421875 248.332031 237.632812 248.292969 237.863281 248.375 C 238.09375 248.453125 238.234375 248.617188 238.277344 248.855469 C 238.277344 249.386719 238.277344 249.914062 238.277344 250.445312 Z M 238.183594 254.449219 Z M 246.734375 223.683594 C 246.488281 223.535156 246.226562 223.484375 245.945312 223.539062 C 245.660156 223.59375 245.433594 223.734375 245.261719 223.964844 C 244.902344 224.445312 244.578125 224.949219 244.292969 225.476562 L 243.71875 226.515625 C 243.445312 227.019531 243.199219 227.53125 242.953125 228.042969 C 242.457031 229.144531 242.070312 230.308594 241.664062 231.4375 C 241.257812 232.566406 240.890625 233.878906 240.5 235.097656 C 240.113281 236.3125 239.832031 237.558594 239.566406 238.800781 L 239.496094 239.144531 C 239.488281 239.378906 239.539062 239.59375 239.65625 239.796875 C 239.859375 240.136719 240.152344 240.359375 240.535156 240.460938 C 240.910156 240.578125 241.277344 240.5625 241.636719 240.414062 C 241.984375 240.292969 242.21875 240.058594 242.34375 239.710938 C 242.722656 237.636719 243.226562 235.601562 243.753906 233.535156 C 244.125 232.273438 244.523438 231.011719 244.960938 229.769531 C 245.21875 229.113281 245.511719 228.476562 245.84375 227.855469 L 246.355469 226.84375 C 246.65625 226.242188 246.882812 225.597656 247.238281 225.007812 C 247.378906 224.777344 247.410156 224.53125 247.324219 224.273438 C 247.207031 224.015625 247.019531 223.824219 246.761719 223.703125 Z M 267.207031 202.835938 C 267.710938 202.515625 268.167969 202.15625 268.644531 201.792969 C 268.761719 201.675781 268.832031 201.539062 268.855469 201.375 C 268.878906 201.210938 268.851562 201.054688 268.769531 200.910156 C 268.679688 200.726562 268.542969 200.597656 268.351562 200.523438 C 268.160156 200.449219 267.972656 200.449219 267.78125 200.523438 C 266.929688 200.875 266.101562 201.273438 265.296875 201.714844 L 265.074219 201.847656 C 264.660156 202.09375 264.261719 202.359375 263.867188 202.640625 C 262.941406 203.320312 261.996094 203.964844 261.125 204.710938 L 258.363281 206.917969 C 257.5 207.730469 256.652344 208.550781 255.824219 209.378906 C 255.140625 210.039062 254.5 210.746094 253.910156 211.496094 L 252.765625 212.914062 L 252.378906 213.398438 C 252.128906 213.71875 251.9375 214.078125 251.714844 214.414062 C 251.527344 214.742188 251.371094 215.085938 251.257812 215.445312 C 251.160156 215.683594 251.132812 215.933594 251.167969 216.1875 C 251.214844 216.457031 251.324219 216.699219 251.496094 216.910156 C 251.714844 217.183594 251.992188 217.375 252.324219 217.488281 C 252.652344 217.601562 252.988281 217.617188 253.328125 217.535156 C 253.722656 217.445312 253.996094 217.207031 254.140625 216.832031 C 254.277344 216.414062 254.457031 216.019531 254.679688 215.640625 C 254.917969 215.277344 255.171875 214.925781 255.429688 214.574219 L 256.308594 213.355469 L 256.167969 213.550781 C 257.160156 212.21875 258.21875 210.9375 259.34375 209.714844 C 259.597656 209.429688 259.835938 209.121094 260.09375 208.832031 L 260.902344 208.027344 L 262.527344 206.40625 C 263.289062 205.648438 264.117188 204.96875 265.003906 204.359375 C 265.460938 204.050781 265.929688 203.761719 266.363281 203.417969 C 266.644531 203.210938 266.933594 203.023438 267.234375 202.851562 Z M 277.453125 196.261719 L 276.714844 196.527344 L 276.5 196.605469 L 276.289062 196.695312 C 276.242188 196.707031 276.199219 196.726562 276.15625 196.75 C 276.054688 196.828125 276.019531 196.929688 276.0625 197.058594 C 276.121094 197.210938 276.230469 197.277344 276.394531 197.25 L 276.546875 197.207031 L 276.808594 197.117188 L 277.144531 197.023438 L 277.984375 196.785156 C 278.546875 196.625 279.09375 196.464844 279.640625 196.28125 C 280.203125 196.089844 280.773438 195.933594 281.351562 195.8125 L 283.113281 195.390625 L 284.199219 195.117188 C 284.914062 194.96875 285.609375 194.710938 286.34375 194.613281 C 286.460938 194.601562 286.558594 194.546875 286.625 194.445312 C 286.699219 194.34375 286.726562 194.226562 286.703125 194.101562 C 286.683594 193.976562 286.625 193.875 286.527344 193.792969 C 286.429688 193.714844 286.320312 193.675781 286.191406 193.679688 C 285.632812 193.742188 285.078125 193.847656 284.535156 193.996094 L 283.378906 194.304688 L 281.730469 194.789062 L 280.144531 195.257812 L 278.582031 195.859375 Z M 301.261719 193.933594 C 302.144531 194.015625 302.972656 194.164062 303.828125 194.296875 C 304.785156 194.417969 305.734375 194.589844 306.675781 194.808594 L 308.136719 195.238281 L 309.179688 195.53125 C 309.644531 195.664062 310.113281 195.761719 310.589844 195.882812 C 310.730469 195.929688 310.863281 195.917969 310.996094 195.847656 C 311.125 195.777344 311.210938 195.671875 311.25 195.53125 C 311.304688 195.386719 311.296875 195.242188 311.238281 195.101562 C 311.175781 194.960938 311.074219 194.859375 310.933594 194.800781 L 306.929688 193.035156 C 306.480469 192.820312 306.019531 192.644531 305.539062 192.515625 C 305.359375 192.457031 305.175781 192.40625 304.992188 192.363281 L 304.945312 192.363281 L 304.25 192.242188 C 303.324219 192.125 302.40625 191.96875 301.488281 191.871094 L 298.675781 191.746094 L 297.277344 191.746094 C 296.8125 191.707031 296.347656 191.707031 295.882812 191.746094 L 294.261719 191.871094 L 293.378906 191.949219 C 293 191.949219 292.621094 192.03125 292.242188 192.089844 C 292.058594 192.113281 291.878906 192.15625 291.703125 192.214844 C 291.515625 192.28125 291.34375 192.378906 291.183594 192.496094 C 290.980469 192.660156 290.839844 192.863281 290.769531 193.113281 C 290.699219 193.363281 290.707031 193.609375 290.792969 193.855469 C 290.859375 194.046875 290.964844 194.210938 291.113281 194.347656 L 291.339844 194.515625 C 291.507812 194.621094 291.691406 194.671875 291.886719 194.675781 C 292.078125 194.667969 292.25 194.613281 292.410156 194.507812 L 292.460938 194.507812 C 292.636719 194.441406 292.816406 194.390625 293 194.347656 C 293.941406 194.21875 294.886719 194.101562 295.839844 193.988281 L 296.550781 193.917969 L 298.703125 193.917969 C 299.59375 193.917969 300.457031 193.933594 301.324219 193.953125 Z M 329.777344 205.816406 L 328.550781 204.652344 L 328.460938 204.570312 C 327.878906 204.042969 327.261719 203.546875 326.65625 203.054688 C 326.046875 202.5625 325.289062 202.171875 324.601562 201.742188 C 324.300781 201.546875 323.992188 201.378906 323.71875 201.203125 C 323.445312 201.027344 323.242188 200.9375 322.996094 200.8125 C 322.75 200.691406 322.484375 200.59375 322.21875 200.496094 C 322.050781 200.453125 321.882812 200.464844 321.71875 200.53125 C 321.554688 200.597656 321.429688 200.707031 321.335938 200.859375 C 321.21875 201.035156 321.179688 201.230469 321.214844 201.441406 C 321.25 201.652344 321.351562 201.824219 321.523438 201.953125 C 322.175781 202.417969 322.75 202.992188 323.375 203.488281 C 324 203.980469 324.574219 204.476562 325.191406 204.941406 C 325.808594 205.410156 326.363281 206 326.953125 206.496094 L 328.171875 207.464844 L 329.835938 208.832031 C 330.015625 208.996094 330.222656 209.082031 330.464844 209.085938 C 330.71875 209.074219 330.941406 208.976562 331.125 208.796875 C 331.3125 208.621094 331.414062 208.40625 331.429688 208.152344 C 331.445312 207.894531 331.371094 207.667969 331.203125 207.472656 C 330.757812 206.894531 330.285156 206.339844 329.777344 205.816406 Z M 334.554688 211.769531 Z M 346.078125 223.121094 C 345.816406 222.636719 345.566406 222.132812 345.277344 221.664062 L 344.625 220.703125 C 344.472656 220.472656 344.296875 220.261719 344.140625 220.042969 L 343.671875 219.414062 C 342.960938 218.382812 342.179688 217.40625 341.335938 216.476562 C 340.601562 215.667969 339.792969 214.9375 338.917969 214.28125 L 337.5 213.199219 C 337.121094 212.914062 336.75 212.640625 336.363281 212.394531 C 336.066406 212.195312 335.753906 212.019531 335.429688 211.867188 C 335.277344 211.792969 335.117188 211.742188 334.953125 211.714844 C 334.824219 211.679688 334.691406 211.679688 334.5625 211.714844 L 334.503906 211.714844 C 334.386719 211.746094 334.304688 211.816406 334.253906 211.925781 C 334.199219 212.027344 334.199219 212.128906 334.253906 212.226562 C 334.273438 212.257812 334.296875 212.28125 334.324219 212.296875 C 334.417969 212.363281 334.507812 212.363281 334.597656 212.296875 L 334.6875 212.296875 L 334.925781 212.378906 L 335.367188 212.660156 L 335.886719 213.03125 L 336.636719 213.621094 L 337.519531 214.316406 C 338 214.734375 338.453125 215.179688 338.882812 215.648438 C 339.617188 216.539062 340.34375 217.445312 341.054688 218.375 C 341.777344 219.257812 342.402344 220.261719 343.089844 221.207031 L 343.714844 222.089844 C 343.839844 222.246094 343.953125 222.40625 344.058594 222.5625 C 344.359375 222.996094 344.6875 223.445312 344.996094 223.84375 C 345.070312 223.921875 345.160156 223.976562 345.269531 224 C 345.546875 224.082031 345.78125 224.011719 345.972656 223.792969 C 346.164062 223.574219 346.203125 223.332031 346.089844 223.066406 Z M 334.5625 211.761719 Z M 354.21875 243 C 354.4375 243.671875 354.625 244.347656 354.789062 245.027344 L 355.566406 247.972656 C 355.636719 248.203125 355.792969 248.316406 356.035156 248.308594 C 356.273438 248.308594 356.5625 248.082031 356.546875 247.824219 C 356.527344 247.570312 356.492188 247.066406 356.441406 246.695312 L 356.351562 246.132812 C 356.308594 245.847656 356.261719 245.574219 356.203125 245.292969 L 355.988281 244.21875 C 355.929688 243.871094 355.824219 243.527344 355.734375 243.195312 C 355.566406 242.53125 355.371094 241.878906 355.1875 241.226562 L 355.117188 241.007812 C 354.957031 240.449219 354.765625 239.894531 354.550781 239.347656 C 354.4375 239.03125 354.304688 238.722656 354.171875 238.40625 C 354.042969 238.085938 353.882812 237.699219 353.714844 237.355469 L 353.335938 236.570312 C 353.246094 236.410156 353.167969 236.242188 353.082031 236.09375 L 352.242188 234.71875 C 352.125 234.574219 351.976562 234.492188 351.792969 234.472656 C 351.609375 234.453125 351.445312 234.5 351.300781 234.613281 C 351.15625 234.71875 351.066406 234.863281 351.027344 235.035156 C 350.996094 235.214844 351.03125 235.378906 351.132812 235.53125 L 351.28125 235.792969 C 351.5625 236.339844 351.863281 236.878906 352.109375 237.441406 C 352.355469 238.007812 352.675781 238.714844 352.9375 239.355469 C 353.433594 240.554688 353.859375 241.773438 354.21875 243.015625 Z M 354.21875 243 " fill-opacity="1" fill-rule="nonzero"/><path fill="#b2bbc2" d="M 60.980469 274.609375 C 62.046875 276.164062 63.261719 277.585938 64.628906 278.878906 C 66.210938 280.335938 67.929688 281.605469 69.789062 282.679688 C 73.582031 284.847656 77.628906 286.320312 81.929688 287.089844 C 86.140625 287.902344 90.363281 288.011719 94.609375 287.417969 C 98.941406 286.890625 103.125 285.789062 107.15625 284.117188 C 109.042969 283.296875 110.808594 282.265625 112.445312 281.023438 C 113.292969 280.382812 114.070312 279.671875 114.785156 278.886719 C 115.507812 278.085938 116.230469 277.238281 116.917969 276.410156 C 118.523438 274.527344 119.933594 272.503906 121.140625 270.339844 C 121.597656 269.5 121.949219 268.617188 122.199219 267.695312 C 122.429688 266.761719 122.761719 265.851562 122.914062 264.898438 C 123.859375 260.570312 124.007812 256.214844 123.363281 251.828125 C 122.972656 249.359375 122.324219 246.960938 121.414062 244.632812 C 121.054688 243.75 120.65625 242.9375 120.269531 242.089844 L 118.890625 239.675781 C 117.726562 237.867188 116.390625 236.195312 114.890625 234.65625 L 113.742188 233.507812 C 113.335938 233.148438 112.914062 232.8125 112.5 232.460938 L 111.925781 231.964844 C 111.671875 231.726562 111.402344 231.503906 111.117188 231.304688 C 110.9375 231.171875 110.746094 231.03125 110.585938 230.890625 L 110.242188 230.589844 C 110.050781 230.410156 109.875 230.21875 109.714844 230.007812 C 109.546875 229.839844 109.445312 229.636719 109.414062 229.398438 C 109.410156 229.273438 109.460938 229.179688 109.574219 229.117188 C 109.902344 228.996094 110.214844 229.023438 110.515625 229.207031 C 110.78125 229.324219 111.039062 229.457031 111.292969 229.601562 L 111.707031 229.867188 C 111.910156 230 112.101562 230.140625 112.289062 230.28125 L 113.382812 231.164062 L 114.589844 232.160156 C 114.96875 232.511719 115.332031 232.890625 115.699219 233.253906 L 116.785156 234.347656 L 117.765625 235.53125 C 118.082031 235.925781 118.433594 236.296875 118.726562 236.71875 L 119.605469 237.980469 C 121.980469 241.488281 123.621094 245.308594 124.527344 249.445312 C 125.457031 253.875 125.59375 258.324219 124.933594 262.800781 C 124.851562 263.496094 124.675781 264.167969 124.554688 264.855469 C 124.433594 265.542969 124.277344 266.21875 124.078125 266.882812 C 123.882812 267.5625 123.722656 268.226562 123.496094 268.914062 C 123.246094 269.597656 122.953125 270.261719 122.613281 270.90625 C 121.738281 272.519531 120.738281 274.054688 119.617188 275.511719 C 118.976562 276.34375 118.3125 277.164062 117.632812 277.972656 C 116.933594 278.773438 116.308594 279.558594 115.523438 280.351562 C 113.890625 282.011719 112.046875 283.378906 109.988281 284.460938 C 107.988281 285.546875 105.898438 286.429688 103.726562 287.109375 C 101.5625 287.769531 99.363281 288.285156 97.132812 288.660156 C 92.773438 289.492188 88.398438 289.613281 84.003906 289.023438 C 79.597656 288.460938 75.398438 287.203125 71.410156 285.246094 C 69.410156 284.265625 67.527344 283.089844 65.769531 281.71875 C 63.960938 280.304688 62.355469 278.6875 60.953125 276.867188 C 59.683594 275.242188 58.617188 273.496094 57.753906 271.621094 C 56.875 269.644531 56.285156 267.589844 55.988281 265.445312 C 55.4375 261.132812 55.550781 256.839844 56.332031 252.5625 C 56.726562 250.359375 57.316406 248.210938 58.097656 246.113281 C 58.878906 244.074219 59.847656 242.128906 61.007812 240.273438 C 63.285156 236.546875 66.257812 233.496094 69.921875 231.121094 C 70.839844 230.53125 71.796875 230.007812 72.785156 229.550781 L 74.277344 228.863281 C 74.78125 228.640625 75.289062 228.457031 75.800781 228.253906 C 76.789062 227.820312 77.820312 227.539062 78.835938 227.175781 C 79.847656 226.816406 80.890625 226.570312 81.949219 226.375 L 83.457031 226.046875 L 84.980469 225.792969 C 85.996094 225.597656 87.027344 225.535156 88.058594 225.414062 C 90.230469 225.242188 92.402344 225.242188 94.574219 225.414062 C 95.675781 225.476562 96.769531 225.675781 97.863281 225.820312 C 98.957031 225.960938 100.050781 226.222656 101.117188 226.550781 C 101.671875 226.71875 102.238281 226.859375 102.785156 227.054688 L 104.421875 227.652344 C 104.980469 227.839844 105.507812 228.113281 106.046875 228.332031 C 106.582031 228.554688 106.925781 228.667969 107.378906 228.878906 L 107.949219 229.117188 C 108.285156 229.25 108.601562 229.375 108.9375 229.480469 L 108.992188 229.480469 C 109.070312 229.507812 109.125 229.5625 109.148438 229.648438 C 109.148438 229.699219 109.078125 229.734375 108.992188 229.71875 C 108.628906 229.628906 108.277344 229.515625 107.898438 229.390625 C 107.695312 229.320312 107.484375 229.257812 107.28125 229.179688 L 106.664062 228.957031 L 106.070312 228.746094 C 105.667969 228.605469 105.269531 228.4375 104.882812 228.28125 C 104.492188 228.121094 104 227.945312 103.488281 227.769531 C 102.695312 227.472656 101.890625 227.222656 101.074219 227.007812 C 100.269531 226.761719 99.433594 226.613281 98.613281 226.445312 C 95.144531 225.78125 91.65625 225.601562 88.136719 225.90625 L 88.234375 225.90625 L 86.214844 226.144531 C 85.546875 226.222656 84.875 226.367188 84.214844 226.472656 C 83.171875 226.648438 82.140625 226.921875 81.121094 227.152344 C 80.097656 227.378906 79.082031 227.699219 78.09375 228.03125 C 76.128906 228.71875 74.226562 229.542969 72.382812 230.511719 C 71.394531 231.035156 70.449219 231.621094 69.542969 232.273438 C 69.082031 232.582031 68.660156 232.953125 68.21875 233.289062 L 67.566406 233.800781 C 67.355469 233.984375 67.160156 234.179688 66.957031 234.363281 C 65.390625 235.796875 64.011719 237.390625 62.816406 239.144531 C 61.609375 240.875 60.578125 242.707031 59.71875 244.632812 C 58.84375 246.597656 58.164062 248.628906 57.675781 250.726562 C 57.214844 252.730469 56.90625 254.753906 56.738281 256.804688 C 56.59375 258.914062 56.59375 261.023438 56.738281 263.136719 C 56.894531 265.175781 57.320312 267.15625 58.019531 269.082031 C 58.683594 270.933594 59.566406 272.675781 60.664062 274.308594 C 60.785156 274.371094 60.890625 274.496094 60.980469 274.609375 Z M 269.316406 274.988281 C 268.21875 273.355469 267.335938 271.613281 266.671875 269.757812 C 265.964844 267.835938 265.539062 265.855469 265.390625 263.816406 C 265.242188 261.703125 265.242188 259.59375 265.390625 257.480469 C 265.554688 255.433594 265.863281 253.40625 266.328125 251.40625 C 266.800781 249.316406 267.460938 247.292969 268.3125 245.328125 C 269.167969 243.402344 270.199219 241.574219 271.40625 239.84375 C 272.601562 238.089844 273.980469 236.5 275.550781 235.070312 C 275.753906 234.886719 275.945312 234.683594 276.15625 234.507812 L 276.808594 233.996094 C 277.25 233.652344 277.691406 233.289062 278.132812 232.972656 C 279.042969 232.324219 279.988281 231.738281 280.972656 231.207031 C 282.816406 230.269531 284.714844 229.472656 286.675781 228.816406 C 287.664062 228.445312 288.6875 228.199219 289.703125 227.933594 C 290.714844 227.671875 291.753906 227.425781 292.796875 227.257812 C 293.457031 227.152344 294.128906 227.007812 294.796875 226.921875 L 296.816406 226.691406 L 296.71875 226.691406 C 300.234375 226.394531 303.726562 226.574219 307.195312 227.230469 C 308.015625 227.398438 308.84375 227.554688 309.65625 227.804688 C 310.472656 228.011719 311.277344 228.265625 312.070312 228.5625 C 312.53125 228.730469 313.003906 228.878906 313.464844 229.066406 C 313.921875 229.25 314.25 229.398438 314.65625 229.539062 L 315.273438 229.753906 L 315.890625 229.972656 L 316.507812 230.195312 C 316.886719 230.316406 317.238281 230.421875 317.597656 230.511719 C 317.6875 230.511719 317.757812 230.511719 317.757812 230.449219 C 317.734375 230.367188 317.679688 230.3125 317.597656 230.28125 L 317.546875 230.28125 C 317.210938 230.167969 316.894531 230.042969 316.558594 229.910156 L 315.984375 229.671875 C 315.554688 229.46875 315.105469 229.320312 314.65625 229.125 C 314.203125 228.933594 313.585938 228.640625 313.03125 228.445312 L 311.390625 227.847656 C 310.84375 227.660156 310.28125 227.511719 309.726562 227.351562 C 308.660156 227.019531 307.554688 226.851562 306.472656 226.621094 C 305.386719 226.390625 304.285156 226.269531 303.183594 226.214844 C 301.011719 226.035156 298.839844 226.035156 296.667969 226.214844 C 295.636719 226.332031 294.605469 226.390625 293.589844 226.585938 L 292.0625 226.84375 L 290.558594 227.167969 C 289.5 227.363281 288.476562 227.707031 287.433594 227.980469 C 286.394531 228.253906 285.390625 228.625 284.410156 229.046875 C 283.898438 229.257812 283.378906 229.433594 282.886719 229.664062 L 281.394531 230.34375 C 280.40625 230.808594 279.453125 231.332031 278.53125 231.914062 C 274.867188 234.289062 271.890625 237.339844 269.605469 241.058594 C 268.449219 242.914062 267.476562 244.863281 266.695312 246.90625 C 265.914062 249.003906 265.324219 251.152344 264.933594 253.355469 C 264.132812 257.617188 263.992188 261.90625 264.511719 266.214844 C 264.808594 268.355469 265.398438 270.410156 266.273438 272.386719 C 267.140625 274.261719 268.210938 276.007812 269.484375 277.636719 C 270.886719 279.457031 272.492188 281.074219 274.296875 282.496094 C 276.054688 283.867188 277.9375 285.042969 279.941406 286.023438 C 283.929688 287.980469 288.125 289.242188 292.53125 289.808594 C 296.925781 290.390625 301.304688 290.269531 305.660156 289.445312 C 307.890625 289.0625 310.089844 288.546875 312.257812 287.894531 C 314.429688 287.214844 316.515625 286.332031 318.515625 285.246094 C 320.578125 284.167969 322.421875 282.796875 324.054688 281.136719 C 324.839844 280.34375 325.464844 279.566406 326.160156 278.765625 C 326.859375 277.960938 327.5 277.140625 328.144531 276.292969 C 329.265625 274.84375 330.261719 273.3125 331.132812 271.699219 C 331.472656 271.054688 331.769531 270.386719 332.015625 269.699219 C 332.246094 269.007812 332.402344 268.355469 332.597656 267.679688 C 332.792969 267.007812 332.949219 266.328125 333.074219 265.640625 C 333.195312 264.960938 333.375 264.28125 333.453125 263.59375 C 334.113281 259.117188 333.976562 254.660156 333.046875 250.230469 C 332.136719 246.097656 330.5 242.273438 328.128906 238.765625 L 327.246094 237.503906 C 326.953125 237.089844 326.601562 236.71875 326.285156 236.3125 L 325.296875 235.132812 L 324.273438 234.039062 C 323.894531 233.667969 323.542969 233.289062 323.152344 232.9375 L 321.957031 231.941406 L 320.863281 231.058594 C 320.667969 230.925781 320.484375 230.777344 320.28125 230.652344 L 319.867188 230.386719 C 319.613281 230.242188 319.355469 230.109375 319.089844 229.992188 C 318.789062 229.808594 318.46875 229.777344 318.136719 229.894531 C 318.03125 229.957031 317.984375 230.050781 317.988281 230.175781 C 318.015625 230.417969 318.117188 230.621094 318.285156 230.792969 C 318.445312 231 318.625 231.191406 318.816406 231.367188 L 319.160156 231.667969 C 319.328125 231.8125 319.503906 231.953125 319.6875 232.082031 C 319.976562 232.28125 320.246094 232.503906 320.5 232.742188 L 321.074219 233.234375 C 321.488281 233.597656 321.957031 233.933594 322.316406 234.285156 L 323.460938 235.433594 C 324.972656 236.976562 326.3125 238.660156 327.484375 240.476562 L 328.859375 242.902344 C 329.238281 243.785156 329.644531 244.578125 330.003906 245.433594 C 330.914062 247.765625 331.566406 250.167969 331.953125 252.640625 C 332.601562 257.019531 332.449219 261.375 331.503906 265.703125 C 331.355469 266.65625 331.019531 267.570312 330.789062 268.507812 C 330.542969 269.429688 330.1875 270.3125 329.730469 271.152344 C 328.523438 273.316406 327.117188 275.339844 325.507812 277.222656 C 324.8125 278.101562 324.097656 278.90625 323.375 279.699219 C 322.660156 280.484375 321.882812 281.199219 321.039062 281.84375 C 319.394531 283.082031 317.632812 284.113281 315.746094 284.9375 C 311.714844 286.601562 307.53125 287.703125 303.199219 288.238281 C 298.957031 288.820312 294.730469 288.710938 290.519531 287.910156 C 286.222656 287.136719 282.175781 285.664062 278.378906 283.5 C 276.519531 282.425781 274.800781 281.15625 273.222656 279.699219 C 271.851562 278.40625 270.628906 276.988281 269.554688 275.4375 C 269.464844 275.300781 269.386719 275.15625 269.316406 275.007812 Z M 269.316406 274.988281 " fill-opacity="1" fill-rule="nonzero"/><path fill="#ed7562" d="M 208.847656 73.15625 C 210.355469 73.507812 211.871094 73.789062 213.351562 74.230469 C 214.832031 74.671875 216.332031 75.058594 217.8125 75.535156 C 221.125 76.589844 224.378906 77.8125 227.566406 79.195312 C 233.9375 81.945312 239.816406 85.511719 245.199219 89.894531 L 247.148438 91.5 L 248.984375 93.195312 C 249.609375 93.742188 250.191406 94.332031 250.746094 94.957031 C 251.300781 95.585938 251.917969 96.132812 252.511719 96.722656 C 254.746094 99.152344 256.851562 101.691406 258.824219 104.34375 C 260.78125 107.042969 262.609375 109.8125 264.308594 112.660156 C 265.984375 115.507812 267.542969 118.417969 269.035156 121.347656 C 270.523438 124.277344 271.785156 126.984375 273.046875 129.839844 C 274.304688 132.699219 275.648438 135.792969 277.058594 138.703125 C 278.589844 142.011719 280.671875 144.921875 283.300781 147.445312 C 285.390625 149.402344 287.703125 151.050781 290.230469 152.394531 C 293.136719 153.921875 296.152344 155.191406 299.277344 156.203125 C 302.398438 157.261719 305.582031 158.1875 308.753906 159.140625 C 312.363281 160.214844 315.960938 161.320312 319.496094 162.667969 C 322.140625 163.636719 324.695312 164.730469 327.203125 165.949219 C 330.105469 167.375 332.867188 169.03125 335.488281 170.921875 C 336.8125 171.804688 338.046875 172.871094 339.261719 173.894531 L 340.074219 174.664062 C 340.445312 175.015625 340.824219 175.378906 341.167969 175.738281 C 341.410156 175.964844 341.628906 176.207031 341.828125 176.472656 L 342.226562 177 C 342.4375 177.304688 342.625 177.625 342.78125 177.960938 C 342.96875 178.253906 343.035156 178.570312 342.976562 178.914062 C 342.914062 179.089844 342.796875 179.207031 342.621094 179.265625 C 342.128906 179.367188 341.6875 179.253906 341.300781 178.933594 C 340.972656 178.714844 340.660156 178.476562 340.367188 178.21875 L 339.890625 177.769531 L 339.203125 177.105469 L 337.816406 175.800781 C 337.289062 175.332031 336.734375 174.917969 336.195312 174.460938 C 335.65625 174.003906 335.101562 173.578125 334.519531 173.171875 C 332.285156 171.519531 329.933594 170.046875 327.464844 168.761719 C 322.214844 166.105469 316.757812 163.984375 311.09375 162.402344 C 304.921875 160.515625 298.570312 158.929688 292.417969 156.230469 C 291.457031 155.832031 290.519531 155.347656 289.578125 154.878906 C 288.632812 154.414062 287.707031 153.777344 286.828125 153.195312 C 285.023438 152.085938 283.347656 150.8125 281.800781 149.367188 C 279.757812 147.46875 278.015625 145.324219 276.582031 142.929688 C 275.027344 140.203125 273.640625 137.390625 272.429688 134.496094 C 271.089844 131.488281 269.78125 128.472656 268.347656 125.527344 C 266.910156 122.582031 265.425781 119.6875 263.832031 116.859375 C 262.234375 114.027344 260.523438 111.214844 258.691406 108.503906 C 256.855469 105.796875 254.953125 103.347656 252.898438 100.902344 C 250.8125 98.476562 248.585938 96.179688 246.222656 94.023438 C 241.371094 89.640625 236.023438 85.976562 230.183594 83.035156 C 228.710938 82.238281 227.167969 81.605469 225.652344 80.882812 C 224.136719 80.160156 222.558594 79.613281 220.996094 78.996094 C 219.4375 78.375 217.726562 77.8125 216.066406 77.292969 C 214.410156 76.773438 212.734375 76.25 211.042969 75.84375 C 209.5 75.476562 207.964844 75.085938 206.402344 74.777344 L 201.722656 73.96875 L 196.765625 73.296875 C 195.117188 73.058594 193.460938 72.953125 191.804688 72.777344 C 190.144531 72.601562 188.488281 72.503906 186.828125 72.421875 C 185.171875 72.34375 183.515625 72.210938 181.847656 72.238281 L 176.847656 72.238281 L 171.859375 72.539062 C 170.976562 72.582031 170.09375 72.679688 169.285156 72.785156 L 166.707031 73.085938 C 164.945312 73.253906 163.296875 73.578125 161.59375 73.851562 L 159.097656 74.277344 L 156.621094 74.8125 L 154.152344 75.351562 C 153.332031 75.554688 152.523438 75.792969 151.710938 76.011719 C 145.285156 77.789062 139.136719 80.265625 133.273438 83.4375 L 131.078125 84.640625 L 128.945312 85.953125 C 127.515625 86.835938 126.15625 87.761719 124.800781 88.722656 L 123.8125 89.417969 L 122.859375 90.167969 L 120.964844 91.660156 C 119.722656 92.683594 118.511719 93.75 117.3125 94.808594 C 115.074219 96.898438 112.90625 99.058594 110.921875 101.34375 C 108.777344 103.691406 106.796875 106.167969 104.871094 108.691406 C 102.949219 111.214844 101.089844 113.867188 99.351562 116.566406 C 98.4375 117.964844 97.554688 119.378906 96.707031 120.808594 C 96.285156 121.550781 95.828125 122.273438 95.464844 123.023438 C 95.128906 123.632812 94.847656 124.257812 94.582031 124.894531 C 94.46875 125.167969 94.371094 125.441406 94.265625 125.714844 C 94.097656 126.1875 93.949219 126.65625 93.832031 127.125 L 93.832031 127.203125 C 93.796875 127.320312 93.722656 127.390625 93.605469 127.414062 C 93.523438 127.414062 93.453125 127.34375 93.472656 127.222656 C 93.546875 126.683594 93.667969 126.160156 93.832031 125.640625 C 93.921875 125.332031 94 125.023438 94.105469 124.761719 C 94.214844 124.496094 94.320312 124.160156 94.441406 123.878906 C 94.566406 123.597656 94.699219 123.289062 94.832031 122.996094 C 95.097656 122.421875 95.390625 121.863281 95.710938 121.320312 C 96.054688 120.6875 96.425781 120.058594 96.804688 119.441406 C 98.09375 117.324219 99.449219 115.226562 100.816406 113.179688 C 103.734375 108.851562 106.929688 104.738281 110.394531 100.832031 L 110.296875 100.945312 C 111.617188 99.394531 113.039062 97.929688 114.449219 96.457031 C 116.726562 94.167969 119.128906 92.019531 121.660156 90.011719 C 122.289062 89.515625 122.90625 89.011719 123.546875 88.527344 L 125.503906 87.136719 C 126.792969 86.171875 128.152344 85.371094 129.535156 84.488281 C 130.917969 83.605469 132.601562 82.726562 134.136719 81.84375 C 135.671875 80.960938 137.3125 80.253906 138.898438 79.453125 C 140.484375 78.648438 142.019531 78.101562 143.589844 77.425781 L 148.394531 75.660156 C 150.019531 75.148438 151.648438 74.691406 153.28125 74.222656 C 154.910156 73.753906 156.59375 73.457031 158.253906 73.074219 C 161.640625 72.414062 165.042969 71.839844 168.464844 71.472656 C 169.285156 71.375 170.09375 71.257812 170.914062 71.179688 L 173.375 71.011719 C 175.023438 70.925781 176.664062 70.738281 178.304688 70.757812 L 183.390625 70.675781 L 188.453125 70.84375 C 190.117188 70.84375 191.792969 71.046875 193.46875 71.152344 L 195.972656 71.328125 L 198.476562 71.59375 C 201.722656 71.902344 204.957031 72.421875 208.175781 73.03125 Z M 208.847656 73.15625 " fill-opacity="1" fill-rule="nonzero"/><path fill="#112838" d="M 206.492188 173.058594 C 208.113281 172.46875 209.226562 175.210938 208.078125 176.515625 C 206.933594 177.820312 204.96875 177.875 203.238281 177.820312 L 197.121094 177.652344 C 195.816406 177.652344 194.238281 177.425781 193.671875 176.234375 C 192.84375 174.46875 195.054688 172.847656 196.925781 172.34375 C 200.03125 171.515625 203.179688 171.332031 206.359375 171.796875 M 176.929688 198.320312 C 177.0625 198.375 177.203125 198.402344 177.351562 198.398438 C 177.496094 198.394531 177.636719 198.359375 177.769531 198.296875 C 177.898438 198.230469 178.011719 198.144531 178.105469 198.03125 C 178.199219 197.917969 178.265625 197.789062 178.304688 197.648438 C 179.097656 195.203125 178.410156 192.082031 178.410156 189.542969 L 178.410156 179.179688 C 178.410156 176.011719 178.816406 172.527344 178.269531 169.40625 C 177.722656 166.285156 177.976562 162.675781 177.984375 159.351562 L 177.984375 159.070312 C 177.960938 158.800781 177.847656 158.574219 177.648438 158.390625 C 177.449219 158.207031 177.210938 158.117188 176.941406 158.117188 C 176.671875 158.117188 176.433594 158.207031 176.234375 158.390625 C 176.035156 158.574219 175.921875 158.800781 175.894531 159.070312 L 175.894531 159.371094 C 175.894531 165.710938 176.3125 172.054688 176.3125 178.394531 L 176.3125 185.398438 C 176.804688 187.65625 176.550781 190.273438 176.523438 192.453125 C 176.546875 192.980469 176.515625 193.503906 176.425781 194.023438 C 176.496094 194.75 176.496094 195.476562 176.425781 196.203125 C 176.609375 196.914062 176.726562 197.621094 176.929688 198.320312 Z M 253.082031 152.621094 L 253.039062 152.621094 C 252.890625 152.597656 252.738281 152.605469 252.589844 152.640625 C 252.445312 152.675781 252.308594 152.738281 252.183594 152.828125 C 252.0625 152.914062 251.960938 153.027344 251.878906 153.15625 C 251.800781 153.285156 251.75 153.425781 251.726562 153.574219 C 251.703125 153.726562 251.707031 153.875 251.742188 154.023438 C 251.777344 154.171875 251.839844 154.304688 251.929688 154.429688 C 252.019531 154.550781 252.128906 154.652344 252.257812 154.734375 C 252.386719 154.8125 252.527344 154.867188 252.675781 154.890625 C 253.625 155.039062 254.574219 155.058594 255.527344 154.941406 C 256.519531 154.875 257.382812 154.503906 258.117188 153.832031 C 258.863281 152.847656 259.230469 151.738281 259.21875 150.503906 L 259.722656 145.636719 C 259.710938 145.308594 259.804688 145.015625 260.003906 144.753906 C 260.308594 144.523438 260.648438 144.433594 261.027344 144.480469 L 269.378906 144.480469 C 269.570312 144.53125 269.765625 144.558594 269.964844 144.5625 C 270.167969 144.5625 270.363281 144.542969 270.558594 144.496094 C 270.75 144.453125 270.9375 144.382812 271.117188 144.292969 C 271.292969 144.203125 271.460938 144.09375 271.609375 143.964844 C 271.761719 143.835938 271.894531 143.6875 272.011719 143.527344 C 272.128906 143.363281 272.222656 143.191406 272.296875 143.003906 C 272.371094 142.820312 272.421875 142.628906 272.453125 142.429688 C 272.480469 142.234375 272.484375 142.035156 272.464844 141.835938 C 273.167969 136.242188 273.621094 130.628906 273.820312 124.988281 C 273.9375 124.015625 273.816406 123.074219 273.460938 122.160156 C 272.632812 120.394531 270.453125 119.910156 268.546875 119.714844 C 266.445312 119.492188 264.332031 119.425781 262.21875 119.511719 C 261.484375 119.484375 260.789062 119.632812 260.128906 119.953125 C 258.761719 120.746094 258.558594 122.601562 258.503906 124.160156 C 258.242188 132.203125 257.972656 140.25 257.695312 148.292969 C 257.753906 149.488281 257.527344 150.625 257.015625 151.707031 C 256.882812 151.964844 256.707031 152.195312 256.492188 152.394531 C 256.273438 152.59375 256.03125 152.75 255.761719 152.863281 C 255.488281 152.976562 255.207031 153.039062 254.914062 153.054688 C 254.621094 153.066406 254.332031 153.027344 254.054688 152.941406 Z M 253.082031 152.621094 " fill-opacity="1" fill-rule="nonzero"/></svg>