<svg xmlns="http://www.w3.org/2000/svg" xmlns:xlink="http://www.w3.org/1999/xlink" width="500" zoomAndPan="magnify" viewBox="0 0 375 374.999991" height="500" preserveAspectRatio="xMidYMid meet" version="1.0"><defs><clipPath id="a1770c886a"><path d="M 0 55.910156 L 375 55.910156 L 375 319.160156 L 0 319.160156 Z M 0 55.910156 " clip-rule="nonzero"/></clipPath></defs><path fill="#8ad4f0" d="M 374.34375 260.574219 C 374.34375 263.523438 371.933594 265.917969 368.984375 265.917969 L 240.703125 265.917969 L 240.703125 270.738281 C 240.703125 277.777344 235 283.484375 227.964844 283.484375 L 117.875 283.484375 C 112.640625 283.484375 107.757812 280.863281 104.867188 276.496094 C 97.214844 264.941406 79.480469 240.871094 51.460938 218.277344 C 49.527344 216.714844 48.449219 214.328125 48.550781 211.84375 C 48.96875 201.28125 55.007812 171.953125 103.480469 134.28125 C 104.636719 133.382812 106.066406 132.898438 107.527344 132.898438 L 117.476562 132.898438 C 118.277344 132.898438 118.851562 133.667969 118.632812 134.4375 L 114.652344 148.09375 C 112.90625 154.105469 111.574219 160.234375 110.695312 166.4375 C 106.71875 194.464844 99.394531 269.472656 134.851562 269.472656 L 184.066406 269.472656 C 200.105469 269.472656 213.109375 256.464844 213.109375 240.425781 L 213.109375 233.433594 C 213.109375 219.808594 206.308594 209.15625 195.128906 201.179688 C 192.53125 199.324219 189.058594 194.382812 189.058594 189.949219 L 189.058594 182.558594 L 213.109375 182.558594 L 278.898438 183.015625 L 279.589844 182.558594 L 333.867188 182.558594 C 334.859375 182.558594 335.5625 183.496094 335.296875 184.449219 C 334.625 186.832031 334.886719 191.382812 342.09375 197.671875 C 361.636719 211.734375 374.347656 234.675781 374.34375 260.574219 " fill-opacity="1" fill-rule="nonzero"/><g clip-path="url(#a1770c886a)"><path fill="#3e3b39" d="M 138.945312 56.015625 L 133.972656 57.699219 C 133.730469 57.78125 133.566406 58.007812 133.566406 58.265625 L 133.566406 64.871094 L 131.503906 64.871094 C 129.523438 64.871094 127.789062 66.140625 127.195312 68.007812 L 118.527344 93.875 C 118.527344 93.875 118.285156 95.816406 120.578125 95.816406 L 129.636719 68.808594 C 129.894531 67.988281 130.648438 67.4375 131.503906 67.4375 L 133.566406 67.4375 L 133.566406 74.046875 C 133.566406 74.300781 133.730469 74.527344 133.972656 74.613281 L 138.945312 76.292969 C 139.332031 76.425781 139.730469 76.136719 139.730469 75.730469 L 139.730469 56.582031 C 139.730469 56.175781 139.332031 55.882812 138.945312 56.015625 Z M 293.453125 229 C 268.558594 229 248.382812 249.183594 248.382812 274.082031 C 248.382812 298.980469 268.558594 319.164062 293.453125 319.164062 C 318.347656 319.164062 338.523438 298.980469 338.523438 274.082031 C 338.523438 249.183594 318.347656 229 293.453125 229 Z M 45.957031 229 C 21.066406 229 0.886719 249.183594 0.886719 274.082031 C 0.886719 298.980469 21.066406 319.164062 45.957031 319.164062 C 70.851562 319.164062 91.03125 298.980469 91.03125 274.082031 C 91.03125 249.183594 70.851562 229 45.957031 229 Z M 316.601562 146.40625 C 247.210938 164.347656 236.199219 161.457031 208.164062 161.457031 C 197.613281 161.457031 189.058594 170.015625 189.058594 180.570312 C 189.058594 181.664062 189.949219 182.558594 191.042969 182.558594 L 333.71875 182.558594 C 334.816406 182.558594 335.707031 181.664062 335.707031 180.570312 C 335.707031 170.015625 326.816406 143.761719 316.601562 146.40625 Z M 136.199219 106.082031 L 126.4375 100.882812 C 125.84375 100.421875 125.167969 100.046875 124.414062 99.804688 C 120.894531 98.65625 117.109375 100.582031 115.960938 104.101562 C 114.8125 107.625 116.738281 111.410156 120.261719 112.558594 C 121.015625 112.804688 121.78125 112.902344 122.527344 112.878906 L 133.480469 114.425781 C 134.546875 114.773438 136.019531 113.1875 136.773438 110.882812 C 137.523438 108.582031 137.265625 106.429688 136.199219 106.082031 Z M 374.933594 224.257812 L 374.933594 240.144531 C 374.933594 241.757812 373.914062 243.121094 372.484375 243.648438 C 370.640625 235.359375 367.464844 227.570312 363.195312 220.511719 L 371.1875 220.511719 C 373.257812 220.511719 374.933594 222.191406 374.933594 224.257812 " fill-opacity="1" fill-rule="nonzero"/></g><path fill="#a0e0f3" d="M 122.203125 90.976562 L 120.578125 95.816406 C 118.285156 95.816406 118.527344 93.875 118.527344 93.875 L 119.65625 90.5 C 119.449219 90.488281 119.246094 90.464844 119.035156 90.464844 L 98.980469 90.464844 L 98.980469 117.421875 L 102.472656 117.421875 C 105.21875 117.421875 107.179688 120.089844 106.359375 122.714844 L 103.792969 130.882812 C 103.480469 131.882812 104.222656 132.898438 105.269531 132.898438 L 117.425781 132.898438 C 118.675781 132.898438 119.78125 132.085938 120.152344 130.898438 L 125.671875 113.324219 L 122.53125 112.878906 C 121.78125 112.902344 121.015625 112.804688 120.261719 112.558594 C 116.738281 111.410156 114.8125 107.625 115.960938 104.101562 C 117.109375 100.582031 120.894531 98.65625 124.414062 99.804688 C 125.167969 100.046875 125.84375 100.421875 126.4375 100.882812 L 129.035156 102.265625 C 129.875 97.273438 126.855469 92.5 122.203125 90.976562 Z M 246.539062 271.660156 L 359.800781 271.660156 C 362.417969 271.660156 364.535156 269.539062 364.535156 266.925781 C 364.535156 229.359375 326.710938 192.75 279.898438 192.75 C 249.523438 192.75 224.902344 217.378906 224.902344 247.757812 L 224.902344 260.585938 C 224.902344 266.699219 229.859375 271.660156 235.972656 271.660156 Z M 85.785156 279.691406 C 91.699219 282.144531 98.300781 277.859375 98.316406 271.457031 C 98.316406 271.410156 98.316406 271.367188 98.316406 271.324219 C 98.316406 241.734375 74.339844 217.746094 44.757812 217.746094 C 27.152344 217.746094 11.542969 226.246094 1.78125 239.355469 C 0.0273438 241.714844 0.953125 245.089844 3.675781 246.1875 C 22.519531 253.804688 58.898438 268.550781 85.785156 279.691406 Z M 101.007812 142.972656 C 56.804688 177.328125 51.296875 204.074219 50.917969 213.707031 C 50.917969 213.707031 65.542969 212.179688 75.269531 224.304688 C 75.269531 224.304688 67.28125 187.917969 101.007812 142.972656 Z M 144.246094 108.703125 L 141.53125 117.050781 L 133.492188 114.433594 C 132.425781 114.085938 132.167969 111.933594 132.921875 109.628906 C 133.671875 107.324219 135.144531 105.738281 136.210938 106.085938 L 144.246094 108.703125 " fill-opacity="1" fill-rule="nonzero"/><path fill="#d1f0f8" d="M 9.824219 238.460938 C 18.539062 230.753906 40.703125 214.667969 64.292969 225.296875 C 64.292969 225.296875 41.742188 230.855469 28.507812 246.207031 C 27.035156 247.910156 24.667969 248.535156 22.535156 247.8125 L 10.917969 243.882812 C 8.59375 243.09375 7.980469 240.085938 9.824219 238.460938 Z M 284.773438 201.777344 C 284.089844 201.167969 284.511719 200.035156 285.429688 200.035156 C 326.566406 200.035156 357.953125 228.109375 357.953125 261.117188 C 358 263.367188 356.1875 265.214844 353.9375 265.214844 L 331.457031 265.214844 C 329.191406 265.214844 327.195312 263.753906 326.484375 261.605469 C 323.402344 252.222656 312.089844 226.117188 284.773438 201.777344 Z M 140.40625 56.007812 C 145.707031 56.351562 149.898438 60.765625 149.898438 66.15625 C 149.898438 71.546875 145.707031 75.957031 140.40625 76.304688 C 140.046875 76.328125 139.730469 76.046875 139.730469 75.683594 L 139.730469 56.628906 C 139.730469 56.261719 140.046875 55.984375 140.40625 56.007812 Z M 98.980469 90.464844 C 93.550781 90.464844 89.148438 94.867188 89.148438 100.300781 L 89.148438 107.585938 C 89.148438 113.019531 93.550781 117.421875 98.980469 117.421875 C 100.242188 117.421875 101.269531 111.382812 101.269531 103.941406 C 101.269531 96.5 100.242188 90.464844 98.980469 90.464844 Z M 144.820312 113.507812 C 144.070312 115.808594 142.597656 117.398438 141.53125 117.050781 C 140.464844 116.703125 140.207031 114.550781 140.957031 112.25 C 141.707031 109.941406 143.179688 108.355469 144.246094 108.703125 C 145.3125 109.050781 145.570312 111.203125 144.820312 113.507812 " fill-opacity="1" fill-rule="nonzero"/><path fill="#ffffff" d="M 90.941406 113.230469 L 101.230469 101.484375 C 101.253906 102.28125 101.269531 103.101562 101.269531 103.941406 C 101.269531 104.585938 101.257812 105.210938 101.242188 105.832031 L 92.929688 115.324219 C 92.167969 114.726562 91.496094 114.023438 90.941406 113.230469 Z M 100.929688 96.914062 L 89.464844 110.011719 C 89.265625 109.234375 89.148438 108.421875 89.148438 107.585938 L 89.148438 103.011719 L 99.640625 91.035156 C 100.183594 91.996094 100.636719 94.121094 100.929688 96.914062 Z M 325.328125 271.660156 C 325.386719 272.460938 325.425781 273.265625 325.425781 274.082031 C 325.425781 291.75 311.113281 306.066406 293.453125 306.066406 C 275.792969 306.066406 261.476562 291.75 261.476562 274.082031 C 261.476562 273.265625 261.515625 272.460938 261.578125 271.660156 L 269.585938 271.660156 C 269.507812 272.453125 269.460938 273.265625 269.460938 274.082031 C 269.460938 287.316406 280.226562 298.078125 293.453125 298.078125 C 306.679688 298.078125 317.441406 287.316406 317.441406 274.082031 C 317.441406 273.265625 317.398438 272.453125 317.316406 271.660156 Z M 314.730469 271.660156 C 314.820312 272.453125 314.875 273.265625 314.875 274.082031 C 314.875 285.898438 305.261719 295.511719 293.453125 295.511719 C 281.640625 295.511719 272.03125 285.898438 272.03125 274.082031 C 272.03125 273.265625 272.082031 272.453125 272.171875 271.660156 Z M 77.894531 275.621094 C 77.09375 292.570312 63.101562 306.066406 45.957031 306.066406 C 28.296875 306.066406 13.980469 291.75 13.980469 274.082031 C 13.980469 265.925781 17.042969 258.484375 22.066406 252.835938 C 24.648438 253.882812 27.335938 254.972656 30.105469 256.097656 C 25.121094 260.496094 21.96875 266.925781 21.96875 274.082031 C 21.96875 287.316406 32.730469 298.078125 45.957031 298.078125 C 59.1875 298.078125 69.945312 287.316406 69.945312 274.082031 C 69.945312 273.488281 69.917969 272.90625 69.875 272.324219 C 72.589844 273.4375 75.269531 274.535156 77.894531 275.621094 Z M 32.800781 257.191406 C 27.777344 261.117188 24.539062 267.226562 24.539062 274.082031 C 24.539062 285.898438 34.148438 295.511719 45.957031 295.511719 C 57.769531 295.511719 67.378906 285.898438 67.378906 274.082031 C 67.378906 273.109375 67.308594 272.15625 67.183594 271.21875 C 55.652344 266.488281 43.679688 261.609375 32.800781 257.191406 Z M 139.730469 75.683594 C 139.730469 76.046875 140.046875 76.328125 140.40625 76.304688 C 140.683594 76.285156 140.960938 76.25 141.234375 76.207031 L 149.894531 66.320312 C 149.894531 66.265625 149.898438 66.210938 149.898438 66.15625 C 149.898438 65.070312 149.722656 64.035156 149.410156 63.054688 L 139.730469 74.105469 Z M 139.730469 64.351562 L 145.484375 57.777344 C 146.84375 58.714844 147.960938 59.960938 148.734375 61.425781 L 139.730469 71.707031 L 139.730469 64.351562 " fill-opacity="1" fill-rule="nonzero"/></svg>